<?xml version="1.0"?>
<!-- Generated by SVGo -->
<svg width="343.688mm" height="119.850mm"
     viewBox="0.000 0.000 343.688 119.850"
     xmlns="http://www.w3.org/2000/svg" 
     xmlns:xlink="http://www.w3.org/1999/xlink">
<polygon points="338.688,114.850 5.000,114.850 5.000,5.000 166.943,5.000 166.943,10.400 10.399,10.400 10.399,109.450 333.288,109.450 333.288,10.400 176.743,10.400 176.743,5.000 338.688,5.000" style="fill:none;stroke-width:0.050000mm;stroke:black"/>
<polygon points="335.524,110.724 335.106,110.937 334.774,111.269 334.561,111.687 334.488,112.151 334.561,112.614 334.774,113.032 335.106,113.364 335.524,113.577 335.988,113.651 336.452,113.577 336.870,113.364 337.202,113.032 337.415,112.614 337.488,112.151 337.415,111.687 337.202,111.269 336.870,110.937 336.452,110.724 335.988,110.651" style="fill:none;stroke-width:0.050000mm;stroke:black"/>
<polygon points="226.095,110.724 225.677,110.937 225.345,111.269 225.132,111.687 225.059,112.151 225.132,112.614 225.345,113.032 225.677,113.364 226.095,113.577 226.559,113.651 227.022,113.577 227.440,113.364 227.772,113.032 227.985,112.614 228.059,112.151 227.985,111.687 227.772,111.269 227.440,110.937 227.022,110.724 226.559,110.651" style="fill:none;stroke-width:0.050000mm;stroke:black"/>
<polygon points="116.665,110.724 116.247,110.937 115.915,111.269 115.702,111.687 115.629,112.151 115.702,112.614 115.915,113.032 116.247,113.364 116.665,113.577 117.129,113.651 117.593,113.577 118.011,113.364 118.343,113.032 118.556,112.614 118.629,112.151 118.556,111.687 118.343,111.269 118.011,110.937 117.593,110.724 117.129,110.651" style="fill:none;stroke-width:0.050000mm;stroke:black"/>
<polygon points="7.236,110.724 6.818,110.937 6.486,111.269 6.273,111.687 6.200,112.151 6.273,112.614 6.486,113.032 6.818,113.364 7.236,113.577 7.700,113.651 8.163,113.577 8.581,113.364 8.913,113.032 9.126,112.614 9.200,112.151 9.126,111.687 8.913,111.269 8.581,110.937 8.163,110.724 7.700,110.651" style="fill:none;stroke-width:0.050000mm;stroke:black"/>
<polygon points="116.665,6.273 116.247,6.486 115.915,6.818 115.702,7.236 115.629,7.699 115.702,8.163 115.915,8.581 116.247,8.913 116.665,9.126 117.129,9.200 117.593,9.126 118.011,8.913 118.343,8.581 118.556,8.163 118.629,7.699 118.556,7.236 118.343,6.818 118.011,6.486 117.593,6.273 117.129,6.199" style="fill:none;stroke-width:0.050000mm;stroke:black"/>
<polygon points="226.095,6.273 225.677,6.486 225.345,6.818 225.132,7.236 225.059,7.699 225.132,8.163 225.345,8.581 225.677,8.913 226.095,9.126 226.559,9.200 227.022,9.126 227.440,8.913 227.772,8.581 227.985,8.163 228.059,7.699 227.985,7.236 227.772,6.818 227.440,6.486 227.022,6.273 226.559,6.199" style="fill:none;stroke-width:0.050000mm;stroke:black"/>
<polygon points="335.524,6.273 335.106,6.486 334.774,6.818 334.561,7.236 334.488,7.699 334.561,8.163 334.774,8.581 335.106,8.913 335.524,9.126 335.988,9.200 336.452,9.126 336.870,8.913 337.202,8.581 337.415,8.163 337.488,7.699 337.415,7.236 337.202,6.818 336.870,6.486 336.452,6.273 335.988,6.199" style="fill:none;stroke-width:0.050000mm;stroke:black"/>
<polygon points="7.236,6.273 6.818,6.486 6.486,6.818 6.273,7.236 6.200,7.700 6.273,8.163 6.486,8.581 6.818,8.913 7.236,9.126 7.700,9.200 8.163,9.126 8.581,8.913 8.913,8.581 9.126,8.163 9.200,7.700 9.126,7.236 8.913,6.818 8.581,6.486 8.163,6.273 7.700,6.200" style="fill:none;stroke-width:0.050000mm;stroke:black"/>
</svg>
