  0
SECTION
  2
HEADER
  9
$ANGBASE
  50
0.0
  9
$ANGDIR
  70
  1
  9
$MEASUREMENT
  70
0
  0
ENDSEC
  0
SECTION
  2
TABLES
  0
TABLE
  2
LTYPE
  70
4
  0
LTYPE
  5
40F
  2
CONTINUOUS
  70
0
  3
Solid line
  72
65
  73
0
  40
0.0
  0
LTYPE
  5
410
  2
DASHDOT
 70
0
  3
Dash Dot ____ _ ____ _
 72
65
 73
4
 40
2.0
 49
1.25
 49
-0.25
 49
0.25
 49
-0.25
  0
LTYPE
  5
411
  2
DASHED
 70
0
  3
Dashed __ __ __ __ __
 72
65
 73
2
 40
0.75
 49
0.5
 49
-0.25
  0
LTYPE
  5
43B
  2
DOTTED
 70
0
  3
Dotted .  .  .  .
 72
65
 73
2
 40
0.2
 49
0.0
 49
-0.2
  0
ENDTAB
  0
TABLE
  2
STYLE
  70
4
  0
STYLE
  2
KICAD
  70
0
  40
0
  41
1
  42
1
  50
0
  71
0
  3
isocp.shx
  0
STYLE
  2
KICADB
  70
0
  40
0
  41
1
  42
1
  50
0
  71
0
  3
isocp.shx
  0
STYLE
  2
KICADI
  70
0
  40
0
  41
1
  42
1
  50
15
  71
0
  3
isocp.shx
  0
STYLE
  2
KICADBI
  70
0
  40
0
  41
1
  42
1
  50
15
  71
0
  3
isocp.shx
  0
ENDTAB
  0
TABLE
  2
LAYER
  70
30
  0
LAYER
  2
BLACK
  70
0
  62
7
  6
CONTINUOUS
  0
LAYER
  2
GRAY1
  70
0
  62
251
  6
CONTINUOUS
  0
LAYER
  2
GRAY2
  70
0
  62
8
  6
CONTINUOUS
  0
LAYER
  2
GRAY3
  70
0
  62
9
  6
CONTINUOUS
  0
LAYER
  2
WHITE
  70
0
  62
7
  6
CONTINUOUS
  0
LAYER
  2
LYELLOW
  70
0
  62
51
  6
CONTINUOUS
  0
LAYER
  2
BLUE1
  70
0
  62
178
  6
CONTINUOUS
  0
LAYER
  2
GREEN1
  70
0
  62
98
  6
CONTINUOUS
  0
LAYER
  2
CYAN1
  70
0
  62
138
  6
CONTINUOUS
  0
LAYER
  2
RED1
  70
0
  62
18
  6
CONTINUOUS
  0
LAYER
  2
MAGENTA1
  70
0
  62
228
  6
CONTINUOUS
  0
LAYER
  2
BROWN1
  70
0
  62
58
  6
CONTINUOUS
  0
LAYER
  2
BLUE2
  70
0
  62
5
  6
CONTINUOUS
  0
LAYER
  2
GREEN2
  70
0
  62
3
  6
CONTINUOUS
  0
LAYER
  2
CYAN2
  70
0
  62
4
  6
CONTINUOUS
  0
LAYER
  2
RED2
  70
0
  62
1
  6
CONTINUOUS
  0
LAYER
  2
MAGENTA2
  70
0
  62
6
  6
CONTINUOUS
  0
LAYER
  2
BROWN2
  70
0
  62
54
  6
CONTINUOUS
  0
LAYER
  2
BLUE3
  70
0
  62
171
  6
CONTINUOUS
  0
LAYER
  2
GREEN3
  70
0
  62
91
  6
CONTINUOUS
  0
LAYER
  2
CYAN3
  70
0
  62
131
  6
CONTINUOUS
  0
LAYER
  2
RED3
  70
0
  62
11
  6
CONTINUOUS
  0
LAYER
  2
MAGENTA3
  70
0
  62
221
  6
CONTINUOUS
  0
LAYER
  2
YELLOW3
  70
0
  62
2
  6
CONTINUOUS
  0
LAYER
  2
BLUE4
  70
0
  62
5
  6
CONTINUOUS
  0
LAYER
  2
GREEN4
  70
0
  62
3
  6
CONTINUOUS
  0
LAYER
  2
CYAN4
  70
0
  62
4
  6
CONTINUOUS
  0
LAYER
  2
RED4
  70
0
  62
1
  6
CONTINUOUS
  0
LAYER
  2
MAGENTA4
  70
0
  62
6
  6
CONTINUOUS
  0
LAYER
  2
YELLOW4
  70
0
  62
2
  6
CONTINUOUS
  0
ENDTAB
  0
ENDSEC
  0
SECTION
  2
ENTITIES
0
LINE
8
BLACK
6
CONTINUOUS
10
26.1913
20
-146.869
11
26.1913
21
-146.869
0
LINE
8
BLACK
6
CONTINUOUS
10
26.1913
20
-146.869
11
25.7288
21
-146.823
0
LINE
8
BLACK
6
CONTINUOUS
10
25.7288
20
-146.823
11
25.7284
21
-146.823
0
LINE
8
BLACK
6
CONTINUOUS
10
25.7284
20
-146.823
11
25.7262
21
-146.823
0
LINE
8
BLACK
6
CONTINUOUS
10
25.7262
20
-146.823
11
25.724
21
-146.822
0
LINE
8
BLACK
6
CONTINUOUS
10
25.724
20
-146.822
11
25.2791
21
-146.688
0
LINE
8
BLACK
6
CONTINUOUS
10
25.2791
20
-146.688
11
25.2788
21
-146.688
0
LINE
8
BLACK
6
CONTINUOUS
10
25.2788
20
-146.688
11
25.2767
21
-146.687
0
LINE
8
BLACK
6
CONTINUOUS
10
25.2767
20
-146.687
11
25.2746
21
-146.686
0
LINE
8
BLACK
6
CONTINUOUS
10
25.2746
20
-146.686
11
24.8642
21
-146.468
0
LINE
8
BLACK
6
CONTINUOUS
10
24.8642
20
-146.468
11
24.8639
21
-146.468
0
LINE
8
BLACK
6
CONTINUOUS
10
24.8639
20
-146.468
11
24.8621
21
-146.467
0
LINE
8
BLACK
6
CONTINUOUS
10
24.8621
20
-146.467
11
24.8602
21
-146.465
0
LINE
8
BLACK
6
CONTINUOUS
10
24.8602
20
-146.465
11
24.5
21
-146.172
0
LINE
8
BLACK
6
CONTINUOUS
10
24.5
20
-146.172
11
24.4998
21
-146.171
0
LINE
8
BLACK
6
CONTINUOUS
10
24.4998
20
-146.171
11
24.4982
21
-146.17
0
LINE
8
BLACK
6
CONTINUOUS
10
24.4982
20
-146.17
11
24.4966
21
-146.168
0
LINE
8
BLACK
6
CONTINUOUS
10
24.4966
20
-146.168
11
24.2003
21
-145.81
0
LINE
8
BLACK
6
CONTINUOUS
10
24.2003
20
-145.81
11
24.2001
21
-145.81
0
LINE
8
BLACK
6
CONTINUOUS
10
24.2001
20
-145.81
11
24.1989
21
-145.808
0
LINE
8
BLACK
6
CONTINUOUS
10
24.1989
20
-145.808
11
24.1976
21
-145.806
0
LINE
8
BLACK
6
CONTINUOUS
10
24.1976
20
-145.806
11
23.9766
21
-145.397
0
LINE
8
BLACK
6
CONTINUOUS
10
23.9766
20
-145.397
11
23.9764
21
-145.397
0
LINE
8
BLACK
6
CONTINUOUS
10
23.9764
20
-145.397
11
23.9756
21
-145.395
0
LINE
8
BLACK
6
CONTINUOUS
10
23.9756
20
-145.395
11
23.9747
21
-145.393
0
LINE
8
BLACK
6
CONTINUOUS
10
23.9747
20
-145.393
11
23.8373
21
-144.949
0
LINE
8
BLACK
6
CONTINUOUS
10
23.8373
20
-144.949
11
23.8372
21
-144.948
0
LINE
8
BLACK
6
CONTINUOUS
10
23.8372
20
-144.948
11
23.8367
21
-144.946
0
LINE
8
BLACK
6
CONTINUOUS
10
23.8367
20
-144.946
11
23.8363
21
-144.944
0
LINE
8
BLACK
6
CONTINUOUS
10
23.8363
20
-144.944
11
23.7877
21
-144.482
0
LINE
8
BLACK
6
CONTINUOUS
10
23.7877
20
-144.482
11
23.7877
21
-144.481
0
LINE
8
BLACK
6
CONTINUOUS
10
23.7877
20
-144.481
11
23.7877
21
-144.48
0
LINE
8
BLACK
6
CONTINUOUS
10
23.7877
20
-144.48
11
23.7876
21
-144.479
0
LINE
8
BLACK
6
CONTINUOUS
10
23.7876
20
-144.479
11
23.7875
21
-144.464
0
LINE
8
BLACK
6
CONTINUOUS
10
23.7875
20
-144.464
11
23.7875
21
-144.464
0
LINE
8
BLACK
6
CONTINUOUS
10
23.7875
20
-144.464
11
23.7875
21
-144.463
0
LINE
8
BLACK
6
CONTINUOUS
10
23.7875
20
-144.463
11
23.7875
21
-144.463
0
LINE
8
BLACK
6
CONTINUOUS
10
23.7875
20
-144.463
11
23.7875
21
-144.462
0
LINE
8
BLACK
6
CONTINUOUS
10
23.7875
20
-144.462
11
23.7875
21
-49.2113
0
LINE
8
BLACK
6
CONTINUOUS
10
23.7875
20
-49.2113
11
23.7876
21
-49.2101
0
LINE
8
BLACK
6
CONTINUOUS
10
23.7876
20
-49.2101
11
23.7876
21
-49.2101
0
LINE
8
BLACK
6
CONTINUOUS
10
23.7876
20
-49.2101
11
23.833
21
-48.7475
0
LINE
8
BLACK
6
CONTINUOUS
10
23.833
20
-48.7475
11
23.833
21
-48.7472
0
LINE
8
BLACK
6
CONTINUOUS
10
23.833
20
-48.7472
11
23.8335
21
-48.7449
0
LINE
8
BLACK
6
CONTINUOUS
10
23.8335
20
-48.7449
11
23.8339
21
-48.7428
0
LINE
8
BLACK
6
CONTINUOUS
10
23.8339
20
-48.7428
11
23.9682
21
-48.2978
0
LINE
8
BLACK
6
CONTINUOUS
10
23.9682
20
-48.2978
11
23.9683
21
-48.2975
0
LINE
8
BLACK
6
CONTINUOUS
10
23.9683
20
-48.2975
11
23.9692
21
-48.2954
0
LINE
8
BLACK
6
CONTINUOUS
10
23.9692
20
-48.2954
11
23.9701
21
-48.2933
0
LINE
8
BLACK
6
CONTINUOUS
10
23.9701
20
-48.2933
11
24.1883
21
-47.883
0
LINE
8
BLACK
6
CONTINUOUS
10
24.1883
20
-47.883
11
24.1883
21
-47.883
0
LINE
8
BLACK
6
CONTINUOUS
10
24.1883
20
-47.883
11
24.1883
21
-47.883
0
LINE
8
BLACK
6
CONTINUOUS
10
24.1883
20
-47.883
11
24.1884
21
-47.8827
0
LINE
8
BLACK
6
CONTINUOUS
10
24.1884
20
-47.8827
11
24.1897
21
-47.8808
0
LINE
8
BLACK
6
CONTINUOUS
10
24.1897
20
-47.8808
11
24.191
21
-47.8789
0
LINE
8
BLACK
6
CONTINUOUS
10
24.191
20
-47.8789
11
24.4847
21
-47.5188
0
LINE
8
BLACK
6
CONTINUOUS
10
24.4847
20
-47.5188
11
24.4847
21
-47.5188
0
LINE
8
BLACK
6
CONTINUOUS
10
24.4847
20
-47.5188
11
24.4847
21
-47.5188
0
LINE
8
BLACK
6
CONTINUOUS
10
24.4847
20
-47.5188
11
24.4849
21
-47.5185
0
LINE
8
BLACK
6
CONTINUOUS
10
24.4849
20
-47.5185
11
24.4865
21
-47.5169
0
LINE
8
BLACK
6
CONTINUOUS
10
24.4865
20
-47.5169
11
24.4881
21
-47.5153
0
LINE
8
BLACK
6
CONTINUOUS
10
24.4881
20
-47.5153
11
24.8462
21
-47.2191
0
LINE
8
BLACK
6
CONTINUOUS
10
24.8462
20
-47.2191
11
24.8462
21
-47.2191
0
LINE
8
BLACK
6
CONTINUOUS
10
24.8462
20
-47.2191
11
24.8462
21
-47.2191
0
LINE
8
BLACK
6
CONTINUOUS
10
24.8462
20
-47.2191
11
24.8465
21
-47.2189
0
LINE
8
BLACK
6
CONTINUOUS
10
24.8465
20
-47.2189
11
24.8484
21
-47.2176
0
LINE
8
BLACK
6
CONTINUOUS
10
24.8484
20
-47.2176
11
24.8503
21
-47.2164
0
LINE
8
BLACK
6
CONTINUOUS
10
24.8503
20
-47.2164
11
25.2591
21
-46.9953
0
LINE
8
BLACK
6
CONTINUOUS
10
25.2591
20
-46.9953
11
25.2594
21
-46.9952
0
LINE
8
BLACK
6
CONTINUOUS
10
25.2594
20
-46.9952
11
25.2615
21
-46.9943
0
LINE
8
BLACK
6
CONTINUOUS
10
25.2615
20
-46.9943
11
25.2636
21
-46.9934
0
LINE
8
BLACK
6
CONTINUOUS
10
25.2636
20
-46.9934
11
25.7075
21
-46.856
0
LINE
8
BLACK
6
CONTINUOUS
10
25.7075
20
-46.856
11
25.7079
21
-46.8559
0
LINE
8
BLACK
6
CONTINUOUS
10
25.7079
20
-46.8559
11
25.7101
21
-46.8555
0
LINE
8
BLACK
6
CONTINUOUS
10
25.7101
20
-46.8555
11
25.7123
21
-46.855
0
LINE
8
BLACK
6
CONTINUOUS
10
25.7123
20
-46.855
11
26.1745
21
-46.8064
0
LINE
8
BLACK
6
CONTINUOUS
10
26.1745
20
-46.8064
11
26.1749
21
-46.8064
0
LINE
8
BLACK
6
CONTINUOUS
10
26.1749
20
-46.8064
11
26.176
21
-46.8064
0
LINE
8
BLACK
6
CONTINUOUS
10
26.176
20
-46.8064
11
26.177
21
-46.8063
0
LINE
8
BLACK
6
CONTINUOUS
10
26.177
20
-46.8063
11
26.1925
21
-46.8063
0
LINE
8
BLACK
6
CONTINUOUS
10
26.1925
20
-46.8063
11
26.1925
21
-46.8062
0
LINE
8
BLACK
6
CONTINUOUS
10
26.1925
20
-46.8062
11
350.045
21
-46.8062
0
LINE
8
BLACK
6
CONTINUOUS
10
350.045
20
-46.8062
11
350.046
21
-46.8064
0
LINE
8
BLACK
6
CONTINUOUS
10
350.046
20
-46.8064
11
350.046
21
-46.8064
0
LINE
8
BLACK
6
CONTINUOUS
10
350.046
20
-46.8064
11
350.509
21
-46.8517
0
LINE
8
BLACK
6
CONTINUOUS
10
350.509
20
-46.8517
11
350.509
21
-46.8518
0
LINE
8
BLACK
6
CONTINUOUS
10
350.509
20
-46.8518
11
350.511
21
-46.8522
0
LINE
8
BLACK
6
CONTINUOUS
10
350.511
20
-46.8522
11
350.513
21
-46.8527
0
LINE
8
BLACK
6
CONTINUOUS
10
350.513
20
-46.8527
11
350.958
21
-46.987
0
LINE
8
BLACK
6
CONTINUOUS
10
350.958
20
-46.987
11
350.959
21
-46.9871
0
LINE
8
BLACK
6
CONTINUOUS
10
350.959
20
-46.9871
11
350.961
21
-46.988
0
LINE
8
BLACK
6
CONTINUOUS
10
350.961
20
-46.988
11
350.963
21
-46.9889
0
LINE
8
BLACK
6
CONTINUOUS
10
350.963
20
-46.9889
11
351.373
21
-47.207
0
LINE
8
BLACK
6
CONTINUOUS
10
351.373
20
-47.207
11
351.373
21
-47.207
0
LINE
8
BLACK
6
CONTINUOUS
10
351.373
20
-47.207
11
351.373
21
-47.207
0
LINE
8
BLACK
6
CONTINUOUS
10
351.373
20
-47.207
11
351.374
21
-47.2072
0
LINE
8
BLACK
6
CONTINUOUS
10
351.374
20
-47.2072
11
351.375
21
-47.2085
0
LINE
8
BLACK
6
CONTINUOUS
10
351.375
20
-47.2085
11
351.377
21
-47.2097
0
LINE
8
BLACK
6
CONTINUOUS
10
351.377
20
-47.2097
11
351.737
21
-47.5035
0
LINE
8
BLACK
6
CONTINUOUS
10
351.737
20
-47.5035
11
351.737
21
-47.5035
0
LINE
8
BLACK
6
CONTINUOUS
10
351.737
20
-47.5035
11
351.737
21
-47.5035
0
LINE
8
BLACK
6
CONTINUOUS
10
351.737
20
-47.5035
11
351.738
21
-47.5037
0
LINE
8
BLACK
6
CONTINUOUS
10
351.738
20
-47.5037
11
351.739
21
-47.5053
0
LINE
8
BLACK
6
CONTINUOUS
10
351.739
20
-47.5053
11
351.741
21
-47.5069
0
LINE
8
BLACK
6
CONTINUOUS
10
351.741
20
-47.5069
11
352.037
21
-47.865
0
LINE
8
BLACK
6
CONTINUOUS
10
352.037
20
-47.865
11
352.037
21
-47.865
0
LINE
8
BLACK
6
CONTINUOUS
10
352.037
20
-47.865
11
352.037
21
-47.865
0
LINE
8
BLACK
6
CONTINUOUS
10
352.037
20
-47.865
11
352.037
21
-47.8653
0
LINE
8
BLACK
6
CONTINUOUS
10
352.037
20
-47.8653
11
352.039
21
-47.8672
0
LINE
8
BLACK
6
CONTINUOUS
10
352.039
20
-47.8672
11
352.04
21
-47.869
0
LINE
8
BLACK
6
CONTINUOUS
10
352.04
20
-47.869
11
352.261
21
-48.2778
0
LINE
8
BLACK
6
CONTINUOUS
10
352.261
20
-48.2778
11
352.261
21
-48.2781
0
LINE
8
BLACK
6
CONTINUOUS
10
352.261
20
-48.2781
11
352.262
21
-48.2802
0
LINE
8
BLACK
6
CONTINUOUS
10
352.262
20
-48.2802
11
352.263
21
-48.2823
0
LINE
8
BLACK
6
CONTINUOUS
10
352.263
20
-48.2823
11
352.4
21
-48.7263
0
LINE
8
BLACK
6
CONTINUOUS
10
352.4
20
-48.7263
11
352.4
21
-48.7266
0
LINE
8
BLACK
6
CONTINUOUS
10
352.4
20
-48.7266
11
352.401
21
-48.7289
0
LINE
8
BLACK
6
CONTINUOUS
10
352.401
20
-48.7289
11
352.401
21
-48.7311
0
LINE
8
BLACK
6
CONTINUOUS
10
352.401
20
-48.7311
11
352.45
21
-49.1933
0
LINE
8
BLACK
6
CONTINUOUS
10
352.45
20
-49.1933
11
352.45
21
-49.1936
0
LINE
8
BLACK
6
CONTINUOUS
10
352.45
20
-49.1936
11
352.45
21
-49.1947
0
LINE
8
BLACK
6
CONTINUOUS
10
352.45
20
-49.1947
11
352.45
21
-49.1958
0
LINE
8
BLACK
6
CONTINUOUS
10
352.45
20
-49.1958
11
352.45
21
-49.2112
0
LINE
8
BLACK
6
CONTINUOUS
10
352.45
20
-49.2112
11
352.45
21
-49.2113
0
LINE
8
BLACK
6
CONTINUOUS
10
352.45
20
-49.2113
11
352.45
21
-144.464
0
LINE
8
BLACK
6
CONTINUOUS
10
352.45
20
-144.464
11
352.45
21
-144.465
0
LINE
8
BLACK
6
CONTINUOUS
10
352.45
20
-144.465
11
352.45
21
-144.465
0
LINE
8
BLACK
6
CONTINUOUS
10
352.45
20
-144.465
11
352.405
21
-144.927
0
LINE
8
BLACK
6
CONTINUOUS
10
352.405
20
-144.927
11
352.404
21
-144.928
0
LINE
8
BLACK
6
CONTINUOUS
10
352.404
20
-144.928
11
352.404
21
-144.93
0
LINE
8
BLACK
6
CONTINUOUS
10
352.404
20
-144.93
11
352.404
21
-144.932
0
LINE
8
BLACK
6
CONTINUOUS
10
352.404
20
-144.932
11
352.269
21
-145.377
0
LINE
8
BLACK
6
CONTINUOUS
10
352.269
20
-145.377
11
352.269
21
-145.377
0
LINE
8
BLACK
6
CONTINUOUS
10
352.269
20
-145.377
11
352.268
21
-145.38
0
LINE
8
BLACK
6
CONTINUOUS
10
352.268
20
-145.38
11
352.267
21
-145.382
0
LINE
8
BLACK
6
CONTINUOUS
10
352.267
20
-145.382
11
352.049
21
-145.792
0
LINE
8
BLACK
6
CONTINUOUS
10
352.049
20
-145.792
11
352.049
21
-145.792
0
LINE
8
BLACK
6
CONTINUOUS
10
352.049
20
-145.792
11
352.048
21
-145.794
0
LINE
8
BLACK
6
CONTINUOUS
10
352.048
20
-145.794
11
352.047
21
-145.796
0
LINE
8
BLACK
6
CONTINUOUS
10
352.047
20
-145.796
11
351.753
21
-146.156
0
LINE
8
BLACK
6
CONTINUOUS
10
351.753
20
-146.156
11
351.753
21
-146.156
0
LINE
8
BLACK
6
CONTINUOUS
10
351.753
20
-146.156
11
351.751
21
-146.158
0
LINE
8
BLACK
6
CONTINUOUS
10
351.751
20
-146.158
11
351.749
21
-146.16
0
LINE
8
BLACK
6
CONTINUOUS
10
351.749
20
-146.16
11
351.391
21
-146.456
0
LINE
8
BLACK
6
CONTINUOUS
10
351.391
20
-146.456
11
351.391
21
-146.456
0
LINE
8
BLACK
6
CONTINUOUS
10
351.391
20
-146.456
11
351.389
21
-146.457
0
LINE
8
BLACK
6
CONTINUOUS
10
351.389
20
-146.457
11
351.387
21
-146.459
0
LINE
8
BLACK
6
CONTINUOUS
10
351.387
20
-146.459
11
350.978
21
-146.68
0
LINE
8
BLACK
6
CONTINUOUS
10
350.978
20
-146.68
11
350.978
21
-146.68
0
LINE
8
BLACK
6
CONTINUOUS
10
350.978
20
-146.68
11
350.976
21
-146.681
0
LINE
8
BLACK
6
CONTINUOUS
10
350.976
20
-146.681
11
350.974
21
-146.682
0
LINE
8
BLACK
6
CONTINUOUS
10
350.974
20
-146.682
11
350.53
21
-146.819
0
LINE
8
BLACK
6
CONTINUOUS
10
350.53
20
-146.819
11
350.53
21
-146.819
0
LINE
8
BLACK
6
CONTINUOUS
10
350.53
20
-146.819
11
350.527
21
-146.82
0
LINE
8
BLACK
6
CONTINUOUS
10
350.527
20
-146.82
11
350.525
21
-146.82
0
LINE
8
BLACK
6
CONTINUOUS
10
350.525
20
-146.82
11
350.063
21
-146.869
0
LINE
8
BLACK
6
CONTINUOUS
10
350.063
20
-146.869
11
350.063
21
-146.869
0
LINE
8
BLACK
6
CONTINUOUS
10
350.063
20
-146.869
11
350.062
21
-146.869
0
LINE
8
BLACK
6
CONTINUOUS
10
350.062
20
-146.869
11
350.06
21
-146.869
0
LINE
8
BLACK
6
CONTINUOUS
10
350.06
20
-146.869
11
350.045
21
-146.869
0
LINE
8
BLACK
6
CONTINUOUS
10
350.045
20
-146.869
11
350.045
21
-146.869
0
LINE
8
BLACK
6
CONTINUOUS
10
350.045
20
-146.869
11
26.1925
21
-146.869
0
LINE
8
BLACK
6
CONTINUOUS
10
26.1925
20
-146.869
11
26.1913
21
-146.869
0
LINE
8
BLACK
6
CONTINUOUS
10
26.1938
20
-46.8562
11
26.1785
21
-46.8563
0
LINE
8
BLACK
6
CONTINUOUS
10
26.1785
20
-46.8563
11
25.72
21
-46.9045
0
LINE
8
BLACK
6
CONTINUOUS
10
25.72
20
-46.9045
11
25.2807
21
-47.0405
0
LINE
8
BLACK
6
CONTINUOUS
10
25.2807
20
-47.0405
11
24.8762
21
-47.2592
0
LINE
8
BLACK
6
CONTINUOUS
10
24.8762
20
-47.2592
11
24.5219
21
-47.5523
0
LINE
8
BLACK
6
CONTINUOUS
10
24.5219
20
-47.5523
11
24.2313
21
-47.9086
0
LINE
8
BLACK
6
CONTINUOUS
10
24.2313
20
-47.9086
11
24.0154
21
-48.3147
0
LINE
8
BLACK
6
CONTINUOUS
10
24.0154
20
-48.3147
11
23.8825
21
-48.7549
0
LINE
8
BLACK
6
CONTINUOUS
10
23.8825
20
-48.7549
11
23.8375
21
-49.2137
0
LINE
8
BLACK
6
CONTINUOUS
10
23.8375
20
-49.2137
11
23.8375
21
-144.462
0
LINE
8
BLACK
6
CONTINUOUS
10
23.8375
20
-144.462
11
23.8376
21
-144.478
0
LINE
8
BLACK
6
CONTINUOUS
10
23.8376
20
-144.478
11
23.8857
21
-144.936
0
LINE
8
BLACK
6
CONTINUOUS
10
23.8857
20
-144.936
11
24.0217
21
-145.376
0
LINE
8
BLACK
6
CONTINUOUS
10
24.0217
20
-145.376
11
24.2404
21
-145.78
0
LINE
8
BLACK
6
CONTINUOUS
10
24.2404
20
-145.78
11
24.5335
21
-146.134
0
LINE
8
BLACK
6
CONTINUOUS
10
24.5335
20
-146.134
11
24.8899
21
-146.425
0
LINE
8
BLACK
6
CONTINUOUS
10
24.8899
20
-146.425
11
25.2959
21
-146.641
0
LINE
8
BLACK
6
CONTINUOUS
10
25.2959
20
-146.641
11
25.7361
21
-146.774
0
LINE
8
BLACK
6
CONTINUOUS
10
25.7361
20
-146.774
11
26.195
21
-146.819
0
LINE
8
BLACK
6
CONTINUOUS
10
26.195
20
-146.819
11
350.044
21
-146.819
0
LINE
8
BLACK
6
CONTINUOUS
10
350.044
20
-146.819
11
350.059
21
-146.819
0
LINE
8
BLACK
6
CONTINUOUS
10
350.059
20
-146.819
11
350.518
21
-146.771
0
LINE
8
BLACK
6
CONTINUOUS
10
350.518
20
-146.771
11
350.957
21
-146.635
0
LINE
8
BLACK
6
CONTINUOUS
10
350.957
20
-146.635
11
351.361
21
-146.416
0
LINE
8
BLACK
6
CONTINUOUS
10
351.361
20
-146.416
11
351.716
21
-146.123
0
LINE
8
BLACK
6
CONTINUOUS
10
351.716
20
-146.123
11
352.006
21
-145.766
0
LINE
8
BLACK
6
CONTINUOUS
10
352.006
20
-145.766
11
352.222
21
-145.36
0
LINE
8
BLACK
6
CONTINUOUS
10
352.222
20
-145.36
11
352.355
21
-144.92
0
LINE
8
BLACK
6
CONTINUOUS
10
352.355
20
-144.92
11
352.4
21
-144.461
0
LINE
8
BLACK
6
CONTINUOUS
10
352.4
20
-144.461
11
352.4
21
-49.2126
0
LINE
8
BLACK
6
CONTINUOUS
10
352.4
20
-49.2126
11
352.4
21
-49.2126
0
LINE
8
BLACK
6
CONTINUOUS
10
352.4
20
-49.2126
11
352.4
21
-49.1972
0
LINE
8
BLACK
6
CONTINUOUS
10
352.4
20
-49.1972
11
352.352
21
-48.7387
0
LINE
8
BLACK
6
CONTINUOUS
10
352.352
20
-48.7387
11
352.216
21
-48.2995
0
LINE
8
BLACK
6
CONTINUOUS
10
352.216
20
-48.2995
11
351.997
21
-47.895
0
LINE
8
BLACK
6
CONTINUOUS
10
351.997
20
-47.895
11
351.704
21
-47.5407
0
LINE
8
BLACK
6
CONTINUOUS
10
351.704
20
-47.5407
11
351.348
21
-47.25
0
LINE
8
BLACK
6
CONTINUOUS
10
351.348
20
-47.25
11
350.942
21
-47.0341
0
LINE
8
BLACK
6
CONTINUOUS
10
350.942
20
-47.0341
11
350.501
21
-46.9012
0
LINE
8
BLACK
6
CONTINUOUS
10
350.501
20
-46.9012
11
350.043
21
-46.8562
0
LINE
8
BLACK
6
CONTINUOUS
10
350.043
20
-46.8562
11
26.1938
21
-46.8562
  0
ENDSEC
  0
EOF
