<?xml version="1.0"?>
<!-- Generated by SVGo -->
<svg width="343.688mm" height="119.850mm"
     viewBox="0.000 0.000 343.688 119.850"
     xmlns="http://www.w3.org/2000/svg" 
     xmlns:xlink="http://www.w3.org/1999/xlink">
<polygon points="338.688,114.850 5.000,114.850 5.000,5.000 338.688,5.000" style="fill:none;stroke-width:0.050000mm;stroke:black"/>
<polygon points="335.524,110.724 335.106,110.937 334.774,111.269 334.561,111.687 334.488,112.151 334.561,112.614 334.774,113.032 335.106,113.364 335.524,113.577 335.988,113.651 336.452,113.577 336.870,113.364 337.202,113.032 337.415,112.614 337.488,112.151 337.415,111.687 337.202,111.269 336.870,110.937 336.452,110.724 335.988,110.651" style="fill:none;stroke-width:0.050000mm;stroke:black"/>
<polygon points="226.095,110.724 225.677,110.937 225.345,111.269 225.132,111.687 225.059,112.151 225.132,112.614 225.345,113.032 225.677,113.364 226.095,113.577 226.559,113.651 227.022,113.577 227.440,113.364 227.772,113.032 227.985,112.614 228.059,112.151 227.985,111.687 227.772,111.269 227.440,110.937 227.022,110.724 226.559,110.651" style="fill:none;stroke-width:0.050000mm;stroke:black"/>
<polygon points="116.665,110.724 116.247,110.937 115.915,111.269 115.702,111.687 115.629,112.151 115.702,112.614 115.915,113.032 116.247,113.364 116.665,113.577 117.129,113.651 117.593,113.577 118.011,113.364 118.343,113.032 118.556,112.614 118.629,112.151 118.556,111.687 118.343,111.269 118.011,110.937 117.593,110.724 117.129,110.651" style="fill:none;stroke-width:0.050000mm;stroke:black"/>
<polygon points="7.236,110.724 6.818,110.937 6.486,111.269 6.273,111.687 6.200,112.151 6.273,112.614 6.486,113.032 6.818,113.364 7.236,113.577 7.700,113.651 8.163,113.577 8.581,113.364 8.913,113.032 9.126,112.614 9.200,112.151 9.126,111.687 8.913,111.269 8.581,110.937 8.163,110.724 7.700,110.651" style="fill:none;stroke-width:0.050000mm;stroke:black"/>
<polygon points="176.850,91.124 176.850,95.824 129.875,95.824 129.875,92.594 123.325,92.594 123.325,95.824 122.500,95.824 122.500,98.425 123.325,98.425 123.325,104.695 125.050,104.695 125.050,105.895 128.150,105.895 128.150,104.695 129.875,104.695 129.875,100.225 176.850,100.225 176.850,104.925 190.650,104.925 190.650,100.225 237.625,100.225 237.625,104.695 239.350,104.695 239.350,105.895 242.450,105.895 242.450,104.695 244.175,104.695 244.175,98.425 245.000,98.425 245.000,95.824 244.175,95.824 244.175,92.594 237.625,92.594 237.625,95.824 190.650,95.824 190.650,91.124" style="fill:none;stroke-width:0.050000mm;stroke:black"/>
<polygon points="14.924,91.124 14.924,104.925 28.725,104.925 28.725,91.124" style="fill:none;stroke-width:0.050000mm;stroke:black"/>
<polygon points="76.837,91.124 76.837,104.925 90.637,104.925 90.637,91.124" style="fill:none;stroke-width:0.050000mm;stroke:black"/>
<polygon points="98.268,91.124 98.268,104.925 112.068,104.925 112.068,91.124" style="fill:none;stroke-width:0.050000mm;stroke:black"/>
<polygon points="255.431,91.124 255.431,104.925 269.231,104.925 269.231,91.124" style="fill:none;stroke-width:0.050000mm;stroke:black"/>
<polygon points="276.862,91.124 276.862,104.925 290.662,104.925 290.662,91.124" style="fill:none;stroke-width:0.050000mm;stroke:black"/>
<polygon points="60.168,72.074 60.168,76.774 58.443,76.774 58.443,73.544 51.893,73.544 51.893,76.774 51.068,76.774 51.068,79.375 51.893,79.375 51.893,85.645 53.618,85.645 53.618,86.845 56.718,86.845 56.718,85.645 58.443,85.645 58.443,81.175 60.168,81.175 60.168,85.875 73.968,85.875 73.968,81.175 75.693,81.175 75.693,85.645 77.418,85.645 77.418,86.845 80.518,86.845 80.518,85.645 82.243,85.645 82.243,79.375 83.068,79.375 83.068,76.774 82.243,76.774 82.243,73.544 75.693,73.544 75.693,76.774 73.968,76.774 73.968,72.074" style="fill:none;stroke-width:0.050000mm;stroke:black"/>
<polygon points="14.924,72.074 14.924,85.875 28.725,85.875 28.725,72.074" style="fill:none;stroke-width:0.050000mm;stroke:black"/>
<polygon points="91.125,72.074 91.125,85.875 104.925,85.875 104.925,72.074" style="fill:none;stroke-width:0.050000mm;stroke:black"/>
<polygon points="110.175,72.074 110.175,85.875 123.975,85.875 123.975,72.074" style="fill:none;stroke-width:0.050000mm;stroke:black"/>
<polygon points="129.225,72.074 129.225,85.875 143.025,85.875 143.025,72.074" style="fill:none;stroke-width:0.050000mm;stroke:black"/>
<polygon points="148.275,72.074 148.275,85.875 162.075,85.875 162.075,72.074" style="fill:none;stroke-width:0.050000mm;stroke:black"/>
<polygon points="167.325,72.074 167.325,85.875 181.125,85.875 181.125,72.074" style="fill:none;stroke-width:0.050000mm;stroke:black"/>
<polygon points="186.375,72.074 186.375,85.875 200.175,85.875 200.175,72.074" style="fill:none;stroke-width:0.050000mm;stroke:black"/>
<polygon points="205.425,72.074 205.425,85.875 219.225,85.875 219.225,72.074" style="fill:none;stroke-width:0.050000mm;stroke:black"/>
<polygon points="224.475,72.074 224.475,85.875 238.275,85.875 238.275,72.074" style="fill:none;stroke-width:0.050000mm;stroke:black"/>
<polygon points="243.525,72.074 243.525,85.875 257.325,85.875 257.325,72.074" style="fill:none;stroke-width:0.050000mm;stroke:black"/>
<polygon points="262.575,72.074 262.575,85.875 276.375,85.875 276.375,72.074" style="fill:none;stroke-width:0.050000mm;stroke:black"/>
<polygon points="288.768,72.074 288.768,85.875 302.568,85.875 302.568,72.074" style="fill:none;stroke-width:0.050000mm;stroke:black"/>
<polygon points="314.962,72.074 314.962,85.875 328.762,85.875 328.762,72.074" style="fill:none;stroke-width:0.050000mm;stroke:black"/>
<polygon points="303.056,53.025 303.056,57.724 301.331,57.724 301.331,54.495 294.781,54.495 294.781,57.724 293.956,57.724 293.956,60.324 294.781,60.324 294.781,66.595 296.506,66.595 296.506,67.795 299.606,67.795 299.606,66.595 301.331,66.595 301.331,62.125 303.056,62.125 303.056,66.825 316.856,66.825 316.856,62.125 318.581,62.125 318.581,66.595 320.306,66.595 320.306,67.795 323.406,67.795 323.406,66.595 325.131,66.595 325.131,60.324 325.956,60.324 325.956,57.724 325.131,57.724 325.131,54.495 318.581,54.495 318.581,57.724 316.856,57.724 316.856,53.025" style="fill:none;stroke-width:0.050000mm;stroke:black"/>
<polygon points="14.924,53.025 14.924,66.825 28.725,66.825 28.725,53.025" style="fill:none;stroke-width:0.050000mm;stroke:black"/>
<polygon points="55.406,53.025 55.406,66.825 69.206,66.825 69.206,53.025" style="fill:none;stroke-width:0.050000mm;stroke:black"/>
<polygon points="81.600,53.025 81.600,66.825 95.400,66.825 95.400,53.025" style="fill:none;stroke-width:0.050000mm;stroke:black"/>
<polygon points="100.649,53.025 100.649,66.825 114.450,66.825 114.450,53.025" style="fill:none;stroke-width:0.050000mm;stroke:black"/>
<polygon points="119.699,53.025 119.699,66.825 133.500,66.825 133.500,53.025" style="fill:none;stroke-width:0.050000mm;stroke:black"/>
<polygon points="138.750,53.025 138.750,66.825 152.550,66.825 152.550,53.025" style="fill:none;stroke-width:0.050000mm;stroke:black"/>
<polygon points="157.800,53.025 157.800,66.825 171.600,66.825 171.600,53.025" style="fill:none;stroke-width:0.050000mm;stroke:black"/>
<polygon points="176.850,53.025 176.850,66.825 190.650,66.825 190.650,53.025" style="fill:none;stroke-width:0.050000mm;stroke:black"/>
<polygon points="195.900,53.025 195.900,66.825 209.700,66.825 209.700,53.025" style="fill:none;stroke-width:0.050000mm;stroke:black"/>
<polygon points="214.950,53.025 214.950,66.825 228.750,66.825 228.750,53.025" style="fill:none;stroke-width:0.050000mm;stroke:black"/>
<polygon points="234.000,53.025 234.000,66.825 247.800,66.825 247.800,53.025" style="fill:none;stroke-width:0.050000mm;stroke:black"/>
<polygon points="253.050,53.025 253.050,66.825 266.850,66.825 266.850,53.025" style="fill:none;stroke-width:0.050000mm;stroke:black"/>
<polygon points="272.100,53.025 272.100,66.825 285.900,66.825 285.900,53.025" style="fill:none;stroke-width:0.050000mm;stroke:black"/>
<polygon points="14.924,33.975 14.924,47.775 28.725,47.775 28.725,33.975" style="fill:none;stroke-width:0.050000mm;stroke:black"/>
<polygon points="53.025,33.975 53.025,47.775 66.825,47.775 66.825,33.975" style="fill:none;stroke-width:0.050000mm;stroke:black"/>
<polygon points="76.837,33.975 76.837,47.775 90.637,47.775 90.637,33.975" style="fill:none;stroke-width:0.050000mm;stroke:black"/>
<polygon points="95.887,33.975 95.887,47.775 109.687,47.775 109.687,33.975" style="fill:none;stroke-width:0.050000mm;stroke:black"/>
<polygon points="114.937,33.975 114.937,47.775 128.737,47.775 128.737,33.975" style="fill:none;stroke-width:0.050000mm;stroke:black"/>
<polygon points="133.987,33.975 133.987,47.775 147.787,47.775 147.787,33.975" style="fill:none;stroke-width:0.050000mm;stroke:black"/>
<polygon points="153.037,33.975 153.037,47.775 166.837,47.775 166.837,33.975" style="fill:none;stroke-width:0.050000mm;stroke:black"/>
<polygon points="172.087,33.975 172.087,47.775 185.887,47.775 185.887,33.975" style="fill:none;stroke-width:0.050000mm;stroke:black"/>
<polygon points="191.137,33.975 191.137,47.775 204.937,47.775 204.937,33.975" style="fill:none;stroke-width:0.050000mm;stroke:black"/>
<polygon points="210.187,33.975 210.187,47.775 223.987,47.775 223.987,33.975" style="fill:none;stroke-width:0.050000mm;stroke:black"/>
<polygon points="229.237,33.975 229.237,47.775 243.037,47.775 243.037,33.975" style="fill:none;stroke-width:0.050000mm;stroke:black"/>
<polygon points="248.287,33.975 248.287,47.775 262.087,47.775 262.087,33.975" style="fill:none;stroke-width:0.050000mm;stroke:black"/>
<polygon points="267.337,33.975 267.337,47.775 281.137,47.775 281.137,33.975" style="fill:none;stroke-width:0.050000mm;stroke:black"/>
<polygon points="286.387,33.975 286.387,47.775 300.187,47.775 300.187,33.975" style="fill:none;stroke-width:0.050000mm;stroke:black"/>
<polygon points="310.200,33.975 310.200,47.775 324.000,47.775 324.000,33.975" style="fill:none;stroke-width:0.050000mm;stroke:black"/>
<polygon points="14.925,14.925 14.925,28.725 28.725,28.725 28.725,14.925" style="fill:none;stroke-width:0.050000mm;stroke:black"/>
<polygon points="48.262,14.925 48.262,28.725 62.062,28.725 62.062,14.925" style="fill:none;stroke-width:0.050000mm;stroke:black"/>
<polygon points="67.312,14.925 67.312,28.725 81.112,28.725 81.112,14.925" style="fill:none;stroke-width:0.050000mm;stroke:black"/>
<polygon points="86.362,14.925 86.362,28.725 100.162,28.725 100.162,14.925" style="fill:none;stroke-width:0.050000mm;stroke:black"/>
<polygon points="105.412,14.925 105.412,28.725 119.212,28.725 119.212,14.925" style="fill:none;stroke-width:0.050000mm;stroke:black"/>
<polygon points="124.462,14.925 124.462,28.725 138.262,28.725 138.262,14.925" style="fill:none;stroke-width:0.050000mm;stroke:black"/>
<polygon points="143.512,14.925 143.512,28.725 157.312,28.725 157.312,14.925" style="fill:none;stroke-width:0.050000mm;stroke:black"/>
<polygon points="162.562,14.925 162.562,28.725 176.362,28.725 176.362,14.925" style="fill:none;stroke-width:0.050000mm;stroke:black"/>
<polygon points="181.612,14.925 181.612,28.725 195.412,28.725 195.412,14.925" style="fill:none;stroke-width:0.050000mm;stroke:black"/>
<polygon points="200.662,14.925 200.662,28.725 214.462,28.725 214.462,14.925" style="fill:none;stroke-width:0.050000mm;stroke:black"/>
<polygon points="219.712,14.925 219.712,28.725 233.512,28.725 233.512,14.925" style="fill:none;stroke-width:0.050000mm;stroke:black"/>
<polygon points="238.762,14.925 238.762,28.725 252.562,28.725 252.562,14.925" style="fill:none;stroke-width:0.050000mm;stroke:black"/>
<polygon points="257.812,14.925 257.812,28.725 271.612,28.725 271.612,14.925" style="fill:none;stroke-width:0.050000mm;stroke:black"/>
<polygon points="276.862,14.925 276.862,28.725 290.662,28.725 290.662,14.925" style="fill:none;stroke-width:0.050000mm;stroke:black"/>
<polygon points="295.912,14.925 295.912,28.725 309.712,28.725 309.712,14.925" style="fill:none;stroke-width:0.050000mm;stroke:black"/>
<polygon points="314.962,14.925 314.962,28.725 328.762,28.725 328.762,14.925" style="fill:none;stroke-width:0.050000mm;stroke:black"/>
<polygon points="116.665,6.273 116.247,6.486 115.915,6.818 115.702,7.236 115.629,7.699 115.702,8.163 115.915,8.581 116.247,8.913 116.665,9.126 117.129,9.200 117.593,9.126 118.011,8.913 118.343,8.581 118.556,8.163 118.629,7.699 118.556,7.236 118.343,6.818 118.011,6.486 117.593,6.273 117.129,6.199" style="fill:none;stroke-width:0.050000mm;stroke:black"/>
<polygon points="226.095,6.273 225.677,6.486 225.345,6.818 225.132,7.236 225.059,7.699 225.132,8.163 225.345,8.581 225.677,8.913 226.095,9.126 226.559,9.200 227.022,9.126 227.440,8.913 227.772,8.581 227.985,8.163 228.059,7.699 227.985,7.236 227.772,6.818 227.440,6.486 227.022,6.273 226.559,6.199" style="fill:none;stroke-width:0.050000mm;stroke:black"/>
<polygon points="335.524,6.273 335.106,6.486 334.774,6.818 334.561,7.236 334.488,7.699 334.561,8.163 334.774,8.581 335.106,8.913 335.524,9.126 335.988,9.200 336.452,9.126 336.870,8.913 337.202,8.581 337.415,8.163 337.488,7.699 337.415,7.236 337.202,6.818 336.870,6.486 336.452,6.273 335.988,6.199" style="fill:none;stroke-width:0.050000mm;stroke:black"/>
<polygon points="7.236,6.273 6.818,6.486 6.486,6.818 6.273,7.236 6.200,7.700 6.273,8.163 6.486,8.581 6.818,8.913 7.236,9.126 7.700,9.200 8.163,9.126 8.581,8.913 8.913,8.581 9.126,8.163 9.200,7.700 9.126,7.236 8.913,6.818 8.581,6.486 8.163,6.273 7.700,6.200" style="fill:none;stroke-width:0.050000mm;stroke:black"/>
</svg>
