G04 #@! TF.GenerationSoftware,KiCad,Pcbnew,(5.1.0)-1*
G04 #@! TF.CreationDate,2019-05-02T17:07:36-04:00*
G04 #@! TF.ProjectId,pcb-project,7063622d-7072-46f6-9a65-63742e6b6963,rev?*
G04 #@! TF.SameCoordinates,Original*
G04 #@! TF.FileFunction,Copper,L1,Top*
G04 #@! TF.FilePolarity,Positive*
%FSLAX46Y46*%
G04 Gerber Fmt 4.6, Leading zero omitted, Abs format (unit mm)*
G04 Created by KiCad (PCBNEW (5.1.0)-1) date 2019-05-02 17:07:36*
%MOMM*%
%LPD*%
G04 APERTURE LIST*
%ADD10C,2.250000*%
%ADD11C,2.250000*%
%ADD12C,1.600000*%
%ADD13R,1.600000X1.600000*%
%ADD14C,0.800000*%
%ADD15C,0.254000*%
G04 APERTURE END LIST*
D10*
X88245000Y-111097500D03*
D11*
X88225000Y-111387500D02*
X88265000Y-110807500D01*
D10*
X88265000Y-110807500D03*
X82570001Y-112617500D03*
D11*
X81915000Y-113347500D02*
X83225002Y-111887500D01*
D10*
X83225000Y-111887500D03*
X123706250Y-130937500D03*
X123051251Y-131667500D03*
D11*
X122396250Y-132397500D02*
X123706252Y-130937500D01*
D10*
X128746250Y-129857500D03*
X128726250Y-130147500D03*
D11*
X128706250Y-130437500D02*
X128746250Y-129857500D01*
D10*
X285631250Y-130937500D03*
X284976251Y-131667500D03*
D11*
X284321250Y-132397500D02*
X285631252Y-130937500D01*
D10*
X290671250Y-129857500D03*
X290651250Y-130147500D03*
D11*
X290631250Y-130437500D02*
X290671250Y-129857500D01*
D10*
X83482500Y-92047500D03*
D11*
X83462500Y-92337500D02*
X83502500Y-91757500D01*
D10*
X83502500Y-91757500D03*
X77807501Y-93567500D03*
D11*
X77152500Y-94297500D02*
X78462502Y-92837500D01*
D10*
X78462500Y-92837500D03*
X261818750Y-54737500D03*
X261163751Y-55467500D03*
D11*
X260508750Y-56197500D02*
X261818752Y-54737500D01*
D10*
X266858750Y-53657500D03*
X266838750Y-53947500D03*
D11*
X266818750Y-54237500D02*
X266858750Y-53657500D01*
D10*
X90368750Y-54737500D03*
X89713751Y-55467500D03*
D11*
X89058750Y-56197500D02*
X90368752Y-54737500D01*
D10*
X95408750Y-53657500D03*
X95388750Y-53947500D03*
D11*
X95368750Y-54237500D02*
X95408750Y-53657500D01*
D10*
X109418750Y-54737500D03*
X108763751Y-55467500D03*
D11*
X108108750Y-56197500D02*
X109418752Y-54737500D01*
D10*
X114458750Y-53657500D03*
X114438750Y-53947500D03*
D11*
X114418750Y-54237500D02*
X114458750Y-53657500D01*
D10*
X133488750Y-53947500D03*
D11*
X133468750Y-54237500D02*
X133508750Y-53657500D01*
D10*
X133508750Y-53657500D03*
X127813751Y-55467500D03*
D11*
X127158750Y-56197500D02*
X128468752Y-54737500D01*
D10*
X128468750Y-54737500D03*
X152538750Y-53947500D03*
D11*
X152518750Y-54237500D02*
X152558750Y-53657500D01*
D10*
X152558750Y-53657500D03*
X146863751Y-55467500D03*
D11*
X146208750Y-56197500D02*
X147518752Y-54737500D01*
D10*
X147518750Y-54737500D03*
X171588750Y-53947500D03*
D11*
X171568750Y-54237500D02*
X171608750Y-53657500D01*
D10*
X171608750Y-53657500D03*
X165913751Y-55467500D03*
D11*
X165258750Y-56197500D02*
X166568752Y-54737500D01*
D10*
X166568750Y-54737500D03*
X190638750Y-53947500D03*
D11*
X190618750Y-54237500D02*
X190658750Y-53657500D01*
D10*
X190658750Y-53657500D03*
X184963751Y-55467500D03*
D11*
X184308750Y-56197500D02*
X185618752Y-54737500D01*
D10*
X185618750Y-54737500D03*
X209688750Y-53947500D03*
D11*
X209668750Y-54237500D02*
X209708750Y-53657500D01*
D10*
X209708750Y-53657500D03*
X204013751Y-55467500D03*
D11*
X203358750Y-56197500D02*
X204668752Y-54737500D01*
D10*
X204668750Y-54737500D03*
X223718750Y-54737500D03*
X223063751Y-55467500D03*
D11*
X222408750Y-56197500D02*
X223718752Y-54737500D01*
D10*
X228758750Y-53657500D03*
X228738750Y-53947500D03*
D11*
X228718750Y-54237500D02*
X228758750Y-53657500D01*
D10*
X247788750Y-53947500D03*
D11*
X247768750Y-54237500D02*
X247808750Y-53657500D01*
D10*
X247808750Y-53657500D03*
X242113751Y-55467500D03*
D11*
X241458750Y-56197500D02*
X242768752Y-54737500D01*
D10*
X242768750Y-54737500D03*
X209688750Y-130147500D03*
D11*
X209668750Y-130437500D02*
X209708750Y-129857500D01*
D10*
X209708750Y-129857500D03*
X204013751Y-131667500D03*
D11*
X203358750Y-132397500D02*
X204668752Y-130937500D01*
D10*
X204668750Y-130937500D03*
X295413750Y-72997500D03*
D11*
X295393750Y-73287500D02*
X295433750Y-72707500D01*
D10*
X295433750Y-72707500D03*
X289738751Y-74517500D03*
D11*
X289083750Y-75247500D02*
X290393752Y-73787500D01*
D10*
X290393750Y-73787500D03*
X309443750Y-73787500D03*
X308788751Y-74517500D03*
D11*
X308133750Y-75247500D02*
X309443752Y-73787500D01*
D10*
X314483750Y-72707500D03*
X314463750Y-72997500D03*
D11*
X314443750Y-73287500D02*
X314483750Y-72707500D01*
D10*
X343038750Y-53947500D03*
D11*
X343018750Y-54237500D02*
X343058750Y-53657500D01*
D10*
X343058750Y-53657500D03*
X337363751Y-55467500D03*
D11*
X336708750Y-56197500D02*
X338018752Y-54737500D01*
D10*
X338018750Y-54737500D03*
X76338750Y-53947500D03*
D11*
X76318750Y-54237500D02*
X76358750Y-53657500D01*
D10*
X76358750Y-53657500D03*
X70663751Y-55467500D03*
D11*
X70008750Y-56197500D02*
X71318752Y-54737500D01*
D10*
X71318750Y-54737500D03*
X104656250Y-92837500D03*
X104001251Y-93567500D03*
D11*
X103346250Y-94297500D02*
X104656252Y-92837500D01*
D10*
X109696250Y-91757500D03*
X109676250Y-92047500D03*
D11*
X109656250Y-92337500D02*
X109696250Y-91757500D01*
D10*
X195401250Y-111097500D03*
D11*
X195381250Y-111387500D02*
X195421250Y-110807500D01*
D10*
X195421250Y-110807500D03*
X189726251Y-112617500D03*
D11*
X189071250Y-113347500D02*
X190381252Y-111887500D01*
D10*
X190381250Y-111887500D03*
X338276250Y-72997500D03*
D11*
X338256250Y-73287500D02*
X338296250Y-72707500D01*
D10*
X338296250Y-72707500D03*
X332601251Y-74517500D03*
D11*
X331946250Y-75247500D02*
X333256252Y-73787500D01*
D10*
X333256250Y-73787500D03*
X318968750Y-54737500D03*
X318313751Y-55467500D03*
D11*
X317658750Y-56197500D02*
X318968752Y-54737500D01*
D10*
X324008750Y-53657500D03*
X323988750Y-53947500D03*
D11*
X323968750Y-54237500D02*
X324008750Y-53657500D01*
D10*
X152281250Y-111887500D03*
X151626251Y-112617500D03*
D11*
X150971250Y-113347500D02*
X152281252Y-111887500D01*
D10*
X157321250Y-110807500D03*
X157301250Y-111097500D03*
D11*
X157281250Y-111387500D02*
X157321250Y-110807500D01*
D10*
X247531250Y-111887500D03*
X246876251Y-112617500D03*
D11*
X246221250Y-113347500D02*
X247531252Y-111887500D01*
D10*
X252571250Y-110807500D03*
X252551250Y-111097500D03*
D11*
X252531250Y-111387500D02*
X252571250Y-110807500D01*
D10*
X147776250Y-92047500D03*
D11*
X147756250Y-92337500D02*
X147796250Y-91757500D01*
D10*
X147796250Y-91757500D03*
X142101251Y-93567500D03*
D11*
X141446250Y-94297500D02*
X142756252Y-92837500D01*
D10*
X142756250Y-92837500D03*
X266581250Y-111887500D03*
X265926251Y-112617500D03*
D11*
X265271250Y-113347500D02*
X266581252Y-111887500D01*
D10*
X271621250Y-110807500D03*
X271601250Y-111097500D03*
D11*
X271581250Y-111387500D02*
X271621250Y-110807500D01*
D10*
X137993750Y-73787500D03*
X137338751Y-74517500D03*
D11*
X136683750Y-75247500D02*
X137993752Y-73787500D01*
D10*
X143033750Y-72707500D03*
X143013750Y-72997500D03*
D11*
X142993750Y-73287500D02*
X143033750Y-72707500D01*
D10*
X326112500Y-92837500D03*
X325457501Y-93567500D03*
D11*
X324802500Y-94297500D02*
X326112502Y-92837500D01*
D10*
X331152500Y-91757500D03*
X331132500Y-92047500D03*
D11*
X331112500Y-92337500D02*
X331152500Y-91757500D01*
D10*
X299918750Y-54737500D03*
X299263751Y-55467500D03*
D11*
X298608750Y-56197500D02*
X299918752Y-54737500D01*
D10*
X304958750Y-53657500D03*
X304938750Y-53947500D03*
D11*
X304918750Y-54237500D02*
X304958750Y-53657500D01*
D10*
X38238750Y-53947500D03*
D11*
X38218750Y-54237500D02*
X38258750Y-53657500D01*
D10*
X38258750Y-53657500D03*
X32563751Y-55467500D03*
D11*
X31908750Y-56197500D02*
X33218752Y-54737500D01*
D10*
X33218750Y-54737500D03*
X38238750Y-72997500D03*
D11*
X38218750Y-73287500D02*
X38258750Y-72707500D01*
D10*
X38258750Y-72707500D03*
X32563751Y-74517500D03*
D11*
X31908750Y-75247500D02*
X33218752Y-73787500D01*
D10*
X33218750Y-73787500D03*
X33218750Y-92837500D03*
X32563751Y-93567500D03*
D11*
X31908750Y-94297500D02*
X33218752Y-92837500D01*
D10*
X38258750Y-91757500D03*
X38238750Y-92047500D03*
D11*
X38218750Y-92337500D02*
X38258750Y-91757500D01*
D10*
X38238750Y-111097500D03*
D11*
X38218750Y-111387500D02*
X38258750Y-110807500D01*
D10*
X38258750Y-110807500D03*
X32563751Y-112617500D03*
D11*
X31908750Y-113347500D02*
X33218752Y-111887500D01*
D10*
X33218750Y-111887500D03*
X33218750Y-130937500D03*
X32563751Y-131667500D03*
D11*
X31908750Y-132397500D02*
X33218752Y-130937500D01*
D10*
X38258750Y-129857500D03*
X38238750Y-130147500D03*
D11*
X38218750Y-130437500D02*
X38258750Y-129857500D01*
D10*
X161806250Y-92837500D03*
X161151251Y-93567500D03*
D11*
X160496250Y-94297500D02*
X161806252Y-92837500D01*
D10*
X166846250Y-91757500D03*
X166826250Y-92047500D03*
D11*
X166806250Y-92337500D02*
X166846250Y-91757500D01*
D10*
X338018750Y-111887500D03*
X337363751Y-112617500D03*
D11*
X336708750Y-113347500D02*
X338018752Y-111887500D01*
D10*
X343058750Y-110807500D03*
X343038750Y-111097500D03*
D11*
X343018750Y-111387500D02*
X343058750Y-110807500D01*
D10*
X185876250Y-92047500D03*
D11*
X185856250Y-92337500D02*
X185896250Y-91757500D01*
D10*
X185896250Y-91757500D03*
X180201251Y-93567500D03*
D11*
X179546250Y-94297500D02*
X180856252Y-92837500D01*
D10*
X180856250Y-92837500D03*
X199906250Y-92837500D03*
X199251251Y-93567500D03*
D11*
X198596250Y-94297500D02*
X199906252Y-92837500D01*
D10*
X204946250Y-91757500D03*
X204926250Y-92047500D03*
D11*
X204906250Y-92337500D02*
X204946250Y-91757500D01*
D10*
X238263750Y-72997500D03*
D11*
X238243750Y-73287500D02*
X238283750Y-72707500D01*
D10*
X238283750Y-72707500D03*
X232588751Y-74517500D03*
D11*
X231933750Y-75247500D02*
X233243752Y-73787500D01*
D10*
X233243750Y-73787500D03*
X218956250Y-92837500D03*
X218301251Y-93567500D03*
D11*
X217646250Y-94297500D02*
X218956252Y-92837500D01*
D10*
X223996250Y-91757500D03*
X223976250Y-92047500D03*
D11*
X223956250Y-92337500D02*
X223996250Y-91757500D01*
D10*
X238006250Y-92837500D03*
X237351251Y-93567500D03*
D11*
X236696250Y-94297500D02*
X238006252Y-92837500D01*
D10*
X243046250Y-91757500D03*
X243026250Y-92047500D03*
D11*
X243006250Y-92337500D02*
X243046250Y-91757500D01*
D10*
X262076250Y-92047500D03*
D11*
X262056250Y-92337500D02*
X262096250Y-91757500D01*
D10*
X262096250Y-91757500D03*
X256401251Y-93567500D03*
D11*
X255746250Y-94297500D02*
X257056252Y-92837500D01*
D10*
X257056250Y-92837500D03*
X228481250Y-111887500D03*
X227826251Y-112617500D03*
D11*
X227171250Y-113347500D02*
X228481252Y-111887500D01*
D10*
X233521250Y-110807500D03*
X233501250Y-111097500D03*
D11*
X233481250Y-111387500D02*
X233521250Y-110807500D01*
D10*
X285888750Y-53947500D03*
D11*
X285868750Y-54237500D02*
X285908750Y-53657500D01*
D10*
X285908750Y-53657500D03*
X280213751Y-55467500D03*
D11*
X279558750Y-56197500D02*
X280868752Y-54737500D01*
D10*
X280868750Y-54737500D03*
X214451250Y-111097500D03*
D11*
X214431250Y-111387500D02*
X214471250Y-110807500D01*
D10*
X214471250Y-110807500D03*
X208776251Y-112617500D03*
D11*
X208121250Y-113347500D02*
X209431252Y-111887500D01*
D10*
X209431250Y-111887500D03*
X252293750Y-73787500D03*
X251638751Y-74517500D03*
D11*
X250983750Y-75247500D02*
X252293752Y-73787500D01*
D10*
X257333750Y-72707500D03*
X257313750Y-72997500D03*
D11*
X257293750Y-73287500D02*
X257333750Y-72707500D01*
D10*
X271343750Y-73787500D03*
X270688751Y-74517500D03*
D11*
X270033750Y-75247500D02*
X271343752Y-73787500D01*
D10*
X276383750Y-72707500D03*
X276363750Y-72997500D03*
D11*
X276343750Y-73287500D02*
X276383750Y-72707500D01*
D10*
X99893750Y-73787500D03*
X99238751Y-74517500D03*
D11*
X98583750Y-75247500D02*
X99893752Y-73787500D01*
D10*
X104933750Y-72707500D03*
X104913750Y-72997500D03*
D11*
X104893750Y-73287500D02*
X104933750Y-72707500D01*
D10*
X300176250Y-92047500D03*
D11*
X300156250Y-92337500D02*
X300196250Y-91757500D01*
D10*
X300196250Y-91757500D03*
X294501251Y-93567500D03*
D11*
X293846250Y-94297500D02*
X295156252Y-92837500D01*
D10*
X295156250Y-92837500D03*
X157043750Y-73787500D03*
X156388751Y-74517500D03*
D11*
X155733750Y-75247500D02*
X157043752Y-73787500D01*
D10*
X162083750Y-72707500D03*
X162063750Y-72997500D03*
D11*
X162043750Y-73287500D02*
X162083750Y-72707500D01*
D10*
X128726250Y-92047500D03*
D11*
X128706250Y-92337500D02*
X128746250Y-91757500D01*
D10*
X128746250Y-91757500D03*
X123051251Y-93567500D03*
D11*
X122396250Y-94297500D02*
X123706252Y-92837500D01*
D10*
X123706250Y-92837500D03*
X281126250Y-92047500D03*
D11*
X281106250Y-92337500D02*
X281146250Y-91757500D01*
D10*
X281146250Y-91757500D03*
X275451251Y-93567500D03*
D11*
X274796250Y-94297500D02*
X276106252Y-92837500D01*
D10*
X276106250Y-92837500D03*
X311825000Y-111887500D03*
X311170001Y-112617500D03*
D11*
X310515000Y-113347500D02*
X311825002Y-111887500D01*
D10*
X316865000Y-110807500D03*
X316845000Y-111097500D03*
D11*
X316825000Y-111387500D02*
X316865000Y-110807500D01*
D10*
X290651250Y-111097500D03*
D11*
X290631250Y-111387500D02*
X290671250Y-110807500D01*
D10*
X290671250Y-110807500D03*
X284976251Y-112617500D03*
D11*
X284321250Y-113347500D02*
X285631252Y-111887500D01*
D10*
X285631250Y-111887500D03*
X181113750Y-72997500D03*
D11*
X181093750Y-73287500D02*
X181133750Y-72707500D01*
D10*
X181133750Y-72707500D03*
X175438751Y-74517500D03*
D11*
X174783750Y-75247500D02*
X176093752Y-73787500D01*
D10*
X176093750Y-73787500D03*
X76081250Y-73787500D03*
X75426251Y-74517500D03*
D11*
X74771250Y-75247500D02*
X76081252Y-73787500D01*
D10*
X81121250Y-72707500D03*
X81101250Y-72997500D03*
D11*
X81081250Y-73287500D02*
X81121250Y-72707500D01*
D10*
X214193750Y-73787500D03*
X213538751Y-74517500D03*
D11*
X212883750Y-75247500D02*
X214193752Y-73787500D01*
D10*
X219233750Y-72707500D03*
X219213750Y-72997500D03*
D11*
X219193750Y-73287500D02*
X219233750Y-72707500D01*
D10*
X176351250Y-111097500D03*
D11*
X176331250Y-111387500D02*
X176371250Y-110807500D01*
D10*
X176371250Y-110807500D03*
X170676251Y-112617500D03*
D11*
X170021250Y-113347500D02*
X171331252Y-111887500D01*
D10*
X171331250Y-111887500D03*
X123963750Y-72997500D03*
D11*
X123943750Y-73287500D02*
X123983750Y-72707500D01*
D10*
X123983750Y-72707500D03*
X118288751Y-74517500D03*
D11*
X117633750Y-75247500D02*
X118943752Y-73787500D01*
D10*
X118943750Y-73787500D03*
X314463750Y-130147500D03*
D11*
X314443750Y-130437500D02*
X314483750Y-129857500D01*
D10*
X314483750Y-129857500D03*
X308788751Y-131667500D03*
D11*
X308133750Y-132397500D02*
X309443752Y-130937500D01*
D10*
X309443750Y-130937500D03*
X99893750Y-130937500D03*
X99238751Y-131667500D03*
D11*
X98583750Y-132397500D02*
X99893752Y-130937500D01*
D10*
X104933750Y-129857500D03*
X104913750Y-130147500D03*
D11*
X104893750Y-130437500D02*
X104933750Y-129857500D01*
D10*
X138251250Y-111097500D03*
D11*
X138231250Y-111387500D02*
X138271250Y-110807500D01*
D10*
X138271250Y-110807500D03*
X132576251Y-112617500D03*
D11*
X131921250Y-113347500D02*
X133231252Y-111887500D01*
D10*
X133231250Y-111887500D03*
X195143750Y-73787500D03*
X194488751Y-74517500D03*
D11*
X193833750Y-75247500D02*
X195143752Y-73787500D01*
D10*
X200183750Y-72707500D03*
X200163750Y-72997500D03*
D11*
X200143750Y-73287500D02*
X200183750Y-72707500D01*
D10*
X114181250Y-111887500D03*
X113526251Y-112617500D03*
D11*
X112871250Y-113347500D02*
X114181252Y-111887500D01*
D10*
X119221250Y-110807500D03*
X119201250Y-111097500D03*
D11*
X119181250Y-111387500D02*
X119221250Y-110807500D01*
D12*
X57150000Y-75882500D03*
D13*
X49530000Y-47942500D03*
D12*
X49530000Y-50482500D03*
X49530000Y-53022500D03*
X49530000Y-55562500D03*
X49530000Y-58102500D03*
X49530000Y-60642500D03*
X49530000Y-63182500D03*
X49530000Y-65722500D03*
X49530000Y-68262500D03*
X49530000Y-70802500D03*
X49530000Y-73342500D03*
X49530000Y-75882500D03*
X52070000Y-75882500D03*
X54610000Y-75882500D03*
X59690000Y-75882500D03*
X62230000Y-75882500D03*
X64770000Y-75882500D03*
X64770000Y-73342500D03*
X64770000Y-70802500D03*
X64770000Y-68262500D03*
X64770000Y-65722500D03*
X64770000Y-63182500D03*
X64770000Y-60642500D03*
X64770000Y-58102500D03*
X64770000Y-55562500D03*
X64770000Y-53022500D03*
X64770000Y-50482500D03*
X64770000Y-47942500D03*
X52070000Y-58102500D03*
X62230000Y-58102500D03*
D14*
X48418750Y-79375000D03*
X43656250Y-61912500D03*
X44450000Y-80962500D03*
X48418750Y-81756250D03*
X44450000Y-100012500D03*
X46831250Y-100012500D03*
X45243750Y-119062500D03*
X46831250Y-119062500D03*
X76993750Y-62706250D03*
X80168750Y-62706250D03*
X259556250Y-65087500D03*
X71554692Y-71320308D03*
X70526558Y-72348442D03*
X90604692Y-68145308D03*
X89576558Y-69173442D03*
X72348442Y-72114058D03*
X71320308Y-73142192D03*
X109813442Y-66399058D03*
X108743750Y-67468750D03*
X91398442Y-68939058D03*
X90370308Y-69967192D03*
X73142192Y-72907808D03*
X72114058Y-73935942D03*
X66519976Y-78501889D03*
X69056250Y-82550000D03*
X153987500Y-84931250D03*
X67326337Y-77695529D03*
X70423431Y-82564066D03*
X173037500Y-84137500D03*
X68145308Y-76876558D03*
X71437500Y-82550000D03*
X192881250Y-83343750D03*
X74893308Y-65368308D03*
X76993750Y-65881250D03*
X203200000Y-65881250D03*
X75406250Y-64363018D03*
X80168750Y-64706256D03*
X221456250Y-65087500D03*
X76625598Y-63636018D03*
X80168750Y-63706253D03*
X239712500Y-64293750D03*
D15*
X48418750Y-79375000D02*
X46831250Y-77787500D01*
X46831250Y-77787500D02*
X46831250Y-70643750D01*
X46831250Y-70643750D02*
X43656250Y-67468750D01*
X43656250Y-67468750D02*
X43656250Y-61912500D01*
X44450000Y-80962500D02*
X45243750Y-81756250D01*
X45243750Y-81756250D02*
X48418750Y-81756250D01*
X44450000Y-100012500D02*
X46831250Y-100012500D01*
X45243750Y-119062500D02*
X46831250Y-119062500D01*
X269716250Y-75247500D02*
X270033750Y-75247500D01*
X261143750Y-66675000D02*
X269716250Y-75247500D01*
X261143750Y-57150000D02*
X261143750Y-66675000D01*
X260508750Y-56197500D02*
X260508750Y-56515000D01*
X260508750Y-56515000D02*
X261143750Y-57150000D01*
X273685000Y-94297500D02*
X274796250Y-94297500D01*
X270668750Y-91281250D02*
X273685000Y-94297500D01*
X270668750Y-76200000D02*
X270668750Y-91281250D01*
X270033750Y-75247500D02*
X270033750Y-75565000D01*
X270033750Y-75565000D02*
X270668750Y-76200000D01*
X284003750Y-113347500D02*
X284321250Y-113347500D01*
X275431250Y-104775000D02*
X284003750Y-113347500D01*
X275431250Y-95250000D02*
X275431250Y-104775000D01*
X274796250Y-94297500D02*
X274796250Y-94615000D01*
X274796250Y-94615000D02*
X275431250Y-95250000D01*
X76993750Y-62706250D02*
X80168750Y-62706250D01*
X259556250Y-65087500D02*
X261143750Y-66675000D01*
X96678750Y-75247500D02*
X98583750Y-75247500D01*
X89693750Y-68262500D02*
X96678750Y-75247500D01*
X89693750Y-57150000D02*
X89693750Y-68262500D01*
X89058750Y-56197500D02*
X89058750Y-56515000D01*
X89058750Y-56515000D02*
X89693750Y-57150000D01*
X103346250Y-93821250D02*
X103346250Y-94297500D01*
X99218750Y-89693750D02*
X103346250Y-93821250D01*
X99218750Y-76200000D02*
X99218750Y-89693750D01*
X98583750Y-75247500D02*
X98583750Y-75565000D01*
X98583750Y-75565000D02*
X99218750Y-76200000D01*
X111760000Y-113347500D02*
X112871250Y-113347500D01*
X103981250Y-105568750D02*
X111760000Y-113347500D01*
X103981250Y-95250000D02*
X103981250Y-105568750D01*
X103346250Y-94297500D02*
X103346250Y-94615000D01*
X103346250Y-94615000D02*
X103981250Y-95250000D01*
X121285000Y-132397500D02*
X122396250Y-132397500D01*
X113506250Y-124618750D02*
X121285000Y-132397500D01*
X113506250Y-114300000D02*
X113506250Y-124618750D01*
X112871250Y-113347500D02*
X112871250Y-113665000D01*
X112871250Y-113665000D02*
X113506250Y-114300000D01*
X89693750Y-68262500D02*
X74612500Y-68262500D01*
X74612500Y-68262500D02*
X71554692Y-71320308D01*
X50329999Y-71602499D02*
X49530000Y-70802500D01*
X53197001Y-74469501D02*
X50329999Y-71602499D01*
X67839814Y-74469501D02*
X53197001Y-74469501D01*
X69960873Y-72348442D02*
X67839814Y-74469501D01*
X70526558Y-72348442D02*
X69960873Y-72348442D01*
X108743750Y-66357500D02*
X117633750Y-75247500D01*
X108743750Y-57150000D02*
X108743750Y-66357500D01*
X108108750Y-56197500D02*
X108108750Y-56515000D01*
X108108750Y-56515000D02*
X108743750Y-57150000D01*
X118268750Y-90170000D02*
X122396250Y-94297500D01*
X118268750Y-76200000D02*
X118268750Y-90170000D01*
X117633750Y-75247500D02*
X117633750Y-75565000D01*
X117633750Y-75565000D02*
X118268750Y-76200000D01*
X130810000Y-113347500D02*
X131921250Y-113347500D01*
X123031250Y-105568750D02*
X130810000Y-113347500D01*
X123031250Y-95250000D02*
X123031250Y-105568750D01*
X122396250Y-94297500D02*
X122396250Y-94615000D01*
X122396250Y-94615000D02*
X123031250Y-95250000D01*
X196373750Y-125412500D02*
X203358750Y-132397500D01*
X136525000Y-125412500D02*
X196373750Y-125412500D01*
X132556250Y-121443750D02*
X136525000Y-125412500D01*
X132556250Y-114300000D02*
X132556250Y-121443750D01*
X131921250Y-113347500D02*
X131921250Y-113665000D01*
X131921250Y-113665000D02*
X132556250Y-114300000D01*
X108743750Y-66357500D02*
X92392500Y-66357500D01*
X92392500Y-66357500D02*
X90604692Y-68145308D01*
X89576558Y-69173442D02*
X75289058Y-69173442D01*
X75289058Y-69173442D02*
X72348442Y-72114058D01*
X50329999Y-74142499D02*
X49530000Y-73342500D01*
X71320308Y-73142192D02*
X69809189Y-73142192D01*
X69809189Y-73142192D02*
X65163881Y-77787500D01*
X65163881Y-77787500D02*
X52307038Y-77787500D01*
X52307038Y-77787500D02*
X50657001Y-76137463D01*
X50657001Y-76137463D02*
X50657001Y-74469501D01*
X50657001Y-74469501D02*
X50329999Y-74142499D01*
X127793750Y-66357500D02*
X136683750Y-75247500D01*
X127793750Y-57150000D02*
X127793750Y-66357500D01*
X127158750Y-56197500D02*
X127158750Y-56515000D01*
X127158750Y-56515000D02*
X127793750Y-57150000D01*
X141128750Y-94297500D02*
X141446250Y-94297500D01*
X137318750Y-90487500D02*
X141128750Y-94297500D01*
X137318750Y-76200000D02*
X137318750Y-90487500D01*
X136683750Y-75247500D02*
X136683750Y-75565000D01*
X136683750Y-75565000D02*
X137318750Y-76200000D01*
X149860000Y-113347500D02*
X150971250Y-113347500D01*
X142081250Y-105568750D02*
X149860000Y-113347500D01*
X142081250Y-95250000D02*
X142081250Y-105568750D01*
X141446250Y-94297500D02*
X141446250Y-94615000D01*
X141446250Y-94615000D02*
X142081250Y-95250000D01*
X276542500Y-124618750D02*
X284321250Y-132397500D01*
X152400000Y-124618750D02*
X276542500Y-124618750D01*
X151606250Y-123825000D02*
X152400000Y-124618750D01*
X151606250Y-114300000D02*
X151606250Y-123825000D01*
X150971250Y-113347500D02*
X150971250Y-113665000D01*
X150971250Y-113665000D02*
X151606250Y-114300000D01*
X127793750Y-66357500D02*
X109855000Y-66357500D01*
X109855000Y-66357500D02*
X109813442Y-66399058D01*
X108743750Y-67468750D02*
X92868750Y-67468750D01*
X92868750Y-67468750D02*
X91398442Y-68939058D01*
X90370308Y-69967192D02*
X76317192Y-69967192D01*
X76317192Y-69967192D02*
X73376576Y-72907808D01*
X73376576Y-72907808D02*
X73142192Y-72907808D01*
X52228750Y-78581250D02*
X49530000Y-75882500D01*
X65321884Y-78581250D02*
X52228750Y-78581250D01*
X72114058Y-73935942D02*
X69967192Y-73935942D01*
X69967192Y-73935942D02*
X65321884Y-78581250D01*
X170656250Y-113982500D02*
X170021250Y-113347500D01*
X170656250Y-122237500D02*
X170656250Y-113982500D01*
X172243750Y-123825000D02*
X170656250Y-122237500D01*
X299243750Y-123825000D02*
X172243750Y-123825000D01*
X308133750Y-132397500D02*
X307816250Y-132397500D01*
X307816250Y-132397500D02*
X299243750Y-123825000D01*
X161131250Y-94932500D02*
X160496250Y-94297500D01*
X161131250Y-104775000D02*
X161131250Y-94932500D01*
X170021250Y-113347500D02*
X169703750Y-113347500D01*
X169703750Y-113347500D02*
X161131250Y-104775000D01*
X155416250Y-75247500D02*
X155733750Y-75247500D01*
X146843750Y-66675000D02*
X155416250Y-75247500D01*
X146843750Y-57150000D02*
X146843750Y-66675000D01*
X146208750Y-56197500D02*
X146208750Y-56515000D01*
X146208750Y-56515000D02*
X146843750Y-57150000D01*
X160178750Y-94297500D02*
X160496250Y-94297500D01*
X156368750Y-90487500D02*
X160178750Y-94297500D01*
X155733750Y-75247500D02*
X155733750Y-75565000D01*
X155733750Y-75565000D02*
X156368750Y-76200000D01*
X66519976Y-78501889D02*
X66519976Y-80013726D01*
X66519976Y-80013726D02*
X69056250Y-82550000D01*
X153987500Y-84931250D02*
X156368750Y-87312500D01*
X156368750Y-76200000D02*
X156368750Y-87312500D01*
X156368750Y-87312500D02*
X156368750Y-90487500D01*
X174466250Y-75247500D02*
X174783750Y-75247500D01*
X165893750Y-66675000D02*
X174466250Y-75247500D01*
X165893750Y-57150000D02*
X165893750Y-66675000D01*
X165258750Y-56197500D02*
X165258750Y-56515000D01*
X165258750Y-56515000D02*
X165893750Y-57150000D01*
X179228750Y-94297500D02*
X179546250Y-94297500D01*
X175418750Y-90487500D02*
X179228750Y-94297500D01*
X174783750Y-75247500D02*
X174783750Y-75565000D01*
X174783750Y-75565000D02*
X175418750Y-76200000D01*
X187960000Y-113347500D02*
X189071250Y-113347500D01*
X180181250Y-105568750D02*
X187960000Y-113347500D01*
X180181250Y-95250000D02*
X180181250Y-105568750D01*
X179546250Y-94297500D02*
X179546250Y-94615000D01*
X179546250Y-94615000D02*
X180181250Y-95250000D01*
X67326337Y-77695529D02*
X67326337Y-79466972D01*
X67326337Y-79466972D02*
X70423431Y-82564066D01*
X173037500Y-84137500D02*
X175418750Y-86518750D01*
X175418750Y-76200000D02*
X175418750Y-86518750D01*
X175418750Y-86518750D02*
X175418750Y-90487500D01*
X193516250Y-75247500D02*
X193833750Y-75247500D01*
X184943750Y-66675000D02*
X193516250Y-75247500D01*
X184943750Y-57150000D02*
X184943750Y-66675000D01*
X184308750Y-56197500D02*
X184308750Y-56515000D01*
X184308750Y-56515000D02*
X184943750Y-57150000D01*
X197485000Y-94297500D02*
X198596250Y-94297500D01*
X194468750Y-91281250D02*
X197485000Y-94297500D01*
X194468750Y-76200000D02*
X194468750Y-91281250D01*
X193833750Y-75247500D02*
X193833750Y-75565000D01*
X193833750Y-75565000D02*
X194468750Y-76200000D01*
X207010000Y-113347500D02*
X208121250Y-113347500D01*
X199231250Y-105568750D02*
X207010000Y-113347500D01*
X199231250Y-95250000D02*
X199231250Y-105568750D01*
X198596250Y-94297500D02*
X198596250Y-94615000D01*
X198596250Y-94615000D02*
X199231250Y-95250000D01*
X68145308Y-76876558D02*
X68145308Y-79257808D01*
X68145308Y-79257808D02*
X71437500Y-82550000D01*
X192881250Y-83343750D02*
X194468750Y-84931250D01*
X212566250Y-75247500D02*
X212883750Y-75247500D01*
X203993750Y-66675000D02*
X212566250Y-75247500D01*
X203993750Y-57150000D02*
X203993750Y-66675000D01*
X203358750Y-56197500D02*
X203358750Y-56515000D01*
X203358750Y-56515000D02*
X203993750Y-57150000D01*
X216535000Y-94297500D02*
X217646250Y-94297500D01*
X213518750Y-91281250D02*
X216535000Y-94297500D01*
X213518750Y-76200000D02*
X213518750Y-91281250D01*
X212883750Y-75247500D02*
X212883750Y-75565000D01*
X212883750Y-75565000D02*
X213518750Y-76200000D01*
X226060000Y-113347500D02*
X227171250Y-113347500D01*
X218281250Y-105568750D02*
X226060000Y-113347500D01*
X218281250Y-95250000D02*
X218281250Y-105568750D01*
X217646250Y-94297500D02*
X217646250Y-94615000D01*
X217646250Y-94615000D02*
X218281250Y-95250000D01*
X74893308Y-65368308D02*
X76480808Y-65368308D01*
X76480808Y-65368308D02*
X76993750Y-65881250D01*
X203200000Y-65881250D02*
X203993750Y-66675000D01*
X231616250Y-75247500D02*
X231933750Y-75247500D01*
X223043750Y-66675000D02*
X231616250Y-75247500D01*
X223043750Y-57150000D02*
X223043750Y-66675000D01*
X222408750Y-56197500D02*
X222408750Y-56515000D01*
X222408750Y-56515000D02*
X223043750Y-57150000D01*
X235585000Y-94297500D02*
X236696250Y-94297500D01*
X232568750Y-91281250D02*
X235585000Y-94297500D01*
X232568750Y-76200000D02*
X232568750Y-91281250D01*
X231933750Y-75247500D02*
X231933750Y-75565000D01*
X231933750Y-75565000D02*
X232568750Y-76200000D01*
X236696250Y-94297500D02*
X236696250Y-94615000D01*
X236696250Y-94615000D02*
X237331250Y-95250000D01*
X237331250Y-95250000D02*
X237331250Y-104775000D01*
X245903750Y-113347500D02*
X246221250Y-113347500D01*
X237331250Y-104775000D02*
X245903750Y-113347500D01*
X75406250Y-64363018D02*
X79825512Y-64363018D01*
X79825512Y-64363018D02*
X80168750Y-64706256D01*
X221456250Y-65087500D02*
X223043750Y-66675000D01*
X250666250Y-75247500D02*
X250983750Y-75247500D01*
X242093750Y-66675000D02*
X250666250Y-75247500D01*
X242093750Y-57150000D02*
X242093750Y-66675000D01*
X241458750Y-56197500D02*
X241458750Y-56515000D01*
X241458750Y-56515000D02*
X242093750Y-57150000D01*
X254635000Y-94297500D02*
X255746250Y-94297500D01*
X251618750Y-91281250D02*
X254635000Y-94297500D01*
X251618750Y-76200000D02*
X251618750Y-91281250D01*
X250983750Y-75247500D02*
X250983750Y-75565000D01*
X250983750Y-75565000D02*
X251618750Y-76200000D01*
X264953750Y-113347500D02*
X265271250Y-113347500D01*
X256381250Y-104775000D02*
X264953750Y-113347500D01*
X256381250Y-95250000D02*
X256381250Y-104775000D01*
X255746250Y-94297500D02*
X255746250Y-94615000D01*
X255746250Y-94615000D02*
X256381250Y-95250000D01*
X76625598Y-63636018D02*
X80098515Y-63636018D01*
X80098515Y-63636018D02*
X80168750Y-63706253D01*
X239712500Y-64293750D02*
X242093750Y-66675000D01*
X288766250Y-75247500D02*
X289083750Y-75247500D01*
X280193750Y-66675000D02*
X288766250Y-75247500D01*
X280193750Y-57150000D02*
X280193750Y-66675000D01*
X279558750Y-56197500D02*
X279558750Y-56515000D01*
X279558750Y-56515000D02*
X280193750Y-57150000D01*
X292735000Y-94297500D02*
X293846250Y-94297500D01*
X289718750Y-91281250D02*
X292735000Y-94297500D01*
X289718750Y-76200000D02*
X289718750Y-91281250D01*
X289083750Y-75247500D02*
X289083750Y-75565000D01*
X289083750Y-75565000D02*
X289718750Y-76200000D01*
X310356250Y-113506250D02*
X310515000Y-113347500D01*
X303212500Y-113506250D02*
X310356250Y-113506250D01*
X294481250Y-104775000D02*
X303212500Y-113506250D01*
X294481250Y-95250000D02*
X294481250Y-104775000D01*
X293846250Y-94297500D02*
X293846250Y-94615000D01*
X293846250Y-94615000D02*
X294481250Y-95250000D01*
X307816250Y-75247500D02*
X308133750Y-75247500D01*
X299243750Y-66675000D02*
X307816250Y-75247500D01*
X299243750Y-57150000D02*
X299243750Y-66675000D01*
X298608750Y-56197500D02*
X298608750Y-56515000D01*
X298608750Y-56515000D02*
X299243750Y-57150000D01*
X324643750Y-94456250D02*
X324802500Y-94297500D01*
X311943750Y-94456250D02*
X324643750Y-94456250D01*
X308768750Y-91281250D02*
X311943750Y-94456250D01*
X308768750Y-76200000D02*
X308768750Y-91281250D01*
X308133750Y-75247500D02*
X308133750Y-75565000D01*
X308133750Y-75565000D02*
X308768750Y-76200000D01*
X324802500Y-94615000D02*
X325437500Y-95250000D01*
X324802500Y-94297500D02*
X324802500Y-94615000D01*
X325437500Y-95250000D02*
X325437500Y-104775000D01*
X325437500Y-104775000D02*
X333375000Y-112712500D01*
X336073750Y-112712500D02*
X336708750Y-113347500D01*
X333375000Y-112712500D02*
X336073750Y-112712500D01*
X297497500Y-56197500D02*
X298608750Y-56197500D01*
X292236510Y-50936510D02*
X297497500Y-56197500D01*
X64770000Y-55562500D02*
X69395990Y-50936510D01*
X69395990Y-50936510D02*
X292236510Y-50936510D01*
X64770000Y-50482500D02*
X130651250Y-50482500D01*
X130651250Y-50482500D02*
X213201250Y-50482500D01*
X336391250Y-56197500D02*
X336708750Y-56197500D01*
X213201250Y-50482500D02*
X330676250Y-50482500D01*
X330676250Y-50482500D02*
X336391250Y-56197500D01*
X74453750Y-75247500D02*
X74771250Y-75247500D01*
X70643750Y-71437500D02*
X74453750Y-75247500D01*
X70643750Y-57150000D02*
X70643750Y-71437500D01*
X70008750Y-56197500D02*
X70008750Y-56515000D01*
X70008750Y-56515000D02*
X70643750Y-57150000D01*
X75406250Y-92551250D02*
X77152500Y-94297500D01*
X75406250Y-76200000D02*
X75406250Y-92551250D01*
X74771250Y-75247500D02*
X74771250Y-75565000D01*
X74771250Y-75565000D02*
X75406250Y-76200000D01*
X77787500Y-109220000D02*
X81915000Y-113347500D01*
X77787500Y-95250000D02*
X77787500Y-109220000D01*
X77152500Y-94297500D02*
X77152500Y-94615000D01*
X77152500Y-94615000D02*
X77787500Y-95250000D01*
X98425000Y-132556250D02*
X98583750Y-132397500D01*
X87312500Y-132556250D02*
X98425000Y-132556250D01*
X82550000Y-127793750D02*
X87312500Y-132556250D01*
X82550000Y-115093750D02*
X82550000Y-127793750D01*
X81915000Y-113347500D02*
X81915000Y-114458750D01*
X81915000Y-114458750D02*
X82550000Y-115093750D01*
X50329999Y-69062499D02*
X49530000Y-68262500D01*
X53197001Y-71929501D02*
X50329999Y-69062499D01*
X65310961Y-71929501D02*
X53197001Y-71929501D01*
X65802962Y-71437500D02*
X65310961Y-71929501D01*
X70643750Y-71437500D02*
X65802962Y-71437500D01*
X326866250Y-75247500D02*
X331946250Y-75247500D01*
X318293750Y-66675000D02*
X326866250Y-75247500D01*
X318293750Y-57626250D02*
X318293750Y-66675000D01*
X317658750Y-56197500D02*
X317658750Y-56991250D01*
X317658750Y-56991250D02*
X318293750Y-57626250D01*
X32543750Y-74612500D02*
X31908750Y-75247500D01*
X32543750Y-57150000D02*
X32543750Y-74612500D01*
X31908750Y-56197500D02*
X31908750Y-56515000D01*
X31908750Y-56515000D02*
X32543750Y-57150000D01*
X32543750Y-92162500D02*
X33218750Y-92837500D01*
X32543750Y-76200000D02*
X32543750Y-92162500D01*
X31908750Y-75247500D02*
X31908750Y-75565000D01*
X31908750Y-75565000D02*
X32543750Y-76200000D01*
X32543750Y-111212500D02*
X33218750Y-111887500D01*
X32543750Y-95250000D02*
X32543750Y-111212500D01*
X31908750Y-94297500D02*
X31908750Y-94615000D01*
X31908750Y-94615000D02*
X32543750Y-95250000D01*
X32543750Y-131762500D02*
X31908750Y-132397500D01*
X32543750Y-114300000D02*
X32543750Y-131762500D01*
X31908750Y-113347500D02*
X31908750Y-113665000D01*
X31908750Y-113665000D02*
X32543750Y-114300000D01*
X37623750Y-50482500D02*
X48736250Y-50482500D01*
X31908750Y-56197500D02*
X37623750Y-50482500D01*
M02*
