G04 #@! TF.GenerationSoftware,KiCad,Pcbnew,(5.1.0)-1*
G04 #@! TF.CreationDate,2019-05-02T17:07:36-04:00*
G04 #@! TF.ProjectId,pcb-project,7063622d-7072-46f6-9a65-63742e6b6963,rev?*
G04 #@! TF.SameCoordinates,Original*
G04 #@! TF.FileFunction,Copper,L2,Bot*
G04 #@! TF.FilePolarity,Positive*
%FSLAX46Y46*%
G04 Gerber Fmt 4.6, Leading zero omitted, Abs format (unit mm)*
G04 Created by KiCad (PCBNEW (5.1.0)-1) date 2019-05-02 17:07:36*
%MOMM*%
%LPD*%
G04 APERTURE LIST*
%ADD10C,2.250000*%
%ADD11C,2.250000*%
%ADD12R,1.200000X0.900000*%
%ADD13C,1.600000*%
%ADD14R,1.600000X1.600000*%
%ADD15C,0.800000*%
%ADD16C,0.254000*%
G04 APERTURE END LIST*
D10*
X88245000Y-111097500D03*
D11*
X88225000Y-111387500D02*
X88265000Y-110807500D01*
D10*
X88265000Y-110807500D03*
X82570001Y-112617500D03*
D11*
X81915000Y-113347500D02*
X83225002Y-111887500D01*
D10*
X83225000Y-111887500D03*
X123706250Y-130937500D03*
X123051251Y-131667500D03*
D11*
X122396250Y-132397500D02*
X123706252Y-130937500D01*
D10*
X128746250Y-129857500D03*
X128726250Y-130147500D03*
D11*
X128706250Y-130437500D02*
X128746250Y-129857500D01*
D10*
X285631250Y-130937500D03*
X284976251Y-131667500D03*
D11*
X284321250Y-132397500D02*
X285631252Y-130937500D01*
D10*
X290671250Y-129857500D03*
X290651250Y-130147500D03*
D11*
X290631250Y-130437500D02*
X290671250Y-129857500D01*
D10*
X83482500Y-92047500D03*
D11*
X83462500Y-92337500D02*
X83502500Y-91757500D01*
D10*
X83502500Y-91757500D03*
X77807501Y-93567500D03*
D11*
X77152500Y-94297500D02*
X78462502Y-92837500D01*
D10*
X78462500Y-92837500D03*
D12*
X272256250Y-60387500D03*
X272256250Y-57087500D03*
X100806250Y-60387500D03*
X100806250Y-57087500D03*
X119856250Y-60387500D03*
X119856250Y-57087500D03*
X138906250Y-60387500D03*
X138906250Y-57087500D03*
X157956250Y-60387500D03*
X157956250Y-57087500D03*
X177006250Y-60387500D03*
X177006250Y-57087500D03*
X196056250Y-57087500D03*
X196056250Y-60387500D03*
X215106250Y-60387500D03*
X215106250Y-57087500D03*
X234156250Y-57087500D03*
X234156250Y-60387500D03*
X253206250Y-57087500D03*
X253206250Y-60387500D03*
X215106250Y-133287500D03*
X215106250Y-136587500D03*
X300831250Y-79437500D03*
X300831250Y-76137500D03*
X319881250Y-76137500D03*
X319881250Y-79437500D03*
X348456250Y-57087500D03*
X348456250Y-60387500D03*
X81756250Y-60387500D03*
X81756250Y-57087500D03*
X115093750Y-95187500D03*
X115093750Y-98487500D03*
X296068750Y-136587500D03*
X296068750Y-133287500D03*
X134143750Y-136587500D03*
X134143750Y-133287500D03*
X200818750Y-117537500D03*
X200818750Y-114237500D03*
X343693750Y-79437500D03*
X343693750Y-76137500D03*
X329406250Y-60387500D03*
X329406250Y-57087500D03*
X162718750Y-117537500D03*
X162718750Y-114237500D03*
X88900000Y-98487500D03*
X88900000Y-95187500D03*
X257968750Y-114237500D03*
X257968750Y-117537500D03*
X153200001Y-95187500D03*
X153200001Y-98487500D03*
X277018750Y-114237500D03*
X277018750Y-117537500D03*
X148431250Y-79437500D03*
X148431250Y-76137500D03*
X336550000Y-98487500D03*
X336550000Y-95187500D03*
X310356250Y-57087500D03*
X310356250Y-60387500D03*
X43656250Y-60387500D03*
X43656250Y-57087500D03*
X43656250Y-76137500D03*
X43656250Y-79437500D03*
X43656250Y-95187500D03*
X43656250Y-98487500D03*
X43656250Y-114237500D03*
X43656250Y-117537500D03*
X43656250Y-136587500D03*
X43656250Y-133287500D03*
X172243750Y-98487500D03*
X172243750Y-95187500D03*
X348456250Y-114237500D03*
X348456250Y-117537500D03*
X191293750Y-95187500D03*
X191293750Y-98487500D03*
X210343750Y-98487500D03*
X210343750Y-95187500D03*
X243681250Y-76137500D03*
X243681250Y-79437500D03*
X229393750Y-95187500D03*
X229393750Y-98487500D03*
X248443750Y-98487500D03*
X248443750Y-95187500D03*
X267493750Y-95187500D03*
X267493750Y-98487500D03*
X238918750Y-117537500D03*
X238918750Y-114237500D03*
X291306250Y-60387500D03*
X291306250Y-57087500D03*
X219868750Y-114237500D03*
X219868750Y-117537500D03*
X262731250Y-79437500D03*
X262731250Y-76137500D03*
X281781250Y-76137500D03*
X281781250Y-79437500D03*
X110331250Y-76137500D03*
X110331250Y-79437500D03*
X305593750Y-95187500D03*
X305593750Y-98487500D03*
X167481250Y-79437500D03*
X167481250Y-76137500D03*
X134143750Y-98487500D03*
X134143750Y-95187500D03*
X286543750Y-98487500D03*
X286543750Y-95187500D03*
X322262500Y-117537500D03*
X322262500Y-114237500D03*
X93662500Y-114237500D03*
X93662500Y-117537500D03*
X296068750Y-114237500D03*
X296068750Y-117537500D03*
X186531250Y-76137500D03*
X186531250Y-79437500D03*
X86518750Y-76137500D03*
X86518750Y-79437500D03*
X224631250Y-79437500D03*
X224631250Y-76137500D03*
X181768750Y-114237500D03*
X181768750Y-117537500D03*
X129381250Y-76137500D03*
X129381250Y-79437500D03*
X319881250Y-133287500D03*
X319881250Y-136587500D03*
X110331250Y-133287500D03*
X110331250Y-136587500D03*
X143668750Y-114237500D03*
X143668750Y-117537500D03*
X205581250Y-76137500D03*
X205581250Y-79437500D03*
X124618750Y-117537500D03*
X124618750Y-114237500D03*
D10*
X261818750Y-54737500D03*
X261163751Y-55467500D03*
D11*
X260508750Y-56197500D02*
X261818752Y-54737500D01*
D10*
X266858750Y-53657500D03*
X266838750Y-53947500D03*
D11*
X266818750Y-54237500D02*
X266858750Y-53657500D01*
D10*
X90368750Y-54737500D03*
X89713751Y-55467500D03*
D11*
X89058750Y-56197500D02*
X90368752Y-54737500D01*
D10*
X95408750Y-53657500D03*
X95388750Y-53947500D03*
D11*
X95368750Y-54237500D02*
X95408750Y-53657500D01*
D10*
X109418750Y-54737500D03*
X108763751Y-55467500D03*
D11*
X108108750Y-56197500D02*
X109418752Y-54737500D01*
D10*
X114458750Y-53657500D03*
X114438750Y-53947500D03*
D11*
X114418750Y-54237500D02*
X114458750Y-53657500D01*
D10*
X133488750Y-53947500D03*
D11*
X133468750Y-54237500D02*
X133508750Y-53657500D01*
D10*
X133508750Y-53657500D03*
X127813751Y-55467500D03*
D11*
X127158750Y-56197500D02*
X128468752Y-54737500D01*
D10*
X128468750Y-54737500D03*
X152538750Y-53947500D03*
D11*
X152518750Y-54237500D02*
X152558750Y-53657500D01*
D10*
X152558750Y-53657500D03*
X146863751Y-55467500D03*
D11*
X146208750Y-56197500D02*
X147518752Y-54737500D01*
D10*
X147518750Y-54737500D03*
X171588750Y-53947500D03*
D11*
X171568750Y-54237500D02*
X171608750Y-53657500D01*
D10*
X171608750Y-53657500D03*
X165913751Y-55467500D03*
D11*
X165258750Y-56197500D02*
X166568752Y-54737500D01*
D10*
X166568750Y-54737500D03*
X190638750Y-53947500D03*
D11*
X190618750Y-54237500D02*
X190658750Y-53657500D01*
D10*
X190658750Y-53657500D03*
X184963751Y-55467500D03*
D11*
X184308750Y-56197500D02*
X185618752Y-54737500D01*
D10*
X185618750Y-54737500D03*
X209688750Y-53947500D03*
D11*
X209668750Y-54237500D02*
X209708750Y-53657500D01*
D10*
X209708750Y-53657500D03*
X204013751Y-55467500D03*
D11*
X203358750Y-56197500D02*
X204668752Y-54737500D01*
D10*
X204668750Y-54737500D03*
X223718750Y-54737500D03*
X223063751Y-55467500D03*
D11*
X222408750Y-56197500D02*
X223718752Y-54737500D01*
D10*
X228758750Y-53657500D03*
X228738750Y-53947500D03*
D11*
X228718750Y-54237500D02*
X228758750Y-53657500D01*
D10*
X247788750Y-53947500D03*
D11*
X247768750Y-54237500D02*
X247808750Y-53657500D01*
D10*
X247808750Y-53657500D03*
X242113751Y-55467500D03*
D11*
X241458750Y-56197500D02*
X242768752Y-54737500D01*
D10*
X242768750Y-54737500D03*
X209688750Y-130147500D03*
D11*
X209668750Y-130437500D02*
X209708750Y-129857500D01*
D10*
X209708750Y-129857500D03*
X204013751Y-131667500D03*
D11*
X203358750Y-132397500D02*
X204668752Y-130937500D01*
D10*
X204668750Y-130937500D03*
X295413750Y-72997500D03*
D11*
X295393750Y-73287500D02*
X295433750Y-72707500D01*
D10*
X295433750Y-72707500D03*
X289738751Y-74517500D03*
D11*
X289083750Y-75247500D02*
X290393752Y-73787500D01*
D10*
X290393750Y-73787500D03*
X309443750Y-73787500D03*
X308788751Y-74517500D03*
D11*
X308133750Y-75247500D02*
X309443752Y-73787500D01*
D10*
X314483750Y-72707500D03*
X314463750Y-72997500D03*
D11*
X314443750Y-73287500D02*
X314483750Y-72707500D01*
D10*
X343038750Y-53947500D03*
D11*
X343018750Y-54237500D02*
X343058750Y-53657500D01*
D10*
X343058750Y-53657500D03*
X337363751Y-55467500D03*
D11*
X336708750Y-56197500D02*
X338018752Y-54737500D01*
D10*
X338018750Y-54737500D03*
X76338750Y-53947500D03*
D11*
X76318750Y-54237500D02*
X76358750Y-53657500D01*
D10*
X76358750Y-53657500D03*
X70663751Y-55467500D03*
D11*
X70008750Y-56197500D02*
X71318752Y-54737500D01*
D10*
X71318750Y-54737500D03*
X104656250Y-92837500D03*
X104001251Y-93567500D03*
D11*
X103346250Y-94297500D02*
X104656252Y-92837500D01*
D10*
X109696250Y-91757500D03*
X109676250Y-92047500D03*
D11*
X109656250Y-92337500D02*
X109696250Y-91757500D01*
D10*
X195401250Y-111097500D03*
D11*
X195381250Y-111387500D02*
X195421250Y-110807500D01*
D10*
X195421250Y-110807500D03*
X189726251Y-112617500D03*
D11*
X189071250Y-113347500D02*
X190381252Y-111887500D01*
D10*
X190381250Y-111887500D03*
X338276250Y-72997500D03*
D11*
X338256250Y-73287500D02*
X338296250Y-72707500D01*
D10*
X338296250Y-72707500D03*
X332601251Y-74517500D03*
D11*
X331946250Y-75247500D02*
X333256252Y-73787500D01*
D10*
X333256250Y-73787500D03*
X318968750Y-54737500D03*
X318313751Y-55467500D03*
D11*
X317658750Y-56197500D02*
X318968752Y-54737500D01*
D10*
X324008750Y-53657500D03*
X323988750Y-53947500D03*
D11*
X323968750Y-54237500D02*
X324008750Y-53657500D01*
D10*
X152281250Y-111887500D03*
X151626251Y-112617500D03*
D11*
X150971250Y-113347500D02*
X152281252Y-111887500D01*
D10*
X157321250Y-110807500D03*
X157301250Y-111097500D03*
D11*
X157281250Y-111387500D02*
X157321250Y-110807500D01*
D10*
X247531250Y-111887500D03*
X246876251Y-112617500D03*
D11*
X246221250Y-113347500D02*
X247531252Y-111887500D01*
D10*
X252571250Y-110807500D03*
X252551250Y-111097500D03*
D11*
X252531250Y-111387500D02*
X252571250Y-110807500D01*
D10*
X147776250Y-92047500D03*
D11*
X147756250Y-92337500D02*
X147796250Y-91757500D01*
D10*
X147796250Y-91757500D03*
X142101251Y-93567500D03*
D11*
X141446250Y-94297500D02*
X142756252Y-92837500D01*
D10*
X142756250Y-92837500D03*
X266581250Y-111887500D03*
X265926251Y-112617500D03*
D11*
X265271250Y-113347500D02*
X266581252Y-111887500D01*
D10*
X271621250Y-110807500D03*
X271601250Y-111097500D03*
D11*
X271581250Y-111387500D02*
X271621250Y-110807500D01*
D10*
X137993750Y-73787500D03*
X137338751Y-74517500D03*
D11*
X136683750Y-75247500D02*
X137993752Y-73787500D01*
D10*
X143033750Y-72707500D03*
X143013750Y-72997500D03*
D11*
X142993750Y-73287500D02*
X143033750Y-72707500D01*
D10*
X326112500Y-92837500D03*
X325457501Y-93567500D03*
D11*
X324802500Y-94297500D02*
X326112502Y-92837500D01*
D10*
X331152500Y-91757500D03*
X331132500Y-92047500D03*
D11*
X331112500Y-92337500D02*
X331152500Y-91757500D01*
D10*
X299918750Y-54737500D03*
X299263751Y-55467500D03*
D11*
X298608750Y-56197500D02*
X299918752Y-54737500D01*
D10*
X304958750Y-53657500D03*
X304938750Y-53947500D03*
D11*
X304918750Y-54237500D02*
X304958750Y-53657500D01*
D10*
X38238750Y-53947500D03*
D11*
X38218750Y-54237500D02*
X38258750Y-53657500D01*
D10*
X38258750Y-53657500D03*
X32563751Y-55467500D03*
D11*
X31908750Y-56197500D02*
X33218752Y-54737500D01*
D10*
X33218750Y-54737500D03*
X38238750Y-72997500D03*
D11*
X38218750Y-73287500D02*
X38258750Y-72707500D01*
D10*
X38258750Y-72707500D03*
X32563751Y-74517500D03*
D11*
X31908750Y-75247500D02*
X33218752Y-73787500D01*
D10*
X33218750Y-73787500D03*
X33218750Y-92837500D03*
X32563751Y-93567500D03*
D11*
X31908750Y-94297500D02*
X33218752Y-92837500D01*
D10*
X38258750Y-91757500D03*
X38238750Y-92047500D03*
D11*
X38218750Y-92337500D02*
X38258750Y-91757500D01*
D10*
X38238750Y-111097500D03*
D11*
X38218750Y-111387500D02*
X38258750Y-110807500D01*
D10*
X38258750Y-110807500D03*
X32563751Y-112617500D03*
D11*
X31908750Y-113347500D02*
X33218752Y-111887500D01*
D10*
X33218750Y-111887500D03*
X33218750Y-130937500D03*
X32563751Y-131667500D03*
D11*
X31908750Y-132397500D02*
X33218752Y-130937500D01*
D10*
X38258750Y-129857500D03*
X38238750Y-130147500D03*
D11*
X38218750Y-130437500D02*
X38258750Y-129857500D01*
D10*
X161806250Y-92837500D03*
X161151251Y-93567500D03*
D11*
X160496250Y-94297500D02*
X161806252Y-92837500D01*
D10*
X166846250Y-91757500D03*
X166826250Y-92047500D03*
D11*
X166806250Y-92337500D02*
X166846250Y-91757500D01*
D10*
X338018750Y-111887500D03*
X337363751Y-112617500D03*
D11*
X336708750Y-113347500D02*
X338018752Y-111887500D01*
D10*
X343058750Y-110807500D03*
X343038750Y-111097500D03*
D11*
X343018750Y-111387500D02*
X343058750Y-110807500D01*
D10*
X185876250Y-92047500D03*
D11*
X185856250Y-92337500D02*
X185896250Y-91757500D01*
D10*
X185896250Y-91757500D03*
X180201251Y-93567500D03*
D11*
X179546250Y-94297500D02*
X180856252Y-92837500D01*
D10*
X180856250Y-92837500D03*
X199906250Y-92837500D03*
X199251251Y-93567500D03*
D11*
X198596250Y-94297500D02*
X199906252Y-92837500D01*
D10*
X204946250Y-91757500D03*
X204926250Y-92047500D03*
D11*
X204906250Y-92337500D02*
X204946250Y-91757500D01*
D10*
X238263750Y-72997500D03*
D11*
X238243750Y-73287500D02*
X238283750Y-72707500D01*
D10*
X238283750Y-72707500D03*
X232588751Y-74517500D03*
D11*
X231933750Y-75247500D02*
X233243752Y-73787500D01*
D10*
X233243750Y-73787500D03*
X218956250Y-92837500D03*
X218301251Y-93567500D03*
D11*
X217646250Y-94297500D02*
X218956252Y-92837500D01*
D10*
X223996250Y-91757500D03*
X223976250Y-92047500D03*
D11*
X223956250Y-92337500D02*
X223996250Y-91757500D01*
D10*
X238006250Y-92837500D03*
X237351251Y-93567500D03*
D11*
X236696250Y-94297500D02*
X238006252Y-92837500D01*
D10*
X243046250Y-91757500D03*
X243026250Y-92047500D03*
D11*
X243006250Y-92337500D02*
X243046250Y-91757500D01*
D10*
X262076250Y-92047500D03*
D11*
X262056250Y-92337500D02*
X262096250Y-91757500D01*
D10*
X262096250Y-91757500D03*
X256401251Y-93567500D03*
D11*
X255746250Y-94297500D02*
X257056252Y-92837500D01*
D10*
X257056250Y-92837500D03*
X228481250Y-111887500D03*
X227826251Y-112617500D03*
D11*
X227171250Y-113347500D02*
X228481252Y-111887500D01*
D10*
X233521250Y-110807500D03*
X233501250Y-111097500D03*
D11*
X233481250Y-111387500D02*
X233521250Y-110807500D01*
D10*
X285888750Y-53947500D03*
D11*
X285868750Y-54237500D02*
X285908750Y-53657500D01*
D10*
X285908750Y-53657500D03*
X280213751Y-55467500D03*
D11*
X279558750Y-56197500D02*
X280868752Y-54737500D01*
D10*
X280868750Y-54737500D03*
X214451250Y-111097500D03*
D11*
X214431250Y-111387500D02*
X214471250Y-110807500D01*
D10*
X214471250Y-110807500D03*
X208776251Y-112617500D03*
D11*
X208121250Y-113347500D02*
X209431252Y-111887500D01*
D10*
X209431250Y-111887500D03*
X252293750Y-73787500D03*
X251638751Y-74517500D03*
D11*
X250983750Y-75247500D02*
X252293752Y-73787500D01*
D10*
X257333750Y-72707500D03*
X257313750Y-72997500D03*
D11*
X257293750Y-73287500D02*
X257333750Y-72707500D01*
D10*
X271343750Y-73787500D03*
X270688751Y-74517500D03*
D11*
X270033750Y-75247500D02*
X271343752Y-73787500D01*
D10*
X276383750Y-72707500D03*
X276363750Y-72997500D03*
D11*
X276343750Y-73287500D02*
X276383750Y-72707500D01*
D10*
X99893750Y-73787500D03*
X99238751Y-74517500D03*
D11*
X98583750Y-75247500D02*
X99893752Y-73787500D01*
D10*
X104933750Y-72707500D03*
X104913750Y-72997500D03*
D11*
X104893750Y-73287500D02*
X104933750Y-72707500D01*
D10*
X300176250Y-92047500D03*
D11*
X300156250Y-92337500D02*
X300196250Y-91757500D01*
D10*
X300196250Y-91757500D03*
X294501251Y-93567500D03*
D11*
X293846250Y-94297500D02*
X295156252Y-92837500D01*
D10*
X295156250Y-92837500D03*
X157043750Y-73787500D03*
X156388751Y-74517500D03*
D11*
X155733750Y-75247500D02*
X157043752Y-73787500D01*
D10*
X162083750Y-72707500D03*
X162063750Y-72997500D03*
D11*
X162043750Y-73287500D02*
X162083750Y-72707500D01*
D10*
X128726250Y-92047500D03*
D11*
X128706250Y-92337500D02*
X128746250Y-91757500D01*
D10*
X128746250Y-91757500D03*
X123051251Y-93567500D03*
D11*
X122396250Y-94297500D02*
X123706252Y-92837500D01*
D10*
X123706250Y-92837500D03*
X281126250Y-92047500D03*
D11*
X281106250Y-92337500D02*
X281146250Y-91757500D01*
D10*
X281146250Y-91757500D03*
X275451251Y-93567500D03*
D11*
X274796250Y-94297500D02*
X276106252Y-92837500D01*
D10*
X276106250Y-92837500D03*
X311825000Y-111887500D03*
X311170001Y-112617500D03*
D11*
X310515000Y-113347500D02*
X311825002Y-111887500D01*
D10*
X316865000Y-110807500D03*
X316845000Y-111097500D03*
D11*
X316825000Y-111387500D02*
X316865000Y-110807500D01*
D10*
X290651250Y-111097500D03*
D11*
X290631250Y-111387500D02*
X290671250Y-110807500D01*
D10*
X290671250Y-110807500D03*
X284976251Y-112617500D03*
D11*
X284321250Y-113347500D02*
X285631252Y-111887500D01*
D10*
X285631250Y-111887500D03*
X181113750Y-72997500D03*
D11*
X181093750Y-73287500D02*
X181133750Y-72707500D01*
D10*
X181133750Y-72707500D03*
X175438751Y-74517500D03*
D11*
X174783750Y-75247500D02*
X176093752Y-73787500D01*
D10*
X176093750Y-73787500D03*
X76081250Y-73787500D03*
X75426251Y-74517500D03*
D11*
X74771250Y-75247500D02*
X76081252Y-73787500D01*
D10*
X81121250Y-72707500D03*
X81101250Y-72997500D03*
D11*
X81081250Y-73287500D02*
X81121250Y-72707500D01*
D10*
X214193750Y-73787500D03*
X213538751Y-74517500D03*
D11*
X212883750Y-75247500D02*
X214193752Y-73787500D01*
D10*
X219233750Y-72707500D03*
X219213750Y-72997500D03*
D11*
X219193750Y-73287500D02*
X219233750Y-72707500D01*
D10*
X176351250Y-111097500D03*
D11*
X176331250Y-111387500D02*
X176371250Y-110807500D01*
D10*
X176371250Y-110807500D03*
X170676251Y-112617500D03*
D11*
X170021250Y-113347500D02*
X171331252Y-111887500D01*
D10*
X171331250Y-111887500D03*
X123963750Y-72997500D03*
D11*
X123943750Y-73287500D02*
X123983750Y-72707500D01*
D10*
X123983750Y-72707500D03*
X118288751Y-74517500D03*
D11*
X117633750Y-75247500D02*
X118943752Y-73787500D01*
D10*
X118943750Y-73787500D03*
X314463750Y-130147500D03*
D11*
X314443750Y-130437500D02*
X314483750Y-129857500D01*
D10*
X314483750Y-129857500D03*
X308788751Y-131667500D03*
D11*
X308133750Y-132397500D02*
X309443752Y-130937500D01*
D10*
X309443750Y-130937500D03*
X99893750Y-130937500D03*
X99238751Y-131667500D03*
D11*
X98583750Y-132397500D02*
X99893752Y-130937500D01*
D10*
X104933750Y-129857500D03*
X104913750Y-130147500D03*
D11*
X104893750Y-130437500D02*
X104933750Y-129857500D01*
D10*
X138251250Y-111097500D03*
D11*
X138231250Y-111387500D02*
X138271250Y-110807500D01*
D10*
X138271250Y-110807500D03*
X132576251Y-112617500D03*
D11*
X131921250Y-113347500D02*
X133231252Y-111887500D01*
D10*
X133231250Y-111887500D03*
X195143750Y-73787500D03*
X194488751Y-74517500D03*
D11*
X193833750Y-75247500D02*
X195143752Y-73787500D01*
D10*
X200183750Y-72707500D03*
X200163750Y-72997500D03*
D11*
X200143750Y-73287500D02*
X200183750Y-72707500D01*
D10*
X114181250Y-111887500D03*
X113526251Y-112617500D03*
D11*
X112871250Y-113347500D02*
X114181252Y-111887500D01*
D10*
X119221250Y-110807500D03*
X119201250Y-111097500D03*
D11*
X119181250Y-111387500D02*
X119221250Y-110807500D01*
D13*
X57150000Y-75882500D03*
D14*
X49530000Y-47942500D03*
D13*
X49530000Y-50482500D03*
X49530000Y-53022500D03*
X49530000Y-55562500D03*
X49530000Y-58102500D03*
X49530000Y-60642500D03*
X49530000Y-63182500D03*
X49530000Y-65722500D03*
X49530000Y-68262500D03*
X49530000Y-70802500D03*
X49530000Y-73342500D03*
X49530000Y-75882500D03*
X52070000Y-75882500D03*
X54610000Y-75882500D03*
X59690000Y-75882500D03*
X62230000Y-75882500D03*
X64770000Y-75882500D03*
X64770000Y-73342500D03*
X64770000Y-70802500D03*
X64770000Y-68262500D03*
X64770000Y-65722500D03*
X64770000Y-63182500D03*
X64770000Y-60642500D03*
X64770000Y-58102500D03*
X64770000Y-55562500D03*
X64770000Y-53022500D03*
X64770000Y-50482500D03*
X64770000Y-47942500D03*
X52070000Y-58102500D03*
X62230000Y-58102500D03*
D15*
X48418750Y-79375000D03*
X43656250Y-61912500D03*
X44450000Y-80962500D03*
X48418750Y-81756250D03*
X44450000Y-100012500D03*
X46831250Y-100012500D03*
X45243750Y-119062500D03*
X46831250Y-119062500D03*
X76993750Y-62706250D03*
X80168750Y-62706250D03*
X259556250Y-65087500D03*
X71554692Y-71320308D03*
X70526558Y-72348442D03*
X90604692Y-68145308D03*
X89576558Y-69173442D03*
X72348442Y-72114058D03*
X71320308Y-73142192D03*
X109813442Y-66399058D03*
X108743750Y-67468750D03*
X91398442Y-68939058D03*
X90370308Y-69967192D03*
X73142192Y-72907808D03*
X72114058Y-73935942D03*
X66519976Y-78501889D03*
X69056250Y-82550000D03*
X153987500Y-84931250D03*
X67326337Y-77695529D03*
X70423431Y-82564066D03*
X173037500Y-84137500D03*
X68145308Y-76876558D03*
X71437500Y-82550000D03*
X192881250Y-83343750D03*
X74893308Y-65368308D03*
X76993750Y-65881250D03*
X203200000Y-65881250D03*
X75406250Y-64363018D03*
X80168750Y-64706256D03*
X221456250Y-65087500D03*
X76625598Y-63636018D03*
X80168750Y-63706253D03*
X239712500Y-64293750D03*
D16*
X46990000Y-53022500D02*
X48736250Y-53022500D01*
X45243750Y-54768750D02*
X46990000Y-53022500D01*
X45243750Y-58096000D02*
X45243750Y-54768750D01*
X43656250Y-60387500D02*
X43656250Y-59683500D01*
X43656250Y-59683500D02*
X45243750Y-58096000D01*
X80902250Y-60387500D02*
X69056250Y-72233500D01*
X81756250Y-60387500D02*
X80902250Y-60387500D01*
X69056250Y-72233500D02*
X69056250Y-76993750D01*
X69056250Y-76993750D02*
X65881250Y-80168750D01*
X65881250Y-80168750D02*
X49212500Y-80168750D01*
X49212500Y-80168750D02*
X48418750Y-79375000D01*
X43656250Y-61912500D02*
X43656250Y-60387500D01*
X81756250Y-60387500D02*
X82612500Y-60387500D01*
X82612500Y-60387500D02*
X84137500Y-61912500D01*
X84137500Y-61912500D02*
X98425000Y-61912500D01*
X99950000Y-60387500D02*
X100806250Y-60387500D01*
X98425000Y-61912500D02*
X99950000Y-60387500D01*
X100806250Y-60387500D02*
X101662500Y-60387500D01*
X101662500Y-60387500D02*
X103187500Y-61912500D01*
X103187500Y-61912500D02*
X117475000Y-61912500D01*
X119000000Y-60387500D02*
X119856250Y-60387500D01*
X117475000Y-61912500D02*
X119000000Y-60387500D01*
X138050000Y-60387500D02*
X138906250Y-60387500D01*
X136525000Y-61912500D02*
X138050000Y-60387500D01*
X122237500Y-61912500D02*
X136525000Y-61912500D01*
X119856250Y-60387500D02*
X120712500Y-60387500D01*
X120712500Y-60387500D02*
X122237500Y-61912500D01*
X157100000Y-60387500D02*
X157956250Y-60387500D01*
X155575000Y-61912500D02*
X157100000Y-60387500D01*
X141287500Y-61912500D02*
X155575000Y-61912500D01*
X138906250Y-60387500D02*
X139762500Y-60387500D01*
X139762500Y-60387500D02*
X141287500Y-61912500D01*
X157956250Y-60387500D02*
X158812500Y-60387500D01*
X158812500Y-60387500D02*
X160337500Y-61912500D01*
X160337500Y-61912500D02*
X174625000Y-61912500D01*
X176150000Y-60387500D02*
X177006250Y-60387500D01*
X174625000Y-61912500D02*
X176150000Y-60387500D01*
X177006250Y-60387500D02*
X177862500Y-60387500D01*
X177862500Y-60387500D02*
X179387500Y-61912500D01*
X179387500Y-61912500D02*
X193675000Y-61912500D01*
X195200000Y-60387500D02*
X196056250Y-60387500D01*
X193675000Y-61912500D02*
X195200000Y-60387500D01*
X196056250Y-60387500D02*
X196912500Y-60387500D01*
X196912500Y-60387500D02*
X198437500Y-61912500D01*
X198437500Y-61912500D02*
X212725000Y-61912500D01*
X214250000Y-60387500D02*
X215106250Y-60387500D01*
X212725000Y-61912500D02*
X214250000Y-60387500D01*
X215106250Y-60387500D02*
X215962500Y-60387500D01*
X215962500Y-60387500D02*
X217487500Y-61912500D01*
X217487500Y-61912500D02*
X231775000Y-61912500D01*
X233300000Y-60387500D02*
X234156250Y-60387500D01*
X231775000Y-61912500D02*
X233300000Y-60387500D01*
X234156250Y-60387500D02*
X235012500Y-60387500D01*
X235012500Y-60387500D02*
X236537500Y-61912500D01*
X236537500Y-61912500D02*
X250825000Y-61912500D01*
X252350000Y-60387500D02*
X253206250Y-60387500D01*
X250825000Y-61912500D02*
X252350000Y-60387500D01*
X271400000Y-60387500D02*
X272256250Y-60387500D01*
X269875000Y-61912500D02*
X271400000Y-60387500D01*
X255587500Y-61912500D02*
X269875000Y-61912500D01*
X253206250Y-60387500D02*
X254062500Y-60387500D01*
X254062500Y-60387500D02*
X255587500Y-61912500D01*
X272256250Y-60387500D02*
X273112500Y-60387500D01*
X273112500Y-60387500D02*
X274637500Y-61912500D01*
X274637500Y-61912500D02*
X288925000Y-61912500D01*
X290450000Y-60387500D02*
X291306250Y-60387500D01*
X288925000Y-61912500D02*
X290450000Y-60387500D01*
X291306250Y-60387500D02*
X292162500Y-60387500D01*
X292162500Y-60387500D02*
X293687500Y-61912500D01*
X293687500Y-61912500D02*
X307975000Y-61912500D01*
X309500000Y-60387500D02*
X310356250Y-60387500D01*
X307975000Y-61912500D02*
X309500000Y-60387500D01*
X310356250Y-60387500D02*
X311212500Y-60387500D01*
X311212500Y-60387500D02*
X312737500Y-61912500D01*
X312737500Y-61912500D02*
X327025000Y-61912500D01*
X328550000Y-60387500D02*
X329406250Y-60387500D01*
X327025000Y-61912500D02*
X328550000Y-60387500D01*
X329406250Y-60387500D02*
X330262500Y-60387500D01*
X330262500Y-60387500D02*
X331787500Y-61912500D01*
X331787500Y-61912500D02*
X346075000Y-61912500D01*
X347600000Y-60387500D02*
X348456250Y-60387500D01*
X346075000Y-61912500D02*
X347600000Y-60387500D01*
X266818750Y-54237500D02*
X270137500Y-54237500D01*
X272256250Y-56356250D02*
X272256250Y-57087500D01*
X270137500Y-54237500D02*
X272256250Y-56356250D01*
X95368750Y-54237500D02*
X98687500Y-54237500D01*
X100806250Y-56356250D02*
X100806250Y-57087500D01*
X98687500Y-54237500D02*
X100806250Y-56356250D01*
X114418750Y-54237500D02*
X117737500Y-54237500D01*
X119856250Y-56356250D02*
X119856250Y-57087500D01*
X117737500Y-54237500D02*
X119856250Y-56356250D01*
X133468750Y-54237500D02*
X136787500Y-54237500D01*
X138906250Y-56356250D02*
X138906250Y-57087500D01*
X136787500Y-54237500D02*
X138906250Y-56356250D01*
X152518750Y-54237500D02*
X155837500Y-54237500D01*
X157956250Y-56356250D02*
X157956250Y-57087500D01*
X155837500Y-54237500D02*
X157956250Y-56356250D01*
X171568750Y-54237500D02*
X174887500Y-54237500D01*
X177006250Y-56356250D02*
X177006250Y-57087500D01*
X174887500Y-54237500D02*
X177006250Y-56356250D01*
X190618750Y-54237500D02*
X193937500Y-54237500D01*
X196056250Y-56383500D02*
X196056250Y-57087500D01*
X196056250Y-56356250D02*
X196056250Y-56383500D01*
X193937500Y-54237500D02*
X196056250Y-56356250D01*
X209668750Y-54237500D02*
X212987500Y-54237500D01*
X215106250Y-56356250D02*
X215106250Y-57087500D01*
X212987500Y-54237500D02*
X215106250Y-56356250D01*
X228718750Y-54237500D02*
X232037500Y-54237500D01*
X234156250Y-56356250D02*
X234156250Y-57087500D01*
X232037500Y-54237500D02*
X234156250Y-56356250D01*
X247768750Y-54237500D02*
X251087500Y-54237500D01*
X253206250Y-56356250D02*
X253206250Y-57087500D01*
X251087500Y-54237500D02*
X253206250Y-56356250D01*
X209668750Y-130437500D02*
X212987500Y-130437500D01*
X215106250Y-132556250D02*
X215106250Y-133287500D01*
X212987500Y-130437500D02*
X215106250Y-132556250D01*
X43656250Y-135883500D02*
X43656250Y-136587500D01*
X49530000Y-63182500D02*
X47942500Y-63182500D01*
X47625000Y-63500000D02*
X47625000Y-95250000D01*
X47625000Y-95250000D02*
X46037500Y-96837500D01*
X47942500Y-63182500D02*
X47625000Y-63500000D01*
X46037500Y-96837500D02*
X46037500Y-133502250D01*
X46037500Y-133502250D02*
X43656250Y-135883500D01*
X43656250Y-136587500D02*
X92012500Y-136587500D01*
X92012500Y-136587500D02*
X93537500Y-138112500D01*
X109477250Y-136587500D02*
X110331250Y-136587500D01*
X107952250Y-138112500D02*
X109477250Y-136587500D01*
X93537500Y-138112500D02*
X107952250Y-138112500D01*
X110331250Y-136587500D02*
X113568750Y-136587500D01*
X113568750Y-136587500D02*
X115093750Y-138112500D01*
X115093750Y-138112500D02*
X131762500Y-138112500D01*
X133287500Y-136587500D02*
X134143750Y-136587500D01*
X131762500Y-138112500D02*
X133287500Y-136587500D01*
X213456250Y-136587500D02*
X215106250Y-136587500D01*
X211931250Y-138112500D02*
X213456250Y-136587500D01*
X136525000Y-138112500D02*
X211931250Y-138112500D01*
X134143750Y-136587500D02*
X135000000Y-136587500D01*
X135000000Y-136587500D02*
X136525000Y-138112500D01*
X293625000Y-136587500D02*
X296068750Y-136587500D01*
X292100000Y-138112500D02*
X293625000Y-136587500D01*
X218281250Y-138112500D02*
X292100000Y-138112500D01*
X215106250Y-136587500D02*
X216756250Y-136587500D01*
X216756250Y-136587500D02*
X218281250Y-138112500D01*
X296068750Y-136587500D02*
X298512500Y-136587500D01*
X298512500Y-136587500D02*
X300037500Y-138112500D01*
X300037500Y-138112500D02*
X317500000Y-138112500D01*
X319025000Y-136587500D02*
X319881250Y-136587500D01*
X317500000Y-138112500D02*
X319025000Y-136587500D01*
X47625000Y-55562500D02*
X48736250Y-55562500D01*
X43656250Y-78733500D02*
X45243750Y-77146000D01*
X45243750Y-77146000D02*
X45243750Y-59531250D01*
X43656250Y-79437500D02*
X43656250Y-78733500D01*
X45243750Y-59531250D02*
X46037500Y-58737500D01*
X46037500Y-58737500D02*
X46037500Y-57150000D01*
X46037500Y-57150000D02*
X47625000Y-55562500D01*
X43656250Y-79437500D02*
X43656250Y-80168750D01*
X43656250Y-80168750D02*
X44450000Y-80962500D01*
X48418750Y-81756250D02*
X82550000Y-81756250D01*
X84868750Y-79437500D02*
X86518750Y-79437500D01*
X82550000Y-81756250D02*
X84868750Y-79437500D01*
X343693750Y-79437500D02*
X342962500Y-79437500D01*
X342962500Y-79437500D02*
X341437500Y-80962500D01*
X341437500Y-80962500D02*
X322262500Y-80962500D01*
X320737500Y-79437500D02*
X319881250Y-79437500D01*
X322262500Y-80962500D02*
X320737500Y-79437500D01*
X319881250Y-79437500D02*
X319025000Y-79437500D01*
X319025000Y-79437500D02*
X317500000Y-80962500D01*
X317500000Y-80962500D02*
X303212500Y-80962500D01*
X301687500Y-79437500D02*
X300831250Y-79437500D01*
X303212500Y-80962500D02*
X301687500Y-79437500D01*
X282637500Y-79437500D02*
X281781250Y-79437500D01*
X284162500Y-80962500D02*
X282637500Y-79437500D01*
X298450000Y-80962500D02*
X284162500Y-80962500D01*
X300831250Y-79437500D02*
X299975000Y-79437500D01*
X299975000Y-79437500D02*
X298450000Y-80962500D01*
X263587500Y-79437500D02*
X262731250Y-79437500D01*
X265112500Y-80962500D02*
X263587500Y-79437500D01*
X279400000Y-80962500D02*
X265112500Y-80962500D01*
X281781250Y-79437500D02*
X280925000Y-79437500D01*
X280925000Y-79437500D02*
X279400000Y-80962500D01*
X262731250Y-79437500D02*
X261875000Y-79437500D01*
X261875000Y-79437500D02*
X260350000Y-80962500D01*
X260350000Y-80962500D02*
X246062500Y-80962500D01*
X244537500Y-79437500D02*
X243681250Y-79437500D01*
X246062500Y-80962500D02*
X244537500Y-79437500D01*
X243681250Y-79437500D02*
X242825000Y-79437500D01*
X242825000Y-79437500D02*
X241300000Y-80962500D01*
X241300000Y-80962500D02*
X227012500Y-80962500D01*
X225487500Y-79437500D02*
X224631250Y-79437500D01*
X227012500Y-80962500D02*
X225487500Y-79437500D01*
X224631250Y-79437500D02*
X223775000Y-79437500D01*
X223775000Y-79437500D02*
X222250000Y-80962500D01*
X222250000Y-80962500D02*
X207962500Y-80962500D01*
X206437500Y-79437500D02*
X205581250Y-79437500D01*
X207962500Y-80962500D02*
X206437500Y-79437500D01*
X205581250Y-79437500D02*
X204725000Y-79437500D01*
X204725000Y-79437500D02*
X203200000Y-80962500D01*
X203200000Y-80962500D02*
X188912500Y-80962500D01*
X187387500Y-79437500D02*
X186531250Y-79437500D01*
X188912500Y-80962500D02*
X187387500Y-79437500D01*
X186531250Y-79437500D02*
X185675000Y-79437500D01*
X185675000Y-79437500D02*
X184150000Y-80962500D01*
X184150000Y-80962500D02*
X169862500Y-80962500D01*
X168337500Y-79437500D02*
X167481250Y-79437500D01*
X169862500Y-80962500D02*
X168337500Y-79437500D01*
X167481250Y-79437500D02*
X166625000Y-79437500D01*
X166625000Y-79437500D02*
X165100000Y-80962500D01*
X149285250Y-79437500D02*
X148431250Y-79437500D01*
X150810250Y-80962500D02*
X149285250Y-79437500D01*
X165100000Y-80962500D02*
X150810250Y-80962500D01*
X148431250Y-79437500D02*
X147575000Y-79437500D01*
X147575000Y-79437500D02*
X146050000Y-80962500D01*
X130235250Y-79437500D02*
X129381250Y-79437500D01*
X131760250Y-80962500D02*
X130235250Y-79437500D01*
X146050000Y-80962500D02*
X131760250Y-80962500D01*
X129381250Y-79437500D02*
X128525000Y-79437500D01*
X128525000Y-79437500D02*
X127000000Y-80962500D01*
X110331250Y-79437500D02*
X111187500Y-79437500D01*
X111187500Y-79437500D02*
X112712500Y-80962500D01*
X112712500Y-80962500D02*
X127000000Y-80962500D01*
X110331250Y-79437500D02*
X109475000Y-79437500D01*
X109475000Y-79437500D02*
X107950000Y-80962500D01*
X107950000Y-80962500D02*
X88900000Y-80962500D01*
X87375000Y-79437500D02*
X86518750Y-79437500D01*
X88900000Y-80962500D02*
X87375000Y-79437500D01*
X295393750Y-73287500D02*
X298712500Y-73287500D01*
X300831250Y-75406250D02*
X300831250Y-76137500D01*
X298712500Y-73287500D02*
X300831250Y-75406250D01*
X314443750Y-73287500D02*
X317762500Y-73287500D01*
X319881250Y-75406250D02*
X319881250Y-76137500D01*
X317762500Y-73287500D02*
X319881250Y-75406250D01*
X343018750Y-54237500D02*
X346337500Y-54237500D01*
X348456250Y-56356250D02*
X348456250Y-57087500D01*
X346337500Y-54237500D02*
X348456250Y-56356250D01*
X76318750Y-54237500D02*
X79637500Y-54237500D01*
X81756250Y-56356250D02*
X81756250Y-57087500D01*
X79637500Y-54237500D02*
X81756250Y-56356250D01*
X109656250Y-92337500D02*
X112975000Y-92337500D01*
X115093750Y-94456250D02*
X115093750Y-95187500D01*
X112975000Y-92337500D02*
X115093750Y-94456250D01*
X47466250Y-58102500D02*
X48736250Y-58102500D01*
X46037500Y-59531250D02*
X47466250Y-58102500D01*
X46037500Y-95250000D02*
X46037500Y-59531250D01*
X43656250Y-98487500D02*
X43656250Y-97631250D01*
X43656250Y-97631250D02*
X46037500Y-95250000D01*
X43656250Y-98487500D02*
X43656250Y-99218750D01*
X43656250Y-99218750D02*
X44450000Y-100012500D01*
X88046000Y-98487500D02*
X88900000Y-98487500D01*
X86521000Y-100012500D02*
X88046000Y-98487500D01*
X46831250Y-100012500D02*
X86521000Y-100012500D01*
X88900000Y-98487500D02*
X89631250Y-98487500D01*
X89631250Y-98487500D02*
X91156250Y-100012500D01*
X91156250Y-100012500D02*
X111918750Y-100012500D01*
X114239750Y-98487500D02*
X115093750Y-98487500D01*
X113443750Y-98487500D02*
X114239750Y-98487500D01*
X111918750Y-100012500D02*
X113443750Y-98487500D01*
X115093750Y-98487500D02*
X116743750Y-98487500D01*
X116743750Y-98487500D02*
X118268750Y-100012500D01*
X118268750Y-100012500D02*
X130968750Y-100012500D01*
X132493750Y-98487500D02*
X134143750Y-98487500D01*
X130968750Y-100012500D02*
X132493750Y-98487500D01*
X134143750Y-98487500D02*
X135793750Y-98487500D01*
X135793750Y-98487500D02*
X137318750Y-100012500D01*
X137318750Y-100012500D02*
X150018750Y-100012500D01*
X151543750Y-98487500D02*
X153200001Y-98487500D01*
X150018750Y-100012500D02*
X151543750Y-98487500D01*
X153200001Y-98487500D02*
X154718750Y-98487500D01*
X154718750Y-98487500D02*
X156243750Y-100012500D01*
X156243750Y-100012500D02*
X169862500Y-100012500D01*
X171387500Y-98487500D02*
X172243750Y-98487500D01*
X169862500Y-100012500D02*
X171387500Y-98487500D01*
X172243750Y-98487500D02*
X173100000Y-98487500D01*
X173100000Y-98487500D02*
X174625000Y-100012500D01*
X174625000Y-100012500D02*
X188118750Y-100012500D01*
X189643750Y-98487500D02*
X191293750Y-98487500D01*
X188118750Y-100012500D02*
X189643750Y-98487500D01*
X191293750Y-98487500D02*
X192943750Y-98487500D01*
X192943750Y-98487500D02*
X194468750Y-100012500D01*
X194468750Y-100012500D02*
X207962500Y-100012500D01*
X209487500Y-98487500D02*
X210343750Y-98487500D01*
X207962500Y-100012500D02*
X209487500Y-98487500D01*
X210343750Y-98487500D02*
X211868750Y-98487500D01*
X211868750Y-98487500D02*
X213393750Y-100012500D01*
X213393750Y-100012500D02*
X226218750Y-100012500D01*
X227743750Y-98487500D02*
X229393750Y-98487500D01*
X226218750Y-100012500D02*
X227743750Y-98487500D01*
X229393750Y-98487500D02*
X231043750Y-98487500D01*
X231043750Y-98487500D02*
X232568750Y-100012500D01*
X232568750Y-100012500D02*
X245268750Y-100012500D01*
X246793750Y-98487500D02*
X248443750Y-98487500D01*
X245268750Y-100012500D02*
X246793750Y-98487500D01*
X248443750Y-98487500D02*
X250093750Y-98487500D01*
X250093750Y-98487500D02*
X251618750Y-100012500D01*
X251618750Y-100012500D02*
X264318750Y-100012500D01*
X265843750Y-98487500D02*
X267493750Y-98487500D01*
X264318750Y-100012500D02*
X265843750Y-98487500D01*
X267493750Y-98487500D02*
X269143750Y-98487500D01*
X269143750Y-98487500D02*
X270668750Y-100012500D01*
X270668750Y-100012500D02*
X284162500Y-100012500D01*
X285687500Y-98487500D02*
X286543750Y-98487500D01*
X284162500Y-100012500D02*
X285687500Y-98487500D01*
X286543750Y-98487500D02*
X287400000Y-98487500D01*
X287400000Y-98487500D02*
X288925000Y-100012500D01*
X288925000Y-100012500D02*
X303212500Y-100012500D01*
X304737500Y-98487500D02*
X305593750Y-98487500D01*
X303212500Y-100012500D02*
X304737500Y-98487500D01*
X335693750Y-98487500D02*
X336550000Y-98487500D01*
X334168750Y-100012500D02*
X335693750Y-98487500D01*
X307975000Y-100012500D02*
X334168750Y-100012500D01*
X305593750Y-98487500D02*
X306450000Y-98487500D01*
X306450000Y-98487500D02*
X307975000Y-100012500D01*
X290631250Y-130437500D02*
X293950000Y-130437500D01*
X296068750Y-132556250D02*
X296068750Y-133287500D01*
X293950000Y-130437500D02*
X296068750Y-132556250D01*
X128706250Y-130437500D02*
X132025000Y-130437500D01*
X134143750Y-132556250D02*
X134143750Y-133287500D01*
X132025000Y-130437500D02*
X134143750Y-132556250D01*
X48101250Y-60642500D02*
X48736250Y-60642500D01*
X43656250Y-116833500D02*
X45243750Y-115246000D01*
X43656250Y-117537500D02*
X43656250Y-116833500D01*
X45243750Y-115246000D02*
X45243750Y-96837500D01*
X45243750Y-96837500D02*
X46831250Y-95250000D01*
X46831250Y-95250000D02*
X46831250Y-61912500D01*
X46831250Y-61912500D02*
X48101250Y-60642500D01*
X43656250Y-117537500D02*
X43718750Y-117537500D01*
X43718750Y-117537500D02*
X45243750Y-119062500D01*
X92808500Y-117537500D02*
X93662500Y-117537500D01*
X91283500Y-119062500D02*
X92808500Y-117537500D01*
X46831250Y-119062500D02*
X91283500Y-119062500D01*
X348456250Y-117537500D02*
X346806250Y-117537500D01*
X346806250Y-117537500D02*
X345281250Y-119062500D01*
X345281250Y-119062500D02*
X326231250Y-119062500D01*
X324706250Y-117537500D02*
X322262500Y-117537500D01*
X326231250Y-119062500D02*
X324706250Y-117537500D01*
X320612500Y-117537500D02*
X319087500Y-119062500D01*
X322262500Y-117537500D02*
X320612500Y-117537500D01*
X319087500Y-119062500D02*
X300831250Y-119062500D01*
X299306250Y-117537500D02*
X296068750Y-117537500D01*
X300831250Y-119062500D02*
X299306250Y-117537500D01*
X280987500Y-119062500D02*
X279462500Y-117537500D01*
X292893750Y-119062500D02*
X280987500Y-119062500D01*
X296068750Y-117537500D02*
X294418750Y-117537500D01*
X279462500Y-117537500D02*
X277018750Y-117537500D01*
X294418750Y-117537500D02*
X292893750Y-119062500D01*
X277018750Y-117537500D02*
X275493750Y-117537500D01*
X275493750Y-117537500D02*
X273968750Y-119062500D01*
X273968750Y-119062500D02*
X262731250Y-119062500D01*
X261206250Y-117537500D02*
X257968750Y-117537500D01*
X262731250Y-119062500D02*
X261206250Y-117537500D01*
X242156250Y-117537500D02*
X238918750Y-117537500D01*
X243681250Y-119062500D02*
X242156250Y-117537500D01*
X254793750Y-119062500D02*
X243681250Y-119062500D01*
X257968750Y-117537500D02*
X256318750Y-117537500D01*
X256318750Y-117537500D02*
X254793750Y-119062500D01*
X221518750Y-117537500D02*
X219868750Y-117537500D01*
X223043750Y-119062500D02*
X221518750Y-117537500D01*
X235743750Y-119062500D02*
X223043750Y-119062500D01*
X238918750Y-117537500D02*
X237268750Y-117537500D01*
X237268750Y-117537500D02*
X235743750Y-119062500D01*
X202468750Y-117537500D02*
X200818750Y-117537500D01*
X203993750Y-119062500D02*
X202468750Y-117537500D01*
X216693750Y-119062500D02*
X203993750Y-119062500D01*
X219868750Y-117537500D02*
X218218750Y-117537500D01*
X218218750Y-117537500D02*
X216693750Y-119062500D01*
X200818750Y-117537500D02*
X199168750Y-117537500D01*
X199168750Y-117537500D02*
X197643750Y-119062500D01*
X197643750Y-119062500D02*
X184943750Y-119062500D01*
X183418750Y-117537500D02*
X181768750Y-117537500D01*
X184943750Y-119062500D02*
X183418750Y-117537500D01*
X163575000Y-117537500D02*
X162718750Y-117537500D01*
X165100000Y-119062500D02*
X163575000Y-117537500D01*
X178593750Y-119062500D02*
X165100000Y-119062500D01*
X181768750Y-117537500D02*
X180118750Y-117537500D01*
X180118750Y-117537500D02*
X178593750Y-119062500D01*
X162718750Y-117537500D02*
X161068750Y-117537500D01*
X161068750Y-117537500D02*
X159543750Y-119062500D01*
X159543750Y-119062500D02*
X146843750Y-119062500D01*
X145318750Y-117537500D02*
X143668750Y-117537500D01*
X146843750Y-119062500D02*
X145318750Y-117537500D01*
X143668750Y-117537500D02*
X142018750Y-117537500D01*
X142018750Y-117537500D02*
X140493750Y-119062500D01*
X140493750Y-119062500D02*
X128587500Y-119062500D01*
X127062500Y-117537500D02*
X124618750Y-117537500D01*
X128587500Y-119062500D02*
X127062500Y-117537500D01*
X95312500Y-117537500D02*
X93662500Y-117537500D01*
X96837500Y-119062500D02*
X95312500Y-117537500D01*
X121443750Y-119062500D02*
X96837500Y-119062500D01*
X124618750Y-117537500D02*
X122968750Y-117537500D01*
X122968750Y-117537500D02*
X121443750Y-119062500D01*
X195381250Y-111387500D02*
X198700000Y-111387500D01*
X200818750Y-113506250D02*
X200818750Y-114237500D01*
X198700000Y-111387500D02*
X200818750Y-113506250D01*
X338256250Y-73287500D02*
X341575000Y-73287500D01*
X343693750Y-75406250D02*
X343693750Y-76137500D01*
X341575000Y-73287500D02*
X343693750Y-75406250D01*
X323968750Y-54237500D02*
X327287500Y-54237500D01*
X329406250Y-56356250D02*
X329406250Y-57087500D01*
X327287500Y-54237500D02*
X329406250Y-56356250D01*
X157281250Y-111387500D02*
X160600000Y-111387500D01*
X162718750Y-113506250D02*
X162718750Y-114237500D01*
X160600000Y-111387500D02*
X162718750Y-113506250D01*
X83462500Y-92337500D02*
X86781250Y-92337500D01*
X88900000Y-94456250D02*
X88900000Y-95187500D01*
X86781250Y-92337500D02*
X88900000Y-94456250D01*
X252531250Y-111387500D02*
X255850000Y-111387500D01*
X257968750Y-113506250D02*
X257968750Y-114237500D01*
X255850000Y-111387500D02*
X257968750Y-113506250D01*
X147756250Y-92337500D02*
X151075000Y-92337500D01*
X153200001Y-94462501D02*
X153200001Y-95187500D01*
X151075000Y-92337500D02*
X153200001Y-94462501D01*
X271581250Y-111387500D02*
X274900000Y-111387500D01*
X277018750Y-113506250D02*
X277018750Y-114237500D01*
X274900000Y-111387500D02*
X277018750Y-113506250D01*
X142993750Y-73287500D02*
X146312500Y-73287500D01*
X148431250Y-75406250D02*
X148431250Y-76137500D01*
X146312500Y-73287500D02*
X148431250Y-75406250D01*
X331112500Y-92337500D02*
X334431250Y-92337500D01*
X336550000Y-94456250D02*
X336550000Y-95187500D01*
X334431250Y-92337500D02*
X336550000Y-94456250D01*
X304918750Y-54237500D02*
X308237500Y-54237500D01*
X310356250Y-56356250D02*
X310356250Y-57087500D01*
X308237500Y-54237500D02*
X310356250Y-56356250D01*
X38218750Y-54237500D02*
X41537500Y-54237500D01*
X43656250Y-56356250D02*
X43656250Y-57087500D01*
X41537500Y-54237500D02*
X43656250Y-56356250D01*
X38218750Y-73287500D02*
X41537500Y-73287500D01*
X43656250Y-75406250D02*
X43656250Y-76137500D01*
X41537500Y-73287500D02*
X43656250Y-75406250D01*
X38218750Y-92337500D02*
X41537500Y-92337500D01*
X43656250Y-94456250D02*
X43656250Y-95187500D01*
X41537500Y-92337500D02*
X43656250Y-94456250D01*
X38218750Y-111387500D02*
X41537500Y-111387500D01*
X43656250Y-113506250D02*
X43656250Y-114237500D01*
X41537500Y-111387500D02*
X43656250Y-113506250D01*
X38218750Y-130437500D02*
X41537500Y-130437500D01*
X43656250Y-132556250D02*
X43656250Y-133287500D01*
X41537500Y-130437500D02*
X43656250Y-132556250D01*
X166806250Y-92337500D02*
X170125000Y-92337500D01*
X172243750Y-94456250D02*
X172243750Y-95187500D01*
X170125000Y-92337500D02*
X172243750Y-94456250D01*
X343018750Y-111387500D02*
X346337500Y-111387500D01*
X348456250Y-113506250D02*
X348456250Y-114237500D01*
X346337500Y-111387500D02*
X348456250Y-113506250D01*
X185856250Y-92337500D02*
X189175000Y-92337500D01*
X191293750Y-94456250D02*
X191293750Y-95187500D01*
X189175000Y-92337500D02*
X191293750Y-94456250D01*
X204906250Y-92337500D02*
X208225000Y-92337500D01*
X210343750Y-94456250D02*
X210343750Y-95187500D01*
X208225000Y-92337500D02*
X210343750Y-94456250D01*
X238243750Y-73287500D02*
X241562500Y-73287500D01*
X243681250Y-75406250D02*
X243681250Y-76137500D01*
X241562500Y-73287500D02*
X243681250Y-75406250D01*
X223956250Y-92337500D02*
X227275000Y-92337500D01*
X229393750Y-94456250D02*
X229393750Y-95187500D01*
X227275000Y-92337500D02*
X229393750Y-94456250D01*
X243006250Y-92337500D02*
X246325000Y-92337500D01*
X248443750Y-94456250D02*
X248443750Y-95187500D01*
X246325000Y-92337500D02*
X248443750Y-94456250D01*
X262056250Y-92337500D02*
X265375000Y-92337500D01*
X267493750Y-94456250D02*
X267493750Y-95187500D01*
X265375000Y-92337500D02*
X267493750Y-94456250D01*
X233481250Y-111387500D02*
X236800000Y-111387500D01*
X238918750Y-113506250D02*
X238918750Y-114237500D01*
X236800000Y-111387500D02*
X238918750Y-113506250D01*
X285868750Y-54237500D02*
X289187500Y-54237500D01*
X291306250Y-56356250D02*
X291306250Y-57087500D01*
X289187500Y-54237500D02*
X291306250Y-56356250D01*
X214431250Y-111387500D02*
X217750000Y-111387500D01*
X219868750Y-113506250D02*
X219868750Y-114237500D01*
X217750000Y-111387500D02*
X219868750Y-113506250D01*
X257293750Y-73287500D02*
X260612500Y-73287500D01*
X262731250Y-75406250D02*
X262731250Y-76137500D01*
X260612500Y-73287500D02*
X262731250Y-75406250D01*
X276343750Y-73287500D02*
X279662500Y-73287500D01*
X281781250Y-75406250D02*
X281781250Y-76137500D01*
X279662500Y-73287500D02*
X281781250Y-75406250D01*
X104893750Y-73287500D02*
X108212500Y-73287500D01*
X110331250Y-75406250D02*
X110331250Y-76137500D01*
X108212500Y-73287500D02*
X110331250Y-75406250D01*
X300156250Y-92337500D02*
X303475000Y-92337500D01*
X305593750Y-94483500D02*
X305593750Y-95187500D01*
X305593750Y-94456250D02*
X305593750Y-94483500D01*
X303475000Y-92337500D02*
X305593750Y-94456250D01*
X162043750Y-73287500D02*
X166156250Y-73287500D01*
X167481250Y-74612500D02*
X167481250Y-76137500D01*
X166156250Y-73287500D02*
X167481250Y-74612500D01*
X128706250Y-92337500D02*
X132025000Y-92337500D01*
X134143750Y-94456250D02*
X134143750Y-95187500D01*
X132025000Y-92337500D02*
X134143750Y-94456250D01*
X281106250Y-92337500D02*
X284425000Y-92337500D01*
X286543750Y-94456250D02*
X286543750Y-95187500D01*
X284425000Y-92337500D02*
X286543750Y-94456250D01*
X316825000Y-111387500D02*
X320143750Y-111387500D01*
X322262500Y-113533500D02*
X322262500Y-114237500D01*
X322262500Y-113506250D02*
X322262500Y-113533500D01*
X320143750Y-111387500D02*
X322262500Y-113506250D01*
X88225000Y-111387500D02*
X91543750Y-111387500D01*
X93662500Y-113506250D02*
X93662500Y-114237500D01*
X91543750Y-111387500D02*
X93662500Y-113506250D01*
X290631250Y-111387500D02*
X293950000Y-111387500D01*
X296068750Y-113506250D02*
X296068750Y-114237500D01*
X293950000Y-111387500D02*
X296068750Y-113506250D01*
X181093750Y-73287500D02*
X184412500Y-73287500D01*
X186531250Y-75433500D02*
X186531250Y-76137500D01*
X186531250Y-75406250D02*
X186531250Y-75433500D01*
X184412500Y-73287500D02*
X186531250Y-75406250D01*
X81081250Y-73287500D02*
X84400000Y-73287500D01*
X86518750Y-75406250D02*
X86518750Y-76137500D01*
X84400000Y-73287500D02*
X86518750Y-75406250D01*
X219193750Y-73287500D02*
X222512500Y-73287500D01*
X224631250Y-75406250D02*
X224631250Y-76137500D01*
X222512500Y-73287500D02*
X224631250Y-75406250D01*
X176331250Y-111387500D02*
X179650000Y-111387500D01*
X181768750Y-113506250D02*
X181768750Y-114237500D01*
X179650000Y-111387500D02*
X181768750Y-113506250D01*
X123943750Y-73287500D02*
X127262500Y-73287500D01*
X127262500Y-73287500D02*
X129381250Y-75406250D01*
X129381250Y-75406250D02*
X129381250Y-76137500D01*
X314443750Y-130437500D02*
X317762500Y-130437500D01*
X319881250Y-132556250D02*
X319881250Y-133287500D01*
X317762500Y-130437500D02*
X319881250Y-132556250D01*
X104893750Y-130437500D02*
X108212500Y-130437500D01*
X110331250Y-132556250D02*
X110331250Y-133287500D01*
X108212500Y-130437500D02*
X110331250Y-132556250D01*
X138231250Y-111387500D02*
X141550000Y-111387500D01*
X143668750Y-113506250D02*
X143668750Y-114237500D01*
X141550000Y-111387500D02*
X143668750Y-113506250D01*
X200143750Y-73287500D02*
X203462500Y-73287500D01*
X205581250Y-75406250D02*
X205581250Y-76137500D01*
X203462500Y-73287500D02*
X205581250Y-75406250D01*
X119181250Y-111387500D02*
X122500000Y-111387500D01*
X124618750Y-113506250D02*
X124618750Y-114237500D01*
X122500000Y-111387500D02*
X124618750Y-113506250D01*
X64770000Y-60642500D02*
X70167500Y-60642500D01*
X70167500Y-60642500D02*
X72231250Y-62706250D01*
X72231250Y-62706250D02*
X76993750Y-62706250D01*
X80168750Y-62706250D02*
X95250000Y-62706250D01*
X95250000Y-62706250D02*
X138906250Y-62706250D01*
X138906250Y-62706250D02*
X188118750Y-62706250D01*
X188118750Y-62706250D02*
X227806250Y-62706250D01*
X227806250Y-62706250D02*
X256381250Y-62706250D01*
X256381250Y-62706250D02*
X257175000Y-62706250D01*
X257175000Y-62706250D02*
X259556250Y-65087500D01*
X71554692Y-71320308D02*
X70526558Y-72348442D01*
X90604692Y-68145308D02*
X89576558Y-69173442D01*
X72348442Y-72114058D02*
X71320308Y-73142192D01*
X109813442Y-66399058D02*
X108743750Y-67468750D01*
X91398442Y-68939058D02*
X90370308Y-69967192D01*
X73142192Y-72907808D02*
X72114058Y-73935942D01*
X64770000Y-75882500D02*
X65563750Y-75882500D01*
X65563750Y-75882500D02*
X66519976Y-76838726D01*
X66519976Y-76838726D02*
X66519976Y-78501889D01*
X69056250Y-82550000D02*
X70643750Y-84137500D01*
X70643750Y-84137500D02*
X151606250Y-84137500D01*
X151606250Y-84137500D02*
X153193750Y-84137500D01*
X153193750Y-84137500D02*
X153987500Y-84931250D01*
X64770000Y-73342500D02*
X66992500Y-73342500D01*
X66992500Y-73342500D02*
X67326337Y-73676337D01*
X67326337Y-73676337D02*
X67326337Y-77695529D01*
X70423431Y-83129751D02*
X70637430Y-83343750D01*
X70423431Y-82564066D02*
X70423431Y-83129751D01*
X70637430Y-83343750D02*
X73025000Y-83343750D01*
X73025000Y-83343750D02*
X169862500Y-83343750D01*
X169862500Y-83343750D02*
X172243750Y-83343750D01*
X172243750Y-83343750D02*
X173037500Y-84137500D01*
X64770000Y-70802500D02*
X66833750Y-70802500D01*
X66833750Y-70802500D02*
X68262500Y-72231250D01*
X68262500Y-72231250D02*
X68262500Y-76759366D01*
X68262500Y-76759366D02*
X68145308Y-76876558D01*
X71437500Y-82550000D02*
X85725000Y-82550000D01*
X85725000Y-82550000D02*
X192087500Y-82550000D01*
X192087500Y-82550000D02*
X192881250Y-83343750D01*
X64770000Y-68262500D02*
X67468750Y-68262500D01*
X67468750Y-68262500D02*
X70362942Y-65368308D01*
X70362942Y-65368308D02*
X74893308Y-65368308D01*
X76993750Y-65881250D02*
X78581250Y-65881250D01*
X80201508Y-65881250D02*
X80995258Y-65087500D01*
X78581250Y-65881250D02*
X80201508Y-65881250D01*
X80995258Y-65087500D02*
X202406250Y-65087500D01*
X202406250Y-65087500D02*
X203200000Y-65881250D01*
X64770000Y-65722500D02*
X68421250Y-65722500D01*
X68421250Y-65722500D02*
X69780732Y-64363018D01*
X69780732Y-64363018D02*
X75406250Y-64363018D01*
X80734435Y-64706256D02*
X81146941Y-64293750D01*
X80168750Y-64706256D02*
X80734435Y-64706256D01*
X81146941Y-64293750D02*
X95250000Y-64293750D01*
X95250000Y-64293750D02*
X220662500Y-64293750D01*
X220662500Y-64293750D02*
X221456250Y-65087500D01*
X64770000Y-63182500D02*
X69532500Y-63182500D01*
X69532500Y-63182500D02*
X69986018Y-63636018D01*
X69986018Y-63636018D02*
X76625598Y-63636018D01*
X80168750Y-63706253D02*
X85518747Y-63706253D01*
X85518747Y-63706253D02*
X239125003Y-63706253D01*
X239125003Y-63706253D02*
X239712500Y-64293750D01*
X274161250Y-50800000D02*
X279558750Y-56197500D01*
X70643750Y-50800000D02*
X274161250Y-50800000D01*
X66675000Y-54768750D02*
X70643750Y-50800000D01*
X64770000Y-58102500D02*
X66675000Y-56197500D01*
X66675000Y-56197500D02*
X66675000Y-54768750D01*
X311467500Y-50006250D02*
X317658750Y-56197500D01*
X70643750Y-50006250D02*
X311467500Y-50006250D01*
X68427499Y-52222501D02*
X70643750Y-50006250D01*
X64770000Y-53022500D02*
X65569999Y-52222501D01*
X65569999Y-52222501D02*
X68427499Y-52222501D01*
M02*
