M48
; DRILL file {KiCad (5.1.0)-1} date 5/17/2019 11:19:50 AM
; FORMAT={-:-/ absolute / inch / decimal}
; #@! TF.CreationDate,2019-05-17T11:19:50-04:00
; #@! TF.GenerationSoftware,Kicad,Pcbnew,(5.1.0)-1
; #@! TF.FileFunction,NonPlated,1,2,NPTH
FMAT,2
INCH
T1C0.0689
T2C0.1200
T3C0.1570
%
G90
G05
T1
X5.3312Y-3.0625
X5.7313Y-3.0625
X7.0187Y-3.8125
X7.4188Y-3.8125
X5.7062Y-2.3125
X6.1063Y-2.3125
X6.0812Y-3.0625
X6.4813Y-3.0625
X7.9562Y-2.3125
X8.3562Y-2.3125
X6.6437Y-4.5625
X7.0438Y-4.5625
X4.7687Y-3.8125
X5.1688Y-3.8125
X12.0812Y-5.3125
X12.4812Y-5.3125
X7.7687Y-3.8125
X8.1687Y-3.8125
X4.5812Y-3.0625
X4.9813Y-3.0625
X8.8937Y-4.5625
X9.2937Y-4.5625
X8.7062Y-2.3125
X9.1062Y-2.3125
X1.2063Y-2.3125
X1.6062Y-2.3125
X10.3937Y-4.5625
X10.7937Y-4.5625
X8.5187Y-3.8125
X8.9187Y-3.8125
X12.0812Y-3.0625
X12.4812Y-3.0625
X10.9562Y-2.3125
X11.3562Y-2.3125
X4.0187Y-3.8125
X4.4188Y-3.8125
X13.2062Y-4.5625
X13.6062Y-4.5625
X10.2062Y-2.3125
X10.6062Y-2.3125
X12.175Y-4.5625
X12.575Y-4.5625
X9.6437Y-4.5625
X10.0437Y-4.5625
X6.4562Y-2.3125
X6.8563Y-2.3125
X6.8312Y-3.0625
X7.2313Y-3.0625
X9.4562Y-2.3125
X9.8562Y-2.3125
X4.9562Y-2.3125
X5.3563Y-2.3125
X10.7687Y-3.8125
X11.1687Y-3.8125
X11.1437Y-4.5625
X11.5437Y-4.5625
X2.9875Y-3.8125
X3.3875Y-3.8125
X3.4562Y-2.3125
X3.8562Y-2.3125
X3.8312Y-3.0625
X4.2313Y-3.0625
X1.2063Y-3.8125
X1.6062Y-3.8125
X4.7687Y-5.3125
X5.1688Y-5.3125
X5.1437Y-4.5625
X5.5438Y-4.5625
X9.0812Y-3.0625
X9.4812Y-3.0625
X13.0187Y-3.0625
X13.4187Y-3.0625
X1.2063Y-3.0625
X1.6062Y-3.0625
X4.3937Y-4.5625
X4.7938Y-4.5625
X11.3312Y-3.0625
X11.7312Y-3.0625
X10.0187Y-3.8125
X10.4187Y-3.8125
X13.2062Y-2.3125
X13.6062Y-2.3125
X11.7062Y-2.3125
X12.1062Y-2.3125
X7.3937Y-4.5625
X7.7938Y-4.5625
X1.2063Y-5.3125
X1.6062Y-5.3125
X4.2062Y-2.3125
X4.6063Y-2.3125
X10.5812Y-3.0625
X10.9812Y-3.0625
X12.7375Y-3.8125
X13.1375Y-3.8125
X7.2062Y-2.3125
X7.6063Y-2.3125
X8.3312Y-3.0625
X8.7312Y-3.0625
X5.8937Y-4.5625
X6.2938Y-4.5625
X3.8312Y-5.3125
X4.2313Y-5.3125
X11.5187Y-3.8125
X11.9187Y-3.8125
X2.8937Y-3.0625
X3.2937Y-3.0625
X9.2687Y-3.8125
X9.6687Y-3.8125
X5.5187Y-3.8125
X5.9188Y-3.8125
X7.5812Y-3.0625
X7.9813Y-3.0625
X8.1437Y-4.5625
X8.5437Y-4.5625
X11.1437Y-5.3125
X11.5437Y-5.3125
X12.4562Y-2.3125
X12.8562Y-2.3125
X1.2063Y-4.5625
X1.6062Y-4.5625
X7.9562Y-5.3125
X8.3562Y-5.3125
X9.8312Y-3.0625
X10.2312Y-3.0625
X2.7062Y-2.3125
X3.1062Y-2.3125
X6.2687Y-3.8125
X6.6688Y-3.8125
X3.175Y-4.5625
X3.575Y-4.5625
T2
X12.4675Y-3.5375
X13.4075Y-3.5375
X5.9062Y-5.0375
X10.4062Y-5.0375
X2.905Y-4.2875
X3.845Y-4.2875
T3
X2.905Y-4.8875
X3.375Y-4.5625
X3.845Y-4.8875
X5.5312Y-3.0625
X7.2188Y-3.8125
X5.9062Y-2.3125
X6.2812Y-3.0625
X8.1562Y-2.3125
X6.8438Y-4.5625
X4.9688Y-3.8125
X12.2812Y-5.3125
X7.9688Y-3.8125
X4.7812Y-3.0625
X9.0938Y-4.5625
X8.9062Y-2.3125
X1.4062Y-2.3125
X10.5938Y-4.5625
X8.7188Y-3.8125
X12.2812Y-3.0625
X11.1562Y-2.3125
X4.2188Y-3.8125
X13.4062Y-4.5625
X10.4062Y-2.3125
X12.375Y-4.5625
X9.8438Y-4.5625
X6.6562Y-2.3125
X7.0312Y-3.0625
X9.6562Y-2.3125
X5.1562Y-2.3125
X10.9688Y-3.8125
X11.3438Y-4.5625
X3.1875Y-3.8125
X3.6562Y-2.3125
X4.0312Y-3.0625
X1.4062Y-3.8125
X4.9688Y-5.3125
X5.3438Y-4.5625
X9.2812Y-3.0625
X13.2188Y-3.0625
X1.4062Y-3.0625
X4.5938Y-4.5625
X11.5312Y-3.0625
X10.2188Y-3.8125
X13.4062Y-2.3125
X11.9062Y-2.3125
X7.5938Y-4.5625
X1.4062Y-5.3125
X4.4062Y-2.3125
X10.7812Y-3.0625
X12.4675Y-4.1375
X12.9375Y-3.8125
X13.4075Y-4.1375
X7.4062Y-2.3125
X8.5312Y-3.0625
X6.0938Y-4.5625
X4.0312Y-5.3125
X11.7188Y-3.8125
X3.0938Y-3.0625
X9.4688Y-3.8125
X5.7188Y-3.8125
X7.7812Y-3.0625
X8.3438Y-4.5625
X11.3438Y-5.3125
X12.6562Y-2.3125
X1.4062Y-4.5625
X5.9062Y-5.6375
X8.1562Y-5.3125
X10.4062Y-5.6375
X10.0312Y-3.0625
X2.9062Y-2.3125
X6.4688Y-3.8125
T0
M30
