G04 #@! TF.GenerationSoftware,KiCad,Pcbnew,(5.1.0)-1*
G04 #@! TF.CreationDate,2019-05-02T17:07:36-04:00*
G04 #@! TF.ProjectId,pcb-project,7063622d-7072-46f6-9a65-63742e6b6963,rev?*
G04 #@! TF.SameCoordinates,Original*
G04 #@! TF.FileFunction,Legend,Bot*
G04 #@! TF.FilePolarity,Positive*
%FSLAX46Y46*%
G04 Gerber Fmt 4.6, Leading zero omitted, Abs format (unit mm)*
G04 Created by KiCad (PCBNEW (5.1.0)-1) date 2019-05-02 17:07:36*
%MOMM*%
%LPD*%
G04 APERTURE LIST*
%ADD10C,0.150000*%
%ADD11C,0.120000*%
%ADD12C,2.352000*%
%ADD13C,2.352000*%
%ADD14C,4.089800*%
%ADD15C,1.852000*%
%ADD16C,3.150000*%
%ADD17R,1.302000X1.002000*%
%ADD18C,1.702000*%
%ADD19R,1.702000X1.702000*%
G04 APERTURE END LIST*
D10*
X173226785Y-142533630D02*
X173226785Y-141533630D01*
X172988690Y-141533630D01*
X172845833Y-141581250D01*
X172750595Y-141676488D01*
X172702976Y-141771726D01*
X172655357Y-141962202D01*
X172655357Y-142105059D01*
X172702976Y-142295535D01*
X172750595Y-142390773D01*
X172845833Y-142486011D01*
X172988690Y-142533630D01*
X173226785Y-142533630D01*
X171845833Y-142486011D02*
X171941071Y-142533630D01*
X172131547Y-142533630D01*
X172226785Y-142486011D01*
X172274404Y-142390773D01*
X172274404Y-142009821D01*
X172226785Y-141914583D01*
X172131547Y-141866964D01*
X171941071Y-141866964D01*
X171845833Y-141914583D01*
X171798214Y-142009821D01*
X171798214Y-142105059D01*
X172274404Y-142200297D01*
X171417261Y-142486011D02*
X171322023Y-142533630D01*
X171131547Y-142533630D01*
X171036309Y-142486011D01*
X170988690Y-142390773D01*
X170988690Y-142343154D01*
X171036309Y-142247916D01*
X171131547Y-142200297D01*
X171274404Y-142200297D01*
X171369642Y-142152678D01*
X171417261Y-142057440D01*
X171417261Y-142009821D01*
X171369642Y-141914583D01*
X171274404Y-141866964D01*
X171131547Y-141866964D01*
X171036309Y-141914583D01*
X170560119Y-142533630D02*
X170560119Y-141866964D01*
X170560119Y-141533630D02*
X170607738Y-141581250D01*
X170560119Y-141628869D01*
X170512500Y-141581250D01*
X170560119Y-141533630D01*
X170560119Y-141628869D01*
X169655357Y-141866964D02*
X169655357Y-142676488D01*
X169702976Y-142771726D01*
X169750595Y-142819345D01*
X169845833Y-142866964D01*
X169988690Y-142866964D01*
X170083928Y-142819345D01*
X169655357Y-142486011D02*
X169750595Y-142533630D01*
X169941071Y-142533630D01*
X170036309Y-142486011D01*
X170083928Y-142438392D01*
X170131547Y-142343154D01*
X170131547Y-142057440D01*
X170083928Y-141962202D01*
X170036309Y-141914583D01*
X169941071Y-141866964D01*
X169750595Y-141866964D01*
X169655357Y-141914583D01*
X169179166Y-141866964D02*
X169179166Y-142533630D01*
X169179166Y-141962202D02*
X169131547Y-141914583D01*
X169036309Y-141866964D01*
X168893452Y-141866964D01*
X168798214Y-141914583D01*
X168750595Y-142009821D01*
X168750595Y-142533630D01*
X167893452Y-142486011D02*
X167988690Y-142533630D01*
X168179166Y-142533630D01*
X168274404Y-142486011D01*
X168322023Y-142390773D01*
X168322023Y-142009821D01*
X168274404Y-141914583D01*
X168179166Y-141866964D01*
X167988690Y-141866964D01*
X167893452Y-141914583D01*
X167845833Y-142009821D01*
X167845833Y-142105059D01*
X168322023Y-142200297D01*
X166988690Y-142533630D02*
X166988690Y-141533630D01*
X166988690Y-142486011D02*
X167083928Y-142533630D01*
X167274404Y-142533630D01*
X167369642Y-142486011D01*
X167417261Y-142438392D01*
X167464880Y-142343154D01*
X167464880Y-142057440D01*
X167417261Y-141962202D01*
X167369642Y-141914583D01*
X167274404Y-141866964D01*
X167083928Y-141866964D01*
X166988690Y-141914583D01*
X165417261Y-142009821D02*
X165274404Y-142057440D01*
X165226785Y-142105059D01*
X165179166Y-142200297D01*
X165179166Y-142343154D01*
X165226785Y-142438392D01*
X165274404Y-142486011D01*
X165369642Y-142533630D01*
X165750595Y-142533630D01*
X165750595Y-141533630D01*
X165417261Y-141533630D01*
X165322023Y-141581250D01*
X165274404Y-141628869D01*
X165226785Y-141724107D01*
X165226785Y-141819345D01*
X165274404Y-141914583D01*
X165322023Y-141962202D01*
X165417261Y-142009821D01*
X165750595Y-142009821D01*
X164845833Y-141866964D02*
X164607738Y-142533630D01*
X164369642Y-141866964D02*
X164607738Y-142533630D01*
X164702976Y-142771726D01*
X164750595Y-142819345D01*
X164845833Y-142866964D01*
X163226785Y-142533630D02*
X163226785Y-141533630D01*
X162988690Y-141533630D01*
X162845833Y-141581250D01*
X162750595Y-141676488D01*
X162702976Y-141771726D01*
X162655357Y-141962202D01*
X162655357Y-142105059D01*
X162702976Y-142295535D01*
X162750595Y-142390773D01*
X162845833Y-142486011D01*
X162988690Y-142533630D01*
X163226785Y-142533630D01*
X161845833Y-142486011D02*
X161941071Y-142533630D01*
X162131547Y-142533630D01*
X162226785Y-142486011D01*
X162274404Y-142390773D01*
X162274404Y-142009821D01*
X162226785Y-141914583D01*
X162131547Y-141866964D01*
X161941071Y-141866964D01*
X161845833Y-141914583D01*
X161798214Y-142009821D01*
X161798214Y-142105059D01*
X162274404Y-142200297D01*
X160941071Y-142533630D02*
X160941071Y-142009821D01*
X160988690Y-141914583D01*
X161083928Y-141866964D01*
X161274404Y-141866964D01*
X161369642Y-141914583D01*
X160941071Y-142486011D02*
X161036309Y-142533630D01*
X161274404Y-142533630D01*
X161369642Y-142486011D01*
X161417261Y-142390773D01*
X161417261Y-142295535D01*
X161369642Y-142200297D01*
X161274404Y-142152678D01*
X161036309Y-142152678D01*
X160941071Y-142105059D01*
X160464880Y-141866964D02*
X160464880Y-142533630D01*
X160464880Y-141962202D02*
X160417261Y-141914583D01*
X160322023Y-141866964D01*
X160179166Y-141866964D01*
X160083928Y-141914583D01*
X160036309Y-142009821D01*
X160036309Y-142533630D01*
X158798214Y-142533630D02*
X158798214Y-141533630D01*
X158417261Y-141533630D01*
X158322023Y-141581250D01*
X158274404Y-141628869D01*
X158226785Y-141724107D01*
X158226785Y-141866964D01*
X158274404Y-141962202D01*
X158322023Y-142009821D01*
X158417261Y-142057440D01*
X158798214Y-142057440D01*
X157417261Y-142486011D02*
X157512500Y-142533630D01*
X157702976Y-142533630D01*
X157798214Y-142486011D01*
X157845833Y-142390773D01*
X157845833Y-142009821D01*
X157798214Y-141914583D01*
X157702976Y-141866964D01*
X157512500Y-141866964D01*
X157417261Y-141914583D01*
X157369642Y-142009821D01*
X157369642Y-142105059D01*
X157845833Y-142200297D01*
X156941071Y-142533630D02*
X156941071Y-141866964D01*
X156941071Y-142057440D02*
X156893452Y-141962202D01*
X156845833Y-141914583D01*
X156750595Y-141866964D01*
X156655357Y-141866964D01*
X156322023Y-142533630D02*
X156322023Y-141533630D01*
X156226785Y-142152678D02*
X155941071Y-142533630D01*
X155941071Y-141866964D02*
X156322023Y-142247916D01*
X155512500Y-142533630D02*
X155512500Y-141866964D01*
X155512500Y-141533630D02*
X155560119Y-141581250D01*
X155512500Y-141628869D01*
X155464880Y-141581250D01*
X155512500Y-141533630D01*
X155512500Y-141628869D01*
X155036309Y-141866964D02*
X155036309Y-142533630D01*
X155036309Y-141962202D02*
X154988690Y-141914583D01*
X154893452Y-141866964D01*
X154750595Y-141866964D01*
X154655357Y-141914583D01*
X154607738Y-142009821D01*
X154607738Y-142533630D01*
X154179166Y-142486011D02*
X154083928Y-142533630D01*
X153893452Y-142533630D01*
X153798214Y-142486011D01*
X153750595Y-142390773D01*
X153750595Y-142343154D01*
X153798214Y-142247916D01*
X153893452Y-142200297D01*
X154036309Y-142200297D01*
X154131547Y-142152678D01*
X154179166Y-142057440D01*
X154179166Y-142009821D01*
X154131547Y-141914583D01*
X154036309Y-141866964D01*
X153893452Y-141866964D01*
X153798214Y-141914583D01*
X173084226Y-140946130D02*
X173084226Y-139946130D01*
X172703273Y-139946130D01*
X172608035Y-139993750D01*
X172560416Y-140041369D01*
X172512797Y-140136607D01*
X172512797Y-140279464D01*
X172560416Y-140374702D01*
X172608035Y-140422321D01*
X172703273Y-140469940D01*
X173084226Y-140469940D01*
X171512797Y-140850892D02*
X171560416Y-140898511D01*
X171703273Y-140946130D01*
X171798511Y-140946130D01*
X171941369Y-140898511D01*
X172036607Y-140803273D01*
X172084226Y-140708035D01*
X172131845Y-140517559D01*
X172131845Y-140374702D01*
X172084226Y-140184226D01*
X172036607Y-140088988D01*
X171941369Y-139993750D01*
X171798511Y-139946130D01*
X171703273Y-139946130D01*
X171560416Y-139993750D01*
X171512797Y-140041369D01*
X170750892Y-140422321D02*
X170608035Y-140469940D01*
X170560416Y-140517559D01*
X170512797Y-140612797D01*
X170512797Y-140755654D01*
X170560416Y-140850892D01*
X170608035Y-140898511D01*
X170703273Y-140946130D01*
X171084226Y-140946130D01*
X171084226Y-139946130D01*
X170750892Y-139946130D01*
X170655654Y-139993750D01*
X170608035Y-140041369D01*
X170560416Y-140136607D01*
X170560416Y-140231845D01*
X170608035Y-140327083D01*
X170655654Y-140374702D01*
X170750892Y-140422321D01*
X171084226Y-140422321D01*
X170084226Y-140565178D02*
X169322321Y-140565178D01*
X168846130Y-140946130D02*
X168846130Y-139946130D01*
X168465178Y-139946130D01*
X168369940Y-139993750D01*
X168322321Y-140041369D01*
X168274702Y-140136607D01*
X168274702Y-140279464D01*
X168322321Y-140374702D01*
X168369940Y-140422321D01*
X168465178Y-140469940D01*
X168846130Y-140469940D01*
X167846130Y-140946130D02*
X167846130Y-140279464D01*
X167846130Y-140469940D02*
X167798511Y-140374702D01*
X167750892Y-140327083D01*
X167655654Y-140279464D01*
X167560416Y-140279464D01*
X167084226Y-140946130D02*
X167179464Y-140898511D01*
X167227083Y-140850892D01*
X167274702Y-140755654D01*
X167274702Y-140469940D01*
X167227083Y-140374702D01*
X167179464Y-140327083D01*
X167084226Y-140279464D01*
X166941369Y-140279464D01*
X166846130Y-140327083D01*
X166798511Y-140374702D01*
X166750892Y-140469940D01*
X166750892Y-140755654D01*
X166798511Y-140850892D01*
X166846130Y-140898511D01*
X166941369Y-140946130D01*
X167084226Y-140946130D01*
X166322321Y-140279464D02*
X166322321Y-141136607D01*
X166369940Y-141231845D01*
X166465178Y-141279464D01*
X166512797Y-141279464D01*
X166322321Y-139946130D02*
X166369940Y-139993750D01*
X166322321Y-140041369D01*
X166274702Y-139993750D01*
X166322321Y-139946130D01*
X166322321Y-140041369D01*
X165465178Y-140898511D02*
X165560416Y-140946130D01*
X165750892Y-140946130D01*
X165846130Y-140898511D01*
X165893750Y-140803273D01*
X165893750Y-140422321D01*
X165846130Y-140327083D01*
X165750892Y-140279464D01*
X165560416Y-140279464D01*
X165465178Y-140327083D01*
X165417559Y-140422321D01*
X165417559Y-140517559D01*
X165893750Y-140612797D01*
X164560416Y-140898511D02*
X164655654Y-140946130D01*
X164846130Y-140946130D01*
X164941369Y-140898511D01*
X164988988Y-140850892D01*
X165036607Y-140755654D01*
X165036607Y-140469940D01*
X164988988Y-140374702D01*
X164941369Y-140327083D01*
X164846130Y-140279464D01*
X164655654Y-140279464D01*
X164560416Y-140327083D01*
X164274702Y-140279464D02*
X163893750Y-140279464D01*
X164131845Y-139946130D02*
X164131845Y-140803273D01*
X164084226Y-140898511D01*
X163988988Y-140946130D01*
X163893750Y-140946130D01*
X162893750Y-140279464D02*
X162655654Y-140946130D01*
X162417559Y-140279464D01*
X161846130Y-139946130D02*
X161750892Y-139946130D01*
X161655654Y-139993750D01*
X161608035Y-140041369D01*
X161560416Y-140136607D01*
X161512797Y-140327083D01*
X161512797Y-140565178D01*
X161560416Y-140755654D01*
X161608035Y-140850892D01*
X161655654Y-140898511D01*
X161750892Y-140946130D01*
X161846130Y-140946130D01*
X161941369Y-140898511D01*
X161988988Y-140850892D01*
X162036607Y-140755654D01*
X162084226Y-140565178D01*
X162084226Y-140327083D01*
X162036607Y-140136607D01*
X161988988Y-140041369D01*
X161941369Y-139993750D01*
X161846130Y-139946130D01*
X161084226Y-140850892D02*
X161036607Y-140898511D01*
X161084226Y-140946130D01*
X161131845Y-140898511D01*
X161084226Y-140850892D01*
X161084226Y-140946130D01*
X160084226Y-140946130D02*
X160655654Y-140946130D01*
X160369940Y-140946130D02*
X160369940Y-139946130D01*
X160465178Y-140088988D01*
X160560416Y-140184226D01*
X160655654Y-140231845D01*
X159655654Y-140850892D02*
X159608035Y-140898511D01*
X159655654Y-140946130D01*
X159703273Y-140898511D01*
X159655654Y-140850892D01*
X159655654Y-140946130D01*
X158655654Y-140946130D02*
X159227083Y-140946130D01*
X158941369Y-140946130D02*
X158941369Y-139946130D01*
X159036607Y-140088988D01*
X159131845Y-140184226D01*
X159227083Y-140231845D01*
D11*
X273256250Y-60987500D02*
X271256250Y-60987500D01*
X271256250Y-60987500D02*
X271256250Y-57087500D01*
X273256250Y-60987500D02*
X273256250Y-57087500D01*
X101806250Y-60987500D02*
X99806250Y-60987500D01*
X99806250Y-60987500D02*
X99806250Y-57087500D01*
X101806250Y-60987500D02*
X101806250Y-57087500D01*
X120856250Y-60987500D02*
X118856250Y-60987500D01*
X118856250Y-60987500D02*
X118856250Y-57087500D01*
X120856250Y-60987500D02*
X120856250Y-57087500D01*
X139906250Y-60987500D02*
X137906250Y-60987500D01*
X137906250Y-60987500D02*
X137906250Y-57087500D01*
X139906250Y-60987500D02*
X139906250Y-57087500D01*
X158956250Y-60987500D02*
X156956250Y-60987500D01*
X156956250Y-60987500D02*
X156956250Y-57087500D01*
X158956250Y-60987500D02*
X158956250Y-57087500D01*
X178006250Y-60987500D02*
X176006250Y-60987500D01*
X176006250Y-60987500D02*
X176006250Y-57087500D01*
X178006250Y-60987500D02*
X178006250Y-57087500D01*
X197056250Y-60987500D02*
X197056250Y-57087500D01*
X195056250Y-60987500D02*
X195056250Y-57087500D01*
X197056250Y-60987500D02*
X195056250Y-60987500D01*
X216106250Y-60987500D02*
X214106250Y-60987500D01*
X214106250Y-60987500D02*
X214106250Y-57087500D01*
X216106250Y-60987500D02*
X216106250Y-57087500D01*
X235156250Y-60987500D02*
X235156250Y-57087500D01*
X233156250Y-60987500D02*
X233156250Y-57087500D01*
X235156250Y-60987500D02*
X233156250Y-60987500D01*
X254206250Y-60987500D02*
X254206250Y-57087500D01*
X252206250Y-60987500D02*
X252206250Y-57087500D01*
X254206250Y-60987500D02*
X252206250Y-60987500D01*
X216106250Y-137187500D02*
X216106250Y-133287500D01*
X214106250Y-137187500D02*
X214106250Y-133287500D01*
X216106250Y-137187500D02*
X214106250Y-137187500D01*
X301831250Y-80037500D02*
X299831250Y-80037500D01*
X299831250Y-80037500D02*
X299831250Y-76137500D01*
X301831250Y-80037500D02*
X301831250Y-76137500D01*
X320881250Y-80037500D02*
X320881250Y-76137500D01*
X318881250Y-80037500D02*
X318881250Y-76137500D01*
X320881250Y-80037500D02*
X318881250Y-80037500D01*
X349456250Y-60987500D02*
X349456250Y-57087500D01*
X347456250Y-60987500D02*
X347456250Y-57087500D01*
X349456250Y-60987500D02*
X347456250Y-60987500D01*
X82756250Y-60987500D02*
X80756250Y-60987500D01*
X80756250Y-60987500D02*
X80756250Y-57087500D01*
X82756250Y-60987500D02*
X82756250Y-57087500D01*
X116093750Y-99087500D02*
X116093750Y-95187500D01*
X114093750Y-99087500D02*
X114093750Y-95187500D01*
X116093750Y-99087500D02*
X114093750Y-99087500D01*
X297068750Y-137187500D02*
X295068750Y-137187500D01*
X295068750Y-137187500D02*
X295068750Y-133287500D01*
X297068750Y-137187500D02*
X297068750Y-133287500D01*
X135143750Y-137187500D02*
X133143750Y-137187500D01*
X133143750Y-137187500D02*
X133143750Y-133287500D01*
X135143750Y-137187500D02*
X135143750Y-133287500D01*
X201818750Y-118137500D02*
X199818750Y-118137500D01*
X199818750Y-118137500D02*
X199818750Y-114237500D01*
X201818750Y-118137500D02*
X201818750Y-114237500D01*
X344693750Y-80037500D02*
X342693750Y-80037500D01*
X342693750Y-80037500D02*
X342693750Y-76137500D01*
X344693750Y-80037500D02*
X344693750Y-76137500D01*
X330406250Y-60987500D02*
X328406250Y-60987500D01*
X328406250Y-60987500D02*
X328406250Y-57087500D01*
X330406250Y-60987500D02*
X330406250Y-57087500D01*
X163718750Y-118137500D02*
X161718750Y-118137500D01*
X161718750Y-118137500D02*
X161718750Y-114237500D01*
X163718750Y-118137500D02*
X163718750Y-114237500D01*
X89900000Y-99087500D02*
X87900000Y-99087500D01*
X87900000Y-99087500D02*
X87900000Y-95187500D01*
X89900000Y-99087500D02*
X89900000Y-95187500D01*
X258968750Y-118137500D02*
X258968750Y-114237500D01*
X256968750Y-118137500D02*
X256968750Y-114237500D01*
X258968750Y-118137500D02*
X256968750Y-118137500D01*
X154200001Y-99087500D02*
X154200001Y-95187500D01*
X152200001Y-99087500D02*
X152200001Y-95187500D01*
X154200001Y-99087500D02*
X152200001Y-99087500D01*
X278018750Y-118137500D02*
X278018750Y-114237500D01*
X276018750Y-118137500D02*
X276018750Y-114237500D01*
X278018750Y-118137500D02*
X276018750Y-118137500D01*
X149431250Y-80037500D02*
X147431250Y-80037500D01*
X147431250Y-80037500D02*
X147431250Y-76137500D01*
X149431250Y-80037500D02*
X149431250Y-76137500D01*
X337550000Y-99087500D02*
X335550000Y-99087500D01*
X335550000Y-99087500D02*
X335550000Y-95187500D01*
X337550000Y-99087500D02*
X337550000Y-95187500D01*
X311356250Y-60987500D02*
X311356250Y-57087500D01*
X309356250Y-60987500D02*
X309356250Y-57087500D01*
X311356250Y-60987500D02*
X309356250Y-60987500D01*
X44656250Y-60987500D02*
X42656250Y-60987500D01*
X42656250Y-60987500D02*
X42656250Y-57087500D01*
X44656250Y-60987500D02*
X44656250Y-57087500D01*
X44656250Y-80037500D02*
X44656250Y-76137500D01*
X42656250Y-80037500D02*
X42656250Y-76137500D01*
X44656250Y-80037500D02*
X42656250Y-80037500D01*
X44656250Y-99087500D02*
X44656250Y-95187500D01*
X42656250Y-99087500D02*
X42656250Y-95187500D01*
X44656250Y-99087500D02*
X42656250Y-99087500D01*
X44656250Y-118137500D02*
X44656250Y-114237500D01*
X42656250Y-118137500D02*
X42656250Y-114237500D01*
X44656250Y-118137500D02*
X42656250Y-118137500D01*
X44656250Y-137187500D02*
X42656250Y-137187500D01*
X42656250Y-137187500D02*
X42656250Y-133287500D01*
X44656250Y-137187500D02*
X44656250Y-133287500D01*
X173243750Y-99087500D02*
X171243750Y-99087500D01*
X171243750Y-99087500D02*
X171243750Y-95187500D01*
X173243750Y-99087500D02*
X173243750Y-95187500D01*
X349456250Y-118137500D02*
X349456250Y-114237500D01*
X347456250Y-118137500D02*
X347456250Y-114237500D01*
X349456250Y-118137500D02*
X347456250Y-118137500D01*
X192293750Y-99087500D02*
X192293750Y-95187500D01*
X190293750Y-99087500D02*
X190293750Y-95187500D01*
X192293750Y-99087500D02*
X190293750Y-99087500D01*
X211343750Y-99087500D02*
X209343750Y-99087500D01*
X209343750Y-99087500D02*
X209343750Y-95187500D01*
X211343750Y-99087500D02*
X211343750Y-95187500D01*
X244681250Y-80037500D02*
X244681250Y-76137500D01*
X242681250Y-80037500D02*
X242681250Y-76137500D01*
X244681250Y-80037500D02*
X242681250Y-80037500D01*
X230393750Y-99087500D02*
X230393750Y-95187500D01*
X228393750Y-99087500D02*
X228393750Y-95187500D01*
X230393750Y-99087500D02*
X228393750Y-99087500D01*
X249443750Y-99087500D02*
X247443750Y-99087500D01*
X247443750Y-99087500D02*
X247443750Y-95187500D01*
X249443750Y-99087500D02*
X249443750Y-95187500D01*
X268493750Y-99087500D02*
X268493750Y-95187500D01*
X266493750Y-99087500D02*
X266493750Y-95187500D01*
X268493750Y-99087500D02*
X266493750Y-99087500D01*
X239918750Y-118137500D02*
X237918750Y-118137500D01*
X237918750Y-118137500D02*
X237918750Y-114237500D01*
X239918750Y-118137500D02*
X239918750Y-114237500D01*
X292306250Y-60987500D02*
X290306250Y-60987500D01*
X290306250Y-60987500D02*
X290306250Y-57087500D01*
X292306250Y-60987500D02*
X292306250Y-57087500D01*
X220868750Y-118137500D02*
X220868750Y-114237500D01*
X218868750Y-118137500D02*
X218868750Y-114237500D01*
X220868750Y-118137500D02*
X218868750Y-118137500D01*
X263731250Y-80037500D02*
X261731250Y-80037500D01*
X261731250Y-80037500D02*
X261731250Y-76137500D01*
X263731250Y-80037500D02*
X263731250Y-76137500D01*
X282781250Y-80037500D02*
X282781250Y-76137500D01*
X280781250Y-80037500D02*
X280781250Y-76137500D01*
X282781250Y-80037500D02*
X280781250Y-80037500D01*
X111331250Y-80037500D02*
X111331250Y-76137500D01*
X109331250Y-80037500D02*
X109331250Y-76137500D01*
X111331250Y-80037500D02*
X109331250Y-80037500D01*
X306593750Y-99087500D02*
X306593750Y-95187500D01*
X304593750Y-99087500D02*
X304593750Y-95187500D01*
X306593750Y-99087500D02*
X304593750Y-99087500D01*
X168481250Y-80037500D02*
X166481250Y-80037500D01*
X166481250Y-80037500D02*
X166481250Y-76137500D01*
X168481250Y-80037500D02*
X168481250Y-76137500D01*
X135143750Y-99087500D02*
X133143750Y-99087500D01*
X133143750Y-99087500D02*
X133143750Y-95187500D01*
X135143750Y-99087500D02*
X135143750Y-95187500D01*
X287543750Y-99087500D02*
X285543750Y-99087500D01*
X285543750Y-99087500D02*
X285543750Y-95187500D01*
X287543750Y-99087500D02*
X287543750Y-95187500D01*
X323262500Y-118137500D02*
X321262500Y-118137500D01*
X321262500Y-118137500D02*
X321262500Y-114237500D01*
X323262500Y-118137500D02*
X323262500Y-114237500D01*
X94662500Y-118137500D02*
X94662500Y-114237500D01*
X92662500Y-118137500D02*
X92662500Y-114237500D01*
X94662500Y-118137500D02*
X92662500Y-118137500D01*
X297068750Y-118137500D02*
X297068750Y-114237500D01*
X295068750Y-118137500D02*
X295068750Y-114237500D01*
X297068750Y-118137500D02*
X295068750Y-118137500D01*
X187531250Y-80037500D02*
X187531250Y-76137500D01*
X185531250Y-80037500D02*
X185531250Y-76137500D01*
X187531250Y-80037500D02*
X185531250Y-80037500D01*
X87518750Y-80037500D02*
X87518750Y-76137500D01*
X85518750Y-80037500D02*
X85518750Y-76137500D01*
X87518750Y-80037500D02*
X85518750Y-80037500D01*
X225631250Y-80037500D02*
X223631250Y-80037500D01*
X223631250Y-80037500D02*
X223631250Y-76137500D01*
X225631250Y-80037500D02*
X225631250Y-76137500D01*
X182768750Y-118137500D02*
X182768750Y-114237500D01*
X180768750Y-118137500D02*
X180768750Y-114237500D01*
X182768750Y-118137500D02*
X180768750Y-118137500D01*
X130381250Y-80037500D02*
X130381250Y-76137500D01*
X128381250Y-80037500D02*
X128381250Y-76137500D01*
X130381250Y-80037500D02*
X128381250Y-80037500D01*
X320881250Y-137187500D02*
X320881250Y-133287500D01*
X318881250Y-137187500D02*
X318881250Y-133287500D01*
X320881250Y-137187500D02*
X318881250Y-137187500D01*
X111331250Y-137187500D02*
X111331250Y-133287500D01*
X109331250Y-137187500D02*
X109331250Y-133287500D01*
X111331250Y-137187500D02*
X109331250Y-137187500D01*
X144668750Y-118137500D02*
X144668750Y-114237500D01*
X142668750Y-118137500D02*
X142668750Y-114237500D01*
X144668750Y-118137500D02*
X142668750Y-118137500D01*
X206581250Y-80037500D02*
X206581250Y-76137500D01*
X204581250Y-80037500D02*
X204581250Y-76137500D01*
X206581250Y-80037500D02*
X204581250Y-80037500D01*
X125618750Y-118137500D02*
X123618750Y-118137500D01*
X123618750Y-118137500D02*
X123618750Y-114237500D01*
X125618750Y-118137500D02*
X125618750Y-114237500D01*
D10*
X274708630Y-57618452D02*
X273708630Y-57618452D01*
X273708630Y-57856547D01*
X273756250Y-57999404D01*
X273851488Y-58094642D01*
X273946726Y-58142261D01*
X274137202Y-58189880D01*
X274280059Y-58189880D01*
X274470535Y-58142261D01*
X274565773Y-58094642D01*
X274661011Y-57999404D01*
X274708630Y-57856547D01*
X274708630Y-57618452D01*
X274803869Y-58380357D02*
X274803869Y-59142261D01*
X273708630Y-59570833D02*
X273708630Y-59666071D01*
X273756250Y-59761309D01*
X273803869Y-59808928D01*
X273899107Y-59856547D01*
X274089583Y-59904166D01*
X274327678Y-59904166D01*
X274518154Y-59856547D01*
X274613392Y-59808928D01*
X274661011Y-59761309D01*
X274708630Y-59666071D01*
X274708630Y-59570833D01*
X274661011Y-59475595D01*
X274613392Y-59427976D01*
X274518154Y-59380357D01*
X274327678Y-59332738D01*
X274089583Y-59332738D01*
X273899107Y-59380357D01*
X273803869Y-59427976D01*
X273756250Y-59475595D01*
X273708630Y-59570833D01*
X103258630Y-57618452D02*
X102258630Y-57618452D01*
X102258630Y-57856547D01*
X102306250Y-57999404D01*
X102401488Y-58094642D01*
X102496726Y-58142261D01*
X102687202Y-58189880D01*
X102830059Y-58189880D01*
X103020535Y-58142261D01*
X103115773Y-58094642D01*
X103211011Y-57999404D01*
X103258630Y-57856547D01*
X103258630Y-57618452D01*
X103353869Y-58380357D02*
X103353869Y-59142261D01*
X103258630Y-59904166D02*
X103258630Y-59332738D01*
X103258630Y-59618452D02*
X102258630Y-59618452D01*
X102401488Y-59523214D01*
X102496726Y-59427976D01*
X102544345Y-59332738D01*
X122308630Y-57618452D02*
X121308630Y-57618452D01*
X121308630Y-57856547D01*
X121356250Y-57999404D01*
X121451488Y-58094642D01*
X121546726Y-58142261D01*
X121737202Y-58189880D01*
X121880059Y-58189880D01*
X122070535Y-58142261D01*
X122165773Y-58094642D01*
X122261011Y-57999404D01*
X122308630Y-57856547D01*
X122308630Y-57618452D01*
X122403869Y-58380357D02*
X122403869Y-59142261D01*
X121403869Y-59332738D02*
X121356250Y-59380357D01*
X121308630Y-59475595D01*
X121308630Y-59713690D01*
X121356250Y-59808928D01*
X121403869Y-59856547D01*
X121499107Y-59904166D01*
X121594345Y-59904166D01*
X121737202Y-59856547D01*
X122308630Y-59285119D01*
X122308630Y-59904166D01*
X141358630Y-57618452D02*
X140358630Y-57618452D01*
X140358630Y-57856547D01*
X140406250Y-57999404D01*
X140501488Y-58094642D01*
X140596726Y-58142261D01*
X140787202Y-58189880D01*
X140930059Y-58189880D01*
X141120535Y-58142261D01*
X141215773Y-58094642D01*
X141311011Y-57999404D01*
X141358630Y-57856547D01*
X141358630Y-57618452D01*
X141453869Y-58380357D02*
X141453869Y-59142261D01*
X140358630Y-59285119D02*
X140358630Y-59904166D01*
X140739583Y-59570833D01*
X140739583Y-59713690D01*
X140787202Y-59808928D01*
X140834821Y-59856547D01*
X140930059Y-59904166D01*
X141168154Y-59904166D01*
X141263392Y-59856547D01*
X141311011Y-59808928D01*
X141358630Y-59713690D01*
X141358630Y-59427976D01*
X141311011Y-59332738D01*
X141263392Y-59285119D01*
X160408630Y-57618452D02*
X159408630Y-57618452D01*
X159408630Y-57856547D01*
X159456250Y-57999404D01*
X159551488Y-58094642D01*
X159646726Y-58142261D01*
X159837202Y-58189880D01*
X159980059Y-58189880D01*
X160170535Y-58142261D01*
X160265773Y-58094642D01*
X160361011Y-57999404D01*
X160408630Y-57856547D01*
X160408630Y-57618452D01*
X160503869Y-58380357D02*
X160503869Y-59142261D01*
X159741964Y-59808928D02*
X160408630Y-59808928D01*
X159361011Y-59570833D02*
X160075297Y-59332738D01*
X160075297Y-59951785D01*
X179458630Y-57618452D02*
X178458630Y-57618452D01*
X178458630Y-57856547D01*
X178506250Y-57999404D01*
X178601488Y-58094642D01*
X178696726Y-58142261D01*
X178887202Y-58189880D01*
X179030059Y-58189880D01*
X179220535Y-58142261D01*
X179315773Y-58094642D01*
X179411011Y-57999404D01*
X179458630Y-57856547D01*
X179458630Y-57618452D01*
X179553869Y-58380357D02*
X179553869Y-59142261D01*
X178458630Y-59856547D02*
X178458630Y-59380357D01*
X178934821Y-59332738D01*
X178887202Y-59380357D01*
X178839583Y-59475595D01*
X178839583Y-59713690D01*
X178887202Y-59808928D01*
X178934821Y-59856547D01*
X179030059Y-59904166D01*
X179268154Y-59904166D01*
X179363392Y-59856547D01*
X179411011Y-59808928D01*
X179458630Y-59713690D01*
X179458630Y-59475595D01*
X179411011Y-59380357D01*
X179363392Y-59332738D01*
X198508630Y-57618452D02*
X197508630Y-57618452D01*
X197508630Y-57856547D01*
X197556250Y-57999404D01*
X197651488Y-58094642D01*
X197746726Y-58142261D01*
X197937202Y-58189880D01*
X198080059Y-58189880D01*
X198270535Y-58142261D01*
X198365773Y-58094642D01*
X198461011Y-57999404D01*
X198508630Y-57856547D01*
X198508630Y-57618452D01*
X198603869Y-58380357D02*
X198603869Y-59142261D01*
X197508630Y-59808928D02*
X197508630Y-59618452D01*
X197556250Y-59523214D01*
X197603869Y-59475595D01*
X197746726Y-59380357D01*
X197937202Y-59332738D01*
X198318154Y-59332738D01*
X198413392Y-59380357D01*
X198461011Y-59427976D01*
X198508630Y-59523214D01*
X198508630Y-59713690D01*
X198461011Y-59808928D01*
X198413392Y-59856547D01*
X198318154Y-59904166D01*
X198080059Y-59904166D01*
X197984821Y-59856547D01*
X197937202Y-59808928D01*
X197889583Y-59713690D01*
X197889583Y-59523214D01*
X197937202Y-59427976D01*
X197984821Y-59380357D01*
X198080059Y-59332738D01*
X217558630Y-57618452D02*
X216558630Y-57618452D01*
X216558630Y-57856547D01*
X216606250Y-57999404D01*
X216701488Y-58094642D01*
X216796726Y-58142261D01*
X216987202Y-58189880D01*
X217130059Y-58189880D01*
X217320535Y-58142261D01*
X217415773Y-58094642D01*
X217511011Y-57999404D01*
X217558630Y-57856547D01*
X217558630Y-57618452D01*
X217653869Y-58380357D02*
X217653869Y-59142261D01*
X216558630Y-59285119D02*
X216558630Y-59951785D01*
X217558630Y-59523214D01*
X236608630Y-57618452D02*
X235608630Y-57618452D01*
X235608630Y-57856547D01*
X235656250Y-57999404D01*
X235751488Y-58094642D01*
X235846726Y-58142261D01*
X236037202Y-58189880D01*
X236180059Y-58189880D01*
X236370535Y-58142261D01*
X236465773Y-58094642D01*
X236561011Y-57999404D01*
X236608630Y-57856547D01*
X236608630Y-57618452D01*
X236703869Y-58380357D02*
X236703869Y-59142261D01*
X236037202Y-59523214D02*
X235989583Y-59427976D01*
X235941964Y-59380357D01*
X235846726Y-59332738D01*
X235799107Y-59332738D01*
X235703869Y-59380357D01*
X235656250Y-59427976D01*
X235608630Y-59523214D01*
X235608630Y-59713690D01*
X235656250Y-59808928D01*
X235703869Y-59856547D01*
X235799107Y-59904166D01*
X235846726Y-59904166D01*
X235941964Y-59856547D01*
X235989583Y-59808928D01*
X236037202Y-59713690D01*
X236037202Y-59523214D01*
X236084821Y-59427976D01*
X236132440Y-59380357D01*
X236227678Y-59332738D01*
X236418154Y-59332738D01*
X236513392Y-59380357D01*
X236561011Y-59427976D01*
X236608630Y-59523214D01*
X236608630Y-59713690D01*
X236561011Y-59808928D01*
X236513392Y-59856547D01*
X236418154Y-59904166D01*
X236227678Y-59904166D01*
X236132440Y-59856547D01*
X236084821Y-59808928D01*
X236037202Y-59713690D01*
X255658630Y-57618452D02*
X254658630Y-57618452D01*
X254658630Y-57856547D01*
X254706250Y-57999404D01*
X254801488Y-58094642D01*
X254896726Y-58142261D01*
X255087202Y-58189880D01*
X255230059Y-58189880D01*
X255420535Y-58142261D01*
X255515773Y-58094642D01*
X255611011Y-57999404D01*
X255658630Y-57856547D01*
X255658630Y-57618452D01*
X255753869Y-58380357D02*
X255753869Y-59142261D01*
X255658630Y-59427976D02*
X255658630Y-59618452D01*
X255611011Y-59713690D01*
X255563392Y-59761309D01*
X255420535Y-59856547D01*
X255230059Y-59904166D01*
X254849107Y-59904166D01*
X254753869Y-59856547D01*
X254706250Y-59808928D01*
X254658630Y-59713690D01*
X254658630Y-59523214D01*
X254706250Y-59427976D01*
X254753869Y-59380357D01*
X254849107Y-59332738D01*
X255087202Y-59332738D01*
X255182440Y-59380357D01*
X255230059Y-59427976D01*
X255277678Y-59523214D01*
X255277678Y-59713690D01*
X255230059Y-59808928D01*
X255182440Y-59856547D01*
X255087202Y-59904166D01*
X217558630Y-133342261D02*
X216558630Y-133342261D01*
X216558630Y-133580357D01*
X216606250Y-133723214D01*
X216701488Y-133818452D01*
X216796726Y-133866071D01*
X216987202Y-133913690D01*
X217130059Y-133913690D01*
X217320535Y-133866071D01*
X217415773Y-133818452D01*
X217511011Y-133723214D01*
X217558630Y-133580357D01*
X217558630Y-133342261D01*
X217653869Y-134104166D02*
X217653869Y-134866071D01*
X217558630Y-135627976D02*
X217558630Y-135056547D01*
X217558630Y-135342261D02*
X216558630Y-135342261D01*
X216701488Y-135247023D01*
X216796726Y-135151785D01*
X216844345Y-135056547D01*
X216558630Y-136247023D02*
X216558630Y-136342261D01*
X216606250Y-136437500D01*
X216653869Y-136485119D01*
X216749107Y-136532738D01*
X216939583Y-136580357D01*
X217177678Y-136580357D01*
X217368154Y-136532738D01*
X217463392Y-136485119D01*
X217511011Y-136437500D01*
X217558630Y-136342261D01*
X217558630Y-136247023D01*
X217511011Y-136151785D01*
X217463392Y-136104166D01*
X217368154Y-136056547D01*
X217177678Y-136008928D01*
X216939583Y-136008928D01*
X216749107Y-136056547D01*
X216653869Y-136104166D01*
X216606250Y-136151785D01*
X216558630Y-136247023D01*
X303283630Y-76335119D02*
X302283630Y-76335119D01*
X302283630Y-76573214D01*
X302331250Y-76716071D01*
X302426488Y-76811309D01*
X302521726Y-76858928D01*
X302712202Y-76906547D01*
X302855059Y-76906547D01*
X303045535Y-76858928D01*
X303140773Y-76811309D01*
X303236011Y-76716071D01*
X303283630Y-76573214D01*
X303283630Y-76335119D01*
X303378869Y-77097023D02*
X303378869Y-77858928D01*
X303616964Y-78382738D02*
X303616964Y-78144642D01*
X302188392Y-78144642D01*
X302188392Y-78382738D01*
X303283630Y-79287500D02*
X303283630Y-78716071D01*
X303283630Y-79001785D02*
X302283630Y-79001785D01*
X302426488Y-78906547D01*
X302521726Y-78811309D01*
X302569345Y-78716071D01*
X322333630Y-76335119D02*
X321333630Y-76335119D01*
X321333630Y-76573214D01*
X321381250Y-76716071D01*
X321476488Y-76811309D01*
X321571726Y-76858928D01*
X321762202Y-76906547D01*
X321905059Y-76906547D01*
X322095535Y-76858928D01*
X322190773Y-76811309D01*
X322286011Y-76716071D01*
X322333630Y-76573214D01*
X322333630Y-76335119D01*
X322428869Y-77097023D02*
X322428869Y-77858928D01*
X322666964Y-78001785D02*
X322666964Y-78239880D01*
X321238392Y-78239880D01*
X321238392Y-78001785D01*
X322333630Y-79287500D02*
X322333630Y-78716071D01*
X322333630Y-79001785D02*
X321333630Y-79001785D01*
X321476488Y-78906547D01*
X321571726Y-78811309D01*
X321619345Y-78716071D01*
X350908630Y-57427976D02*
X349908630Y-57427976D01*
X349908630Y-57666071D01*
X349956250Y-57808928D01*
X350051488Y-57904166D01*
X350146726Y-57951785D01*
X350337202Y-57999404D01*
X350480059Y-57999404D01*
X350670535Y-57951785D01*
X350765773Y-57904166D01*
X350861011Y-57808928D01*
X350908630Y-57666071D01*
X350908630Y-57427976D01*
X351003869Y-58189880D02*
X351003869Y-58951785D01*
X349861011Y-59047023D02*
X350003869Y-59189880D01*
X350908630Y-60094642D02*
X350908630Y-59523214D01*
X350908630Y-59808928D02*
X349908630Y-59808928D01*
X350051488Y-59713690D01*
X350146726Y-59618452D01*
X350194345Y-59523214D01*
X84208630Y-57427976D02*
X83208630Y-57427976D01*
X83208630Y-57666071D01*
X83256250Y-57808928D01*
X83351488Y-57904166D01*
X83446726Y-57951785D01*
X83637202Y-57999404D01*
X83780059Y-57999404D01*
X83970535Y-57951785D01*
X84065773Y-57904166D01*
X84161011Y-57808928D01*
X84208630Y-57666071D01*
X84208630Y-57427976D01*
X84303869Y-58189880D02*
X84303869Y-58951785D01*
X83161011Y-59047023D02*
X83303869Y-59189880D01*
X83303869Y-59523214D02*
X83256250Y-59570833D01*
X83208630Y-59666071D01*
X83208630Y-59904166D01*
X83256250Y-59999404D01*
X83303869Y-60047023D01*
X83399107Y-60094642D01*
X83494345Y-60094642D01*
X83637202Y-60047023D01*
X84208630Y-59475595D01*
X84208630Y-60094642D01*
X117546130Y-95289880D02*
X116546130Y-95289880D01*
X116546130Y-95527976D01*
X116593750Y-95670833D01*
X116688988Y-95766071D01*
X116784226Y-95813690D01*
X116974702Y-95861309D01*
X117117559Y-95861309D01*
X117308035Y-95813690D01*
X117403273Y-95766071D01*
X117498511Y-95670833D01*
X117546130Y-95527976D01*
X117546130Y-95289880D01*
X117641369Y-96051785D02*
X117641369Y-96813690D01*
X117260416Y-97004166D02*
X117260416Y-97480357D01*
X117546130Y-96908928D02*
X116546130Y-97242261D01*
X117546130Y-97575595D01*
X117546130Y-98432738D02*
X117546130Y-97861309D01*
X117546130Y-98147023D02*
X116546130Y-98147023D01*
X116688988Y-98051785D01*
X116784226Y-97956547D01*
X116831845Y-97861309D01*
X298521130Y-132604166D02*
X297521130Y-132604166D01*
X297521130Y-132842261D01*
X297568750Y-132985119D01*
X297663988Y-133080357D01*
X297759226Y-133127976D01*
X297949702Y-133175595D01*
X298092559Y-133175595D01*
X298283035Y-133127976D01*
X298378273Y-133080357D01*
X298473511Y-132985119D01*
X298521130Y-132842261D01*
X298521130Y-132604166D01*
X298616369Y-133366071D02*
X298616369Y-134127976D01*
X298235416Y-134318452D02*
X298235416Y-134794642D01*
X298521130Y-134223214D02*
X297521130Y-134556547D01*
X298521130Y-134889880D01*
X298521130Y-135699404D02*
X298521130Y-135223214D01*
X297521130Y-135223214D01*
X297521130Y-135889880D02*
X297521130Y-136461309D01*
X298521130Y-136175595D02*
X297521130Y-136175595D01*
X298521130Y-137318452D02*
X298521130Y-136747023D01*
X298521130Y-137032738D02*
X297521130Y-137032738D01*
X297663988Y-136937500D01*
X297759226Y-136842261D01*
X297806845Y-136747023D01*
X136596130Y-132604166D02*
X135596130Y-132604166D01*
X135596130Y-132842261D01*
X135643750Y-132985119D01*
X135738988Y-133080357D01*
X135834226Y-133127976D01*
X136024702Y-133175595D01*
X136167559Y-133175595D01*
X136358035Y-133127976D01*
X136453273Y-133080357D01*
X136548511Y-132985119D01*
X136596130Y-132842261D01*
X136596130Y-132604166D01*
X136691369Y-133366071D02*
X136691369Y-134127976D01*
X136310416Y-134318452D02*
X136310416Y-134794642D01*
X136596130Y-134223214D02*
X135596130Y-134556547D01*
X136596130Y-134889880D01*
X136596130Y-135699404D02*
X136596130Y-135223214D01*
X135596130Y-135223214D01*
X135596130Y-135889880D02*
X135596130Y-136461309D01*
X136596130Y-136175595D02*
X135596130Y-136175595D01*
X135691369Y-136747023D02*
X135643750Y-136794642D01*
X135596130Y-136889880D01*
X135596130Y-137127976D01*
X135643750Y-137223214D01*
X135691369Y-137270833D01*
X135786607Y-137318452D01*
X135881845Y-137318452D01*
X136024702Y-137270833D01*
X136596130Y-136699404D01*
X136596130Y-137318452D01*
X203271130Y-114268452D02*
X202271130Y-114268452D01*
X202271130Y-114506547D01*
X202318750Y-114649404D01*
X202413988Y-114744642D01*
X202509226Y-114792261D01*
X202699702Y-114839880D01*
X202842559Y-114839880D01*
X203033035Y-114792261D01*
X203128273Y-114744642D01*
X203223511Y-114649404D01*
X203271130Y-114506547D01*
X203271130Y-114268452D01*
X203366369Y-115030357D02*
X203366369Y-115792261D01*
X202747321Y-116363690D02*
X202794940Y-116506547D01*
X202842559Y-116554166D01*
X202937797Y-116601785D01*
X203080654Y-116601785D01*
X203175892Y-116554166D01*
X203223511Y-116506547D01*
X203271130Y-116411309D01*
X203271130Y-116030357D01*
X202271130Y-116030357D01*
X202271130Y-116363690D01*
X202318750Y-116458928D01*
X202366369Y-116506547D01*
X202461607Y-116554166D01*
X202556845Y-116554166D01*
X202652083Y-116506547D01*
X202699702Y-116458928D01*
X202747321Y-116363690D01*
X202747321Y-116030357D01*
X203271130Y-117554166D02*
X203271130Y-116982738D01*
X203271130Y-117268452D02*
X202271130Y-117268452D01*
X202413988Y-117173214D01*
X202509226Y-117077976D01*
X202556845Y-116982738D01*
X346146130Y-72382738D02*
X345146130Y-72382738D01*
X345146130Y-72620833D01*
X345193750Y-72763690D01*
X345288988Y-72858928D01*
X345384226Y-72906547D01*
X345574702Y-72954166D01*
X345717559Y-72954166D01*
X345908035Y-72906547D01*
X346003273Y-72858928D01*
X346098511Y-72763690D01*
X346146130Y-72620833D01*
X346146130Y-72382738D01*
X346241369Y-73144642D02*
X346241369Y-73906547D01*
X345622321Y-74477976D02*
X345669940Y-74620833D01*
X345717559Y-74668452D01*
X345812797Y-74716071D01*
X345955654Y-74716071D01*
X346050892Y-74668452D01*
X346098511Y-74620833D01*
X346146130Y-74525595D01*
X346146130Y-74144642D01*
X345146130Y-74144642D01*
X345146130Y-74477976D01*
X345193750Y-74573214D01*
X345241369Y-74620833D01*
X345336607Y-74668452D01*
X345431845Y-74668452D01*
X345527083Y-74620833D01*
X345574702Y-74573214D01*
X345622321Y-74477976D01*
X345622321Y-74144642D01*
X345860416Y-75097023D02*
X345860416Y-75573214D01*
X346146130Y-75001785D02*
X345146130Y-75335119D01*
X346146130Y-75668452D01*
X346050892Y-76573214D02*
X346098511Y-76525595D01*
X346146130Y-76382738D01*
X346146130Y-76287500D01*
X346098511Y-76144642D01*
X346003273Y-76049404D01*
X345908035Y-76001785D01*
X345717559Y-75954166D01*
X345574702Y-75954166D01*
X345384226Y-76001785D01*
X345288988Y-76049404D01*
X345193750Y-76144642D01*
X345146130Y-76287500D01*
X345146130Y-76382738D01*
X345193750Y-76525595D01*
X345241369Y-76573214D01*
X346146130Y-77001785D02*
X345146130Y-77001785D01*
X346146130Y-77573214D02*
X345574702Y-77144642D01*
X345146130Y-77573214D02*
X345717559Y-77001785D01*
X346098511Y-77954166D02*
X346146130Y-78097023D01*
X346146130Y-78335119D01*
X346098511Y-78430357D01*
X346050892Y-78477976D01*
X345955654Y-78525595D01*
X345860416Y-78525595D01*
X345765178Y-78477976D01*
X345717559Y-78430357D01*
X345669940Y-78335119D01*
X345622321Y-78144642D01*
X345574702Y-78049404D01*
X345527083Y-78001785D01*
X345431845Y-77954166D01*
X345336607Y-77954166D01*
X345241369Y-78001785D01*
X345193750Y-78049404D01*
X345146130Y-78144642D01*
X345146130Y-78382738D01*
X345193750Y-78525595D01*
X346146130Y-78954166D02*
X345146130Y-78954166D01*
X345146130Y-79335119D01*
X345193750Y-79430357D01*
X345241369Y-79477976D01*
X345336607Y-79525595D01*
X345479464Y-79525595D01*
X345574702Y-79477976D01*
X345622321Y-79430357D01*
X345669940Y-79335119D01*
X345669940Y-78954166D01*
X345860416Y-79906547D02*
X345860416Y-80382738D01*
X346146130Y-79811309D02*
X345146130Y-80144642D01*
X346146130Y-80477976D01*
X346050892Y-81382738D02*
X346098511Y-81335119D01*
X346146130Y-81192261D01*
X346146130Y-81097023D01*
X346098511Y-80954166D01*
X346003273Y-80858928D01*
X345908035Y-80811309D01*
X345717559Y-80763690D01*
X345574702Y-80763690D01*
X345384226Y-80811309D01*
X345288988Y-80858928D01*
X345193750Y-80954166D01*
X345146130Y-81097023D01*
X345146130Y-81192261D01*
X345193750Y-81335119D01*
X345241369Y-81382738D01*
X345622321Y-81811309D02*
X345622321Y-82144642D01*
X346146130Y-82287500D02*
X346146130Y-81811309D01*
X345146130Y-81811309D01*
X345146130Y-82287500D01*
X346146130Y-83239880D02*
X346146130Y-82668452D01*
X346146130Y-82954166D02*
X345146130Y-82954166D01*
X345288988Y-82858928D01*
X345384226Y-82763690D01*
X345431845Y-82668452D01*
X331858630Y-55237500D02*
X330858630Y-55237500D01*
X330858630Y-55475595D01*
X330906250Y-55618452D01*
X331001488Y-55713690D01*
X331096726Y-55761309D01*
X331287202Y-55808928D01*
X331430059Y-55808928D01*
X331620535Y-55761309D01*
X331715773Y-55713690D01*
X331811011Y-55618452D01*
X331858630Y-55475595D01*
X331858630Y-55237500D01*
X331953869Y-55999404D02*
X331953869Y-56761309D01*
X331334821Y-57332738D02*
X331382440Y-57475595D01*
X331430059Y-57523214D01*
X331525297Y-57570833D01*
X331668154Y-57570833D01*
X331763392Y-57523214D01*
X331811011Y-57475595D01*
X331858630Y-57380357D01*
X331858630Y-56999404D01*
X330858630Y-56999404D01*
X330858630Y-57332738D01*
X330906250Y-57427976D01*
X330953869Y-57475595D01*
X331049107Y-57523214D01*
X331144345Y-57523214D01*
X331239583Y-57475595D01*
X331287202Y-57427976D01*
X331334821Y-57332738D01*
X331334821Y-56999404D01*
X331811011Y-57951785D02*
X331858630Y-58094642D01*
X331858630Y-58332738D01*
X331811011Y-58427976D01*
X331763392Y-58475595D01*
X331668154Y-58523214D01*
X331572916Y-58523214D01*
X331477678Y-58475595D01*
X331430059Y-58427976D01*
X331382440Y-58332738D01*
X331334821Y-58142261D01*
X331287202Y-58047023D01*
X331239583Y-57999404D01*
X331144345Y-57951785D01*
X331049107Y-57951785D01*
X330953869Y-57999404D01*
X330906250Y-58047023D01*
X330858630Y-58142261D01*
X330858630Y-58380357D01*
X330906250Y-58523214D01*
X331858630Y-59427976D02*
X331858630Y-58951785D01*
X330858630Y-58951785D01*
X331811011Y-59713690D02*
X331858630Y-59856547D01*
X331858630Y-60094642D01*
X331811011Y-60189880D01*
X331763392Y-60237500D01*
X331668154Y-60285119D01*
X331572916Y-60285119D01*
X331477678Y-60237500D01*
X331430059Y-60189880D01*
X331382440Y-60094642D01*
X331334821Y-59904166D01*
X331287202Y-59808928D01*
X331239583Y-59761309D01*
X331144345Y-59713690D01*
X331049107Y-59713690D01*
X330953869Y-59761309D01*
X330906250Y-59808928D01*
X330858630Y-59904166D01*
X330858630Y-60142261D01*
X330906250Y-60285119D01*
X331858630Y-60713690D02*
X330858630Y-60713690D01*
X331334821Y-60713690D02*
X331334821Y-61285119D01*
X331858630Y-61285119D02*
X330858630Y-61285119D01*
X331858630Y-62285119D02*
X331858630Y-61713690D01*
X331858630Y-61999404D02*
X330858630Y-61999404D01*
X331001488Y-61904166D01*
X331096726Y-61808928D01*
X331144345Y-61713690D01*
X165171130Y-114268452D02*
X164171130Y-114268452D01*
X164171130Y-114506547D01*
X164218750Y-114649404D01*
X164313988Y-114744642D01*
X164409226Y-114792261D01*
X164599702Y-114839880D01*
X164742559Y-114839880D01*
X164933035Y-114792261D01*
X165028273Y-114744642D01*
X165123511Y-114649404D01*
X165171130Y-114506547D01*
X165171130Y-114268452D01*
X165266369Y-115030357D02*
X165266369Y-115792261D01*
X165075892Y-116601785D02*
X165123511Y-116554166D01*
X165171130Y-116411309D01*
X165171130Y-116316071D01*
X165123511Y-116173214D01*
X165028273Y-116077976D01*
X164933035Y-116030357D01*
X164742559Y-115982738D01*
X164599702Y-115982738D01*
X164409226Y-116030357D01*
X164313988Y-116077976D01*
X164218750Y-116173214D01*
X164171130Y-116316071D01*
X164171130Y-116411309D01*
X164218750Y-116554166D01*
X164266369Y-116601785D01*
X165171130Y-117554166D02*
X165171130Y-116982738D01*
X165171130Y-117268452D02*
X164171130Y-117268452D01*
X164313988Y-117173214D01*
X164409226Y-117077976D01*
X164456845Y-116982738D01*
X91352380Y-91504166D02*
X90352380Y-91504166D01*
X90352380Y-91742261D01*
X90400000Y-91885119D01*
X90495238Y-91980357D01*
X90590476Y-92027976D01*
X90780952Y-92075595D01*
X90923809Y-92075595D01*
X91114285Y-92027976D01*
X91209523Y-91980357D01*
X91304761Y-91885119D01*
X91352380Y-91742261D01*
X91352380Y-91504166D01*
X91447619Y-92266071D02*
X91447619Y-93027976D01*
X91257142Y-93837500D02*
X91304761Y-93789880D01*
X91352380Y-93647023D01*
X91352380Y-93551785D01*
X91304761Y-93408928D01*
X91209523Y-93313690D01*
X91114285Y-93266071D01*
X90923809Y-93218452D01*
X90780952Y-93218452D01*
X90590476Y-93266071D01*
X90495238Y-93313690D01*
X90400000Y-93408928D01*
X90352380Y-93551785D01*
X90352380Y-93647023D01*
X90400000Y-93789880D01*
X90447619Y-93837500D01*
X91066666Y-94218452D02*
X91066666Y-94694642D01*
X91352380Y-94123214D02*
X90352380Y-94456547D01*
X91352380Y-94789880D01*
X91352380Y-95123214D02*
X90352380Y-95123214D01*
X90352380Y-95504166D01*
X90400000Y-95599404D01*
X90447619Y-95647023D01*
X90542857Y-95694642D01*
X90685714Y-95694642D01*
X90780952Y-95647023D01*
X90828571Y-95599404D01*
X90876190Y-95504166D01*
X90876190Y-95123214D01*
X91304761Y-96075595D02*
X91352380Y-96218452D01*
X91352380Y-96456547D01*
X91304761Y-96551785D01*
X91257142Y-96599404D01*
X91161904Y-96647023D01*
X91066666Y-96647023D01*
X90971428Y-96599404D01*
X90923809Y-96551785D01*
X90876190Y-96456547D01*
X90828571Y-96266071D01*
X90780952Y-96170833D01*
X90733333Y-96123214D01*
X90638095Y-96075595D01*
X90542857Y-96075595D01*
X90447619Y-96123214D01*
X90400000Y-96170833D01*
X90352380Y-96266071D01*
X90352380Y-96504166D01*
X90400000Y-96647023D01*
X91447619Y-96837500D02*
X91447619Y-97599404D01*
X91352380Y-98313690D02*
X91352380Y-97837500D01*
X90352380Y-97837500D01*
X90352380Y-98837500D02*
X90352380Y-99027976D01*
X90400000Y-99123214D01*
X90495238Y-99218452D01*
X90685714Y-99266071D01*
X91019047Y-99266071D01*
X91209523Y-99218452D01*
X91304761Y-99123214D01*
X91352380Y-99027976D01*
X91352380Y-98837500D01*
X91304761Y-98742261D01*
X91209523Y-98647023D01*
X91019047Y-98599404D01*
X90685714Y-98599404D01*
X90495238Y-98647023D01*
X90400000Y-98742261D01*
X90352380Y-98837500D01*
X91257142Y-100266071D02*
X91304761Y-100218452D01*
X91352380Y-100075595D01*
X91352380Y-99980357D01*
X91304761Y-99837500D01*
X91209523Y-99742261D01*
X91114285Y-99694642D01*
X90923809Y-99647023D01*
X90780952Y-99647023D01*
X90590476Y-99694642D01*
X90495238Y-99742261D01*
X90400000Y-99837500D01*
X90352380Y-99980357D01*
X90352380Y-100075595D01*
X90400000Y-100218452D01*
X90447619Y-100266071D01*
X91352380Y-100694642D02*
X90352380Y-100694642D01*
X91352380Y-101266071D02*
X90780952Y-100837500D01*
X90352380Y-101266071D02*
X90923809Y-100694642D01*
X91352380Y-102218452D02*
X91352380Y-101647023D01*
X91352380Y-101932738D02*
X90352380Y-101932738D01*
X90495238Y-101837500D01*
X90590476Y-101742261D01*
X90638095Y-101647023D01*
X260421130Y-112173214D02*
X259421130Y-112173214D01*
X259421130Y-112411309D01*
X259468750Y-112554166D01*
X259563988Y-112649404D01*
X259659226Y-112697023D01*
X259849702Y-112744642D01*
X259992559Y-112744642D01*
X260183035Y-112697023D01*
X260278273Y-112649404D01*
X260373511Y-112554166D01*
X260421130Y-112411309D01*
X260421130Y-112173214D01*
X260516369Y-112935119D02*
X260516369Y-113697023D01*
X260325892Y-114506547D02*
X260373511Y-114458928D01*
X260421130Y-114316071D01*
X260421130Y-114220833D01*
X260373511Y-114077976D01*
X260278273Y-113982738D01*
X260183035Y-113935119D01*
X259992559Y-113887500D01*
X259849702Y-113887500D01*
X259659226Y-113935119D01*
X259563988Y-113982738D01*
X259468750Y-114077976D01*
X259421130Y-114220833D01*
X259421130Y-114316071D01*
X259468750Y-114458928D01*
X259516369Y-114506547D01*
X259421130Y-115125595D02*
X259421130Y-115316071D01*
X259468750Y-115411309D01*
X259563988Y-115506547D01*
X259754464Y-115554166D01*
X260087797Y-115554166D01*
X260278273Y-115506547D01*
X260373511Y-115411309D01*
X260421130Y-115316071D01*
X260421130Y-115125595D01*
X260373511Y-115030357D01*
X260278273Y-114935119D01*
X260087797Y-114887500D01*
X259754464Y-114887500D01*
X259563988Y-114935119D01*
X259468750Y-115030357D01*
X259421130Y-115125595D01*
X260421130Y-115982738D02*
X259421130Y-115982738D01*
X260135416Y-116316071D01*
X259421130Y-116649404D01*
X260421130Y-116649404D01*
X260421130Y-117125595D02*
X259421130Y-117125595D01*
X260135416Y-117458928D01*
X259421130Y-117792261D01*
X260421130Y-117792261D01*
X260135416Y-118220833D02*
X260135416Y-118697023D01*
X260421130Y-118125595D02*
X259421130Y-118458928D01*
X260421130Y-118792261D01*
X260421130Y-119649404D02*
X260421130Y-119077976D01*
X260421130Y-119363690D02*
X259421130Y-119363690D01*
X259563988Y-119268452D01*
X259659226Y-119173214D01*
X259706845Y-119077976D01*
X155652381Y-95218452D02*
X154652381Y-95218452D01*
X154652381Y-95456547D01*
X154700001Y-95599404D01*
X154795239Y-95694642D01*
X154890477Y-95742261D01*
X155080953Y-95789880D01*
X155223810Y-95789880D01*
X155414286Y-95742261D01*
X155509524Y-95694642D01*
X155604762Y-95599404D01*
X155652381Y-95456547D01*
X155652381Y-95218452D01*
X155747620Y-95980357D02*
X155747620Y-96742261D01*
X155652381Y-96980357D02*
X154652381Y-96980357D01*
X154652381Y-97218452D01*
X154700001Y-97361309D01*
X154795239Y-97456547D01*
X154890477Y-97504166D01*
X155080953Y-97551785D01*
X155223810Y-97551785D01*
X155414286Y-97504166D01*
X155509524Y-97456547D01*
X155604762Y-97361309D01*
X155652381Y-97218452D01*
X155652381Y-96980357D01*
X155652381Y-98504166D02*
X155652381Y-97932738D01*
X155652381Y-98218452D02*
X154652381Y-98218452D01*
X154795239Y-98123214D01*
X154890477Y-98027976D01*
X154938096Y-97932738D01*
X279471130Y-113363690D02*
X278471130Y-113363690D01*
X278471130Y-113601785D01*
X278518750Y-113744642D01*
X278613988Y-113839880D01*
X278709226Y-113887500D01*
X278899702Y-113935119D01*
X279042559Y-113935119D01*
X279233035Y-113887500D01*
X279328273Y-113839880D01*
X279423511Y-113744642D01*
X279471130Y-113601785D01*
X279471130Y-113363690D01*
X279566369Y-114125595D02*
X279566369Y-114887500D01*
X279471130Y-115125595D02*
X278471130Y-115125595D01*
X278471130Y-115363690D01*
X278518750Y-115506547D01*
X278613988Y-115601785D01*
X278709226Y-115649404D01*
X278899702Y-115697023D01*
X279042559Y-115697023D01*
X279233035Y-115649404D01*
X279328273Y-115601785D01*
X279423511Y-115506547D01*
X279471130Y-115363690D01*
X279471130Y-115125595D01*
X278471130Y-116316071D02*
X278471130Y-116506547D01*
X278518750Y-116601785D01*
X278613988Y-116697023D01*
X278804464Y-116744642D01*
X279137797Y-116744642D01*
X279328273Y-116697023D01*
X279423511Y-116601785D01*
X279471130Y-116506547D01*
X279471130Y-116316071D01*
X279423511Y-116220833D01*
X279328273Y-116125595D01*
X279137797Y-116077976D01*
X278804464Y-116077976D01*
X278613988Y-116125595D01*
X278518750Y-116220833D01*
X278471130Y-116316071D01*
X278471130Y-117030357D02*
X278471130Y-117601785D01*
X279471130Y-117316071D02*
X278471130Y-117316071D01*
X279471130Y-118458928D02*
X279471130Y-117887500D01*
X279471130Y-118173214D02*
X278471130Y-118173214D01*
X278613988Y-118077976D01*
X278709226Y-117982738D01*
X278756845Y-117887500D01*
X150883630Y-76216071D02*
X149883630Y-76216071D01*
X149883630Y-76454166D01*
X149931250Y-76597023D01*
X150026488Y-76692261D01*
X150121726Y-76739880D01*
X150312202Y-76787500D01*
X150455059Y-76787500D01*
X150645535Y-76739880D01*
X150740773Y-76692261D01*
X150836011Y-76597023D01*
X150883630Y-76454166D01*
X150883630Y-76216071D01*
X150978869Y-76977976D02*
X150978869Y-77739880D01*
X150359821Y-77977976D02*
X150359821Y-78311309D01*
X150883630Y-78454166D02*
X150883630Y-77977976D01*
X149883630Y-77977976D01*
X149883630Y-78454166D01*
X150883630Y-79406547D02*
X150883630Y-78835119D01*
X150883630Y-79120833D02*
X149883630Y-79120833D01*
X150026488Y-79025595D01*
X150121726Y-78930357D01*
X150169345Y-78835119D01*
X339002380Y-93408928D02*
X338002380Y-93408928D01*
X338002380Y-93647023D01*
X338050000Y-93789880D01*
X338145238Y-93885119D01*
X338240476Y-93932738D01*
X338430952Y-93980357D01*
X338573809Y-93980357D01*
X338764285Y-93932738D01*
X338859523Y-93885119D01*
X338954761Y-93789880D01*
X339002380Y-93647023D01*
X339002380Y-93408928D01*
X339097619Y-94170833D02*
X339097619Y-94932738D01*
X338478571Y-95170833D02*
X338478571Y-95504166D01*
X339002380Y-95647023D02*
X339002380Y-95170833D01*
X338002380Y-95170833D01*
X338002380Y-95647023D01*
X339002380Y-96075595D02*
X338002380Y-96075595D01*
X339002380Y-96647023D01*
X338002380Y-96647023D01*
X338002380Y-96980357D02*
X338002380Y-97551785D01*
X339002380Y-97266071D02*
X338002380Y-97266071D01*
X338478571Y-97885119D02*
X338478571Y-98218452D01*
X339002380Y-98361309D02*
X339002380Y-97885119D01*
X338002380Y-97885119D01*
X338002380Y-98361309D01*
X339002380Y-99361309D02*
X338526190Y-99027976D01*
X339002380Y-98789880D02*
X338002380Y-98789880D01*
X338002380Y-99170833D01*
X338050000Y-99266071D01*
X338097619Y-99313690D01*
X338192857Y-99361309D01*
X338335714Y-99361309D01*
X338430952Y-99313690D01*
X338478571Y-99266071D01*
X338526190Y-99170833D01*
X338526190Y-98789880D01*
X339002380Y-100313690D02*
X339002380Y-99742261D01*
X339002380Y-100027976D02*
X338002380Y-100027976D01*
X338145238Y-99932738D01*
X338240476Y-99837500D01*
X338288095Y-99742261D01*
X312808630Y-55285119D02*
X311808630Y-55285119D01*
X311808630Y-55523214D01*
X311856250Y-55666071D01*
X311951488Y-55761309D01*
X312046726Y-55808928D01*
X312237202Y-55856547D01*
X312380059Y-55856547D01*
X312570535Y-55808928D01*
X312665773Y-55761309D01*
X312761011Y-55666071D01*
X312808630Y-55523214D01*
X312808630Y-55285119D01*
X312903869Y-56047023D02*
X312903869Y-56808928D01*
X312284821Y-57047023D02*
X312284821Y-57380357D01*
X312808630Y-57523214D02*
X312808630Y-57047023D01*
X311808630Y-57047023D01*
X311808630Y-57523214D01*
X312903869Y-58618452D02*
X312856250Y-58523214D01*
X312761011Y-58427976D01*
X312618154Y-58285119D01*
X312570535Y-58189880D01*
X312570535Y-58094642D01*
X312808630Y-58142261D02*
X312761011Y-58047023D01*
X312665773Y-57951785D01*
X312475297Y-57904166D01*
X312141964Y-57904166D01*
X311951488Y-57951785D01*
X311856250Y-58047023D01*
X311808630Y-58142261D01*
X311808630Y-58332738D01*
X311856250Y-58427976D01*
X311951488Y-58523214D01*
X312141964Y-58570833D01*
X312475297Y-58570833D01*
X312665773Y-58523214D01*
X312761011Y-58427976D01*
X312808630Y-58332738D01*
X312808630Y-58142261D01*
X311808630Y-58999404D02*
X312618154Y-58999404D01*
X312713392Y-59047023D01*
X312761011Y-59094642D01*
X312808630Y-59189880D01*
X312808630Y-59380357D01*
X312761011Y-59475595D01*
X312713392Y-59523214D01*
X312618154Y-59570833D01*
X311808630Y-59570833D01*
X312522916Y-59999404D02*
X312522916Y-60475595D01*
X312808630Y-59904166D02*
X311808630Y-60237500D01*
X312808630Y-60570833D01*
X312808630Y-61380357D02*
X312808630Y-60904166D01*
X311808630Y-60904166D01*
X312808630Y-62237500D02*
X312808630Y-61666071D01*
X312808630Y-61951785D02*
X311808630Y-61951785D01*
X311951488Y-61856547D01*
X312046726Y-61761309D01*
X312094345Y-61666071D01*
X46108630Y-57189880D02*
X45108630Y-57189880D01*
X45108630Y-57427976D01*
X45156250Y-57570833D01*
X45251488Y-57666071D01*
X45346726Y-57713690D01*
X45537202Y-57761309D01*
X45680059Y-57761309D01*
X45870535Y-57713690D01*
X45965773Y-57666071D01*
X46061011Y-57570833D01*
X46108630Y-57427976D01*
X46108630Y-57189880D01*
X46203869Y-57951785D02*
X46203869Y-58713690D01*
X45584821Y-59285119D02*
X45584821Y-58951785D01*
X46108630Y-58951785D02*
X45108630Y-58951785D01*
X45108630Y-59427976D01*
X46108630Y-60332738D02*
X46108630Y-59761309D01*
X46108630Y-60047023D02*
X45108630Y-60047023D01*
X45251488Y-59951785D01*
X45346726Y-59856547D01*
X45394345Y-59761309D01*
X46108630Y-76239880D02*
X45108630Y-76239880D01*
X45108630Y-76477976D01*
X45156250Y-76620833D01*
X45251488Y-76716071D01*
X45346726Y-76763690D01*
X45537202Y-76811309D01*
X45680059Y-76811309D01*
X45870535Y-76763690D01*
X45965773Y-76716071D01*
X46061011Y-76620833D01*
X46108630Y-76477976D01*
X46108630Y-76239880D01*
X46203869Y-77001785D02*
X46203869Y-77763690D01*
X45584821Y-78335119D02*
X45584821Y-78001785D01*
X46108630Y-78001785D02*
X45108630Y-78001785D01*
X45108630Y-78477976D01*
X45203869Y-78811309D02*
X45156250Y-78858928D01*
X45108630Y-78954166D01*
X45108630Y-79192261D01*
X45156250Y-79287500D01*
X45203869Y-79335119D01*
X45299107Y-79382738D01*
X45394345Y-79382738D01*
X45537202Y-79335119D01*
X46108630Y-78763690D01*
X46108630Y-79382738D01*
X46108630Y-95289880D02*
X45108630Y-95289880D01*
X45108630Y-95527976D01*
X45156250Y-95670833D01*
X45251488Y-95766071D01*
X45346726Y-95813690D01*
X45537202Y-95861309D01*
X45680059Y-95861309D01*
X45870535Y-95813690D01*
X45965773Y-95766071D01*
X46061011Y-95670833D01*
X46108630Y-95527976D01*
X46108630Y-95289880D01*
X46203869Y-96051785D02*
X46203869Y-96813690D01*
X45584821Y-97385119D02*
X45584821Y-97051785D01*
X46108630Y-97051785D02*
X45108630Y-97051785D01*
X45108630Y-97527976D01*
X45108630Y-97813690D02*
X45108630Y-98432738D01*
X45489583Y-98099404D01*
X45489583Y-98242261D01*
X45537202Y-98337500D01*
X45584821Y-98385119D01*
X45680059Y-98432738D01*
X45918154Y-98432738D01*
X46013392Y-98385119D01*
X46061011Y-98337500D01*
X46108630Y-98242261D01*
X46108630Y-97956547D01*
X46061011Y-97861309D01*
X46013392Y-97813690D01*
X46108630Y-114339880D02*
X45108630Y-114339880D01*
X45108630Y-114577976D01*
X45156250Y-114720833D01*
X45251488Y-114816071D01*
X45346726Y-114863690D01*
X45537202Y-114911309D01*
X45680059Y-114911309D01*
X45870535Y-114863690D01*
X45965773Y-114816071D01*
X46061011Y-114720833D01*
X46108630Y-114577976D01*
X46108630Y-114339880D01*
X46203869Y-115101785D02*
X46203869Y-115863690D01*
X45584821Y-116435119D02*
X45584821Y-116101785D01*
X46108630Y-116101785D02*
X45108630Y-116101785D01*
X45108630Y-116577976D01*
X45441964Y-117387500D02*
X46108630Y-117387500D01*
X45061011Y-117149404D02*
X45775297Y-116911309D01*
X45775297Y-117530357D01*
X46108630Y-133389880D02*
X45108630Y-133389880D01*
X45108630Y-133627976D01*
X45156250Y-133770833D01*
X45251488Y-133866071D01*
X45346726Y-133913690D01*
X45537202Y-133961309D01*
X45680059Y-133961309D01*
X45870535Y-133913690D01*
X45965773Y-133866071D01*
X46061011Y-133770833D01*
X46108630Y-133627976D01*
X46108630Y-133389880D01*
X46203869Y-134151785D02*
X46203869Y-134913690D01*
X45584821Y-135485119D02*
X45584821Y-135151785D01*
X46108630Y-135151785D02*
X45108630Y-135151785D01*
X45108630Y-135627976D01*
X45108630Y-136485119D02*
X45108630Y-136008928D01*
X45584821Y-135961309D01*
X45537202Y-136008928D01*
X45489583Y-136104166D01*
X45489583Y-136342261D01*
X45537202Y-136437500D01*
X45584821Y-136485119D01*
X45680059Y-136532738D01*
X45918154Y-136532738D01*
X46013392Y-136485119D01*
X46061011Y-136437500D01*
X46108630Y-136342261D01*
X46108630Y-136104166D01*
X46061011Y-136008928D01*
X46013392Y-135961309D01*
X174696130Y-94813690D02*
X173696130Y-94813690D01*
X173696130Y-95051785D01*
X173743750Y-95194642D01*
X173838988Y-95289880D01*
X173934226Y-95337500D01*
X174124702Y-95385119D01*
X174267559Y-95385119D01*
X174458035Y-95337500D01*
X174553273Y-95289880D01*
X174648511Y-95194642D01*
X174696130Y-95051785D01*
X174696130Y-94813690D01*
X174791369Y-95575595D02*
X174791369Y-96337500D01*
X174172321Y-96908928D02*
X174172321Y-96575595D01*
X174696130Y-96575595D02*
X173696130Y-96575595D01*
X173696130Y-97051785D01*
X174696130Y-97956547D02*
X174696130Y-97385119D01*
X174696130Y-97670833D02*
X173696130Y-97670833D01*
X173838988Y-97575595D01*
X173934226Y-97480357D01*
X173981845Y-97385119D01*
X174696130Y-98908928D02*
X174696130Y-98337500D01*
X174696130Y-98623214D02*
X173696130Y-98623214D01*
X173838988Y-98527976D01*
X173934226Y-98432738D01*
X173981845Y-98337500D01*
X350908630Y-113816071D02*
X349908630Y-113816071D01*
X349908630Y-114054166D01*
X349956250Y-114197023D01*
X350051488Y-114292261D01*
X350146726Y-114339880D01*
X350337202Y-114387500D01*
X350480059Y-114387500D01*
X350670535Y-114339880D01*
X350765773Y-114292261D01*
X350861011Y-114197023D01*
X350908630Y-114054166D01*
X350908630Y-113816071D01*
X351003869Y-114577976D02*
X351003869Y-115339880D01*
X350384821Y-115911309D02*
X350384821Y-115577976D01*
X350908630Y-115577976D02*
X349908630Y-115577976D01*
X349908630Y-116054166D01*
X350908630Y-116435119D02*
X349908630Y-116435119D01*
X350908630Y-117006547D01*
X349908630Y-117006547D01*
X350908630Y-118006547D02*
X350908630Y-117435119D01*
X350908630Y-117720833D02*
X349908630Y-117720833D01*
X350051488Y-117625595D01*
X350146726Y-117530357D01*
X350194345Y-117435119D01*
X193746130Y-95218452D02*
X192746130Y-95218452D01*
X192746130Y-95456547D01*
X192793750Y-95599404D01*
X192888988Y-95694642D01*
X192984226Y-95742261D01*
X193174702Y-95789880D01*
X193317559Y-95789880D01*
X193508035Y-95742261D01*
X193603273Y-95694642D01*
X193698511Y-95599404D01*
X193746130Y-95456547D01*
X193746130Y-95218452D01*
X193841369Y-95980357D02*
X193841369Y-96742261D01*
X192793750Y-97504166D02*
X192746130Y-97408928D01*
X192746130Y-97266071D01*
X192793750Y-97123214D01*
X192888988Y-97027976D01*
X192984226Y-96980357D01*
X193174702Y-96932738D01*
X193317559Y-96932738D01*
X193508035Y-96980357D01*
X193603273Y-97027976D01*
X193698511Y-97123214D01*
X193746130Y-97266071D01*
X193746130Y-97361309D01*
X193698511Y-97504166D01*
X193650892Y-97551785D01*
X193317559Y-97551785D01*
X193317559Y-97361309D01*
X193746130Y-98504166D02*
X193746130Y-97932738D01*
X193746130Y-98218452D02*
X192746130Y-98218452D01*
X192888988Y-98123214D01*
X192984226Y-98027976D01*
X193031845Y-97932738D01*
X212796130Y-95194642D02*
X211796130Y-95194642D01*
X211796130Y-95432738D01*
X211843750Y-95575595D01*
X211938988Y-95670833D01*
X212034226Y-95718452D01*
X212224702Y-95766071D01*
X212367559Y-95766071D01*
X212558035Y-95718452D01*
X212653273Y-95670833D01*
X212748511Y-95575595D01*
X212796130Y-95432738D01*
X212796130Y-95194642D01*
X212891369Y-95956547D02*
X212891369Y-96718452D01*
X212796130Y-96956547D02*
X211796130Y-96956547D01*
X212272321Y-96956547D02*
X212272321Y-97527976D01*
X212796130Y-97527976D02*
X211796130Y-97527976D01*
X212796130Y-98527976D02*
X212796130Y-97956547D01*
X212796130Y-98242261D02*
X211796130Y-98242261D01*
X211938988Y-98147023D01*
X212034226Y-98051785D01*
X212081845Y-97956547D01*
X246133630Y-76430357D02*
X245133630Y-76430357D01*
X245133630Y-76668452D01*
X245181250Y-76811309D01*
X245276488Y-76906547D01*
X245371726Y-76954166D01*
X245562202Y-77001785D01*
X245705059Y-77001785D01*
X245895535Y-76954166D01*
X245990773Y-76906547D01*
X246086011Y-76811309D01*
X246133630Y-76668452D01*
X246133630Y-76430357D01*
X246228869Y-77192261D02*
X246228869Y-77954166D01*
X246133630Y-78192261D02*
X245133630Y-78192261D01*
X246133630Y-79192261D02*
X246133630Y-78620833D01*
X246133630Y-78906547D02*
X245133630Y-78906547D01*
X245276488Y-78811309D01*
X245371726Y-78716071D01*
X245419345Y-78620833D01*
X231846130Y-95337500D02*
X230846130Y-95337500D01*
X230846130Y-95575595D01*
X230893750Y-95718452D01*
X230988988Y-95813690D01*
X231084226Y-95861309D01*
X231274702Y-95908928D01*
X231417559Y-95908928D01*
X231608035Y-95861309D01*
X231703273Y-95813690D01*
X231798511Y-95718452D01*
X231846130Y-95575595D01*
X231846130Y-95337500D01*
X231941369Y-96099404D02*
X231941369Y-96861309D01*
X230846130Y-97385119D02*
X231560416Y-97385119D01*
X231703273Y-97337500D01*
X231798511Y-97242261D01*
X231846130Y-97099404D01*
X231846130Y-97004166D01*
X231846130Y-98385119D02*
X231846130Y-97813690D01*
X231846130Y-98099404D02*
X230846130Y-98099404D01*
X230988988Y-98004166D01*
X231084226Y-97908928D01*
X231131845Y-97813690D01*
X250896130Y-95218452D02*
X249896130Y-95218452D01*
X249896130Y-95456547D01*
X249943750Y-95599404D01*
X250038988Y-95694642D01*
X250134226Y-95742261D01*
X250324702Y-95789880D01*
X250467559Y-95789880D01*
X250658035Y-95742261D01*
X250753273Y-95694642D01*
X250848511Y-95599404D01*
X250896130Y-95456547D01*
X250896130Y-95218452D01*
X250991369Y-95980357D02*
X250991369Y-96742261D01*
X250896130Y-96980357D02*
X249896130Y-96980357D01*
X250896130Y-97551785D02*
X250324702Y-97123214D01*
X249896130Y-97551785D02*
X250467559Y-96980357D01*
X250896130Y-98504166D02*
X250896130Y-97932738D01*
X250896130Y-98218452D02*
X249896130Y-98218452D01*
X250038988Y-98123214D01*
X250134226Y-98027976D01*
X250181845Y-97932738D01*
X269946130Y-95313690D02*
X268946130Y-95313690D01*
X268946130Y-95551785D01*
X268993750Y-95694642D01*
X269088988Y-95789880D01*
X269184226Y-95837500D01*
X269374702Y-95885119D01*
X269517559Y-95885119D01*
X269708035Y-95837500D01*
X269803273Y-95789880D01*
X269898511Y-95694642D01*
X269946130Y-95551785D01*
X269946130Y-95313690D01*
X270041369Y-96075595D02*
X270041369Y-96837500D01*
X269946130Y-97551785D02*
X269946130Y-97075595D01*
X268946130Y-97075595D01*
X269946130Y-98408928D02*
X269946130Y-97837500D01*
X269946130Y-98123214D02*
X268946130Y-98123214D01*
X269088988Y-98027976D01*
X269184226Y-97932738D01*
X269231845Y-97837500D01*
X241371130Y-114197023D02*
X240371130Y-114197023D01*
X240371130Y-114435119D01*
X240418750Y-114577976D01*
X240513988Y-114673214D01*
X240609226Y-114720833D01*
X240799702Y-114768452D01*
X240942559Y-114768452D01*
X241133035Y-114720833D01*
X241228273Y-114673214D01*
X241323511Y-114577976D01*
X241371130Y-114435119D01*
X241371130Y-114197023D01*
X241466369Y-114958928D02*
X241466369Y-115720833D01*
X241371130Y-115958928D02*
X240371130Y-115958928D01*
X241085416Y-116292261D01*
X240371130Y-116625595D01*
X241371130Y-116625595D01*
X241371130Y-117625595D02*
X241371130Y-117054166D01*
X241371130Y-117339880D02*
X240371130Y-117339880D01*
X240513988Y-117244642D01*
X240609226Y-117149404D01*
X240656845Y-117054166D01*
X293758630Y-55285119D02*
X292758630Y-55285119D01*
X292758630Y-55523214D01*
X292806250Y-55666071D01*
X292901488Y-55761309D01*
X292996726Y-55808928D01*
X293187202Y-55856547D01*
X293330059Y-55856547D01*
X293520535Y-55808928D01*
X293615773Y-55761309D01*
X293711011Y-55666071D01*
X293758630Y-55523214D01*
X293758630Y-55285119D01*
X293853869Y-56047023D02*
X293853869Y-56808928D01*
X293758630Y-57047023D02*
X292758630Y-57047023D01*
X293472916Y-57380357D01*
X292758630Y-57713690D01*
X293758630Y-57713690D01*
X293758630Y-58189880D02*
X292758630Y-58189880D01*
X293758630Y-58666071D02*
X292758630Y-58666071D01*
X293758630Y-59237500D01*
X292758630Y-59237500D01*
X292758630Y-59713690D02*
X293568154Y-59713690D01*
X293663392Y-59761309D01*
X293711011Y-59808928D01*
X293758630Y-59904166D01*
X293758630Y-60094642D01*
X293711011Y-60189880D01*
X293663392Y-60237500D01*
X293568154Y-60285119D01*
X292758630Y-60285119D01*
X293711011Y-60713690D02*
X293758630Y-60856547D01*
X293758630Y-61094642D01*
X293711011Y-61189880D01*
X293663392Y-61237500D01*
X293568154Y-61285119D01*
X293472916Y-61285119D01*
X293377678Y-61237500D01*
X293330059Y-61189880D01*
X293282440Y-61094642D01*
X293234821Y-60904166D01*
X293187202Y-60808928D01*
X293139583Y-60761309D01*
X293044345Y-60713690D01*
X292949107Y-60713690D01*
X292853869Y-60761309D01*
X292806250Y-60808928D01*
X292758630Y-60904166D01*
X292758630Y-61142261D01*
X292806250Y-61285119D01*
X293758630Y-62237500D02*
X293758630Y-61666071D01*
X293758630Y-61951785D02*
X292758630Y-61951785D01*
X292901488Y-61856547D01*
X292996726Y-61761309D01*
X293044345Y-61666071D01*
X222321130Y-114244642D02*
X221321130Y-114244642D01*
X221321130Y-114482738D01*
X221368750Y-114625595D01*
X221463988Y-114720833D01*
X221559226Y-114768452D01*
X221749702Y-114816071D01*
X221892559Y-114816071D01*
X222083035Y-114768452D01*
X222178273Y-114720833D01*
X222273511Y-114625595D01*
X222321130Y-114482738D01*
X222321130Y-114244642D01*
X222416369Y-115006547D02*
X222416369Y-115768452D01*
X222321130Y-116006547D02*
X221321130Y-116006547D01*
X222321130Y-116577976D01*
X221321130Y-116577976D01*
X222321130Y-117577976D02*
X222321130Y-117006547D01*
X222321130Y-117292261D02*
X221321130Y-117292261D01*
X221463988Y-117197023D01*
X221559226Y-117101785D01*
X221606845Y-117006547D01*
X265183630Y-76144642D02*
X264183630Y-76144642D01*
X264183630Y-76382738D01*
X264231250Y-76525595D01*
X264326488Y-76620833D01*
X264421726Y-76668452D01*
X264612202Y-76716071D01*
X264755059Y-76716071D01*
X264945535Y-76668452D01*
X265040773Y-76620833D01*
X265136011Y-76525595D01*
X265183630Y-76382738D01*
X265183630Y-76144642D01*
X265278869Y-76906547D02*
X265278869Y-77668452D01*
X264183630Y-78097023D02*
X264183630Y-78287500D01*
X264231250Y-78382738D01*
X264326488Y-78477976D01*
X264516964Y-78525595D01*
X264850297Y-78525595D01*
X265040773Y-78477976D01*
X265136011Y-78382738D01*
X265183630Y-78287500D01*
X265183630Y-78097023D01*
X265136011Y-78001785D01*
X265040773Y-77906547D01*
X264850297Y-77858928D01*
X264516964Y-77858928D01*
X264326488Y-77906547D01*
X264231250Y-78001785D01*
X264183630Y-78097023D01*
X265183630Y-79477976D02*
X265183630Y-78906547D01*
X265183630Y-79192261D02*
X264183630Y-79192261D01*
X264326488Y-79097023D01*
X264421726Y-79001785D01*
X264469345Y-78906547D01*
X284233630Y-76168452D02*
X283233630Y-76168452D01*
X283233630Y-76406547D01*
X283281250Y-76549404D01*
X283376488Y-76644642D01*
X283471726Y-76692261D01*
X283662202Y-76739880D01*
X283805059Y-76739880D01*
X283995535Y-76692261D01*
X284090773Y-76644642D01*
X284186011Y-76549404D01*
X284233630Y-76406547D01*
X284233630Y-76168452D01*
X284328869Y-76930357D02*
X284328869Y-77692261D01*
X284233630Y-77930357D02*
X283233630Y-77930357D01*
X283233630Y-78311309D01*
X283281250Y-78406547D01*
X283328869Y-78454166D01*
X283424107Y-78501785D01*
X283566964Y-78501785D01*
X283662202Y-78454166D01*
X283709821Y-78406547D01*
X283757440Y-78311309D01*
X283757440Y-77930357D01*
X284233630Y-79454166D02*
X284233630Y-78882738D01*
X284233630Y-79168452D02*
X283233630Y-79168452D01*
X283376488Y-79073214D01*
X283471726Y-78977976D01*
X283519345Y-78882738D01*
X112783630Y-76144642D02*
X111783630Y-76144642D01*
X111783630Y-76382738D01*
X111831250Y-76525595D01*
X111926488Y-76620833D01*
X112021726Y-76668452D01*
X112212202Y-76716071D01*
X112355059Y-76716071D01*
X112545535Y-76668452D01*
X112640773Y-76620833D01*
X112736011Y-76525595D01*
X112783630Y-76382738D01*
X112783630Y-76144642D01*
X112878869Y-76906547D02*
X112878869Y-77668452D01*
X112878869Y-78573214D02*
X112831250Y-78477976D01*
X112736011Y-78382738D01*
X112593154Y-78239880D01*
X112545535Y-78144642D01*
X112545535Y-78049404D01*
X112783630Y-78097023D02*
X112736011Y-78001785D01*
X112640773Y-77906547D01*
X112450297Y-77858928D01*
X112116964Y-77858928D01*
X111926488Y-77906547D01*
X111831250Y-78001785D01*
X111783630Y-78097023D01*
X111783630Y-78287500D01*
X111831250Y-78382738D01*
X111926488Y-78477976D01*
X112116964Y-78525595D01*
X112450297Y-78525595D01*
X112640773Y-78477976D01*
X112736011Y-78382738D01*
X112783630Y-78287500D01*
X112783630Y-78097023D01*
X112783630Y-79477976D02*
X112783630Y-78906547D01*
X112783630Y-79192261D02*
X111783630Y-79192261D01*
X111926488Y-79097023D01*
X112021726Y-79001785D01*
X112069345Y-78906547D01*
X308046130Y-93313690D02*
X307046130Y-93313690D01*
X307046130Y-93551785D01*
X307093750Y-93694642D01*
X307188988Y-93789880D01*
X307284226Y-93837500D01*
X307474702Y-93885119D01*
X307617559Y-93885119D01*
X307808035Y-93837500D01*
X307903273Y-93789880D01*
X307998511Y-93694642D01*
X308046130Y-93551785D01*
X308046130Y-93313690D01*
X308141369Y-94075595D02*
X308141369Y-94837500D01*
X308141369Y-95742261D02*
X308093750Y-95647023D01*
X307998511Y-95551785D01*
X307855654Y-95408928D01*
X307808035Y-95313690D01*
X307808035Y-95218452D01*
X308046130Y-95266071D02*
X307998511Y-95170833D01*
X307903273Y-95075595D01*
X307712797Y-95027976D01*
X307379464Y-95027976D01*
X307188988Y-95075595D01*
X307093750Y-95170833D01*
X307046130Y-95266071D01*
X307046130Y-95456547D01*
X307093750Y-95551785D01*
X307188988Y-95647023D01*
X307379464Y-95694642D01*
X307712797Y-95694642D01*
X307903273Y-95647023D01*
X307998511Y-95551785D01*
X308046130Y-95456547D01*
X308046130Y-95266071D01*
X307046130Y-96123214D02*
X307855654Y-96123214D01*
X307950892Y-96170833D01*
X307998511Y-96218452D01*
X308046130Y-96313690D01*
X308046130Y-96504166D01*
X307998511Y-96599404D01*
X307950892Y-96647023D01*
X307855654Y-96694642D01*
X307046130Y-96694642D01*
X307046130Y-97361309D02*
X307046130Y-97551785D01*
X307093750Y-97647023D01*
X307188988Y-97742261D01*
X307379464Y-97789880D01*
X307712797Y-97789880D01*
X307903273Y-97742261D01*
X307998511Y-97647023D01*
X308046130Y-97551785D01*
X308046130Y-97361309D01*
X307998511Y-97266071D01*
X307903273Y-97170833D01*
X307712797Y-97123214D01*
X307379464Y-97123214D01*
X307188988Y-97170833D01*
X307093750Y-97266071D01*
X307046130Y-97361309D01*
X307046130Y-98075595D02*
X307046130Y-98647023D01*
X308046130Y-98361309D02*
X307046130Y-98361309D01*
X307522321Y-98980357D02*
X307522321Y-99313690D01*
X308046130Y-99456547D02*
X308046130Y-98980357D01*
X307046130Y-98980357D01*
X307046130Y-99456547D01*
X308046130Y-100408928D02*
X308046130Y-99837500D01*
X308046130Y-100123214D02*
X307046130Y-100123214D01*
X307188988Y-100027976D01*
X307284226Y-99932738D01*
X307331845Y-99837500D01*
X169933630Y-76168452D02*
X168933630Y-76168452D01*
X168933630Y-76406547D01*
X168981250Y-76549404D01*
X169076488Y-76644642D01*
X169171726Y-76692261D01*
X169362202Y-76739880D01*
X169505059Y-76739880D01*
X169695535Y-76692261D01*
X169790773Y-76644642D01*
X169886011Y-76549404D01*
X169933630Y-76406547D01*
X169933630Y-76168452D01*
X170028869Y-76930357D02*
X170028869Y-77692261D01*
X169933630Y-78501785D02*
X169457440Y-78168452D01*
X169933630Y-77930357D02*
X168933630Y-77930357D01*
X168933630Y-78311309D01*
X168981250Y-78406547D01*
X169028869Y-78454166D01*
X169124107Y-78501785D01*
X169266964Y-78501785D01*
X169362202Y-78454166D01*
X169409821Y-78406547D01*
X169457440Y-78311309D01*
X169457440Y-77930357D01*
X169933630Y-79454166D02*
X169933630Y-78882738D01*
X169933630Y-79168452D02*
X168933630Y-79168452D01*
X169076488Y-79073214D01*
X169171726Y-78977976D01*
X169219345Y-78882738D01*
X136596130Y-95242261D02*
X135596130Y-95242261D01*
X135596130Y-95480357D01*
X135643750Y-95623214D01*
X135738988Y-95718452D01*
X135834226Y-95766071D01*
X136024702Y-95813690D01*
X136167559Y-95813690D01*
X136358035Y-95766071D01*
X136453273Y-95718452D01*
X136548511Y-95623214D01*
X136596130Y-95480357D01*
X136596130Y-95242261D01*
X136691369Y-96004166D02*
X136691369Y-96766071D01*
X136548511Y-96956547D02*
X136596130Y-97099404D01*
X136596130Y-97337500D01*
X136548511Y-97432738D01*
X136500892Y-97480357D01*
X136405654Y-97527976D01*
X136310416Y-97527976D01*
X136215178Y-97480357D01*
X136167559Y-97432738D01*
X136119940Y-97337500D01*
X136072321Y-97147023D01*
X136024702Y-97051785D01*
X135977083Y-97004166D01*
X135881845Y-96956547D01*
X135786607Y-96956547D01*
X135691369Y-97004166D01*
X135643750Y-97051785D01*
X135596130Y-97147023D01*
X135596130Y-97385119D01*
X135643750Y-97527976D01*
X136596130Y-98480357D02*
X136596130Y-97908928D01*
X136596130Y-98194642D02*
X135596130Y-98194642D01*
X135738988Y-98099404D01*
X135834226Y-98004166D01*
X135881845Y-97908928D01*
X288996130Y-93480357D02*
X287996130Y-93480357D01*
X287996130Y-93718452D01*
X288043750Y-93861309D01*
X288138988Y-93956547D01*
X288234226Y-94004166D01*
X288424702Y-94051785D01*
X288567559Y-94051785D01*
X288758035Y-94004166D01*
X288853273Y-93956547D01*
X288948511Y-93861309D01*
X288996130Y-93718452D01*
X288996130Y-93480357D01*
X289091369Y-94242261D02*
X289091369Y-95004166D01*
X288948511Y-95194642D02*
X288996130Y-95337500D01*
X288996130Y-95575595D01*
X288948511Y-95670833D01*
X288900892Y-95718452D01*
X288805654Y-95766071D01*
X288710416Y-95766071D01*
X288615178Y-95718452D01*
X288567559Y-95670833D01*
X288519940Y-95575595D01*
X288472321Y-95385119D01*
X288424702Y-95289880D01*
X288377083Y-95242261D01*
X288281845Y-95194642D01*
X288186607Y-95194642D01*
X288091369Y-95242261D01*
X288043750Y-95289880D01*
X287996130Y-95385119D01*
X287996130Y-95623214D01*
X288043750Y-95766071D01*
X288472321Y-96194642D02*
X288472321Y-96527976D01*
X288996130Y-96670833D02*
X288996130Y-96194642D01*
X287996130Y-96194642D01*
X287996130Y-96670833D01*
X288996130Y-97099404D02*
X287996130Y-97099404D01*
X288710416Y-97432738D01*
X287996130Y-97766071D01*
X288996130Y-97766071D01*
X288996130Y-98242261D02*
X287996130Y-98242261D01*
X288900892Y-99289880D02*
X288948511Y-99242261D01*
X288996130Y-99099404D01*
X288996130Y-99004166D01*
X288948511Y-98861309D01*
X288853273Y-98766071D01*
X288758035Y-98718452D01*
X288567559Y-98670833D01*
X288424702Y-98670833D01*
X288234226Y-98718452D01*
X288138988Y-98766071D01*
X288043750Y-98861309D01*
X287996130Y-99004166D01*
X287996130Y-99099404D01*
X288043750Y-99242261D01*
X288091369Y-99289880D01*
X288996130Y-100242261D02*
X288996130Y-99670833D01*
X288996130Y-99956547D02*
X287996130Y-99956547D01*
X288138988Y-99861309D01*
X288234226Y-99766071D01*
X288281845Y-99670833D01*
X324714880Y-112720833D02*
X323714880Y-112720833D01*
X323714880Y-112958928D01*
X323762500Y-113101785D01*
X323857738Y-113197023D01*
X323952976Y-113244642D01*
X324143452Y-113292261D01*
X324286309Y-113292261D01*
X324476785Y-113244642D01*
X324572023Y-113197023D01*
X324667261Y-113101785D01*
X324714880Y-112958928D01*
X324714880Y-112720833D01*
X324810119Y-113482738D02*
X324810119Y-114244642D01*
X324667261Y-114435119D02*
X324714880Y-114577976D01*
X324714880Y-114816071D01*
X324667261Y-114911309D01*
X324619642Y-114958928D01*
X324524404Y-115006547D01*
X324429166Y-115006547D01*
X324333928Y-114958928D01*
X324286309Y-114911309D01*
X324238690Y-114816071D01*
X324191071Y-114625595D01*
X324143452Y-114530357D01*
X324095833Y-114482738D01*
X324000595Y-114435119D01*
X323905357Y-114435119D01*
X323810119Y-114482738D01*
X323762500Y-114530357D01*
X323714880Y-114625595D01*
X323714880Y-114863690D01*
X323762500Y-115006547D01*
X324714880Y-115435119D02*
X323714880Y-115435119D01*
X324191071Y-115435119D02*
X324191071Y-116006547D01*
X324714880Y-116006547D02*
X323714880Y-116006547D01*
X324714880Y-116482738D02*
X323714880Y-116482738D01*
X324191071Y-117292261D02*
X324191071Y-116958928D01*
X324714880Y-116958928D02*
X323714880Y-116958928D01*
X323714880Y-117435119D01*
X323714880Y-117673214D02*
X323714880Y-118244642D01*
X324714880Y-117958928D02*
X323714880Y-117958928D01*
X324714880Y-119101785D02*
X324714880Y-118530357D01*
X324714880Y-118816071D02*
X323714880Y-118816071D01*
X323857738Y-118720833D01*
X323952976Y-118625595D01*
X324000595Y-118530357D01*
X96114880Y-112720833D02*
X95114880Y-112720833D01*
X95114880Y-112958928D01*
X95162500Y-113101785D01*
X95257738Y-113197023D01*
X95352976Y-113244642D01*
X95543452Y-113292261D01*
X95686309Y-113292261D01*
X95876785Y-113244642D01*
X95972023Y-113197023D01*
X96067261Y-113101785D01*
X96114880Y-112958928D01*
X96114880Y-112720833D01*
X96210119Y-113482738D02*
X96210119Y-114244642D01*
X96067261Y-114435119D02*
X96114880Y-114577976D01*
X96114880Y-114816071D01*
X96067261Y-114911309D01*
X96019642Y-114958928D01*
X95924404Y-115006547D01*
X95829166Y-115006547D01*
X95733928Y-114958928D01*
X95686309Y-114911309D01*
X95638690Y-114816071D01*
X95591071Y-114625595D01*
X95543452Y-114530357D01*
X95495833Y-114482738D01*
X95400595Y-114435119D01*
X95305357Y-114435119D01*
X95210119Y-114482738D01*
X95162500Y-114530357D01*
X95114880Y-114625595D01*
X95114880Y-114863690D01*
X95162500Y-115006547D01*
X96114880Y-115435119D02*
X95114880Y-115435119D01*
X95591071Y-115435119D02*
X95591071Y-116006547D01*
X96114880Y-116006547D02*
X95114880Y-116006547D01*
X96114880Y-116482738D02*
X95114880Y-116482738D01*
X95591071Y-117292261D02*
X95591071Y-116958928D01*
X96114880Y-116958928D02*
X95114880Y-116958928D01*
X95114880Y-117435119D01*
X95114880Y-117673214D02*
X95114880Y-118244642D01*
X96114880Y-117958928D02*
X95114880Y-117958928D01*
X95210119Y-118530357D02*
X95162500Y-118577976D01*
X95114880Y-118673214D01*
X95114880Y-118911309D01*
X95162500Y-119006547D01*
X95210119Y-119054166D01*
X95305357Y-119101785D01*
X95400595Y-119101785D01*
X95543452Y-119054166D01*
X96114880Y-118482738D01*
X96114880Y-119101785D01*
X298521130Y-112458928D02*
X297521130Y-112458928D01*
X297521130Y-112697023D01*
X297568750Y-112839880D01*
X297663988Y-112935119D01*
X297759226Y-112982738D01*
X297949702Y-113030357D01*
X298092559Y-113030357D01*
X298283035Y-112982738D01*
X298378273Y-112935119D01*
X298473511Y-112839880D01*
X298521130Y-112697023D01*
X298521130Y-112458928D01*
X298616369Y-113220833D02*
X298616369Y-113982738D01*
X298473511Y-114173214D02*
X298521130Y-114316071D01*
X298521130Y-114554166D01*
X298473511Y-114649404D01*
X298425892Y-114697023D01*
X298330654Y-114744642D01*
X298235416Y-114744642D01*
X298140178Y-114697023D01*
X298092559Y-114649404D01*
X298044940Y-114554166D01*
X297997321Y-114363690D01*
X297949702Y-114268452D01*
X297902083Y-114220833D01*
X297806845Y-114173214D01*
X297711607Y-114173214D01*
X297616369Y-114220833D01*
X297568750Y-114268452D01*
X297521130Y-114363690D01*
X297521130Y-114601785D01*
X297568750Y-114744642D01*
X298521130Y-115649404D02*
X298521130Y-115173214D01*
X297521130Y-115173214D01*
X298235416Y-115935119D02*
X298235416Y-116411309D01*
X298521130Y-115839880D02*
X297521130Y-116173214D01*
X298521130Y-116506547D01*
X298473511Y-116792261D02*
X298521130Y-116935119D01*
X298521130Y-117173214D01*
X298473511Y-117268452D01*
X298425892Y-117316071D01*
X298330654Y-117363690D01*
X298235416Y-117363690D01*
X298140178Y-117316071D01*
X298092559Y-117268452D01*
X298044940Y-117173214D01*
X297997321Y-116982738D01*
X297949702Y-116887500D01*
X297902083Y-116839880D01*
X297806845Y-116792261D01*
X297711607Y-116792261D01*
X297616369Y-116839880D01*
X297568750Y-116887500D01*
X297521130Y-116982738D01*
X297521130Y-117220833D01*
X297568750Y-117363690D01*
X298521130Y-117792261D02*
X297521130Y-117792261D01*
X297997321Y-117792261D02*
X297997321Y-118363690D01*
X298521130Y-118363690D02*
X297521130Y-118363690D01*
X298521130Y-119363690D02*
X298521130Y-118792261D01*
X298521130Y-119077976D02*
X297521130Y-119077976D01*
X297663988Y-118982738D01*
X297759226Y-118887500D01*
X297806845Y-118792261D01*
X188983630Y-76287500D02*
X187983630Y-76287500D01*
X187983630Y-76525595D01*
X188031250Y-76668452D01*
X188126488Y-76763690D01*
X188221726Y-76811309D01*
X188412202Y-76858928D01*
X188555059Y-76858928D01*
X188745535Y-76811309D01*
X188840773Y-76763690D01*
X188936011Y-76668452D01*
X188983630Y-76525595D01*
X188983630Y-76287500D01*
X189078869Y-77049404D02*
X189078869Y-77811309D01*
X187983630Y-77906547D02*
X187983630Y-78477976D01*
X188983630Y-78192261D02*
X187983630Y-78192261D01*
X188983630Y-79335119D02*
X188983630Y-78763690D01*
X188983630Y-79049404D02*
X187983630Y-79049404D01*
X188126488Y-78954166D01*
X188221726Y-78858928D01*
X188269345Y-78763690D01*
X88971130Y-75358928D02*
X87971130Y-75358928D01*
X87971130Y-75597023D01*
X88018750Y-75739880D01*
X88113988Y-75835119D01*
X88209226Y-75882738D01*
X88399702Y-75930357D01*
X88542559Y-75930357D01*
X88733035Y-75882738D01*
X88828273Y-75835119D01*
X88923511Y-75739880D01*
X88971130Y-75597023D01*
X88971130Y-75358928D01*
X89066369Y-76120833D02*
X89066369Y-76882738D01*
X87971130Y-76977976D02*
X87971130Y-77549404D01*
X88971130Y-77263690D02*
X87971130Y-77263690D01*
X88685416Y-77835119D02*
X88685416Y-78311309D01*
X88971130Y-77739880D02*
X87971130Y-78073214D01*
X88971130Y-78406547D01*
X88447321Y-79073214D02*
X88494940Y-79216071D01*
X88542559Y-79263690D01*
X88637797Y-79311309D01*
X88780654Y-79311309D01*
X88875892Y-79263690D01*
X88923511Y-79216071D01*
X88971130Y-79120833D01*
X88971130Y-78739880D01*
X87971130Y-78739880D01*
X87971130Y-79073214D01*
X88018750Y-79168452D01*
X88066369Y-79216071D01*
X88161607Y-79263690D01*
X88256845Y-79263690D01*
X88352083Y-79216071D01*
X88399702Y-79168452D01*
X88447321Y-79073214D01*
X88447321Y-78739880D01*
X88971130Y-80263690D02*
X88971130Y-79692261D01*
X88971130Y-79977976D02*
X87971130Y-79977976D01*
X88113988Y-79882738D01*
X88209226Y-79787500D01*
X88256845Y-79692261D01*
X227083630Y-76144642D02*
X226083630Y-76144642D01*
X226083630Y-76382738D01*
X226131250Y-76525595D01*
X226226488Y-76620833D01*
X226321726Y-76668452D01*
X226512202Y-76716071D01*
X226655059Y-76716071D01*
X226845535Y-76668452D01*
X226940773Y-76620833D01*
X227036011Y-76525595D01*
X227083630Y-76382738D01*
X227083630Y-76144642D01*
X227178869Y-76906547D02*
X227178869Y-77668452D01*
X226083630Y-77906547D02*
X226893154Y-77906547D01*
X226988392Y-77954166D01*
X227036011Y-78001785D01*
X227083630Y-78097023D01*
X227083630Y-78287500D01*
X227036011Y-78382738D01*
X226988392Y-78430357D01*
X226893154Y-78477976D01*
X226083630Y-78477976D01*
X227083630Y-79477976D02*
X227083630Y-78906547D01*
X227083630Y-79192261D02*
X226083630Y-79192261D01*
X226226488Y-79097023D01*
X226321726Y-79001785D01*
X226369345Y-78906547D01*
X184221130Y-114339880D02*
X183221130Y-114339880D01*
X183221130Y-114577976D01*
X183268750Y-114720833D01*
X183363988Y-114816071D01*
X183459226Y-114863690D01*
X183649702Y-114911309D01*
X183792559Y-114911309D01*
X183983035Y-114863690D01*
X184078273Y-114816071D01*
X184173511Y-114720833D01*
X184221130Y-114577976D01*
X184221130Y-114339880D01*
X184316369Y-115101785D02*
X184316369Y-115863690D01*
X183221130Y-115958928D02*
X184221130Y-116292261D01*
X183221130Y-116625595D01*
X184221130Y-117482738D02*
X184221130Y-116911309D01*
X184221130Y-117197023D02*
X183221130Y-117197023D01*
X183363988Y-117101785D01*
X183459226Y-117006547D01*
X183506845Y-116911309D01*
X131833630Y-76097023D02*
X130833630Y-76097023D01*
X130833630Y-76335119D01*
X130881250Y-76477976D01*
X130976488Y-76573214D01*
X131071726Y-76620833D01*
X131262202Y-76668452D01*
X131405059Y-76668452D01*
X131595535Y-76620833D01*
X131690773Y-76573214D01*
X131786011Y-76477976D01*
X131833630Y-76335119D01*
X131833630Y-76097023D01*
X131928869Y-76858928D02*
X131928869Y-77620833D01*
X130833630Y-77763690D02*
X131833630Y-78001785D01*
X131119345Y-78192261D01*
X131833630Y-78382738D01*
X130833630Y-78620833D01*
X131833630Y-79525595D02*
X131833630Y-78954166D01*
X131833630Y-79239880D02*
X130833630Y-79239880D01*
X130976488Y-79144642D01*
X131071726Y-79049404D01*
X131119345Y-78954166D01*
X322333630Y-132485119D02*
X321333630Y-132485119D01*
X321333630Y-132723214D01*
X321381250Y-132866071D01*
X321476488Y-132961309D01*
X321571726Y-133008928D01*
X321762202Y-133056547D01*
X321905059Y-133056547D01*
X322095535Y-133008928D01*
X322190773Y-132961309D01*
X322286011Y-132866071D01*
X322333630Y-132723214D01*
X322333630Y-132485119D01*
X322428869Y-133247023D02*
X322428869Y-134008928D01*
X321333630Y-134151785D02*
X322333630Y-134389880D01*
X321619345Y-134580357D01*
X322333630Y-134770833D01*
X321333630Y-135008928D01*
X322333630Y-135389880D02*
X321333630Y-135389880D01*
X322333630Y-135866071D02*
X321333630Y-135866071D01*
X322333630Y-136437500D01*
X321333630Y-136437500D01*
X322333630Y-137437500D02*
X322333630Y-136866071D01*
X322333630Y-137151785D02*
X321333630Y-137151785D01*
X321476488Y-137056547D01*
X321571726Y-136961309D01*
X321619345Y-136866071D01*
X112783630Y-132485119D02*
X111783630Y-132485119D01*
X111783630Y-132723214D01*
X111831250Y-132866071D01*
X111926488Y-132961309D01*
X112021726Y-133008928D01*
X112212202Y-133056547D01*
X112355059Y-133056547D01*
X112545535Y-133008928D01*
X112640773Y-132961309D01*
X112736011Y-132866071D01*
X112783630Y-132723214D01*
X112783630Y-132485119D01*
X112878869Y-133247023D02*
X112878869Y-134008928D01*
X111783630Y-134151785D02*
X112783630Y-134389880D01*
X112069345Y-134580357D01*
X112783630Y-134770833D01*
X111783630Y-135008928D01*
X112783630Y-135389880D02*
X111783630Y-135389880D01*
X112783630Y-135866071D02*
X111783630Y-135866071D01*
X112783630Y-136437500D01*
X111783630Y-136437500D01*
X111878869Y-136866071D02*
X111831250Y-136913690D01*
X111783630Y-137008928D01*
X111783630Y-137247023D01*
X111831250Y-137342261D01*
X111878869Y-137389880D01*
X111974107Y-137437500D01*
X112069345Y-137437500D01*
X112212202Y-137389880D01*
X112783630Y-136818452D01*
X112783630Y-137437500D01*
X146121130Y-114292261D02*
X145121130Y-114292261D01*
X145121130Y-114530357D01*
X145168750Y-114673214D01*
X145263988Y-114768452D01*
X145359226Y-114816071D01*
X145549702Y-114863690D01*
X145692559Y-114863690D01*
X145883035Y-114816071D01*
X145978273Y-114768452D01*
X146073511Y-114673214D01*
X146121130Y-114530357D01*
X146121130Y-114292261D01*
X146216369Y-115054166D02*
X146216369Y-115816071D01*
X145121130Y-115958928D02*
X146121130Y-116625595D01*
X145121130Y-116625595D02*
X146121130Y-115958928D01*
X146121130Y-117530357D02*
X146121130Y-116958928D01*
X146121130Y-117244642D02*
X145121130Y-117244642D01*
X145263988Y-117149404D01*
X145359226Y-117054166D01*
X145406845Y-116958928D01*
X208033630Y-76239880D02*
X207033630Y-76239880D01*
X207033630Y-76477976D01*
X207081250Y-76620833D01*
X207176488Y-76716071D01*
X207271726Y-76763690D01*
X207462202Y-76811309D01*
X207605059Y-76811309D01*
X207795535Y-76763690D01*
X207890773Y-76716071D01*
X207986011Y-76620833D01*
X208033630Y-76477976D01*
X208033630Y-76239880D01*
X208128869Y-77001785D02*
X208128869Y-77763690D01*
X207557440Y-78192261D02*
X208033630Y-78192261D01*
X207033630Y-77858928D02*
X207557440Y-78192261D01*
X207033630Y-78525595D01*
X208033630Y-79382738D02*
X208033630Y-78811309D01*
X208033630Y-79097023D02*
X207033630Y-79097023D01*
X207176488Y-79001785D01*
X207271726Y-78906547D01*
X207319345Y-78811309D01*
X127071130Y-114292261D02*
X126071130Y-114292261D01*
X126071130Y-114530357D01*
X126118750Y-114673214D01*
X126213988Y-114768452D01*
X126309226Y-114816071D01*
X126499702Y-114863690D01*
X126642559Y-114863690D01*
X126833035Y-114816071D01*
X126928273Y-114768452D01*
X127023511Y-114673214D01*
X127071130Y-114530357D01*
X127071130Y-114292261D01*
X127166369Y-115054166D02*
X127166369Y-115816071D01*
X126071130Y-115958928D02*
X126071130Y-116625595D01*
X127071130Y-115958928D01*
X127071130Y-116625595D01*
X127071130Y-117530357D02*
X127071130Y-116958928D01*
X127071130Y-117244642D02*
X126071130Y-117244642D01*
X126213988Y-117149404D01*
X126309226Y-117054166D01*
X126356845Y-116958928D01*
%LPC*%
D12*
X88245000Y-111097500D03*
D13*
X88225000Y-111387500D02*
X88265000Y-110807500D01*
D12*
X88265000Y-110807500D03*
X82570001Y-112617500D03*
D13*
X81915000Y-113347500D02*
X83225002Y-111887500D01*
D14*
X85725000Y-115887500D03*
D12*
X83225000Y-111887500D03*
D15*
X80645000Y-115887500D03*
X90805000Y-115887500D03*
D16*
X73787000Y-108902500D03*
X97663000Y-108902500D03*
D14*
X73787000Y-124142500D03*
X97663000Y-124142500D03*
D15*
X131286250Y-134937500D03*
X121126250Y-134937500D03*
D12*
X123706250Y-130937500D03*
D14*
X126206250Y-134937500D03*
D12*
X123051251Y-131667500D03*
D13*
X122396250Y-132397500D02*
X123706252Y-130937500D01*
D12*
X128746250Y-129857500D03*
X128726250Y-130147500D03*
D13*
X128706250Y-130437500D02*
X128746250Y-129857500D01*
D15*
X293211250Y-134937500D03*
X283051250Y-134937500D03*
D12*
X285631250Y-130937500D03*
D14*
X288131250Y-134937500D03*
D12*
X284976251Y-131667500D03*
D13*
X284321250Y-132397500D02*
X285631252Y-130937500D01*
D12*
X290671250Y-129857500D03*
X290651250Y-130147500D03*
D13*
X290631250Y-130437500D02*
X290671250Y-129857500D01*
D12*
X83482500Y-92047500D03*
D13*
X83462500Y-92337500D02*
X83502500Y-91757500D01*
D12*
X83502500Y-91757500D03*
X77807501Y-93567500D03*
D13*
X77152500Y-94297500D02*
X78462502Y-92837500D01*
D14*
X80962500Y-96837500D03*
D12*
X78462500Y-92837500D03*
D15*
X75882500Y-96837500D03*
X86042500Y-96837500D03*
D17*
X272256250Y-60387500D03*
X272256250Y-57087500D03*
X100806250Y-60387500D03*
X100806250Y-57087500D03*
X119856250Y-60387500D03*
X119856250Y-57087500D03*
X138906250Y-60387500D03*
X138906250Y-57087500D03*
X157956250Y-60387500D03*
X157956250Y-57087500D03*
X177006250Y-60387500D03*
X177006250Y-57087500D03*
X196056250Y-57087500D03*
X196056250Y-60387500D03*
X215106250Y-60387500D03*
X215106250Y-57087500D03*
X234156250Y-57087500D03*
X234156250Y-60387500D03*
X253206250Y-57087500D03*
X253206250Y-60387500D03*
X215106250Y-133287500D03*
X215106250Y-136587500D03*
X300831250Y-79437500D03*
X300831250Y-76137500D03*
X319881250Y-76137500D03*
X319881250Y-79437500D03*
X348456250Y-57087500D03*
X348456250Y-60387500D03*
X81756250Y-60387500D03*
X81756250Y-57087500D03*
X115093750Y-95187500D03*
X115093750Y-98487500D03*
X296068750Y-136587500D03*
X296068750Y-133287500D03*
X134143750Y-136587500D03*
X134143750Y-133287500D03*
X200818750Y-117537500D03*
X200818750Y-114237500D03*
X343693750Y-79437500D03*
X343693750Y-76137500D03*
X329406250Y-60387500D03*
X329406250Y-57087500D03*
X162718750Y-117537500D03*
X162718750Y-114237500D03*
X88900000Y-98487500D03*
X88900000Y-95187500D03*
X257968750Y-114237500D03*
X257968750Y-117537500D03*
X153200001Y-95187500D03*
X153200001Y-98487500D03*
X277018750Y-114237500D03*
X277018750Y-117537500D03*
X148431250Y-79437500D03*
X148431250Y-76137500D03*
X336550000Y-98487500D03*
X336550000Y-95187500D03*
X310356250Y-57087500D03*
X310356250Y-60387500D03*
X43656250Y-60387500D03*
X43656250Y-57087500D03*
X43656250Y-76137500D03*
X43656250Y-79437500D03*
X43656250Y-95187500D03*
X43656250Y-98487500D03*
X43656250Y-114237500D03*
X43656250Y-117537500D03*
X43656250Y-136587500D03*
X43656250Y-133287500D03*
X172243750Y-98487500D03*
X172243750Y-95187500D03*
X348456250Y-114237500D03*
X348456250Y-117537500D03*
X191293750Y-95187500D03*
X191293750Y-98487500D03*
X210343750Y-98487500D03*
X210343750Y-95187500D03*
X243681250Y-76137500D03*
X243681250Y-79437500D03*
X229393750Y-95187500D03*
X229393750Y-98487500D03*
X248443750Y-98487500D03*
X248443750Y-95187500D03*
X267493750Y-95187500D03*
X267493750Y-98487500D03*
X238918750Y-117537500D03*
X238918750Y-114237500D03*
X291306250Y-60387500D03*
X291306250Y-57087500D03*
X219868750Y-114237500D03*
X219868750Y-117537500D03*
X262731250Y-79437500D03*
X262731250Y-76137500D03*
X281781250Y-76137500D03*
X281781250Y-79437500D03*
X110331250Y-76137500D03*
X110331250Y-79437500D03*
X305593750Y-95187500D03*
X305593750Y-98487500D03*
X167481250Y-79437500D03*
X167481250Y-76137500D03*
X134143750Y-98487500D03*
X134143750Y-95187500D03*
X286543750Y-98487500D03*
X286543750Y-95187500D03*
X322262500Y-117537500D03*
X322262500Y-114237500D03*
X93662500Y-114237500D03*
X93662500Y-117537500D03*
X296068750Y-114237500D03*
X296068750Y-117537500D03*
X186531250Y-76137500D03*
X186531250Y-79437500D03*
X86518750Y-76137500D03*
X86518750Y-79437500D03*
X224631250Y-79437500D03*
X224631250Y-76137500D03*
X181768750Y-114237500D03*
X181768750Y-117537500D03*
X129381250Y-76137500D03*
X129381250Y-79437500D03*
X319881250Y-133287500D03*
X319881250Y-136587500D03*
X110331250Y-133287500D03*
X110331250Y-136587500D03*
X143668750Y-114237500D03*
X143668750Y-117537500D03*
X205581250Y-76137500D03*
X205581250Y-79437500D03*
X124618750Y-117537500D03*
X124618750Y-114237500D03*
D15*
X269398750Y-58737500D03*
X259238750Y-58737500D03*
D12*
X261818750Y-54737500D03*
D14*
X264318750Y-58737500D03*
D12*
X261163751Y-55467500D03*
D13*
X260508750Y-56197500D02*
X261818752Y-54737500D01*
D12*
X266858750Y-53657500D03*
X266838750Y-53947500D03*
D13*
X266818750Y-54237500D02*
X266858750Y-53657500D01*
D15*
X97948750Y-58737500D03*
X87788750Y-58737500D03*
D12*
X90368750Y-54737500D03*
D14*
X92868750Y-58737500D03*
D12*
X89713751Y-55467500D03*
D13*
X89058750Y-56197500D02*
X90368752Y-54737500D01*
D12*
X95408750Y-53657500D03*
X95388750Y-53947500D03*
D13*
X95368750Y-54237500D02*
X95408750Y-53657500D01*
D15*
X116998750Y-58737500D03*
X106838750Y-58737500D03*
D12*
X109418750Y-54737500D03*
D14*
X111918750Y-58737500D03*
D12*
X108763751Y-55467500D03*
D13*
X108108750Y-56197500D02*
X109418752Y-54737500D01*
D12*
X114458750Y-53657500D03*
X114438750Y-53947500D03*
D13*
X114418750Y-54237500D02*
X114458750Y-53657500D01*
D12*
X133488750Y-53947500D03*
D13*
X133468750Y-54237500D02*
X133508750Y-53657500D01*
D12*
X133508750Y-53657500D03*
X127813751Y-55467500D03*
D13*
X127158750Y-56197500D02*
X128468752Y-54737500D01*
D14*
X130968750Y-58737500D03*
D12*
X128468750Y-54737500D03*
D15*
X125888750Y-58737500D03*
X136048750Y-58737500D03*
D12*
X152538750Y-53947500D03*
D13*
X152518750Y-54237500D02*
X152558750Y-53657500D01*
D12*
X152558750Y-53657500D03*
X146863751Y-55467500D03*
D13*
X146208750Y-56197500D02*
X147518752Y-54737500D01*
D14*
X150018750Y-58737500D03*
D12*
X147518750Y-54737500D03*
D15*
X144938750Y-58737500D03*
X155098750Y-58737500D03*
D12*
X171588750Y-53947500D03*
D13*
X171568750Y-54237500D02*
X171608750Y-53657500D01*
D12*
X171608750Y-53657500D03*
X165913751Y-55467500D03*
D13*
X165258750Y-56197500D02*
X166568752Y-54737500D01*
D14*
X169068750Y-58737500D03*
D12*
X166568750Y-54737500D03*
D15*
X163988750Y-58737500D03*
X174148750Y-58737500D03*
D12*
X190638750Y-53947500D03*
D13*
X190618750Y-54237500D02*
X190658750Y-53657500D01*
D12*
X190658750Y-53657500D03*
X184963751Y-55467500D03*
D13*
X184308750Y-56197500D02*
X185618752Y-54737500D01*
D14*
X188118750Y-58737500D03*
D12*
X185618750Y-54737500D03*
D15*
X183038750Y-58737500D03*
X193198750Y-58737500D03*
D12*
X209688750Y-53947500D03*
D13*
X209668750Y-54237500D02*
X209708750Y-53657500D01*
D12*
X209708750Y-53657500D03*
X204013751Y-55467500D03*
D13*
X203358750Y-56197500D02*
X204668752Y-54737500D01*
D14*
X207168750Y-58737500D03*
D12*
X204668750Y-54737500D03*
D15*
X202088750Y-58737500D03*
X212248750Y-58737500D03*
X231298750Y-58737500D03*
X221138750Y-58737500D03*
D12*
X223718750Y-54737500D03*
D14*
X226218750Y-58737500D03*
D12*
X223063751Y-55467500D03*
D13*
X222408750Y-56197500D02*
X223718752Y-54737500D01*
D12*
X228758750Y-53657500D03*
X228738750Y-53947500D03*
D13*
X228718750Y-54237500D02*
X228758750Y-53657500D01*
D12*
X247788750Y-53947500D03*
D13*
X247768750Y-54237500D02*
X247808750Y-53657500D01*
D12*
X247808750Y-53657500D03*
X242113751Y-55467500D03*
D13*
X241458750Y-56197500D02*
X242768752Y-54737500D01*
D14*
X245268750Y-58737500D03*
D12*
X242768750Y-54737500D03*
D15*
X240188750Y-58737500D03*
X250348750Y-58737500D03*
D12*
X209688750Y-130147500D03*
D13*
X209668750Y-130437500D02*
X209708750Y-129857500D01*
D12*
X209708750Y-129857500D03*
X204013751Y-131667500D03*
D13*
X203358750Y-132397500D02*
X204668752Y-130937500D01*
D14*
X207168750Y-134937500D03*
D12*
X204668750Y-130937500D03*
D15*
X202088750Y-134937500D03*
X212248750Y-134937500D03*
D16*
X150018750Y-127952500D03*
X264318750Y-127952500D03*
D14*
X150018750Y-143192500D03*
X264318750Y-143192500D03*
D12*
X295413750Y-72997500D03*
D13*
X295393750Y-73287500D02*
X295433750Y-72707500D01*
D12*
X295433750Y-72707500D03*
X289738751Y-74517500D03*
D13*
X289083750Y-75247500D02*
X290393752Y-73787500D01*
D14*
X292893750Y-77787500D03*
D12*
X290393750Y-73787500D03*
D15*
X287813750Y-77787500D03*
X297973750Y-77787500D03*
X317023750Y-77787500D03*
X306863750Y-77787500D03*
D12*
X309443750Y-73787500D03*
D14*
X311943750Y-77787500D03*
D12*
X308788751Y-74517500D03*
D13*
X308133750Y-75247500D02*
X309443752Y-73787500D01*
D12*
X314483750Y-72707500D03*
X314463750Y-72997500D03*
D13*
X314443750Y-73287500D02*
X314483750Y-72707500D01*
D12*
X343038750Y-53947500D03*
D13*
X343018750Y-54237500D02*
X343058750Y-53657500D01*
D12*
X343058750Y-53657500D03*
X337363751Y-55467500D03*
D13*
X336708750Y-56197500D02*
X338018752Y-54737500D01*
D14*
X340518750Y-58737500D03*
D12*
X338018750Y-54737500D03*
D15*
X335438750Y-58737500D03*
X345598750Y-58737500D03*
D12*
X76338750Y-53947500D03*
D13*
X76318750Y-54237500D02*
X76358750Y-53657500D01*
D12*
X76358750Y-53657500D03*
X70663751Y-55467500D03*
D13*
X70008750Y-56197500D02*
X71318752Y-54737500D01*
D14*
X73818750Y-58737500D03*
D12*
X71318750Y-54737500D03*
D15*
X68738750Y-58737500D03*
X78898750Y-58737500D03*
X112236250Y-96837500D03*
X102076250Y-96837500D03*
D12*
X104656250Y-92837500D03*
D14*
X107156250Y-96837500D03*
D12*
X104001251Y-93567500D03*
D13*
X103346250Y-94297500D02*
X104656252Y-92837500D01*
D12*
X109696250Y-91757500D03*
X109676250Y-92047500D03*
D13*
X109656250Y-92337500D02*
X109696250Y-91757500D01*
D12*
X195401250Y-111097500D03*
D13*
X195381250Y-111387500D02*
X195421250Y-110807500D01*
D12*
X195421250Y-110807500D03*
X189726251Y-112617500D03*
D13*
X189071250Y-113347500D02*
X190381252Y-111887500D01*
D14*
X192881250Y-115887500D03*
D12*
X190381250Y-111887500D03*
D15*
X187801250Y-115887500D03*
X197961250Y-115887500D03*
D12*
X338276250Y-72997500D03*
D13*
X338256250Y-73287500D02*
X338296250Y-72707500D01*
D12*
X338296250Y-72707500D03*
X332601251Y-74517500D03*
D13*
X331946250Y-75247500D02*
X333256252Y-73787500D01*
D14*
X335756250Y-77787500D03*
D12*
X333256250Y-73787500D03*
D15*
X330676250Y-77787500D03*
X340836250Y-77787500D03*
X326548750Y-58737500D03*
X316388750Y-58737500D03*
D12*
X318968750Y-54737500D03*
D14*
X321468750Y-58737500D03*
D12*
X318313751Y-55467500D03*
D13*
X317658750Y-56197500D02*
X318968752Y-54737500D01*
D12*
X324008750Y-53657500D03*
X323988750Y-53947500D03*
D13*
X323968750Y-54237500D02*
X324008750Y-53657500D01*
D15*
X159861250Y-115887500D03*
X149701250Y-115887500D03*
D12*
X152281250Y-111887500D03*
D14*
X154781250Y-115887500D03*
D12*
X151626251Y-112617500D03*
D13*
X150971250Y-113347500D02*
X152281252Y-111887500D01*
D12*
X157321250Y-110807500D03*
X157301250Y-111097500D03*
D13*
X157281250Y-111387500D02*
X157321250Y-110807500D01*
D15*
X255111250Y-115887500D03*
X244951250Y-115887500D03*
D12*
X247531250Y-111887500D03*
D14*
X250031250Y-115887500D03*
D12*
X246876251Y-112617500D03*
D13*
X246221250Y-113347500D02*
X247531252Y-111887500D01*
D12*
X252571250Y-110807500D03*
X252551250Y-111097500D03*
D13*
X252531250Y-111387500D02*
X252571250Y-110807500D01*
D12*
X147776250Y-92047500D03*
D13*
X147756250Y-92337500D02*
X147796250Y-91757500D01*
D12*
X147796250Y-91757500D03*
X142101251Y-93567500D03*
D13*
X141446250Y-94297500D02*
X142756252Y-92837500D01*
D14*
X145256250Y-96837500D03*
D12*
X142756250Y-92837500D03*
D15*
X140176250Y-96837500D03*
X150336250Y-96837500D03*
X274161250Y-115887500D03*
X264001250Y-115887500D03*
D12*
X266581250Y-111887500D03*
D14*
X269081250Y-115887500D03*
D12*
X265926251Y-112617500D03*
D13*
X265271250Y-113347500D02*
X266581252Y-111887500D01*
D12*
X271621250Y-110807500D03*
X271601250Y-111097500D03*
D13*
X271581250Y-111387500D02*
X271621250Y-110807500D01*
D15*
X145573750Y-77787500D03*
X135413750Y-77787500D03*
D12*
X137993750Y-73787500D03*
D14*
X140493750Y-77787500D03*
D12*
X137338751Y-74517500D03*
D13*
X136683750Y-75247500D02*
X137993752Y-73787500D01*
D12*
X143033750Y-72707500D03*
X143013750Y-72997500D03*
D13*
X142993750Y-73287500D02*
X143033750Y-72707500D01*
D14*
X340550500Y-105092500D03*
X316674500Y-105092500D03*
D16*
X340550500Y-89852500D03*
X316674500Y-89852500D03*
D15*
X333692500Y-96837500D03*
X323532500Y-96837500D03*
D12*
X326112500Y-92837500D03*
D14*
X328612500Y-96837500D03*
D12*
X325457501Y-93567500D03*
D13*
X324802500Y-94297500D02*
X326112502Y-92837500D01*
D12*
X331152500Y-91757500D03*
X331132500Y-92047500D03*
D13*
X331112500Y-92337500D02*
X331152500Y-91757500D01*
D15*
X307498750Y-58737500D03*
X297338750Y-58737500D03*
D12*
X299918750Y-54737500D03*
D14*
X302418750Y-58737500D03*
D12*
X299263751Y-55467500D03*
D13*
X298608750Y-56197500D02*
X299918752Y-54737500D01*
D12*
X304958750Y-53657500D03*
X304938750Y-53947500D03*
D13*
X304918750Y-54237500D02*
X304958750Y-53657500D01*
D12*
X38238750Y-53947500D03*
D13*
X38218750Y-54237500D02*
X38258750Y-53657500D01*
D12*
X38258750Y-53657500D03*
X32563751Y-55467500D03*
D13*
X31908750Y-56197500D02*
X33218752Y-54737500D01*
D14*
X35718750Y-58737500D03*
D12*
X33218750Y-54737500D03*
D15*
X30638750Y-58737500D03*
X40798750Y-58737500D03*
D12*
X38238750Y-72997500D03*
D13*
X38218750Y-73287500D02*
X38258750Y-72707500D01*
D12*
X38258750Y-72707500D03*
X32563751Y-74517500D03*
D13*
X31908750Y-75247500D02*
X33218752Y-73787500D01*
D14*
X35718750Y-77787500D03*
D12*
X33218750Y-73787500D03*
D15*
X30638750Y-77787500D03*
X40798750Y-77787500D03*
X40798750Y-96837500D03*
X30638750Y-96837500D03*
D12*
X33218750Y-92837500D03*
D14*
X35718750Y-96837500D03*
D12*
X32563751Y-93567500D03*
D13*
X31908750Y-94297500D02*
X33218752Y-92837500D01*
D12*
X38258750Y-91757500D03*
X38238750Y-92047500D03*
D13*
X38218750Y-92337500D02*
X38258750Y-91757500D01*
D12*
X38238750Y-111097500D03*
D13*
X38218750Y-111387500D02*
X38258750Y-110807500D01*
D12*
X38258750Y-110807500D03*
X32563751Y-112617500D03*
D13*
X31908750Y-113347500D02*
X33218752Y-111887500D01*
D14*
X35718750Y-115887500D03*
D12*
X33218750Y-111887500D03*
D15*
X30638750Y-115887500D03*
X40798750Y-115887500D03*
X40798750Y-134937500D03*
X30638750Y-134937500D03*
D12*
X33218750Y-130937500D03*
D14*
X35718750Y-134937500D03*
D12*
X32563751Y-131667500D03*
D13*
X31908750Y-132397500D02*
X33218752Y-130937500D01*
D12*
X38258750Y-129857500D03*
X38238750Y-130147500D03*
D13*
X38218750Y-130437500D02*
X38258750Y-129857500D01*
D15*
X169386250Y-96837500D03*
X159226250Y-96837500D03*
D12*
X161806250Y-92837500D03*
D14*
X164306250Y-96837500D03*
D12*
X161151251Y-93567500D03*
D13*
X160496250Y-94297500D02*
X161806252Y-92837500D01*
D12*
X166846250Y-91757500D03*
X166826250Y-92047500D03*
D13*
X166806250Y-92337500D02*
X166846250Y-91757500D01*
D15*
X345598750Y-115887500D03*
X335438750Y-115887500D03*
D12*
X338018750Y-111887500D03*
D14*
X340518750Y-115887500D03*
D12*
X337363751Y-112617500D03*
D13*
X336708750Y-113347500D02*
X338018752Y-111887500D01*
D12*
X343058750Y-110807500D03*
X343038750Y-111097500D03*
D13*
X343018750Y-111387500D02*
X343058750Y-110807500D01*
D12*
X185876250Y-92047500D03*
D13*
X185856250Y-92337500D02*
X185896250Y-91757500D01*
D12*
X185896250Y-91757500D03*
X180201251Y-93567500D03*
D13*
X179546250Y-94297500D02*
X180856252Y-92837500D01*
D14*
X183356250Y-96837500D03*
D12*
X180856250Y-92837500D03*
D15*
X178276250Y-96837500D03*
X188436250Y-96837500D03*
X207486250Y-96837500D03*
X197326250Y-96837500D03*
D12*
X199906250Y-92837500D03*
D14*
X202406250Y-96837500D03*
D12*
X199251251Y-93567500D03*
D13*
X198596250Y-94297500D02*
X199906252Y-92837500D01*
D12*
X204946250Y-91757500D03*
X204926250Y-92047500D03*
D13*
X204906250Y-92337500D02*
X204946250Y-91757500D01*
D12*
X238263750Y-72997500D03*
D13*
X238243750Y-73287500D02*
X238283750Y-72707500D01*
D12*
X238283750Y-72707500D03*
X232588751Y-74517500D03*
D13*
X231933750Y-75247500D02*
X233243752Y-73787500D01*
D14*
X235743750Y-77787500D03*
D12*
X233243750Y-73787500D03*
D15*
X230663750Y-77787500D03*
X240823750Y-77787500D03*
X226536250Y-96837500D03*
X216376250Y-96837500D03*
D12*
X218956250Y-92837500D03*
D14*
X221456250Y-96837500D03*
D12*
X218301251Y-93567500D03*
D13*
X217646250Y-94297500D02*
X218956252Y-92837500D01*
D12*
X223996250Y-91757500D03*
X223976250Y-92047500D03*
D13*
X223956250Y-92337500D02*
X223996250Y-91757500D01*
D15*
X245586250Y-96837500D03*
X235426250Y-96837500D03*
D12*
X238006250Y-92837500D03*
D14*
X240506250Y-96837500D03*
D12*
X237351251Y-93567500D03*
D13*
X236696250Y-94297500D02*
X238006252Y-92837500D01*
D12*
X243046250Y-91757500D03*
X243026250Y-92047500D03*
D13*
X243006250Y-92337500D02*
X243046250Y-91757500D01*
D12*
X262076250Y-92047500D03*
D13*
X262056250Y-92337500D02*
X262096250Y-91757500D01*
D12*
X262096250Y-91757500D03*
X256401251Y-93567500D03*
D13*
X255746250Y-94297500D02*
X257056252Y-92837500D01*
D14*
X259556250Y-96837500D03*
D12*
X257056250Y-92837500D03*
D15*
X254476250Y-96837500D03*
X264636250Y-96837500D03*
X236061250Y-115887500D03*
X225901250Y-115887500D03*
D12*
X228481250Y-111887500D03*
D14*
X230981250Y-115887500D03*
D12*
X227826251Y-112617500D03*
D13*
X227171250Y-113347500D02*
X228481252Y-111887500D01*
D12*
X233521250Y-110807500D03*
X233501250Y-111097500D03*
D13*
X233481250Y-111387500D02*
X233521250Y-110807500D01*
D12*
X285888750Y-53947500D03*
D13*
X285868750Y-54237500D02*
X285908750Y-53657500D01*
D12*
X285908750Y-53657500D03*
X280213751Y-55467500D03*
D13*
X279558750Y-56197500D02*
X280868752Y-54737500D01*
D14*
X283368750Y-58737500D03*
D12*
X280868750Y-54737500D03*
D15*
X278288750Y-58737500D03*
X288448750Y-58737500D03*
D12*
X214451250Y-111097500D03*
D13*
X214431250Y-111387500D02*
X214471250Y-110807500D01*
D12*
X214471250Y-110807500D03*
X208776251Y-112617500D03*
D13*
X208121250Y-113347500D02*
X209431252Y-111887500D01*
D14*
X211931250Y-115887500D03*
D12*
X209431250Y-111887500D03*
D15*
X206851250Y-115887500D03*
X217011250Y-115887500D03*
X259873750Y-77787500D03*
X249713750Y-77787500D03*
D12*
X252293750Y-73787500D03*
D14*
X254793750Y-77787500D03*
D12*
X251638751Y-74517500D03*
D13*
X250983750Y-75247500D02*
X252293752Y-73787500D01*
D12*
X257333750Y-72707500D03*
X257313750Y-72997500D03*
D13*
X257293750Y-73287500D02*
X257333750Y-72707500D01*
D15*
X278923750Y-77787500D03*
X268763750Y-77787500D03*
D12*
X271343750Y-73787500D03*
D14*
X273843750Y-77787500D03*
D12*
X270688751Y-74517500D03*
D13*
X270033750Y-75247500D02*
X271343752Y-73787500D01*
D12*
X276383750Y-72707500D03*
X276363750Y-72997500D03*
D13*
X276343750Y-73287500D02*
X276383750Y-72707500D01*
D15*
X107473750Y-77787500D03*
X97313750Y-77787500D03*
D12*
X99893750Y-73787500D03*
D14*
X102393750Y-77787500D03*
D12*
X99238751Y-74517500D03*
D13*
X98583750Y-75247500D02*
X99893752Y-73787500D01*
D12*
X104933750Y-72707500D03*
X104913750Y-72997500D03*
D13*
X104893750Y-73287500D02*
X104933750Y-72707500D01*
D12*
X300176250Y-92047500D03*
D13*
X300156250Y-92337500D02*
X300196250Y-91757500D01*
D12*
X300196250Y-91757500D03*
X294501251Y-93567500D03*
D13*
X293846250Y-94297500D02*
X295156252Y-92837500D01*
D14*
X297656250Y-96837500D03*
D12*
X295156250Y-92837500D03*
D15*
X292576250Y-96837500D03*
X302736250Y-96837500D03*
X164623750Y-77787500D03*
X154463750Y-77787500D03*
D12*
X157043750Y-73787500D03*
D14*
X159543750Y-77787500D03*
D12*
X156388751Y-74517500D03*
D13*
X155733750Y-75247500D02*
X157043752Y-73787500D01*
D12*
X162083750Y-72707500D03*
X162063750Y-72997500D03*
D13*
X162043750Y-73287500D02*
X162083750Y-72707500D01*
D12*
X128726250Y-92047500D03*
D13*
X128706250Y-92337500D02*
X128746250Y-91757500D01*
D12*
X128746250Y-91757500D03*
X123051251Y-93567500D03*
D13*
X122396250Y-94297500D02*
X123706252Y-92837500D01*
D14*
X126206250Y-96837500D03*
D12*
X123706250Y-92837500D03*
D15*
X121126250Y-96837500D03*
X131286250Y-96837500D03*
D12*
X281126250Y-92047500D03*
D13*
X281106250Y-92337500D02*
X281146250Y-91757500D01*
D12*
X281146250Y-91757500D03*
X275451251Y-93567500D03*
D13*
X274796250Y-94297500D02*
X276106252Y-92837500D01*
D14*
X278606250Y-96837500D03*
D12*
X276106250Y-92837500D03*
D15*
X273526250Y-96837500D03*
X283686250Y-96837500D03*
X319405000Y-115887500D03*
X309245000Y-115887500D03*
D12*
X311825000Y-111887500D03*
D14*
X314325000Y-115887500D03*
D12*
X311170001Y-112617500D03*
D13*
X310515000Y-113347500D02*
X311825002Y-111887500D01*
D12*
X316865000Y-110807500D03*
X316845000Y-111097500D03*
D13*
X316825000Y-111387500D02*
X316865000Y-110807500D01*
D12*
X290651250Y-111097500D03*
D13*
X290631250Y-111387500D02*
X290671250Y-110807500D01*
D12*
X290671250Y-110807500D03*
X284976251Y-112617500D03*
D13*
X284321250Y-113347500D02*
X285631252Y-111887500D01*
D14*
X288131250Y-115887500D03*
D12*
X285631250Y-111887500D03*
D15*
X283051250Y-115887500D03*
X293211250Y-115887500D03*
D12*
X181113750Y-72997500D03*
D13*
X181093750Y-73287500D02*
X181133750Y-72707500D01*
D12*
X181133750Y-72707500D03*
X175438751Y-74517500D03*
D13*
X174783750Y-75247500D02*
X176093752Y-73787500D01*
D14*
X178593750Y-77787500D03*
D12*
X176093750Y-73787500D03*
D15*
X173513750Y-77787500D03*
X183673750Y-77787500D03*
X83661250Y-77787500D03*
X73501250Y-77787500D03*
D12*
X76081250Y-73787500D03*
D14*
X78581250Y-77787500D03*
D12*
X75426251Y-74517500D03*
D13*
X74771250Y-75247500D02*
X76081252Y-73787500D01*
D12*
X81121250Y-72707500D03*
X81101250Y-72997500D03*
D13*
X81081250Y-73287500D02*
X81121250Y-72707500D01*
D15*
X221773750Y-77787500D03*
X211613750Y-77787500D03*
D12*
X214193750Y-73787500D03*
D14*
X216693750Y-77787500D03*
D12*
X213538751Y-74517500D03*
D13*
X212883750Y-75247500D02*
X214193752Y-73787500D01*
D12*
X219233750Y-72707500D03*
X219213750Y-72997500D03*
D13*
X219193750Y-73287500D02*
X219233750Y-72707500D01*
D12*
X176351250Y-111097500D03*
D13*
X176331250Y-111387500D02*
X176371250Y-110807500D01*
D12*
X176371250Y-110807500D03*
X170676251Y-112617500D03*
D13*
X170021250Y-113347500D02*
X171331252Y-111887500D01*
D14*
X173831250Y-115887500D03*
D12*
X171331250Y-111887500D03*
D15*
X168751250Y-115887500D03*
X178911250Y-115887500D03*
D12*
X123963750Y-72997500D03*
D13*
X123943750Y-73287500D02*
X123983750Y-72707500D01*
D12*
X123983750Y-72707500D03*
X118288751Y-74517500D03*
D13*
X117633750Y-75247500D02*
X118943752Y-73787500D01*
D14*
X121443750Y-77787500D03*
D12*
X118943750Y-73787500D03*
D15*
X116363750Y-77787500D03*
X126523750Y-77787500D03*
D12*
X314463750Y-130147500D03*
D13*
X314443750Y-130437500D02*
X314483750Y-129857500D01*
D12*
X314483750Y-129857500D03*
X308788751Y-131667500D03*
D13*
X308133750Y-132397500D02*
X309443752Y-130937500D01*
D14*
X311943750Y-134937500D03*
D12*
X309443750Y-130937500D03*
D15*
X306863750Y-134937500D03*
X317023750Y-134937500D03*
X107473750Y-134937500D03*
X97313750Y-134937500D03*
D12*
X99893750Y-130937500D03*
D14*
X102393750Y-134937500D03*
D12*
X99238751Y-131667500D03*
D13*
X98583750Y-132397500D02*
X99893752Y-130937500D01*
D12*
X104933750Y-129857500D03*
X104913750Y-130147500D03*
D13*
X104893750Y-130437500D02*
X104933750Y-129857500D01*
D12*
X138251250Y-111097500D03*
D13*
X138231250Y-111387500D02*
X138271250Y-110807500D01*
D12*
X138271250Y-110807500D03*
X132576251Y-112617500D03*
D13*
X131921250Y-113347500D02*
X133231252Y-111887500D01*
D14*
X135731250Y-115887500D03*
D12*
X133231250Y-111887500D03*
D15*
X130651250Y-115887500D03*
X140811250Y-115887500D03*
X202723750Y-77787500D03*
X192563750Y-77787500D03*
D12*
X195143750Y-73787500D03*
D14*
X197643750Y-77787500D03*
D12*
X194488751Y-74517500D03*
D13*
X193833750Y-75247500D02*
X195143752Y-73787500D01*
D12*
X200183750Y-72707500D03*
X200163750Y-72997500D03*
D13*
X200143750Y-73287500D02*
X200183750Y-72707500D01*
D15*
X121761250Y-115887500D03*
X111601250Y-115887500D03*
D12*
X114181250Y-111887500D03*
D14*
X116681250Y-115887500D03*
D12*
X113526251Y-112617500D03*
D13*
X112871250Y-113347500D02*
X114181252Y-111887500D01*
D12*
X119221250Y-110807500D03*
X119201250Y-111097500D03*
D13*
X119181250Y-111387500D02*
X119221250Y-110807500D01*
D18*
X57150000Y-75882500D03*
D19*
X49530000Y-47942500D03*
D18*
X49530000Y-50482500D03*
X49530000Y-53022500D03*
X49530000Y-55562500D03*
X49530000Y-58102500D03*
X49530000Y-60642500D03*
X49530000Y-63182500D03*
X49530000Y-65722500D03*
X49530000Y-68262500D03*
X49530000Y-70802500D03*
X49530000Y-73342500D03*
X49530000Y-75882500D03*
X52070000Y-75882500D03*
X54610000Y-75882500D03*
X59690000Y-75882500D03*
X62230000Y-75882500D03*
X64770000Y-75882500D03*
X64770000Y-73342500D03*
X64770000Y-70802500D03*
X64770000Y-68262500D03*
X64770000Y-65722500D03*
X64770000Y-63182500D03*
X64770000Y-60642500D03*
X64770000Y-58102500D03*
X64770000Y-55562500D03*
X64770000Y-53022500D03*
X64770000Y-50482500D03*
X64770000Y-47942500D03*
X52070000Y-58102500D03*
X62230000Y-58102500D03*
M02*
