M48
; DRILL file {KiCad (5.1.0)-1} date 3/28/2019 3:15:07 PM
; FORMAT={-:-/ absolute / inch / decimal}
; #@! TF.CreationDate,2019-03-28T15:15:07-04:00
; #@! TF.GenerationSoftware,Kicad,Pcbnew,(5.1.0)-1
; #@! TF.FileFunction,Plated,1,2,PTH
FMAT,2
INCH
T1C0.0157
T2C0.0276
T3C0.0579
%
G90
G05
T1
X1.75Y-4.7188
X1.75Y-5.4375
X1.9062Y-4.7188
X1.9375Y-4.9688
X1.9688Y-5.2411
X2.0Y-4.5312
X2.0Y-4.8438
X2.0938Y-4.9375
X2.125Y-2.75
X2.125Y-3.2188
X2.125Y-3.875
X2.1251Y-5.1991
X2.1562Y-5.25
X2.1562Y-5.6553
X2.1603Y-5.4416
X2.1875Y-5.0938
X2.2188Y-5.5625
X2.3438Y-2.75
X2.3438Y-3.2188
X2.3438Y-3.875
X2.375Y-5.5938
X2.4062Y-5.625
X2.4421Y-5.5984
X2.4682Y-5.0087
X2.4688Y-4.9688
X2.47Y-5.6262
X2.5141Y-5.0062
X2.5625Y-5.0
X2.6019Y-5.0
X2.6412Y-5.0
X2.6562Y-5.5509
X2.7188Y-5.2188
X2.7188Y-5.2812
X2.7188Y-5.3438
X2.7188Y-5.4062
X2.75Y-5.25
X2.75Y-5.3125
X2.75Y-5.375
X2.75Y-5.6242
X2.8116Y-5.6553
X2.8438Y-5.6875
X2.875Y-5.4215
X3.2812Y-4.8125
X3.3125Y-4.8438
X3.3438Y-4.875
X3.375Y-4.7812
X3.375Y-4.9062
X3.4062Y-4.8125
X3.4062Y-4.9375
X3.4208Y-4.8491
X3.4375Y-4.9688
X3.4486Y-4.8769
X3.4688Y-5.0
X3.5Y-4.9062
X3.5Y-5.0312
X3.5312Y-4.9375
X3.5312Y-5.0625
X3.5625Y-4.9688
X3.5771Y-5.0053
X3.5891Y-5.0984
X3.6049Y-5.0332
X3.6204Y-5.1296
X3.6562Y-5.1562
X3.7188Y-5.1562
X3.7581Y-5.1562
X3.7812Y-4.6562
X3.8337Y-4.6462
X3.875Y-4.6562
X3.9149Y-4.6568
X3.9543Y-4.6558
X3.9936Y-4.657
X4.033Y-4.6562
X4.0724Y-4.6563
X4.2296Y-4.2079
X4.375Y-4.334
X4.3915Y-4.3697
X4.9062Y-4.125
X4.9079Y-4.2829
X4.9391Y-4.2516
X5.6562Y-4.125
X6.4062Y-4.125
X6.75Y-4.7188
X6.7812Y-4.75
X6.8125Y-4.7812
X6.8438Y-4.8125
X6.875Y-4.8438
X7.1562Y-4.125
X7.9062Y-4.125
X8.6562Y-4.125
X9.4062Y-4.125
T3
X6.5062Y-2.2125
X6.5578Y-2.155
X6.7547Y-2.1353
X6.7562Y-2.1125
X13.0687Y-2.9625
X13.1203Y-2.905
X13.3172Y-2.8853
X13.3187Y-2.8625
X7.8187Y-3.7125
X7.8703Y-3.655
X8.0672Y-3.6353
X8.0687Y-3.6125
X11.7562Y-5.2125
X11.8078Y-5.155
X12.0047Y-5.1353
X12.0062Y-5.1125
X4.0687Y-3.7125
X4.1203Y-3.655
X4.3172Y-3.6353
X4.3187Y-3.6125
X5.7562Y-2.2125
X5.8078Y-2.155
X6.0047Y-2.1353
X6.0062Y-2.1125
X7.6312Y-2.9625
X7.6828Y-2.905
X7.8797Y-2.8853
X7.8812Y-2.8625
X10.4437Y-4.4625
X10.4953Y-4.405
X10.6922Y-4.3853
X10.6937Y-4.3625
X12.225Y-4.4625
X12.2766Y-4.405
X12.4734Y-4.3853
X12.475Y-4.3625
X6.8812Y-2.9625
X6.9328Y-2.905
X7.1297Y-2.8853
X7.1312Y-2.8625
X10.2562Y-2.2125
X10.3078Y-2.155
X10.5047Y-2.1353
X10.5062Y-2.1125
X11.1937Y-4.4625
X11.2453Y-4.405
X11.4422Y-4.3853
X11.4437Y-4.3625
X1.2562Y-2.2125
X1.3078Y-2.155
X1.5047Y-2.1353
X1.5062Y-2.1125
X6.1312Y-2.9625
X6.1828Y-2.905
X6.3797Y-2.8853
X6.3812Y-2.8625
X7.0687Y-3.7125
X7.1203Y-3.655
X7.3172Y-3.6353
X7.3187Y-3.6125
X12.7875Y-3.7125
X12.8391Y-3.655
X13.0359Y-3.6353
X13.0375Y-3.6125
X9.3187Y-3.7125
X9.3703Y-3.655
X9.5672Y-3.6353
X9.5687Y-3.6125
X7.4437Y-4.4625
X7.4953Y-4.405
X7.6922Y-4.3853
X7.6937Y-4.3625
X8.1937Y-4.4625
X8.2453Y-4.405
X8.4422Y-4.3853
X8.4437Y-4.3625
X4.2562Y-2.2125
X4.3078Y-2.155
X4.5047Y-2.1353
X4.5062Y-2.1125
X10.9125Y-5.2125
X10.9641Y-5.155
X11.1609Y-5.1353
X11.1625Y-5.1125
X10.6312Y-2.9625
X10.6828Y-2.905
X10.8797Y-2.8853
X10.8812Y-2.8625
X7.2562Y-2.2125
X7.3078Y-2.155
X7.5047Y-2.1353
X7.5062Y-2.1125
X11.7562Y-2.2125
X11.8078Y-2.155
X12.0047Y-2.1353
X12.0062Y-2.1125
X1.2562Y-4.4625
X1.3078Y-4.405
X1.5047Y-4.3853
X1.5062Y-4.3625
X9.5062Y-2.2125
X9.5578Y-2.155
X9.7547Y-2.1353
X9.7562Y-2.1125
X3.8813Y-5.2125
X3.9328Y-5.155
X4.1297Y-5.1353
X4.1312Y-5.1125
X12.5062Y-2.2125
X12.5578Y-2.155
X12.7547Y-2.1353
X12.7562Y-2.1125
X8.0062Y-2.2125
X8.0578Y-2.155
X8.2547Y-2.1353
X8.2562Y-2.1125
X4.8187Y-3.7125
X4.8703Y-3.655
X5.0672Y-3.6353
X5.0687Y-3.6125
X7.8187Y-5.2125
X7.8703Y-5.155
X8.0672Y-5.1353
X8.0687Y-5.1125
X3.8813Y-2.9625
X3.9328Y-2.905
X4.1297Y-2.8853
X4.1312Y-2.8625
X4.6312Y-2.9625
X4.6828Y-2.905
X4.8797Y-2.8853
X4.8812Y-2.8625
X3.0375Y-3.7125
X3.0891Y-3.655
X3.2859Y-3.6353
X3.2875Y-3.6125
X13.2562Y-4.4625
X13.3078Y-4.405
X13.5047Y-4.3853
X13.5062Y-4.3625
X3.225Y-4.4625
X3.2766Y-4.405
X3.4734Y-4.3853
X3.475Y-4.3625
X1.2562Y-2.9625
X1.3078Y-2.905
X1.5047Y-2.8853
X1.5062Y-2.8625
X10.8187Y-3.7125
X10.8703Y-3.655
X11.0672Y-3.6353
X11.0687Y-3.6125
X9.1312Y-2.9625
X9.1828Y-2.905
X9.3797Y-2.8853
X9.3812Y-2.8625
X13.2562Y-2.2125
X13.3078Y-2.155
X13.5047Y-2.1353
X13.5062Y-2.1125
X8.9437Y-4.4625
X8.9953Y-4.405
X9.1922Y-4.3853
X9.1937Y-4.3625
X11.3812Y-2.9625
X11.4328Y-2.905
X11.6297Y-2.8853
X11.6312Y-2.8625
X1.2562Y-5.2125
X1.3078Y-5.155
X1.5047Y-5.1353
X1.5062Y-5.1125
X5.0062Y-2.2125
X5.0578Y-2.155
X5.2547Y-2.1353
X5.2562Y-2.1125
X4.725Y-5.2125
X4.7766Y-5.155
X4.9734Y-5.1353
X4.975Y-5.1125
X1.2562Y-3.7125
X1.3078Y-3.655
X1.5047Y-3.6353
X1.5062Y-3.6125
X5.5687Y-3.7125
X5.6203Y-3.655
X5.8172Y-3.6353
X5.8187Y-3.6125
X3.5063Y-2.2125
X3.5578Y-2.155
X3.7547Y-2.1353
X3.7563Y-2.1125
X5.1937Y-4.4625
X5.2453Y-4.405
X5.4422Y-4.3853
X5.4437Y-4.3625
X5.3812Y-2.9625
X5.4328Y-2.905
X5.6297Y-2.8853
X5.6312Y-2.8625
X8.7562Y-2.2125
X8.8078Y-2.155
X9.0047Y-2.1353
X9.0062Y-2.1125
X4.4437Y-4.4625
X4.4953Y-4.405
X4.6922Y-4.3853
X4.6937Y-4.3625
X12.1312Y-2.9625
X12.1828Y-2.905
X12.3797Y-2.8853
X12.3812Y-2.8625
X8.3812Y-2.9625
X8.4328Y-2.905
X8.6297Y-2.8853
X8.6312Y-2.8625
X6.6937Y-4.4625
X6.7453Y-4.405
X6.9422Y-4.3853
X6.9437Y-4.3625
X10.0687Y-3.7125
X10.1203Y-3.655
X10.3172Y-3.6353
X10.3187Y-3.6125
X11.5687Y-3.7125
X11.6203Y-3.655
X11.8172Y-3.6353
X11.8187Y-3.6125
X6.3187Y-3.7125
X6.3703Y-3.655
X6.5672Y-3.6353
X6.5687Y-3.6125
X5.9437Y-4.4625
X5.9953Y-4.405
X6.1922Y-4.3853
X6.1937Y-4.3625
X2.9438Y-2.9625
X2.9953Y-2.905
X3.1922Y-2.8853
X3.1938Y-2.8625
X8.5687Y-3.7125
X8.6203Y-3.655
X8.8172Y-3.6353
X8.8187Y-3.6125
X9.6937Y-4.4625
X9.7453Y-4.405
X9.9422Y-4.3853
X9.9437Y-4.3625
X11.0062Y-2.2125
X11.0578Y-2.155
X11.2547Y-2.1353
X11.2562Y-2.1125
X2.7563Y-2.2125
X2.8078Y-2.155
X3.0047Y-2.1353
X3.0063Y-2.1125
X9.8812Y-2.9625
X9.9328Y-2.905
X10.1297Y-2.8853
X10.1312Y-2.8625
T2
G00X2.0138Y-1.889
M15
G01X2.0138Y-1.9362
M16
G05
G00X2.0138Y-2.0661
M15
G01X2.0138Y-2.1134
M16
G05
G00X2.3012Y-1.889
M15
G01X2.3012Y-1.9362
M16
G05
G00X2.3012Y-2.0661
M15
G01X2.3012Y-2.1134
M16
G05
T0
M30
