G04 #@! TF.GenerationSoftware,KiCad,Pcbnew,(5.1.0)-1*
G04 #@! TF.CreationDate,2019-03-28T11:36:53-04:00*
G04 #@! TF.ProjectId,pcb-project,7063622d-7072-46f6-9a65-63742e6b6963,rev?*
G04 #@! TF.SameCoordinates,Original*
G04 #@! TF.FileFunction,Legend,Bot*
G04 #@! TF.FilePolarity,Positive*
%FSLAX46Y46*%
G04 Gerber Fmt 4.6, Leading zero omitted, Abs format (unit mm)*
G04 Created by KiCad (PCBNEW (5.1.0)-1) date 2019-03-28 11:36:53*
%MOMM*%
%LPD*%
G04 APERTURE LIST*
%ADD10C,0.150000*%
%ADD11C,0.120000*%
%ADD12R,1.202000X1.902000*%
%ADD13C,2.352000*%
%ADD14C,2.352000*%
%ADD15C,4.089800*%
%ADD16C,1.852000*%
%ADD17C,0.020000*%
%ADD18C,1.077000*%
%ADD19R,1.302000X1.002000*%
%ADD20C,1.352000*%
%ADD21C,3.150000*%
%ADD22R,1.602000X0.652000*%
%ADD23R,0.652000X1.602000*%
%ADD24R,0.602000X2.352000*%
%ADD25O,1.802000X2.802000*%
%ADD26R,1.702000X1.402000*%
G04 APERTURE END LIST*
D10*
X173226785Y-142533630D02*
X173226785Y-141533630D01*
X172988690Y-141533630D01*
X172845833Y-141581250D01*
X172750595Y-141676488D01*
X172702976Y-141771726D01*
X172655357Y-141962202D01*
X172655357Y-142105059D01*
X172702976Y-142295535D01*
X172750595Y-142390773D01*
X172845833Y-142486011D01*
X172988690Y-142533630D01*
X173226785Y-142533630D01*
X171845833Y-142486011D02*
X171941071Y-142533630D01*
X172131547Y-142533630D01*
X172226785Y-142486011D01*
X172274404Y-142390773D01*
X172274404Y-142009821D01*
X172226785Y-141914583D01*
X172131547Y-141866964D01*
X171941071Y-141866964D01*
X171845833Y-141914583D01*
X171798214Y-142009821D01*
X171798214Y-142105059D01*
X172274404Y-142200297D01*
X171417261Y-142486011D02*
X171322023Y-142533630D01*
X171131547Y-142533630D01*
X171036309Y-142486011D01*
X170988690Y-142390773D01*
X170988690Y-142343154D01*
X171036309Y-142247916D01*
X171131547Y-142200297D01*
X171274404Y-142200297D01*
X171369642Y-142152678D01*
X171417261Y-142057440D01*
X171417261Y-142009821D01*
X171369642Y-141914583D01*
X171274404Y-141866964D01*
X171131547Y-141866964D01*
X171036309Y-141914583D01*
X170560119Y-142533630D02*
X170560119Y-141866964D01*
X170560119Y-141533630D02*
X170607738Y-141581250D01*
X170560119Y-141628869D01*
X170512500Y-141581250D01*
X170560119Y-141533630D01*
X170560119Y-141628869D01*
X169655357Y-141866964D02*
X169655357Y-142676488D01*
X169702976Y-142771726D01*
X169750595Y-142819345D01*
X169845833Y-142866964D01*
X169988690Y-142866964D01*
X170083928Y-142819345D01*
X169655357Y-142486011D02*
X169750595Y-142533630D01*
X169941071Y-142533630D01*
X170036309Y-142486011D01*
X170083928Y-142438392D01*
X170131547Y-142343154D01*
X170131547Y-142057440D01*
X170083928Y-141962202D01*
X170036309Y-141914583D01*
X169941071Y-141866964D01*
X169750595Y-141866964D01*
X169655357Y-141914583D01*
X169179166Y-141866964D02*
X169179166Y-142533630D01*
X169179166Y-141962202D02*
X169131547Y-141914583D01*
X169036309Y-141866964D01*
X168893452Y-141866964D01*
X168798214Y-141914583D01*
X168750595Y-142009821D01*
X168750595Y-142533630D01*
X167893452Y-142486011D02*
X167988690Y-142533630D01*
X168179166Y-142533630D01*
X168274404Y-142486011D01*
X168322023Y-142390773D01*
X168322023Y-142009821D01*
X168274404Y-141914583D01*
X168179166Y-141866964D01*
X167988690Y-141866964D01*
X167893452Y-141914583D01*
X167845833Y-142009821D01*
X167845833Y-142105059D01*
X168322023Y-142200297D01*
X166988690Y-142533630D02*
X166988690Y-141533630D01*
X166988690Y-142486011D02*
X167083928Y-142533630D01*
X167274404Y-142533630D01*
X167369642Y-142486011D01*
X167417261Y-142438392D01*
X167464880Y-142343154D01*
X167464880Y-142057440D01*
X167417261Y-141962202D01*
X167369642Y-141914583D01*
X167274404Y-141866964D01*
X167083928Y-141866964D01*
X166988690Y-141914583D01*
X165417261Y-142009821D02*
X165274404Y-142057440D01*
X165226785Y-142105059D01*
X165179166Y-142200297D01*
X165179166Y-142343154D01*
X165226785Y-142438392D01*
X165274404Y-142486011D01*
X165369642Y-142533630D01*
X165750595Y-142533630D01*
X165750595Y-141533630D01*
X165417261Y-141533630D01*
X165322023Y-141581250D01*
X165274404Y-141628869D01*
X165226785Y-141724107D01*
X165226785Y-141819345D01*
X165274404Y-141914583D01*
X165322023Y-141962202D01*
X165417261Y-142009821D01*
X165750595Y-142009821D01*
X164845833Y-141866964D02*
X164607738Y-142533630D01*
X164369642Y-141866964D02*
X164607738Y-142533630D01*
X164702976Y-142771726D01*
X164750595Y-142819345D01*
X164845833Y-142866964D01*
X163226785Y-142533630D02*
X163226785Y-141533630D01*
X162988690Y-141533630D01*
X162845833Y-141581250D01*
X162750595Y-141676488D01*
X162702976Y-141771726D01*
X162655357Y-141962202D01*
X162655357Y-142105059D01*
X162702976Y-142295535D01*
X162750595Y-142390773D01*
X162845833Y-142486011D01*
X162988690Y-142533630D01*
X163226785Y-142533630D01*
X161845833Y-142486011D02*
X161941071Y-142533630D01*
X162131547Y-142533630D01*
X162226785Y-142486011D01*
X162274404Y-142390773D01*
X162274404Y-142009821D01*
X162226785Y-141914583D01*
X162131547Y-141866964D01*
X161941071Y-141866964D01*
X161845833Y-141914583D01*
X161798214Y-142009821D01*
X161798214Y-142105059D01*
X162274404Y-142200297D01*
X160941071Y-142533630D02*
X160941071Y-142009821D01*
X160988690Y-141914583D01*
X161083928Y-141866964D01*
X161274404Y-141866964D01*
X161369642Y-141914583D01*
X160941071Y-142486011D02*
X161036309Y-142533630D01*
X161274404Y-142533630D01*
X161369642Y-142486011D01*
X161417261Y-142390773D01*
X161417261Y-142295535D01*
X161369642Y-142200297D01*
X161274404Y-142152678D01*
X161036309Y-142152678D01*
X160941071Y-142105059D01*
X160464880Y-141866964D02*
X160464880Y-142533630D01*
X160464880Y-141962202D02*
X160417261Y-141914583D01*
X160322023Y-141866964D01*
X160179166Y-141866964D01*
X160083928Y-141914583D01*
X160036309Y-142009821D01*
X160036309Y-142533630D01*
X158798214Y-142533630D02*
X158798214Y-141533630D01*
X158417261Y-141533630D01*
X158322023Y-141581250D01*
X158274404Y-141628869D01*
X158226785Y-141724107D01*
X158226785Y-141866964D01*
X158274404Y-141962202D01*
X158322023Y-142009821D01*
X158417261Y-142057440D01*
X158798214Y-142057440D01*
X157417261Y-142486011D02*
X157512500Y-142533630D01*
X157702976Y-142533630D01*
X157798214Y-142486011D01*
X157845833Y-142390773D01*
X157845833Y-142009821D01*
X157798214Y-141914583D01*
X157702976Y-141866964D01*
X157512500Y-141866964D01*
X157417261Y-141914583D01*
X157369642Y-142009821D01*
X157369642Y-142105059D01*
X157845833Y-142200297D01*
X156941071Y-142533630D02*
X156941071Y-141866964D01*
X156941071Y-142057440D02*
X156893452Y-141962202D01*
X156845833Y-141914583D01*
X156750595Y-141866964D01*
X156655357Y-141866964D01*
X156322023Y-142533630D02*
X156322023Y-141533630D01*
X156226785Y-142152678D02*
X155941071Y-142533630D01*
X155941071Y-141866964D02*
X156322023Y-142247916D01*
X155512500Y-142533630D02*
X155512500Y-141866964D01*
X155512500Y-141533630D02*
X155560119Y-141581250D01*
X155512500Y-141628869D01*
X155464880Y-141581250D01*
X155512500Y-141533630D01*
X155512500Y-141628869D01*
X155036309Y-141866964D02*
X155036309Y-142533630D01*
X155036309Y-141962202D02*
X154988690Y-141914583D01*
X154893452Y-141866964D01*
X154750595Y-141866964D01*
X154655357Y-141914583D01*
X154607738Y-142009821D01*
X154607738Y-142533630D01*
X154179166Y-142486011D02*
X154083928Y-142533630D01*
X153893452Y-142533630D01*
X153798214Y-142486011D01*
X153750595Y-142390773D01*
X153750595Y-142343154D01*
X153798214Y-142247916D01*
X153893452Y-142200297D01*
X154036309Y-142200297D01*
X154131547Y-142152678D01*
X154179166Y-142057440D01*
X154179166Y-142009821D01*
X154131547Y-141914583D01*
X154036309Y-141866964D01*
X153893452Y-141866964D01*
X153798214Y-141914583D01*
X173163690Y-140946130D02*
X173163690Y-139946130D01*
X172782738Y-139946130D01*
X172687500Y-139993750D01*
X172639880Y-140041369D01*
X172592261Y-140136607D01*
X172592261Y-140279464D01*
X172639880Y-140374702D01*
X172687500Y-140422321D01*
X172782738Y-140469940D01*
X173163690Y-140469940D01*
X171592261Y-140850892D02*
X171639880Y-140898511D01*
X171782738Y-140946130D01*
X171877976Y-140946130D01*
X172020833Y-140898511D01*
X172116071Y-140803273D01*
X172163690Y-140708035D01*
X172211309Y-140517559D01*
X172211309Y-140374702D01*
X172163690Y-140184226D01*
X172116071Y-140088988D01*
X172020833Y-139993750D01*
X171877976Y-139946130D01*
X171782738Y-139946130D01*
X171639880Y-139993750D01*
X171592261Y-140041369D01*
X170830357Y-140422321D02*
X170687500Y-140469940D01*
X170639880Y-140517559D01*
X170592261Y-140612797D01*
X170592261Y-140755654D01*
X170639880Y-140850892D01*
X170687500Y-140898511D01*
X170782738Y-140946130D01*
X171163690Y-140946130D01*
X171163690Y-139946130D01*
X170830357Y-139946130D01*
X170735119Y-139993750D01*
X170687500Y-140041369D01*
X170639880Y-140136607D01*
X170639880Y-140231845D01*
X170687500Y-140327083D01*
X170735119Y-140374702D01*
X170830357Y-140422321D01*
X171163690Y-140422321D01*
X170163690Y-140565178D02*
X169401785Y-140565178D01*
X168925595Y-140946130D02*
X168925595Y-139946130D01*
X168544642Y-139946130D01*
X168449404Y-139993750D01*
X168401785Y-140041369D01*
X168354166Y-140136607D01*
X168354166Y-140279464D01*
X168401785Y-140374702D01*
X168449404Y-140422321D01*
X168544642Y-140469940D01*
X168925595Y-140469940D01*
X167925595Y-140946130D02*
X167925595Y-140279464D01*
X167925595Y-140469940D02*
X167877976Y-140374702D01*
X167830357Y-140327083D01*
X167735119Y-140279464D01*
X167639880Y-140279464D01*
X167163690Y-140946130D02*
X167258928Y-140898511D01*
X167306547Y-140850892D01*
X167354166Y-140755654D01*
X167354166Y-140469940D01*
X167306547Y-140374702D01*
X167258928Y-140327083D01*
X167163690Y-140279464D01*
X167020833Y-140279464D01*
X166925595Y-140327083D01*
X166877976Y-140374702D01*
X166830357Y-140469940D01*
X166830357Y-140755654D01*
X166877976Y-140850892D01*
X166925595Y-140898511D01*
X167020833Y-140946130D01*
X167163690Y-140946130D01*
X166401785Y-140279464D02*
X166401785Y-141136607D01*
X166449404Y-141231845D01*
X166544642Y-141279464D01*
X166592261Y-141279464D01*
X166401785Y-139946130D02*
X166449404Y-139993750D01*
X166401785Y-140041369D01*
X166354166Y-139993750D01*
X166401785Y-139946130D01*
X166401785Y-140041369D01*
X165544642Y-140898511D02*
X165639880Y-140946130D01*
X165830357Y-140946130D01*
X165925595Y-140898511D01*
X165973214Y-140803273D01*
X165973214Y-140422321D01*
X165925595Y-140327083D01*
X165830357Y-140279464D01*
X165639880Y-140279464D01*
X165544642Y-140327083D01*
X165497023Y-140422321D01*
X165497023Y-140517559D01*
X165973214Y-140612797D01*
X164639880Y-140898511D02*
X164735119Y-140946130D01*
X164925595Y-140946130D01*
X165020833Y-140898511D01*
X165068452Y-140850892D01*
X165116071Y-140755654D01*
X165116071Y-140469940D01*
X165068452Y-140374702D01*
X165020833Y-140327083D01*
X164925595Y-140279464D01*
X164735119Y-140279464D01*
X164639880Y-140327083D01*
X164354166Y-140279464D02*
X163973214Y-140279464D01*
X164211309Y-139946130D02*
X164211309Y-140803273D01*
X164163690Y-140898511D01*
X164068452Y-140946130D01*
X163973214Y-140946130D01*
X162973214Y-140279464D02*
X162735119Y-140946130D01*
X162497023Y-140279464D01*
X161925595Y-139946130D02*
X161830357Y-139946130D01*
X161735119Y-139993750D01*
X161687500Y-140041369D01*
X161639880Y-140136607D01*
X161592261Y-140327083D01*
X161592261Y-140565178D01*
X161639880Y-140755654D01*
X161687500Y-140850892D01*
X161735119Y-140898511D01*
X161830357Y-140946130D01*
X161925595Y-140946130D01*
X162020833Y-140898511D01*
X162068452Y-140850892D01*
X162116071Y-140755654D01*
X162163690Y-140565178D01*
X162163690Y-140327083D01*
X162116071Y-140136607D01*
X162068452Y-140041369D01*
X162020833Y-139993750D01*
X161925595Y-139946130D01*
X161163690Y-140850892D02*
X161116071Y-140898511D01*
X161163690Y-140946130D01*
X161211309Y-140898511D01*
X161163690Y-140850892D01*
X161163690Y-140946130D01*
X160163690Y-140946130D02*
X160735119Y-140946130D01*
X160449404Y-140946130D02*
X160449404Y-139946130D01*
X160544642Y-140088988D01*
X160639880Y-140184226D01*
X160735119Y-140231845D01*
X82331250Y-132337500D02*
X82331250Y-137537500D01*
X82331250Y-137537500D02*
X87531250Y-137537500D01*
X87531250Y-137537500D02*
X87531250Y-132337500D01*
X87531250Y-132337500D02*
X82331250Y-132337500D01*
X85931250Y-134937500D02*
G75*
G03X85931250Y-134937500I-1000000J0D01*
G01*
D11*
X65965000Y-120908578D02*
X65965000Y-120391422D01*
X67385000Y-120908578D02*
X67385000Y-120391422D01*
X56440000Y-120391422D02*
X56440000Y-120908578D01*
X57860000Y-120391422D02*
X57860000Y-120908578D01*
X52128922Y-134060000D02*
X52646078Y-134060000D01*
X52128922Y-132640000D02*
X52646078Y-132640000D01*
X55478750Y-126464828D02*
X55478750Y-125947672D01*
X54058750Y-126464828D02*
X54058750Y-125947672D01*
X69933750Y-130433578D02*
X69933750Y-129916422D01*
X71353750Y-130433578D02*
X71353750Y-129916422D01*
X66933578Y-143585000D02*
X66416422Y-143585000D01*
X66933578Y-142165000D02*
X66416422Y-142165000D01*
X53891250Y-140896078D02*
X53891250Y-140378922D01*
X52471250Y-140896078D02*
X52471250Y-140378922D01*
X273256250Y-60987500D02*
X271256250Y-60987500D01*
X271256250Y-60987500D02*
X271256250Y-57087500D01*
X273256250Y-60987500D02*
X273256250Y-57087500D01*
X101806250Y-60987500D02*
X99806250Y-60987500D01*
X99806250Y-60987500D02*
X99806250Y-57087500D01*
X101806250Y-60987500D02*
X101806250Y-57087500D01*
X120856250Y-60987500D02*
X118856250Y-60987500D01*
X118856250Y-60987500D02*
X118856250Y-57087500D01*
X120856250Y-60987500D02*
X120856250Y-57087500D01*
X139906250Y-60987500D02*
X137906250Y-60987500D01*
X137906250Y-60987500D02*
X137906250Y-57087500D01*
X139906250Y-60987500D02*
X139906250Y-57087500D01*
X158956250Y-60987500D02*
X156956250Y-60987500D01*
X156956250Y-60987500D02*
X156956250Y-57087500D01*
X158956250Y-60987500D02*
X158956250Y-57087500D01*
X178006250Y-60987500D02*
X176006250Y-60987500D01*
X176006250Y-60987500D02*
X176006250Y-57087500D01*
X178006250Y-60987500D02*
X178006250Y-57087500D01*
X197056250Y-60987500D02*
X197056250Y-57087500D01*
X195056250Y-60987500D02*
X195056250Y-57087500D01*
X197056250Y-60987500D02*
X195056250Y-60987500D01*
X216106250Y-60987500D02*
X214106250Y-60987500D01*
X214106250Y-60987500D02*
X214106250Y-57087500D01*
X216106250Y-60987500D02*
X216106250Y-57087500D01*
X235156250Y-60987500D02*
X235156250Y-57087500D01*
X233156250Y-60987500D02*
X233156250Y-57087500D01*
X235156250Y-60987500D02*
X233156250Y-60987500D01*
X254206250Y-60987500D02*
X254206250Y-57087500D01*
X252206250Y-60987500D02*
X252206250Y-57087500D01*
X254206250Y-60987500D02*
X252206250Y-60987500D01*
X211343750Y-137187500D02*
X211343750Y-133287500D01*
X209343750Y-137187500D02*
X209343750Y-133287500D01*
X211343750Y-137187500D02*
X209343750Y-137187500D01*
X301831250Y-80037500D02*
X299831250Y-80037500D01*
X299831250Y-80037500D02*
X299831250Y-76137500D01*
X301831250Y-80037500D02*
X301831250Y-76137500D01*
X320881250Y-80037500D02*
X320881250Y-76137500D01*
X318881250Y-80037500D02*
X318881250Y-76137500D01*
X320881250Y-80037500D02*
X318881250Y-80037500D01*
X349456250Y-60987500D02*
X349456250Y-57087500D01*
X347456250Y-60987500D02*
X347456250Y-57087500D01*
X349456250Y-60987500D02*
X347456250Y-60987500D01*
X82756250Y-60987500D02*
X80756250Y-60987500D01*
X80756250Y-60987500D02*
X80756250Y-57087500D01*
X82756250Y-60987500D02*
X82756250Y-57087500D01*
X116093750Y-99087500D02*
X116093750Y-95187500D01*
X114093750Y-99087500D02*
X114093750Y-95187500D01*
X116093750Y-99087500D02*
X114093750Y-99087500D01*
X289925000Y-137187500D02*
X287925000Y-137187500D01*
X287925000Y-137187500D02*
X287925000Y-133287500D01*
X289925000Y-137187500D02*
X289925000Y-133287500D01*
X132762500Y-137187500D02*
X130762500Y-137187500D01*
X130762500Y-137187500D02*
X130762500Y-133287500D01*
X132762500Y-137187500D02*
X132762500Y-133287500D01*
X201818750Y-118137500D02*
X199818750Y-118137500D01*
X199818750Y-118137500D02*
X199818750Y-114237500D01*
X201818750Y-118137500D02*
X201818750Y-114237500D01*
X344693750Y-80037500D02*
X342693750Y-80037500D01*
X342693750Y-80037500D02*
X342693750Y-76137500D01*
X344693750Y-80037500D02*
X344693750Y-76137500D01*
X330406250Y-60987500D02*
X328406250Y-60987500D01*
X328406250Y-60987500D02*
X328406250Y-57087500D01*
X330406250Y-60987500D02*
X330406250Y-57087500D01*
X163718750Y-118137500D02*
X161718750Y-118137500D01*
X161718750Y-118137500D02*
X161718750Y-114237500D01*
X163718750Y-118137500D02*
X163718750Y-114237500D01*
X89900000Y-99087500D02*
X87900000Y-99087500D01*
X87900000Y-99087500D02*
X87900000Y-95187500D01*
X89900000Y-99087500D02*
X89900000Y-95187500D01*
X258968750Y-118137500D02*
X258968750Y-114237500D01*
X256968750Y-118137500D02*
X256968750Y-114237500D01*
X258968750Y-118137500D02*
X256968750Y-118137500D01*
X154200001Y-99087500D02*
X154200001Y-95187500D01*
X152200001Y-99087500D02*
X152200001Y-95187500D01*
X154200001Y-99087500D02*
X152200001Y-99087500D01*
X278018750Y-118137500D02*
X278018750Y-114237500D01*
X276018750Y-118137500D02*
X276018750Y-114237500D01*
X278018750Y-118137500D02*
X276018750Y-118137500D01*
X149431250Y-80037500D02*
X147431250Y-80037500D01*
X147431250Y-80037500D02*
X147431250Y-76137500D01*
X149431250Y-80037500D02*
X149431250Y-76137500D01*
X337550000Y-99087500D02*
X335550000Y-99087500D01*
X335550000Y-99087500D02*
X335550000Y-95187500D01*
X337550000Y-99087500D02*
X337550000Y-95187500D01*
X311356250Y-60987500D02*
X311356250Y-57087500D01*
X309356250Y-60987500D02*
X309356250Y-57087500D01*
X311356250Y-60987500D02*
X309356250Y-60987500D01*
X44656250Y-60987500D02*
X42656250Y-60987500D01*
X42656250Y-60987500D02*
X42656250Y-57087500D01*
X44656250Y-60987500D02*
X44656250Y-57087500D01*
X44656250Y-80037500D02*
X44656250Y-76137500D01*
X42656250Y-80037500D02*
X42656250Y-76137500D01*
X44656250Y-80037500D02*
X42656250Y-80037500D01*
X44656250Y-99087500D02*
X44656250Y-95187500D01*
X42656250Y-99087500D02*
X42656250Y-95187500D01*
X44656250Y-99087500D02*
X42656250Y-99087500D01*
X44656250Y-118137500D02*
X44656250Y-114237500D01*
X42656250Y-118137500D02*
X42656250Y-114237500D01*
X44656250Y-118137500D02*
X42656250Y-118137500D01*
X44656250Y-137187500D02*
X42656250Y-137187500D01*
X42656250Y-137187500D02*
X42656250Y-133287500D01*
X44656250Y-137187500D02*
X44656250Y-133287500D01*
X173243750Y-99087500D02*
X171243750Y-99087500D01*
X171243750Y-99087500D02*
X171243750Y-95187500D01*
X173243750Y-99087500D02*
X173243750Y-95187500D01*
X349456250Y-118137500D02*
X349456250Y-114237500D01*
X347456250Y-118137500D02*
X347456250Y-114237500D01*
X349456250Y-118137500D02*
X347456250Y-118137500D01*
X192293750Y-99087500D02*
X192293750Y-95187500D01*
X190293750Y-99087500D02*
X190293750Y-95187500D01*
X192293750Y-99087500D02*
X190293750Y-99087500D01*
X211343750Y-99087500D02*
X209343750Y-99087500D01*
X209343750Y-99087500D02*
X209343750Y-95187500D01*
X211343750Y-99087500D02*
X211343750Y-95187500D01*
X244681250Y-80037500D02*
X244681250Y-76137500D01*
X242681250Y-80037500D02*
X242681250Y-76137500D01*
X244681250Y-80037500D02*
X242681250Y-80037500D01*
X230393750Y-99087500D02*
X230393750Y-95187500D01*
X228393750Y-99087500D02*
X228393750Y-95187500D01*
X230393750Y-99087500D02*
X228393750Y-99087500D01*
X249443750Y-99087500D02*
X247443750Y-99087500D01*
X247443750Y-99087500D02*
X247443750Y-95187500D01*
X249443750Y-99087500D02*
X249443750Y-95187500D01*
X268493750Y-99087500D02*
X268493750Y-95187500D01*
X266493750Y-99087500D02*
X266493750Y-95187500D01*
X268493750Y-99087500D02*
X266493750Y-99087500D01*
X239918750Y-118137500D02*
X237918750Y-118137500D01*
X237918750Y-118137500D02*
X237918750Y-114237500D01*
X239918750Y-118137500D02*
X239918750Y-114237500D01*
X292306250Y-60987500D02*
X290306250Y-60987500D01*
X290306250Y-60987500D02*
X290306250Y-57087500D01*
X292306250Y-60987500D02*
X292306250Y-57087500D01*
X220868750Y-118137500D02*
X220868750Y-114237500D01*
X218868750Y-118137500D02*
X218868750Y-114237500D01*
X220868750Y-118137500D02*
X218868750Y-118137500D01*
X263731250Y-80037500D02*
X261731250Y-80037500D01*
X261731250Y-80037500D02*
X261731250Y-76137500D01*
X263731250Y-80037500D02*
X263731250Y-76137500D01*
X282781250Y-80037500D02*
X282781250Y-76137500D01*
X280781250Y-80037500D02*
X280781250Y-76137500D01*
X282781250Y-80037500D02*
X280781250Y-80037500D01*
X111331250Y-80037500D02*
X111331250Y-76137500D01*
X109331250Y-80037500D02*
X109331250Y-76137500D01*
X111331250Y-80037500D02*
X109331250Y-80037500D01*
X306593750Y-99087500D02*
X306593750Y-95187500D01*
X304593750Y-99087500D02*
X304593750Y-95187500D01*
X306593750Y-99087500D02*
X304593750Y-99087500D01*
X168481250Y-80037500D02*
X166481250Y-80037500D01*
X166481250Y-80037500D02*
X166481250Y-76137500D01*
X168481250Y-80037500D02*
X168481250Y-76137500D01*
X135143750Y-99087500D02*
X133143750Y-99087500D01*
X133143750Y-99087500D02*
X133143750Y-95187500D01*
X135143750Y-99087500D02*
X135143750Y-95187500D01*
X287543750Y-99087500D02*
X285543750Y-99087500D01*
X285543750Y-99087500D02*
X285543750Y-95187500D01*
X287543750Y-99087500D02*
X287543750Y-95187500D01*
X323262500Y-118137500D02*
X321262500Y-118137500D01*
X321262500Y-118137500D02*
X321262500Y-114237500D01*
X323262500Y-118137500D02*
X323262500Y-114237500D01*
X94662500Y-118137500D02*
X94662500Y-114237500D01*
X92662500Y-118137500D02*
X92662500Y-114237500D01*
X94662500Y-118137500D02*
X92662500Y-118137500D01*
X297068750Y-118137500D02*
X297068750Y-114237500D01*
X295068750Y-118137500D02*
X295068750Y-114237500D01*
X297068750Y-118137500D02*
X295068750Y-118137500D01*
X187531250Y-80037500D02*
X187531250Y-76137500D01*
X185531250Y-80037500D02*
X185531250Y-76137500D01*
X187531250Y-80037500D02*
X185531250Y-80037500D01*
X87518750Y-80037500D02*
X87518750Y-76137500D01*
X85518750Y-80037500D02*
X85518750Y-76137500D01*
X87518750Y-80037500D02*
X85518750Y-80037500D01*
X225631250Y-80037500D02*
X223631250Y-80037500D01*
X223631250Y-80037500D02*
X223631250Y-76137500D01*
X225631250Y-80037500D02*
X225631250Y-76137500D01*
X182768750Y-118137500D02*
X182768750Y-114237500D01*
X180768750Y-118137500D02*
X180768750Y-114237500D01*
X182768750Y-118137500D02*
X180768750Y-118137500D01*
X130381250Y-80037500D02*
X130381250Y-76137500D01*
X128381250Y-80037500D02*
X128381250Y-76137500D01*
X130381250Y-80037500D02*
X128381250Y-80037500D01*
X311356250Y-137187500D02*
X311356250Y-133287500D01*
X309356250Y-137187500D02*
X309356250Y-133287500D01*
X311356250Y-137187500D02*
X309356250Y-137187500D01*
X111331250Y-137187500D02*
X111331250Y-133287500D01*
X109331250Y-137187500D02*
X109331250Y-133287500D01*
X111331250Y-137187500D02*
X109331250Y-137187500D01*
X144668750Y-118137500D02*
X144668750Y-114237500D01*
X142668750Y-118137500D02*
X142668750Y-114237500D01*
X144668750Y-118137500D02*
X142668750Y-118137500D01*
X206581250Y-80037500D02*
X206581250Y-76137500D01*
X204581250Y-80037500D02*
X204581250Y-76137500D01*
X206581250Y-80037500D02*
X204581250Y-80037500D01*
X125618750Y-118137500D02*
X123618750Y-118137500D01*
X123618750Y-118137500D02*
X123618750Y-114237500D01*
X125618750Y-118137500D02*
X125618750Y-114237500D01*
X52503750Y-61720814D02*
X52503750Y-60516686D01*
X50683750Y-61720814D02*
X50683750Y-60516686D01*
X52303750Y-126464828D02*
X52303750Y-125947672D01*
X50883750Y-126464828D02*
X50883750Y-125947672D01*
X70727500Y-139958578D02*
X70727500Y-139441422D01*
X72147500Y-139958578D02*
X72147500Y-139441422D01*
X55478750Y-61377328D02*
X55478750Y-60860172D01*
X54058750Y-61377328D02*
X54058750Y-60860172D01*
X57233750Y-61377328D02*
X57233750Y-60860172D01*
X58653750Y-61377328D02*
X58653750Y-60860172D01*
D10*
X56737500Y-140112500D02*
X56737500Y-139537500D01*
X67087500Y-140112500D02*
X67087500Y-139437500D01*
X67087500Y-129762500D02*
X67087500Y-130437500D01*
X56737500Y-129762500D02*
X56737500Y-130437500D01*
X56737500Y-140112500D02*
X57412500Y-140112500D01*
X56737500Y-129762500D02*
X57412500Y-129762500D01*
X67087500Y-129762500D02*
X66412500Y-129762500D01*
X67087500Y-140112500D02*
X66412500Y-140112500D01*
X56737500Y-139537500D02*
X55462500Y-139537500D01*
X50950000Y-54030000D02*
X58650000Y-54030000D01*
X58650000Y-48580000D02*
X58650000Y-54030000D01*
X50950000Y-48580000D02*
X50950000Y-54030000D01*
D11*
X64562500Y-118800000D02*
X64562500Y-122500000D01*
X64562500Y-122500000D02*
X59262500Y-122500000D01*
D10*
X89400011Y-133604166D02*
X89447630Y-133747023D01*
X89447630Y-133985119D01*
X89400011Y-134080357D01*
X89352392Y-134127976D01*
X89257154Y-134175595D01*
X89161916Y-134175595D01*
X89066678Y-134127976D01*
X89019059Y-134080357D01*
X88971440Y-133985119D01*
X88923821Y-133794642D01*
X88876202Y-133699404D01*
X88828583Y-133651785D01*
X88733345Y-133604166D01*
X88638107Y-133604166D01*
X88542869Y-133651785D01*
X88495250Y-133699404D01*
X88447630Y-133794642D01*
X88447630Y-134032738D01*
X88495250Y-134175595D01*
X88447630Y-134508928D02*
X89447630Y-134747023D01*
X88733345Y-134937500D01*
X89447630Y-135127976D01*
X88447630Y-135366071D01*
X89447630Y-136270833D02*
X89447630Y-135699404D01*
X89447630Y-135985119D02*
X88447630Y-135985119D01*
X88590488Y-135889880D01*
X88685726Y-135794642D01*
X88733345Y-135699404D01*
X68682142Y-120483333D02*
X68729761Y-120435714D01*
X68777380Y-120292857D01*
X68777380Y-120197619D01*
X68729761Y-120054761D01*
X68634523Y-119959523D01*
X68539285Y-119911904D01*
X68348809Y-119864285D01*
X68205952Y-119864285D01*
X68015476Y-119911904D01*
X67920238Y-119959523D01*
X67825000Y-120054761D01*
X67777380Y-120197619D01*
X67777380Y-120292857D01*
X67825000Y-120435714D01*
X67872619Y-120483333D01*
X68205952Y-121054761D02*
X68158333Y-120959523D01*
X68110714Y-120911904D01*
X68015476Y-120864285D01*
X67967857Y-120864285D01*
X67872619Y-120911904D01*
X67825000Y-120959523D01*
X67777380Y-121054761D01*
X67777380Y-121245238D01*
X67825000Y-121340476D01*
X67872619Y-121388095D01*
X67967857Y-121435714D01*
X68015476Y-121435714D01*
X68110714Y-121388095D01*
X68158333Y-121340476D01*
X68205952Y-121245238D01*
X68205952Y-121054761D01*
X68253571Y-120959523D01*
X68301190Y-120911904D01*
X68396428Y-120864285D01*
X68586904Y-120864285D01*
X68682142Y-120911904D01*
X68729761Y-120959523D01*
X68777380Y-121054761D01*
X68777380Y-121245238D01*
X68729761Y-121340476D01*
X68682142Y-121388095D01*
X68586904Y-121435714D01*
X68396428Y-121435714D01*
X68301190Y-121388095D01*
X68253571Y-121340476D01*
X68205952Y-121245238D01*
X55857142Y-120483333D02*
X55904761Y-120435714D01*
X55952380Y-120292857D01*
X55952380Y-120197619D01*
X55904761Y-120054761D01*
X55809523Y-119959523D01*
X55714285Y-119911904D01*
X55523809Y-119864285D01*
X55380952Y-119864285D01*
X55190476Y-119911904D01*
X55095238Y-119959523D01*
X55000000Y-120054761D01*
X54952380Y-120197619D01*
X54952380Y-120292857D01*
X55000000Y-120435714D01*
X55047619Y-120483333D01*
X55952380Y-120959523D02*
X55952380Y-121150000D01*
X55904761Y-121245238D01*
X55857142Y-121292857D01*
X55714285Y-121388095D01*
X55523809Y-121435714D01*
X55142857Y-121435714D01*
X55047619Y-121388095D01*
X55000000Y-121340476D01*
X54952380Y-121245238D01*
X54952380Y-121054761D01*
X55000000Y-120959523D01*
X55047619Y-120911904D01*
X55142857Y-120864285D01*
X55380952Y-120864285D01*
X55476190Y-120911904D01*
X55523809Y-120959523D01*
X55571428Y-121054761D01*
X55571428Y-121245238D01*
X55523809Y-121340476D01*
X55476190Y-121388095D01*
X55380952Y-121435714D01*
X53030357Y-135357142D02*
X53077976Y-135404761D01*
X53220833Y-135452380D01*
X53316071Y-135452380D01*
X53458928Y-135404761D01*
X53554166Y-135309523D01*
X53601785Y-135214285D01*
X53649404Y-135023809D01*
X53649404Y-134880952D01*
X53601785Y-134690476D01*
X53554166Y-134595238D01*
X53458928Y-134500000D01*
X53316071Y-134452380D01*
X53220833Y-134452380D01*
X53077976Y-134500000D01*
X53030357Y-134547619D01*
X52077976Y-135452380D02*
X52649404Y-135452380D01*
X52363690Y-135452380D02*
X52363690Y-134452380D01*
X52458928Y-134595238D01*
X52554166Y-134690476D01*
X52649404Y-134738095D01*
X51458928Y-134452380D02*
X51363690Y-134452380D01*
X51268452Y-134500000D01*
X51220833Y-134547619D01*
X51173214Y-134642857D01*
X51125595Y-134833333D01*
X51125595Y-135071428D01*
X51173214Y-135261904D01*
X51220833Y-135357142D01*
X51268452Y-135404761D01*
X51363690Y-135452380D01*
X51458928Y-135452380D01*
X51554166Y-135404761D01*
X51601785Y-135357142D01*
X51649404Y-135261904D01*
X51697023Y-135071428D01*
X51697023Y-134833333D01*
X51649404Y-134642857D01*
X51601785Y-134547619D01*
X51554166Y-134500000D01*
X51458928Y-134452380D01*
X49586607Y-128436607D02*
X49538988Y-128484226D01*
X49491369Y-128627083D01*
X49491369Y-128722321D01*
X49538988Y-128865178D01*
X49634226Y-128960416D01*
X49729464Y-129008035D01*
X49919940Y-129055654D01*
X50062797Y-129055654D01*
X50253273Y-129008035D01*
X50348511Y-128960416D01*
X50443750Y-128865178D01*
X50491369Y-128722321D01*
X50491369Y-128627083D01*
X50443750Y-128484226D01*
X50396130Y-128436607D01*
X49491369Y-127484226D02*
X49491369Y-128055654D01*
X49491369Y-127769940D02*
X50491369Y-127769940D01*
X50348511Y-127865178D01*
X50253273Y-127960416D01*
X50205654Y-128055654D01*
X49491369Y-126531845D02*
X49491369Y-127103273D01*
X49491369Y-126817559D02*
X50491369Y-126817559D01*
X50348511Y-126912797D01*
X50253273Y-127008035D01*
X50205654Y-127103273D01*
X72650892Y-129532142D02*
X72698511Y-129484523D01*
X72746130Y-129341666D01*
X72746130Y-129246428D01*
X72698511Y-129103571D01*
X72603273Y-129008333D01*
X72508035Y-128960714D01*
X72317559Y-128913095D01*
X72174702Y-128913095D01*
X71984226Y-128960714D01*
X71888988Y-129008333D01*
X71793750Y-129103571D01*
X71746130Y-129246428D01*
X71746130Y-129341666D01*
X71793750Y-129484523D01*
X71841369Y-129532142D01*
X72746130Y-130484523D02*
X72746130Y-129913095D01*
X72746130Y-130198809D02*
X71746130Y-130198809D01*
X71888988Y-130103571D01*
X71984226Y-130008333D01*
X72031845Y-129913095D01*
X71841369Y-130865476D02*
X71793750Y-130913095D01*
X71746130Y-131008333D01*
X71746130Y-131246428D01*
X71793750Y-131341666D01*
X71841369Y-131389285D01*
X71936607Y-131436904D01*
X72031845Y-131436904D01*
X72174702Y-131389285D01*
X72746130Y-130817857D01*
X72746130Y-131436904D01*
X67317857Y-141582142D02*
X67365476Y-141629761D01*
X67508333Y-141677380D01*
X67603571Y-141677380D01*
X67746428Y-141629761D01*
X67841666Y-141534523D01*
X67889285Y-141439285D01*
X67936904Y-141248809D01*
X67936904Y-141105952D01*
X67889285Y-140915476D01*
X67841666Y-140820238D01*
X67746428Y-140725000D01*
X67603571Y-140677380D01*
X67508333Y-140677380D01*
X67365476Y-140725000D01*
X67317857Y-140772619D01*
X66365476Y-141677380D02*
X66936904Y-141677380D01*
X66651190Y-141677380D02*
X66651190Y-140677380D01*
X66746428Y-140820238D01*
X66841666Y-140915476D01*
X66936904Y-140963095D01*
X66032142Y-140677380D02*
X65413095Y-140677380D01*
X65746428Y-141058333D01*
X65603571Y-141058333D01*
X65508333Y-141105952D01*
X65460714Y-141153571D01*
X65413095Y-141248809D01*
X65413095Y-141486904D01*
X65460714Y-141582142D01*
X65508333Y-141629761D01*
X65603571Y-141677380D01*
X65889285Y-141677380D01*
X65984523Y-141629761D01*
X66032142Y-141582142D01*
X55188392Y-139994642D02*
X55236011Y-139947023D01*
X55283630Y-139804166D01*
X55283630Y-139708928D01*
X55236011Y-139566071D01*
X55140773Y-139470833D01*
X55045535Y-139423214D01*
X54855059Y-139375595D01*
X54712202Y-139375595D01*
X54521726Y-139423214D01*
X54426488Y-139470833D01*
X54331250Y-139566071D01*
X54283630Y-139708928D01*
X54283630Y-139804166D01*
X54331250Y-139947023D01*
X54378869Y-139994642D01*
X55283630Y-140947023D02*
X55283630Y-140375595D01*
X55283630Y-140661309D02*
X54283630Y-140661309D01*
X54426488Y-140566071D01*
X54521726Y-140470833D01*
X54569345Y-140375595D01*
X54616964Y-141804166D02*
X55283630Y-141804166D01*
X54236011Y-141566071D02*
X54950297Y-141327976D01*
X54950297Y-141947023D01*
X274708630Y-57618452D02*
X273708630Y-57618452D01*
X273708630Y-57856547D01*
X273756250Y-57999404D01*
X273851488Y-58094642D01*
X273946726Y-58142261D01*
X274137202Y-58189880D01*
X274280059Y-58189880D01*
X274470535Y-58142261D01*
X274565773Y-58094642D01*
X274661011Y-57999404D01*
X274708630Y-57856547D01*
X274708630Y-57618452D01*
X274803869Y-58380357D02*
X274803869Y-59142261D01*
X273708630Y-59570833D02*
X273708630Y-59666071D01*
X273756250Y-59761309D01*
X273803869Y-59808928D01*
X273899107Y-59856547D01*
X274089583Y-59904166D01*
X274327678Y-59904166D01*
X274518154Y-59856547D01*
X274613392Y-59808928D01*
X274661011Y-59761309D01*
X274708630Y-59666071D01*
X274708630Y-59570833D01*
X274661011Y-59475595D01*
X274613392Y-59427976D01*
X274518154Y-59380357D01*
X274327678Y-59332738D01*
X274089583Y-59332738D01*
X273899107Y-59380357D01*
X273803869Y-59427976D01*
X273756250Y-59475595D01*
X273708630Y-59570833D01*
X103258630Y-57618452D02*
X102258630Y-57618452D01*
X102258630Y-57856547D01*
X102306250Y-57999404D01*
X102401488Y-58094642D01*
X102496726Y-58142261D01*
X102687202Y-58189880D01*
X102830059Y-58189880D01*
X103020535Y-58142261D01*
X103115773Y-58094642D01*
X103211011Y-57999404D01*
X103258630Y-57856547D01*
X103258630Y-57618452D01*
X103353869Y-58380357D02*
X103353869Y-59142261D01*
X103258630Y-59904166D02*
X103258630Y-59332738D01*
X103258630Y-59618452D02*
X102258630Y-59618452D01*
X102401488Y-59523214D01*
X102496726Y-59427976D01*
X102544345Y-59332738D01*
X122308630Y-57618452D02*
X121308630Y-57618452D01*
X121308630Y-57856547D01*
X121356250Y-57999404D01*
X121451488Y-58094642D01*
X121546726Y-58142261D01*
X121737202Y-58189880D01*
X121880059Y-58189880D01*
X122070535Y-58142261D01*
X122165773Y-58094642D01*
X122261011Y-57999404D01*
X122308630Y-57856547D01*
X122308630Y-57618452D01*
X122403869Y-58380357D02*
X122403869Y-59142261D01*
X121403869Y-59332738D02*
X121356250Y-59380357D01*
X121308630Y-59475595D01*
X121308630Y-59713690D01*
X121356250Y-59808928D01*
X121403869Y-59856547D01*
X121499107Y-59904166D01*
X121594345Y-59904166D01*
X121737202Y-59856547D01*
X122308630Y-59285119D01*
X122308630Y-59904166D01*
X141358630Y-57618452D02*
X140358630Y-57618452D01*
X140358630Y-57856547D01*
X140406250Y-57999404D01*
X140501488Y-58094642D01*
X140596726Y-58142261D01*
X140787202Y-58189880D01*
X140930059Y-58189880D01*
X141120535Y-58142261D01*
X141215773Y-58094642D01*
X141311011Y-57999404D01*
X141358630Y-57856547D01*
X141358630Y-57618452D01*
X141453869Y-58380357D02*
X141453869Y-59142261D01*
X140358630Y-59285119D02*
X140358630Y-59904166D01*
X140739583Y-59570833D01*
X140739583Y-59713690D01*
X140787202Y-59808928D01*
X140834821Y-59856547D01*
X140930059Y-59904166D01*
X141168154Y-59904166D01*
X141263392Y-59856547D01*
X141311011Y-59808928D01*
X141358630Y-59713690D01*
X141358630Y-59427976D01*
X141311011Y-59332738D01*
X141263392Y-59285119D01*
X160408630Y-57618452D02*
X159408630Y-57618452D01*
X159408630Y-57856547D01*
X159456250Y-57999404D01*
X159551488Y-58094642D01*
X159646726Y-58142261D01*
X159837202Y-58189880D01*
X159980059Y-58189880D01*
X160170535Y-58142261D01*
X160265773Y-58094642D01*
X160361011Y-57999404D01*
X160408630Y-57856547D01*
X160408630Y-57618452D01*
X160503869Y-58380357D02*
X160503869Y-59142261D01*
X159741964Y-59808928D02*
X160408630Y-59808928D01*
X159361011Y-59570833D02*
X160075297Y-59332738D01*
X160075297Y-59951785D01*
X179458630Y-57618452D02*
X178458630Y-57618452D01*
X178458630Y-57856547D01*
X178506250Y-57999404D01*
X178601488Y-58094642D01*
X178696726Y-58142261D01*
X178887202Y-58189880D01*
X179030059Y-58189880D01*
X179220535Y-58142261D01*
X179315773Y-58094642D01*
X179411011Y-57999404D01*
X179458630Y-57856547D01*
X179458630Y-57618452D01*
X179553869Y-58380357D02*
X179553869Y-59142261D01*
X178458630Y-59856547D02*
X178458630Y-59380357D01*
X178934821Y-59332738D01*
X178887202Y-59380357D01*
X178839583Y-59475595D01*
X178839583Y-59713690D01*
X178887202Y-59808928D01*
X178934821Y-59856547D01*
X179030059Y-59904166D01*
X179268154Y-59904166D01*
X179363392Y-59856547D01*
X179411011Y-59808928D01*
X179458630Y-59713690D01*
X179458630Y-59475595D01*
X179411011Y-59380357D01*
X179363392Y-59332738D01*
X198508630Y-57618452D02*
X197508630Y-57618452D01*
X197508630Y-57856547D01*
X197556250Y-57999404D01*
X197651488Y-58094642D01*
X197746726Y-58142261D01*
X197937202Y-58189880D01*
X198080059Y-58189880D01*
X198270535Y-58142261D01*
X198365773Y-58094642D01*
X198461011Y-57999404D01*
X198508630Y-57856547D01*
X198508630Y-57618452D01*
X198603869Y-58380357D02*
X198603869Y-59142261D01*
X197508630Y-59808928D02*
X197508630Y-59618452D01*
X197556250Y-59523214D01*
X197603869Y-59475595D01*
X197746726Y-59380357D01*
X197937202Y-59332738D01*
X198318154Y-59332738D01*
X198413392Y-59380357D01*
X198461011Y-59427976D01*
X198508630Y-59523214D01*
X198508630Y-59713690D01*
X198461011Y-59808928D01*
X198413392Y-59856547D01*
X198318154Y-59904166D01*
X198080059Y-59904166D01*
X197984821Y-59856547D01*
X197937202Y-59808928D01*
X197889583Y-59713690D01*
X197889583Y-59523214D01*
X197937202Y-59427976D01*
X197984821Y-59380357D01*
X198080059Y-59332738D01*
X217558630Y-57618452D02*
X216558630Y-57618452D01*
X216558630Y-57856547D01*
X216606250Y-57999404D01*
X216701488Y-58094642D01*
X216796726Y-58142261D01*
X216987202Y-58189880D01*
X217130059Y-58189880D01*
X217320535Y-58142261D01*
X217415773Y-58094642D01*
X217511011Y-57999404D01*
X217558630Y-57856547D01*
X217558630Y-57618452D01*
X217653869Y-58380357D02*
X217653869Y-59142261D01*
X216558630Y-59285119D02*
X216558630Y-59951785D01*
X217558630Y-59523214D01*
X236608630Y-57618452D02*
X235608630Y-57618452D01*
X235608630Y-57856547D01*
X235656250Y-57999404D01*
X235751488Y-58094642D01*
X235846726Y-58142261D01*
X236037202Y-58189880D01*
X236180059Y-58189880D01*
X236370535Y-58142261D01*
X236465773Y-58094642D01*
X236561011Y-57999404D01*
X236608630Y-57856547D01*
X236608630Y-57618452D01*
X236703869Y-58380357D02*
X236703869Y-59142261D01*
X236037202Y-59523214D02*
X235989583Y-59427976D01*
X235941964Y-59380357D01*
X235846726Y-59332738D01*
X235799107Y-59332738D01*
X235703869Y-59380357D01*
X235656250Y-59427976D01*
X235608630Y-59523214D01*
X235608630Y-59713690D01*
X235656250Y-59808928D01*
X235703869Y-59856547D01*
X235799107Y-59904166D01*
X235846726Y-59904166D01*
X235941964Y-59856547D01*
X235989583Y-59808928D01*
X236037202Y-59713690D01*
X236037202Y-59523214D01*
X236084821Y-59427976D01*
X236132440Y-59380357D01*
X236227678Y-59332738D01*
X236418154Y-59332738D01*
X236513392Y-59380357D01*
X236561011Y-59427976D01*
X236608630Y-59523214D01*
X236608630Y-59713690D01*
X236561011Y-59808928D01*
X236513392Y-59856547D01*
X236418154Y-59904166D01*
X236227678Y-59904166D01*
X236132440Y-59856547D01*
X236084821Y-59808928D01*
X236037202Y-59713690D01*
X255658630Y-57618452D02*
X254658630Y-57618452D01*
X254658630Y-57856547D01*
X254706250Y-57999404D01*
X254801488Y-58094642D01*
X254896726Y-58142261D01*
X255087202Y-58189880D01*
X255230059Y-58189880D01*
X255420535Y-58142261D01*
X255515773Y-58094642D01*
X255611011Y-57999404D01*
X255658630Y-57856547D01*
X255658630Y-57618452D01*
X255753869Y-58380357D02*
X255753869Y-59142261D01*
X255658630Y-59427976D02*
X255658630Y-59618452D01*
X255611011Y-59713690D01*
X255563392Y-59761309D01*
X255420535Y-59856547D01*
X255230059Y-59904166D01*
X254849107Y-59904166D01*
X254753869Y-59856547D01*
X254706250Y-59808928D01*
X254658630Y-59713690D01*
X254658630Y-59523214D01*
X254706250Y-59427976D01*
X254753869Y-59380357D01*
X254849107Y-59332738D01*
X255087202Y-59332738D01*
X255182440Y-59380357D01*
X255230059Y-59427976D01*
X255277678Y-59523214D01*
X255277678Y-59713690D01*
X255230059Y-59808928D01*
X255182440Y-59856547D01*
X255087202Y-59904166D01*
X212796130Y-133342261D02*
X211796130Y-133342261D01*
X211796130Y-133580357D01*
X211843750Y-133723214D01*
X211938988Y-133818452D01*
X212034226Y-133866071D01*
X212224702Y-133913690D01*
X212367559Y-133913690D01*
X212558035Y-133866071D01*
X212653273Y-133818452D01*
X212748511Y-133723214D01*
X212796130Y-133580357D01*
X212796130Y-133342261D01*
X212891369Y-134104166D02*
X212891369Y-134866071D01*
X212796130Y-135627976D02*
X212796130Y-135056547D01*
X212796130Y-135342261D02*
X211796130Y-135342261D01*
X211938988Y-135247023D01*
X212034226Y-135151785D01*
X212081845Y-135056547D01*
X211796130Y-136247023D02*
X211796130Y-136342261D01*
X211843750Y-136437500D01*
X211891369Y-136485119D01*
X211986607Y-136532738D01*
X212177083Y-136580357D01*
X212415178Y-136580357D01*
X212605654Y-136532738D01*
X212700892Y-136485119D01*
X212748511Y-136437500D01*
X212796130Y-136342261D01*
X212796130Y-136247023D01*
X212748511Y-136151785D01*
X212700892Y-136104166D01*
X212605654Y-136056547D01*
X212415178Y-136008928D01*
X212177083Y-136008928D01*
X211986607Y-136056547D01*
X211891369Y-136104166D01*
X211843750Y-136151785D01*
X211796130Y-136247023D01*
X303283630Y-76335119D02*
X302283630Y-76335119D01*
X302283630Y-76573214D01*
X302331250Y-76716071D01*
X302426488Y-76811309D01*
X302521726Y-76858928D01*
X302712202Y-76906547D01*
X302855059Y-76906547D01*
X303045535Y-76858928D01*
X303140773Y-76811309D01*
X303236011Y-76716071D01*
X303283630Y-76573214D01*
X303283630Y-76335119D01*
X303378869Y-77097023D02*
X303378869Y-77858928D01*
X303616964Y-78382738D02*
X303616964Y-78144642D01*
X302188392Y-78144642D01*
X302188392Y-78382738D01*
X303283630Y-79287500D02*
X303283630Y-78716071D01*
X303283630Y-79001785D02*
X302283630Y-79001785D01*
X302426488Y-78906547D01*
X302521726Y-78811309D01*
X302569345Y-78716071D01*
X322333630Y-76335119D02*
X321333630Y-76335119D01*
X321333630Y-76573214D01*
X321381250Y-76716071D01*
X321476488Y-76811309D01*
X321571726Y-76858928D01*
X321762202Y-76906547D01*
X321905059Y-76906547D01*
X322095535Y-76858928D01*
X322190773Y-76811309D01*
X322286011Y-76716071D01*
X322333630Y-76573214D01*
X322333630Y-76335119D01*
X322428869Y-77097023D02*
X322428869Y-77858928D01*
X322666964Y-78001785D02*
X322666964Y-78239880D01*
X321238392Y-78239880D01*
X321238392Y-78001785D01*
X322333630Y-79287500D02*
X322333630Y-78716071D01*
X322333630Y-79001785D02*
X321333630Y-79001785D01*
X321476488Y-78906547D01*
X321571726Y-78811309D01*
X321619345Y-78716071D01*
X350908630Y-57427976D02*
X349908630Y-57427976D01*
X349908630Y-57666071D01*
X349956250Y-57808928D01*
X350051488Y-57904166D01*
X350146726Y-57951785D01*
X350337202Y-57999404D01*
X350480059Y-57999404D01*
X350670535Y-57951785D01*
X350765773Y-57904166D01*
X350861011Y-57808928D01*
X350908630Y-57666071D01*
X350908630Y-57427976D01*
X351003869Y-58189880D02*
X351003869Y-58951785D01*
X349861011Y-59047023D02*
X350003869Y-59189880D01*
X350908630Y-60094642D02*
X350908630Y-59523214D01*
X350908630Y-59808928D02*
X349908630Y-59808928D01*
X350051488Y-59713690D01*
X350146726Y-59618452D01*
X350194345Y-59523214D01*
X84208630Y-57427976D02*
X83208630Y-57427976D01*
X83208630Y-57666071D01*
X83256250Y-57808928D01*
X83351488Y-57904166D01*
X83446726Y-57951785D01*
X83637202Y-57999404D01*
X83780059Y-57999404D01*
X83970535Y-57951785D01*
X84065773Y-57904166D01*
X84161011Y-57808928D01*
X84208630Y-57666071D01*
X84208630Y-57427976D01*
X84303869Y-58189880D02*
X84303869Y-58951785D01*
X83161011Y-59047023D02*
X83303869Y-59189880D01*
X83303869Y-59523214D02*
X83256250Y-59570833D01*
X83208630Y-59666071D01*
X83208630Y-59904166D01*
X83256250Y-59999404D01*
X83303869Y-60047023D01*
X83399107Y-60094642D01*
X83494345Y-60094642D01*
X83637202Y-60047023D01*
X84208630Y-59475595D01*
X84208630Y-60094642D01*
X117546130Y-95289880D02*
X116546130Y-95289880D01*
X116546130Y-95527976D01*
X116593750Y-95670833D01*
X116688988Y-95766071D01*
X116784226Y-95813690D01*
X116974702Y-95861309D01*
X117117559Y-95861309D01*
X117308035Y-95813690D01*
X117403273Y-95766071D01*
X117498511Y-95670833D01*
X117546130Y-95527976D01*
X117546130Y-95289880D01*
X117641369Y-96051785D02*
X117641369Y-96813690D01*
X117260416Y-97004166D02*
X117260416Y-97480357D01*
X117546130Y-96908928D02*
X116546130Y-97242261D01*
X117546130Y-97575595D01*
X117546130Y-98432738D02*
X117546130Y-97861309D01*
X117546130Y-98147023D02*
X116546130Y-98147023D01*
X116688988Y-98051785D01*
X116784226Y-97956547D01*
X116831845Y-97861309D01*
X291377380Y-132604166D02*
X290377380Y-132604166D01*
X290377380Y-132842261D01*
X290425000Y-132985119D01*
X290520238Y-133080357D01*
X290615476Y-133127976D01*
X290805952Y-133175595D01*
X290948809Y-133175595D01*
X291139285Y-133127976D01*
X291234523Y-133080357D01*
X291329761Y-132985119D01*
X291377380Y-132842261D01*
X291377380Y-132604166D01*
X291472619Y-133366071D02*
X291472619Y-134127976D01*
X291091666Y-134318452D02*
X291091666Y-134794642D01*
X291377380Y-134223214D02*
X290377380Y-134556547D01*
X291377380Y-134889880D01*
X291377380Y-135699404D02*
X291377380Y-135223214D01*
X290377380Y-135223214D01*
X290377380Y-135889880D02*
X290377380Y-136461309D01*
X291377380Y-136175595D02*
X290377380Y-136175595D01*
X291377380Y-137318452D02*
X291377380Y-136747023D01*
X291377380Y-137032738D02*
X290377380Y-137032738D01*
X290520238Y-136937500D01*
X290615476Y-136842261D01*
X290663095Y-136747023D01*
X134214880Y-132604166D02*
X133214880Y-132604166D01*
X133214880Y-132842261D01*
X133262500Y-132985119D01*
X133357738Y-133080357D01*
X133452976Y-133127976D01*
X133643452Y-133175595D01*
X133786309Y-133175595D01*
X133976785Y-133127976D01*
X134072023Y-133080357D01*
X134167261Y-132985119D01*
X134214880Y-132842261D01*
X134214880Y-132604166D01*
X134310119Y-133366071D02*
X134310119Y-134127976D01*
X133929166Y-134318452D02*
X133929166Y-134794642D01*
X134214880Y-134223214D02*
X133214880Y-134556547D01*
X134214880Y-134889880D01*
X134214880Y-135699404D02*
X134214880Y-135223214D01*
X133214880Y-135223214D01*
X133214880Y-135889880D02*
X133214880Y-136461309D01*
X134214880Y-136175595D02*
X133214880Y-136175595D01*
X133310119Y-136747023D02*
X133262500Y-136794642D01*
X133214880Y-136889880D01*
X133214880Y-137127976D01*
X133262500Y-137223214D01*
X133310119Y-137270833D01*
X133405357Y-137318452D01*
X133500595Y-137318452D01*
X133643452Y-137270833D01*
X134214880Y-136699404D01*
X134214880Y-137318452D01*
X203271130Y-114268452D02*
X202271130Y-114268452D01*
X202271130Y-114506547D01*
X202318750Y-114649404D01*
X202413988Y-114744642D01*
X202509226Y-114792261D01*
X202699702Y-114839880D01*
X202842559Y-114839880D01*
X203033035Y-114792261D01*
X203128273Y-114744642D01*
X203223511Y-114649404D01*
X203271130Y-114506547D01*
X203271130Y-114268452D01*
X203366369Y-115030357D02*
X203366369Y-115792261D01*
X202747321Y-116363690D02*
X202794940Y-116506547D01*
X202842559Y-116554166D01*
X202937797Y-116601785D01*
X203080654Y-116601785D01*
X203175892Y-116554166D01*
X203223511Y-116506547D01*
X203271130Y-116411309D01*
X203271130Y-116030357D01*
X202271130Y-116030357D01*
X202271130Y-116363690D01*
X202318750Y-116458928D01*
X202366369Y-116506547D01*
X202461607Y-116554166D01*
X202556845Y-116554166D01*
X202652083Y-116506547D01*
X202699702Y-116458928D01*
X202747321Y-116363690D01*
X202747321Y-116030357D01*
X203271130Y-117554166D02*
X203271130Y-116982738D01*
X203271130Y-117268452D02*
X202271130Y-117268452D01*
X202413988Y-117173214D01*
X202509226Y-117077976D01*
X202556845Y-116982738D01*
X346146130Y-72382738D02*
X345146130Y-72382738D01*
X345146130Y-72620833D01*
X345193750Y-72763690D01*
X345288988Y-72858928D01*
X345384226Y-72906547D01*
X345574702Y-72954166D01*
X345717559Y-72954166D01*
X345908035Y-72906547D01*
X346003273Y-72858928D01*
X346098511Y-72763690D01*
X346146130Y-72620833D01*
X346146130Y-72382738D01*
X346241369Y-73144642D02*
X346241369Y-73906547D01*
X345622321Y-74477976D02*
X345669940Y-74620833D01*
X345717559Y-74668452D01*
X345812797Y-74716071D01*
X345955654Y-74716071D01*
X346050892Y-74668452D01*
X346098511Y-74620833D01*
X346146130Y-74525595D01*
X346146130Y-74144642D01*
X345146130Y-74144642D01*
X345146130Y-74477976D01*
X345193750Y-74573214D01*
X345241369Y-74620833D01*
X345336607Y-74668452D01*
X345431845Y-74668452D01*
X345527083Y-74620833D01*
X345574702Y-74573214D01*
X345622321Y-74477976D01*
X345622321Y-74144642D01*
X345860416Y-75097023D02*
X345860416Y-75573214D01*
X346146130Y-75001785D02*
X345146130Y-75335119D01*
X346146130Y-75668452D01*
X346050892Y-76573214D02*
X346098511Y-76525595D01*
X346146130Y-76382738D01*
X346146130Y-76287500D01*
X346098511Y-76144642D01*
X346003273Y-76049404D01*
X345908035Y-76001785D01*
X345717559Y-75954166D01*
X345574702Y-75954166D01*
X345384226Y-76001785D01*
X345288988Y-76049404D01*
X345193750Y-76144642D01*
X345146130Y-76287500D01*
X345146130Y-76382738D01*
X345193750Y-76525595D01*
X345241369Y-76573214D01*
X346146130Y-77001785D02*
X345146130Y-77001785D01*
X346146130Y-77573214D02*
X345574702Y-77144642D01*
X345146130Y-77573214D02*
X345717559Y-77001785D01*
X346098511Y-77954166D02*
X346146130Y-78097023D01*
X346146130Y-78335119D01*
X346098511Y-78430357D01*
X346050892Y-78477976D01*
X345955654Y-78525595D01*
X345860416Y-78525595D01*
X345765178Y-78477976D01*
X345717559Y-78430357D01*
X345669940Y-78335119D01*
X345622321Y-78144642D01*
X345574702Y-78049404D01*
X345527083Y-78001785D01*
X345431845Y-77954166D01*
X345336607Y-77954166D01*
X345241369Y-78001785D01*
X345193750Y-78049404D01*
X345146130Y-78144642D01*
X345146130Y-78382738D01*
X345193750Y-78525595D01*
X346146130Y-78954166D02*
X345146130Y-78954166D01*
X345146130Y-79335119D01*
X345193750Y-79430357D01*
X345241369Y-79477976D01*
X345336607Y-79525595D01*
X345479464Y-79525595D01*
X345574702Y-79477976D01*
X345622321Y-79430357D01*
X345669940Y-79335119D01*
X345669940Y-78954166D01*
X345860416Y-79906547D02*
X345860416Y-80382738D01*
X346146130Y-79811309D02*
X345146130Y-80144642D01*
X346146130Y-80477976D01*
X346050892Y-81382738D02*
X346098511Y-81335119D01*
X346146130Y-81192261D01*
X346146130Y-81097023D01*
X346098511Y-80954166D01*
X346003273Y-80858928D01*
X345908035Y-80811309D01*
X345717559Y-80763690D01*
X345574702Y-80763690D01*
X345384226Y-80811309D01*
X345288988Y-80858928D01*
X345193750Y-80954166D01*
X345146130Y-81097023D01*
X345146130Y-81192261D01*
X345193750Y-81335119D01*
X345241369Y-81382738D01*
X345622321Y-81811309D02*
X345622321Y-82144642D01*
X346146130Y-82287500D02*
X346146130Y-81811309D01*
X345146130Y-81811309D01*
X345146130Y-82287500D01*
X346146130Y-83239880D02*
X346146130Y-82668452D01*
X346146130Y-82954166D02*
X345146130Y-82954166D01*
X345288988Y-82858928D01*
X345384226Y-82763690D01*
X345431845Y-82668452D01*
X331858630Y-55237500D02*
X330858630Y-55237500D01*
X330858630Y-55475595D01*
X330906250Y-55618452D01*
X331001488Y-55713690D01*
X331096726Y-55761309D01*
X331287202Y-55808928D01*
X331430059Y-55808928D01*
X331620535Y-55761309D01*
X331715773Y-55713690D01*
X331811011Y-55618452D01*
X331858630Y-55475595D01*
X331858630Y-55237500D01*
X331953869Y-55999404D02*
X331953869Y-56761309D01*
X331334821Y-57332738D02*
X331382440Y-57475595D01*
X331430059Y-57523214D01*
X331525297Y-57570833D01*
X331668154Y-57570833D01*
X331763392Y-57523214D01*
X331811011Y-57475595D01*
X331858630Y-57380357D01*
X331858630Y-56999404D01*
X330858630Y-56999404D01*
X330858630Y-57332738D01*
X330906250Y-57427976D01*
X330953869Y-57475595D01*
X331049107Y-57523214D01*
X331144345Y-57523214D01*
X331239583Y-57475595D01*
X331287202Y-57427976D01*
X331334821Y-57332738D01*
X331334821Y-56999404D01*
X331811011Y-57951785D02*
X331858630Y-58094642D01*
X331858630Y-58332738D01*
X331811011Y-58427976D01*
X331763392Y-58475595D01*
X331668154Y-58523214D01*
X331572916Y-58523214D01*
X331477678Y-58475595D01*
X331430059Y-58427976D01*
X331382440Y-58332738D01*
X331334821Y-58142261D01*
X331287202Y-58047023D01*
X331239583Y-57999404D01*
X331144345Y-57951785D01*
X331049107Y-57951785D01*
X330953869Y-57999404D01*
X330906250Y-58047023D01*
X330858630Y-58142261D01*
X330858630Y-58380357D01*
X330906250Y-58523214D01*
X331858630Y-59427976D02*
X331858630Y-58951785D01*
X330858630Y-58951785D01*
X331811011Y-59713690D02*
X331858630Y-59856547D01*
X331858630Y-60094642D01*
X331811011Y-60189880D01*
X331763392Y-60237500D01*
X331668154Y-60285119D01*
X331572916Y-60285119D01*
X331477678Y-60237500D01*
X331430059Y-60189880D01*
X331382440Y-60094642D01*
X331334821Y-59904166D01*
X331287202Y-59808928D01*
X331239583Y-59761309D01*
X331144345Y-59713690D01*
X331049107Y-59713690D01*
X330953869Y-59761309D01*
X330906250Y-59808928D01*
X330858630Y-59904166D01*
X330858630Y-60142261D01*
X330906250Y-60285119D01*
X331858630Y-60713690D02*
X330858630Y-60713690D01*
X331334821Y-60713690D02*
X331334821Y-61285119D01*
X331858630Y-61285119D02*
X330858630Y-61285119D01*
X331858630Y-62285119D02*
X331858630Y-61713690D01*
X331858630Y-61999404D02*
X330858630Y-61999404D01*
X331001488Y-61904166D01*
X331096726Y-61808928D01*
X331144345Y-61713690D01*
X165171130Y-114268452D02*
X164171130Y-114268452D01*
X164171130Y-114506547D01*
X164218750Y-114649404D01*
X164313988Y-114744642D01*
X164409226Y-114792261D01*
X164599702Y-114839880D01*
X164742559Y-114839880D01*
X164933035Y-114792261D01*
X165028273Y-114744642D01*
X165123511Y-114649404D01*
X165171130Y-114506547D01*
X165171130Y-114268452D01*
X165266369Y-115030357D02*
X165266369Y-115792261D01*
X165075892Y-116601785D02*
X165123511Y-116554166D01*
X165171130Y-116411309D01*
X165171130Y-116316071D01*
X165123511Y-116173214D01*
X165028273Y-116077976D01*
X164933035Y-116030357D01*
X164742559Y-115982738D01*
X164599702Y-115982738D01*
X164409226Y-116030357D01*
X164313988Y-116077976D01*
X164218750Y-116173214D01*
X164171130Y-116316071D01*
X164171130Y-116411309D01*
X164218750Y-116554166D01*
X164266369Y-116601785D01*
X165171130Y-117554166D02*
X165171130Y-116982738D01*
X165171130Y-117268452D02*
X164171130Y-117268452D01*
X164313988Y-117173214D01*
X164409226Y-117077976D01*
X164456845Y-116982738D01*
X91352380Y-91504166D02*
X90352380Y-91504166D01*
X90352380Y-91742261D01*
X90400000Y-91885119D01*
X90495238Y-91980357D01*
X90590476Y-92027976D01*
X90780952Y-92075595D01*
X90923809Y-92075595D01*
X91114285Y-92027976D01*
X91209523Y-91980357D01*
X91304761Y-91885119D01*
X91352380Y-91742261D01*
X91352380Y-91504166D01*
X91447619Y-92266071D02*
X91447619Y-93027976D01*
X91257142Y-93837500D02*
X91304761Y-93789880D01*
X91352380Y-93647023D01*
X91352380Y-93551785D01*
X91304761Y-93408928D01*
X91209523Y-93313690D01*
X91114285Y-93266071D01*
X90923809Y-93218452D01*
X90780952Y-93218452D01*
X90590476Y-93266071D01*
X90495238Y-93313690D01*
X90400000Y-93408928D01*
X90352380Y-93551785D01*
X90352380Y-93647023D01*
X90400000Y-93789880D01*
X90447619Y-93837500D01*
X91066666Y-94218452D02*
X91066666Y-94694642D01*
X91352380Y-94123214D02*
X90352380Y-94456547D01*
X91352380Y-94789880D01*
X91352380Y-95123214D02*
X90352380Y-95123214D01*
X90352380Y-95504166D01*
X90400000Y-95599404D01*
X90447619Y-95647023D01*
X90542857Y-95694642D01*
X90685714Y-95694642D01*
X90780952Y-95647023D01*
X90828571Y-95599404D01*
X90876190Y-95504166D01*
X90876190Y-95123214D01*
X91304761Y-96075595D02*
X91352380Y-96218452D01*
X91352380Y-96456547D01*
X91304761Y-96551785D01*
X91257142Y-96599404D01*
X91161904Y-96647023D01*
X91066666Y-96647023D01*
X90971428Y-96599404D01*
X90923809Y-96551785D01*
X90876190Y-96456547D01*
X90828571Y-96266071D01*
X90780952Y-96170833D01*
X90733333Y-96123214D01*
X90638095Y-96075595D01*
X90542857Y-96075595D01*
X90447619Y-96123214D01*
X90400000Y-96170833D01*
X90352380Y-96266071D01*
X90352380Y-96504166D01*
X90400000Y-96647023D01*
X91447619Y-96837500D02*
X91447619Y-97599404D01*
X91352380Y-98313690D02*
X91352380Y-97837500D01*
X90352380Y-97837500D01*
X90352380Y-98837500D02*
X90352380Y-99027976D01*
X90400000Y-99123214D01*
X90495238Y-99218452D01*
X90685714Y-99266071D01*
X91019047Y-99266071D01*
X91209523Y-99218452D01*
X91304761Y-99123214D01*
X91352380Y-99027976D01*
X91352380Y-98837500D01*
X91304761Y-98742261D01*
X91209523Y-98647023D01*
X91019047Y-98599404D01*
X90685714Y-98599404D01*
X90495238Y-98647023D01*
X90400000Y-98742261D01*
X90352380Y-98837500D01*
X91257142Y-100266071D02*
X91304761Y-100218452D01*
X91352380Y-100075595D01*
X91352380Y-99980357D01*
X91304761Y-99837500D01*
X91209523Y-99742261D01*
X91114285Y-99694642D01*
X90923809Y-99647023D01*
X90780952Y-99647023D01*
X90590476Y-99694642D01*
X90495238Y-99742261D01*
X90400000Y-99837500D01*
X90352380Y-99980357D01*
X90352380Y-100075595D01*
X90400000Y-100218452D01*
X90447619Y-100266071D01*
X91352380Y-100694642D02*
X90352380Y-100694642D01*
X91352380Y-101266071D02*
X90780952Y-100837500D01*
X90352380Y-101266071D02*
X90923809Y-100694642D01*
X91352380Y-102218452D02*
X91352380Y-101647023D01*
X91352380Y-101932738D02*
X90352380Y-101932738D01*
X90495238Y-101837500D01*
X90590476Y-101742261D01*
X90638095Y-101647023D01*
X260421130Y-112173214D02*
X259421130Y-112173214D01*
X259421130Y-112411309D01*
X259468750Y-112554166D01*
X259563988Y-112649404D01*
X259659226Y-112697023D01*
X259849702Y-112744642D01*
X259992559Y-112744642D01*
X260183035Y-112697023D01*
X260278273Y-112649404D01*
X260373511Y-112554166D01*
X260421130Y-112411309D01*
X260421130Y-112173214D01*
X260516369Y-112935119D02*
X260516369Y-113697023D01*
X260325892Y-114506547D02*
X260373511Y-114458928D01*
X260421130Y-114316071D01*
X260421130Y-114220833D01*
X260373511Y-114077976D01*
X260278273Y-113982738D01*
X260183035Y-113935119D01*
X259992559Y-113887500D01*
X259849702Y-113887500D01*
X259659226Y-113935119D01*
X259563988Y-113982738D01*
X259468750Y-114077976D01*
X259421130Y-114220833D01*
X259421130Y-114316071D01*
X259468750Y-114458928D01*
X259516369Y-114506547D01*
X259421130Y-115125595D02*
X259421130Y-115316071D01*
X259468750Y-115411309D01*
X259563988Y-115506547D01*
X259754464Y-115554166D01*
X260087797Y-115554166D01*
X260278273Y-115506547D01*
X260373511Y-115411309D01*
X260421130Y-115316071D01*
X260421130Y-115125595D01*
X260373511Y-115030357D01*
X260278273Y-114935119D01*
X260087797Y-114887500D01*
X259754464Y-114887500D01*
X259563988Y-114935119D01*
X259468750Y-115030357D01*
X259421130Y-115125595D01*
X260421130Y-115982738D02*
X259421130Y-115982738D01*
X260135416Y-116316071D01*
X259421130Y-116649404D01*
X260421130Y-116649404D01*
X260421130Y-117125595D02*
X259421130Y-117125595D01*
X260135416Y-117458928D01*
X259421130Y-117792261D01*
X260421130Y-117792261D01*
X260135416Y-118220833D02*
X260135416Y-118697023D01*
X260421130Y-118125595D02*
X259421130Y-118458928D01*
X260421130Y-118792261D01*
X260421130Y-119649404D02*
X260421130Y-119077976D01*
X260421130Y-119363690D02*
X259421130Y-119363690D01*
X259563988Y-119268452D01*
X259659226Y-119173214D01*
X259706845Y-119077976D01*
X155652381Y-95218452D02*
X154652381Y-95218452D01*
X154652381Y-95456547D01*
X154700001Y-95599404D01*
X154795239Y-95694642D01*
X154890477Y-95742261D01*
X155080953Y-95789880D01*
X155223810Y-95789880D01*
X155414286Y-95742261D01*
X155509524Y-95694642D01*
X155604762Y-95599404D01*
X155652381Y-95456547D01*
X155652381Y-95218452D01*
X155747620Y-95980357D02*
X155747620Y-96742261D01*
X155652381Y-96980357D02*
X154652381Y-96980357D01*
X154652381Y-97218452D01*
X154700001Y-97361309D01*
X154795239Y-97456547D01*
X154890477Y-97504166D01*
X155080953Y-97551785D01*
X155223810Y-97551785D01*
X155414286Y-97504166D01*
X155509524Y-97456547D01*
X155604762Y-97361309D01*
X155652381Y-97218452D01*
X155652381Y-96980357D01*
X155652381Y-98504166D02*
X155652381Y-97932738D01*
X155652381Y-98218452D02*
X154652381Y-98218452D01*
X154795239Y-98123214D01*
X154890477Y-98027976D01*
X154938096Y-97932738D01*
X279471130Y-113363690D02*
X278471130Y-113363690D01*
X278471130Y-113601785D01*
X278518750Y-113744642D01*
X278613988Y-113839880D01*
X278709226Y-113887500D01*
X278899702Y-113935119D01*
X279042559Y-113935119D01*
X279233035Y-113887500D01*
X279328273Y-113839880D01*
X279423511Y-113744642D01*
X279471130Y-113601785D01*
X279471130Y-113363690D01*
X279566369Y-114125595D02*
X279566369Y-114887500D01*
X279471130Y-115125595D02*
X278471130Y-115125595D01*
X278471130Y-115363690D01*
X278518750Y-115506547D01*
X278613988Y-115601785D01*
X278709226Y-115649404D01*
X278899702Y-115697023D01*
X279042559Y-115697023D01*
X279233035Y-115649404D01*
X279328273Y-115601785D01*
X279423511Y-115506547D01*
X279471130Y-115363690D01*
X279471130Y-115125595D01*
X278471130Y-116316071D02*
X278471130Y-116506547D01*
X278518750Y-116601785D01*
X278613988Y-116697023D01*
X278804464Y-116744642D01*
X279137797Y-116744642D01*
X279328273Y-116697023D01*
X279423511Y-116601785D01*
X279471130Y-116506547D01*
X279471130Y-116316071D01*
X279423511Y-116220833D01*
X279328273Y-116125595D01*
X279137797Y-116077976D01*
X278804464Y-116077976D01*
X278613988Y-116125595D01*
X278518750Y-116220833D01*
X278471130Y-116316071D01*
X278471130Y-117030357D02*
X278471130Y-117601785D01*
X279471130Y-117316071D02*
X278471130Y-117316071D01*
X279471130Y-118458928D02*
X279471130Y-117887500D01*
X279471130Y-118173214D02*
X278471130Y-118173214D01*
X278613988Y-118077976D01*
X278709226Y-117982738D01*
X278756845Y-117887500D01*
X150883630Y-76216071D02*
X149883630Y-76216071D01*
X149883630Y-76454166D01*
X149931250Y-76597023D01*
X150026488Y-76692261D01*
X150121726Y-76739880D01*
X150312202Y-76787500D01*
X150455059Y-76787500D01*
X150645535Y-76739880D01*
X150740773Y-76692261D01*
X150836011Y-76597023D01*
X150883630Y-76454166D01*
X150883630Y-76216071D01*
X150978869Y-76977976D02*
X150978869Y-77739880D01*
X150359821Y-77977976D02*
X150359821Y-78311309D01*
X150883630Y-78454166D02*
X150883630Y-77977976D01*
X149883630Y-77977976D01*
X149883630Y-78454166D01*
X150883630Y-79406547D02*
X150883630Y-78835119D01*
X150883630Y-79120833D02*
X149883630Y-79120833D01*
X150026488Y-79025595D01*
X150121726Y-78930357D01*
X150169345Y-78835119D01*
X339002380Y-93408928D02*
X338002380Y-93408928D01*
X338002380Y-93647023D01*
X338050000Y-93789880D01*
X338145238Y-93885119D01*
X338240476Y-93932738D01*
X338430952Y-93980357D01*
X338573809Y-93980357D01*
X338764285Y-93932738D01*
X338859523Y-93885119D01*
X338954761Y-93789880D01*
X339002380Y-93647023D01*
X339002380Y-93408928D01*
X339097619Y-94170833D02*
X339097619Y-94932738D01*
X338478571Y-95170833D02*
X338478571Y-95504166D01*
X339002380Y-95647023D02*
X339002380Y-95170833D01*
X338002380Y-95170833D01*
X338002380Y-95647023D01*
X339002380Y-96075595D02*
X338002380Y-96075595D01*
X339002380Y-96647023D01*
X338002380Y-96647023D01*
X338002380Y-96980357D02*
X338002380Y-97551785D01*
X339002380Y-97266071D02*
X338002380Y-97266071D01*
X338478571Y-97885119D02*
X338478571Y-98218452D01*
X339002380Y-98361309D02*
X339002380Y-97885119D01*
X338002380Y-97885119D01*
X338002380Y-98361309D01*
X339002380Y-99361309D02*
X338526190Y-99027976D01*
X339002380Y-98789880D02*
X338002380Y-98789880D01*
X338002380Y-99170833D01*
X338050000Y-99266071D01*
X338097619Y-99313690D01*
X338192857Y-99361309D01*
X338335714Y-99361309D01*
X338430952Y-99313690D01*
X338478571Y-99266071D01*
X338526190Y-99170833D01*
X338526190Y-98789880D01*
X339002380Y-100313690D02*
X339002380Y-99742261D01*
X339002380Y-100027976D02*
X338002380Y-100027976D01*
X338145238Y-99932738D01*
X338240476Y-99837500D01*
X338288095Y-99742261D01*
X312808630Y-55285119D02*
X311808630Y-55285119D01*
X311808630Y-55523214D01*
X311856250Y-55666071D01*
X311951488Y-55761309D01*
X312046726Y-55808928D01*
X312237202Y-55856547D01*
X312380059Y-55856547D01*
X312570535Y-55808928D01*
X312665773Y-55761309D01*
X312761011Y-55666071D01*
X312808630Y-55523214D01*
X312808630Y-55285119D01*
X312903869Y-56047023D02*
X312903869Y-56808928D01*
X312284821Y-57047023D02*
X312284821Y-57380357D01*
X312808630Y-57523214D02*
X312808630Y-57047023D01*
X311808630Y-57047023D01*
X311808630Y-57523214D01*
X312903869Y-58618452D02*
X312856250Y-58523214D01*
X312761011Y-58427976D01*
X312618154Y-58285119D01*
X312570535Y-58189880D01*
X312570535Y-58094642D01*
X312808630Y-58142261D02*
X312761011Y-58047023D01*
X312665773Y-57951785D01*
X312475297Y-57904166D01*
X312141964Y-57904166D01*
X311951488Y-57951785D01*
X311856250Y-58047023D01*
X311808630Y-58142261D01*
X311808630Y-58332738D01*
X311856250Y-58427976D01*
X311951488Y-58523214D01*
X312141964Y-58570833D01*
X312475297Y-58570833D01*
X312665773Y-58523214D01*
X312761011Y-58427976D01*
X312808630Y-58332738D01*
X312808630Y-58142261D01*
X311808630Y-58999404D02*
X312618154Y-58999404D01*
X312713392Y-59047023D01*
X312761011Y-59094642D01*
X312808630Y-59189880D01*
X312808630Y-59380357D01*
X312761011Y-59475595D01*
X312713392Y-59523214D01*
X312618154Y-59570833D01*
X311808630Y-59570833D01*
X312522916Y-59999404D02*
X312522916Y-60475595D01*
X312808630Y-59904166D02*
X311808630Y-60237500D01*
X312808630Y-60570833D01*
X312808630Y-61380357D02*
X312808630Y-60904166D01*
X311808630Y-60904166D01*
X312808630Y-62237500D02*
X312808630Y-61666071D01*
X312808630Y-61951785D02*
X311808630Y-61951785D01*
X311951488Y-61856547D01*
X312046726Y-61761309D01*
X312094345Y-61666071D01*
X46108630Y-57189880D02*
X45108630Y-57189880D01*
X45108630Y-57427976D01*
X45156250Y-57570833D01*
X45251488Y-57666071D01*
X45346726Y-57713690D01*
X45537202Y-57761309D01*
X45680059Y-57761309D01*
X45870535Y-57713690D01*
X45965773Y-57666071D01*
X46061011Y-57570833D01*
X46108630Y-57427976D01*
X46108630Y-57189880D01*
X46203869Y-57951785D02*
X46203869Y-58713690D01*
X45584821Y-59285119D02*
X45584821Y-58951785D01*
X46108630Y-58951785D02*
X45108630Y-58951785D01*
X45108630Y-59427976D01*
X46108630Y-60332738D02*
X46108630Y-59761309D01*
X46108630Y-60047023D02*
X45108630Y-60047023D01*
X45251488Y-59951785D01*
X45346726Y-59856547D01*
X45394345Y-59761309D01*
X46108630Y-76239880D02*
X45108630Y-76239880D01*
X45108630Y-76477976D01*
X45156250Y-76620833D01*
X45251488Y-76716071D01*
X45346726Y-76763690D01*
X45537202Y-76811309D01*
X45680059Y-76811309D01*
X45870535Y-76763690D01*
X45965773Y-76716071D01*
X46061011Y-76620833D01*
X46108630Y-76477976D01*
X46108630Y-76239880D01*
X46203869Y-77001785D02*
X46203869Y-77763690D01*
X45584821Y-78335119D02*
X45584821Y-78001785D01*
X46108630Y-78001785D02*
X45108630Y-78001785D01*
X45108630Y-78477976D01*
X45203869Y-78811309D02*
X45156250Y-78858928D01*
X45108630Y-78954166D01*
X45108630Y-79192261D01*
X45156250Y-79287500D01*
X45203869Y-79335119D01*
X45299107Y-79382738D01*
X45394345Y-79382738D01*
X45537202Y-79335119D01*
X46108630Y-78763690D01*
X46108630Y-79382738D01*
X46108630Y-95289880D02*
X45108630Y-95289880D01*
X45108630Y-95527976D01*
X45156250Y-95670833D01*
X45251488Y-95766071D01*
X45346726Y-95813690D01*
X45537202Y-95861309D01*
X45680059Y-95861309D01*
X45870535Y-95813690D01*
X45965773Y-95766071D01*
X46061011Y-95670833D01*
X46108630Y-95527976D01*
X46108630Y-95289880D01*
X46203869Y-96051785D02*
X46203869Y-96813690D01*
X45584821Y-97385119D02*
X45584821Y-97051785D01*
X46108630Y-97051785D02*
X45108630Y-97051785D01*
X45108630Y-97527976D01*
X45108630Y-97813690D02*
X45108630Y-98432738D01*
X45489583Y-98099404D01*
X45489583Y-98242261D01*
X45537202Y-98337500D01*
X45584821Y-98385119D01*
X45680059Y-98432738D01*
X45918154Y-98432738D01*
X46013392Y-98385119D01*
X46061011Y-98337500D01*
X46108630Y-98242261D01*
X46108630Y-97956547D01*
X46061011Y-97861309D01*
X46013392Y-97813690D01*
X46108630Y-114339880D02*
X45108630Y-114339880D01*
X45108630Y-114577976D01*
X45156250Y-114720833D01*
X45251488Y-114816071D01*
X45346726Y-114863690D01*
X45537202Y-114911309D01*
X45680059Y-114911309D01*
X45870535Y-114863690D01*
X45965773Y-114816071D01*
X46061011Y-114720833D01*
X46108630Y-114577976D01*
X46108630Y-114339880D01*
X46203869Y-115101785D02*
X46203869Y-115863690D01*
X45584821Y-116435119D02*
X45584821Y-116101785D01*
X46108630Y-116101785D02*
X45108630Y-116101785D01*
X45108630Y-116577976D01*
X45441964Y-117387500D02*
X46108630Y-117387500D01*
X45061011Y-117149404D02*
X45775297Y-116911309D01*
X45775297Y-117530357D01*
X46108630Y-133389880D02*
X45108630Y-133389880D01*
X45108630Y-133627976D01*
X45156250Y-133770833D01*
X45251488Y-133866071D01*
X45346726Y-133913690D01*
X45537202Y-133961309D01*
X45680059Y-133961309D01*
X45870535Y-133913690D01*
X45965773Y-133866071D01*
X46061011Y-133770833D01*
X46108630Y-133627976D01*
X46108630Y-133389880D01*
X46203869Y-134151785D02*
X46203869Y-134913690D01*
X45584821Y-135485119D02*
X45584821Y-135151785D01*
X46108630Y-135151785D02*
X45108630Y-135151785D01*
X45108630Y-135627976D01*
X45108630Y-136485119D02*
X45108630Y-136008928D01*
X45584821Y-135961309D01*
X45537202Y-136008928D01*
X45489583Y-136104166D01*
X45489583Y-136342261D01*
X45537202Y-136437500D01*
X45584821Y-136485119D01*
X45680059Y-136532738D01*
X45918154Y-136532738D01*
X46013392Y-136485119D01*
X46061011Y-136437500D01*
X46108630Y-136342261D01*
X46108630Y-136104166D01*
X46061011Y-136008928D01*
X46013392Y-135961309D01*
X174696130Y-94813690D02*
X173696130Y-94813690D01*
X173696130Y-95051785D01*
X173743750Y-95194642D01*
X173838988Y-95289880D01*
X173934226Y-95337500D01*
X174124702Y-95385119D01*
X174267559Y-95385119D01*
X174458035Y-95337500D01*
X174553273Y-95289880D01*
X174648511Y-95194642D01*
X174696130Y-95051785D01*
X174696130Y-94813690D01*
X174791369Y-95575595D02*
X174791369Y-96337500D01*
X174172321Y-96908928D02*
X174172321Y-96575595D01*
X174696130Y-96575595D02*
X173696130Y-96575595D01*
X173696130Y-97051785D01*
X174696130Y-97956547D02*
X174696130Y-97385119D01*
X174696130Y-97670833D02*
X173696130Y-97670833D01*
X173838988Y-97575595D01*
X173934226Y-97480357D01*
X173981845Y-97385119D01*
X174696130Y-98908928D02*
X174696130Y-98337500D01*
X174696130Y-98623214D02*
X173696130Y-98623214D01*
X173838988Y-98527976D01*
X173934226Y-98432738D01*
X173981845Y-98337500D01*
X350908630Y-113816071D02*
X349908630Y-113816071D01*
X349908630Y-114054166D01*
X349956250Y-114197023D01*
X350051488Y-114292261D01*
X350146726Y-114339880D01*
X350337202Y-114387500D01*
X350480059Y-114387500D01*
X350670535Y-114339880D01*
X350765773Y-114292261D01*
X350861011Y-114197023D01*
X350908630Y-114054166D01*
X350908630Y-113816071D01*
X351003869Y-114577976D02*
X351003869Y-115339880D01*
X350384821Y-115911309D02*
X350384821Y-115577976D01*
X350908630Y-115577976D02*
X349908630Y-115577976D01*
X349908630Y-116054166D01*
X350908630Y-116435119D02*
X349908630Y-116435119D01*
X350908630Y-117006547D01*
X349908630Y-117006547D01*
X350908630Y-118006547D02*
X350908630Y-117435119D01*
X350908630Y-117720833D02*
X349908630Y-117720833D01*
X350051488Y-117625595D01*
X350146726Y-117530357D01*
X350194345Y-117435119D01*
X193746130Y-95218452D02*
X192746130Y-95218452D01*
X192746130Y-95456547D01*
X192793750Y-95599404D01*
X192888988Y-95694642D01*
X192984226Y-95742261D01*
X193174702Y-95789880D01*
X193317559Y-95789880D01*
X193508035Y-95742261D01*
X193603273Y-95694642D01*
X193698511Y-95599404D01*
X193746130Y-95456547D01*
X193746130Y-95218452D01*
X193841369Y-95980357D02*
X193841369Y-96742261D01*
X192793750Y-97504166D02*
X192746130Y-97408928D01*
X192746130Y-97266071D01*
X192793750Y-97123214D01*
X192888988Y-97027976D01*
X192984226Y-96980357D01*
X193174702Y-96932738D01*
X193317559Y-96932738D01*
X193508035Y-96980357D01*
X193603273Y-97027976D01*
X193698511Y-97123214D01*
X193746130Y-97266071D01*
X193746130Y-97361309D01*
X193698511Y-97504166D01*
X193650892Y-97551785D01*
X193317559Y-97551785D01*
X193317559Y-97361309D01*
X193746130Y-98504166D02*
X193746130Y-97932738D01*
X193746130Y-98218452D02*
X192746130Y-98218452D01*
X192888988Y-98123214D01*
X192984226Y-98027976D01*
X193031845Y-97932738D01*
X212796130Y-95194642D02*
X211796130Y-95194642D01*
X211796130Y-95432738D01*
X211843750Y-95575595D01*
X211938988Y-95670833D01*
X212034226Y-95718452D01*
X212224702Y-95766071D01*
X212367559Y-95766071D01*
X212558035Y-95718452D01*
X212653273Y-95670833D01*
X212748511Y-95575595D01*
X212796130Y-95432738D01*
X212796130Y-95194642D01*
X212891369Y-95956547D02*
X212891369Y-96718452D01*
X212796130Y-96956547D02*
X211796130Y-96956547D01*
X212272321Y-96956547D02*
X212272321Y-97527976D01*
X212796130Y-97527976D02*
X211796130Y-97527976D01*
X212796130Y-98527976D02*
X212796130Y-97956547D01*
X212796130Y-98242261D02*
X211796130Y-98242261D01*
X211938988Y-98147023D01*
X212034226Y-98051785D01*
X212081845Y-97956547D01*
X246133630Y-76430357D02*
X245133630Y-76430357D01*
X245133630Y-76668452D01*
X245181250Y-76811309D01*
X245276488Y-76906547D01*
X245371726Y-76954166D01*
X245562202Y-77001785D01*
X245705059Y-77001785D01*
X245895535Y-76954166D01*
X245990773Y-76906547D01*
X246086011Y-76811309D01*
X246133630Y-76668452D01*
X246133630Y-76430357D01*
X246228869Y-77192261D02*
X246228869Y-77954166D01*
X246133630Y-78192261D02*
X245133630Y-78192261D01*
X246133630Y-79192261D02*
X246133630Y-78620833D01*
X246133630Y-78906547D02*
X245133630Y-78906547D01*
X245276488Y-78811309D01*
X245371726Y-78716071D01*
X245419345Y-78620833D01*
X231846130Y-95337500D02*
X230846130Y-95337500D01*
X230846130Y-95575595D01*
X230893750Y-95718452D01*
X230988988Y-95813690D01*
X231084226Y-95861309D01*
X231274702Y-95908928D01*
X231417559Y-95908928D01*
X231608035Y-95861309D01*
X231703273Y-95813690D01*
X231798511Y-95718452D01*
X231846130Y-95575595D01*
X231846130Y-95337500D01*
X231941369Y-96099404D02*
X231941369Y-96861309D01*
X230846130Y-97385119D02*
X231560416Y-97385119D01*
X231703273Y-97337500D01*
X231798511Y-97242261D01*
X231846130Y-97099404D01*
X231846130Y-97004166D01*
X231846130Y-98385119D02*
X231846130Y-97813690D01*
X231846130Y-98099404D02*
X230846130Y-98099404D01*
X230988988Y-98004166D01*
X231084226Y-97908928D01*
X231131845Y-97813690D01*
X250896130Y-95218452D02*
X249896130Y-95218452D01*
X249896130Y-95456547D01*
X249943750Y-95599404D01*
X250038988Y-95694642D01*
X250134226Y-95742261D01*
X250324702Y-95789880D01*
X250467559Y-95789880D01*
X250658035Y-95742261D01*
X250753273Y-95694642D01*
X250848511Y-95599404D01*
X250896130Y-95456547D01*
X250896130Y-95218452D01*
X250991369Y-95980357D02*
X250991369Y-96742261D01*
X250896130Y-96980357D02*
X249896130Y-96980357D01*
X250896130Y-97551785D02*
X250324702Y-97123214D01*
X249896130Y-97551785D02*
X250467559Y-96980357D01*
X250896130Y-98504166D02*
X250896130Y-97932738D01*
X250896130Y-98218452D02*
X249896130Y-98218452D01*
X250038988Y-98123214D01*
X250134226Y-98027976D01*
X250181845Y-97932738D01*
X269946130Y-95313690D02*
X268946130Y-95313690D01*
X268946130Y-95551785D01*
X268993750Y-95694642D01*
X269088988Y-95789880D01*
X269184226Y-95837500D01*
X269374702Y-95885119D01*
X269517559Y-95885119D01*
X269708035Y-95837500D01*
X269803273Y-95789880D01*
X269898511Y-95694642D01*
X269946130Y-95551785D01*
X269946130Y-95313690D01*
X270041369Y-96075595D02*
X270041369Y-96837500D01*
X269946130Y-97551785D02*
X269946130Y-97075595D01*
X268946130Y-97075595D01*
X269946130Y-98408928D02*
X269946130Y-97837500D01*
X269946130Y-98123214D02*
X268946130Y-98123214D01*
X269088988Y-98027976D01*
X269184226Y-97932738D01*
X269231845Y-97837500D01*
X241371130Y-114197023D02*
X240371130Y-114197023D01*
X240371130Y-114435119D01*
X240418750Y-114577976D01*
X240513988Y-114673214D01*
X240609226Y-114720833D01*
X240799702Y-114768452D01*
X240942559Y-114768452D01*
X241133035Y-114720833D01*
X241228273Y-114673214D01*
X241323511Y-114577976D01*
X241371130Y-114435119D01*
X241371130Y-114197023D01*
X241466369Y-114958928D02*
X241466369Y-115720833D01*
X241371130Y-115958928D02*
X240371130Y-115958928D01*
X241085416Y-116292261D01*
X240371130Y-116625595D01*
X241371130Y-116625595D01*
X241371130Y-117625595D02*
X241371130Y-117054166D01*
X241371130Y-117339880D02*
X240371130Y-117339880D01*
X240513988Y-117244642D01*
X240609226Y-117149404D01*
X240656845Y-117054166D01*
X293758630Y-55285119D02*
X292758630Y-55285119D01*
X292758630Y-55523214D01*
X292806250Y-55666071D01*
X292901488Y-55761309D01*
X292996726Y-55808928D01*
X293187202Y-55856547D01*
X293330059Y-55856547D01*
X293520535Y-55808928D01*
X293615773Y-55761309D01*
X293711011Y-55666071D01*
X293758630Y-55523214D01*
X293758630Y-55285119D01*
X293853869Y-56047023D02*
X293853869Y-56808928D01*
X293758630Y-57047023D02*
X292758630Y-57047023D01*
X293472916Y-57380357D01*
X292758630Y-57713690D01*
X293758630Y-57713690D01*
X293758630Y-58189880D02*
X292758630Y-58189880D01*
X293758630Y-58666071D02*
X292758630Y-58666071D01*
X293758630Y-59237500D01*
X292758630Y-59237500D01*
X292758630Y-59713690D02*
X293568154Y-59713690D01*
X293663392Y-59761309D01*
X293711011Y-59808928D01*
X293758630Y-59904166D01*
X293758630Y-60094642D01*
X293711011Y-60189880D01*
X293663392Y-60237500D01*
X293568154Y-60285119D01*
X292758630Y-60285119D01*
X293711011Y-60713690D02*
X293758630Y-60856547D01*
X293758630Y-61094642D01*
X293711011Y-61189880D01*
X293663392Y-61237500D01*
X293568154Y-61285119D01*
X293472916Y-61285119D01*
X293377678Y-61237500D01*
X293330059Y-61189880D01*
X293282440Y-61094642D01*
X293234821Y-60904166D01*
X293187202Y-60808928D01*
X293139583Y-60761309D01*
X293044345Y-60713690D01*
X292949107Y-60713690D01*
X292853869Y-60761309D01*
X292806250Y-60808928D01*
X292758630Y-60904166D01*
X292758630Y-61142261D01*
X292806250Y-61285119D01*
X293758630Y-62237500D02*
X293758630Y-61666071D01*
X293758630Y-61951785D02*
X292758630Y-61951785D01*
X292901488Y-61856547D01*
X292996726Y-61761309D01*
X293044345Y-61666071D01*
X222321130Y-114244642D02*
X221321130Y-114244642D01*
X221321130Y-114482738D01*
X221368750Y-114625595D01*
X221463988Y-114720833D01*
X221559226Y-114768452D01*
X221749702Y-114816071D01*
X221892559Y-114816071D01*
X222083035Y-114768452D01*
X222178273Y-114720833D01*
X222273511Y-114625595D01*
X222321130Y-114482738D01*
X222321130Y-114244642D01*
X222416369Y-115006547D02*
X222416369Y-115768452D01*
X222321130Y-116006547D02*
X221321130Y-116006547D01*
X222321130Y-116577976D01*
X221321130Y-116577976D01*
X222321130Y-117577976D02*
X222321130Y-117006547D01*
X222321130Y-117292261D02*
X221321130Y-117292261D01*
X221463988Y-117197023D01*
X221559226Y-117101785D01*
X221606845Y-117006547D01*
X265183630Y-76144642D02*
X264183630Y-76144642D01*
X264183630Y-76382738D01*
X264231250Y-76525595D01*
X264326488Y-76620833D01*
X264421726Y-76668452D01*
X264612202Y-76716071D01*
X264755059Y-76716071D01*
X264945535Y-76668452D01*
X265040773Y-76620833D01*
X265136011Y-76525595D01*
X265183630Y-76382738D01*
X265183630Y-76144642D01*
X265278869Y-76906547D02*
X265278869Y-77668452D01*
X264183630Y-78097023D02*
X264183630Y-78287500D01*
X264231250Y-78382738D01*
X264326488Y-78477976D01*
X264516964Y-78525595D01*
X264850297Y-78525595D01*
X265040773Y-78477976D01*
X265136011Y-78382738D01*
X265183630Y-78287500D01*
X265183630Y-78097023D01*
X265136011Y-78001785D01*
X265040773Y-77906547D01*
X264850297Y-77858928D01*
X264516964Y-77858928D01*
X264326488Y-77906547D01*
X264231250Y-78001785D01*
X264183630Y-78097023D01*
X265183630Y-79477976D02*
X265183630Y-78906547D01*
X265183630Y-79192261D02*
X264183630Y-79192261D01*
X264326488Y-79097023D01*
X264421726Y-79001785D01*
X264469345Y-78906547D01*
X284233630Y-76168452D02*
X283233630Y-76168452D01*
X283233630Y-76406547D01*
X283281250Y-76549404D01*
X283376488Y-76644642D01*
X283471726Y-76692261D01*
X283662202Y-76739880D01*
X283805059Y-76739880D01*
X283995535Y-76692261D01*
X284090773Y-76644642D01*
X284186011Y-76549404D01*
X284233630Y-76406547D01*
X284233630Y-76168452D01*
X284328869Y-76930357D02*
X284328869Y-77692261D01*
X284233630Y-77930357D02*
X283233630Y-77930357D01*
X283233630Y-78311309D01*
X283281250Y-78406547D01*
X283328869Y-78454166D01*
X283424107Y-78501785D01*
X283566964Y-78501785D01*
X283662202Y-78454166D01*
X283709821Y-78406547D01*
X283757440Y-78311309D01*
X283757440Y-77930357D01*
X284233630Y-79454166D02*
X284233630Y-78882738D01*
X284233630Y-79168452D02*
X283233630Y-79168452D01*
X283376488Y-79073214D01*
X283471726Y-78977976D01*
X283519345Y-78882738D01*
X112783630Y-76144642D02*
X111783630Y-76144642D01*
X111783630Y-76382738D01*
X111831250Y-76525595D01*
X111926488Y-76620833D01*
X112021726Y-76668452D01*
X112212202Y-76716071D01*
X112355059Y-76716071D01*
X112545535Y-76668452D01*
X112640773Y-76620833D01*
X112736011Y-76525595D01*
X112783630Y-76382738D01*
X112783630Y-76144642D01*
X112878869Y-76906547D02*
X112878869Y-77668452D01*
X112878869Y-78573214D02*
X112831250Y-78477976D01*
X112736011Y-78382738D01*
X112593154Y-78239880D01*
X112545535Y-78144642D01*
X112545535Y-78049404D01*
X112783630Y-78097023D02*
X112736011Y-78001785D01*
X112640773Y-77906547D01*
X112450297Y-77858928D01*
X112116964Y-77858928D01*
X111926488Y-77906547D01*
X111831250Y-78001785D01*
X111783630Y-78097023D01*
X111783630Y-78287500D01*
X111831250Y-78382738D01*
X111926488Y-78477976D01*
X112116964Y-78525595D01*
X112450297Y-78525595D01*
X112640773Y-78477976D01*
X112736011Y-78382738D01*
X112783630Y-78287500D01*
X112783630Y-78097023D01*
X112783630Y-79477976D02*
X112783630Y-78906547D01*
X112783630Y-79192261D02*
X111783630Y-79192261D01*
X111926488Y-79097023D01*
X112021726Y-79001785D01*
X112069345Y-78906547D01*
X308046130Y-93313690D02*
X307046130Y-93313690D01*
X307046130Y-93551785D01*
X307093750Y-93694642D01*
X307188988Y-93789880D01*
X307284226Y-93837500D01*
X307474702Y-93885119D01*
X307617559Y-93885119D01*
X307808035Y-93837500D01*
X307903273Y-93789880D01*
X307998511Y-93694642D01*
X308046130Y-93551785D01*
X308046130Y-93313690D01*
X308141369Y-94075595D02*
X308141369Y-94837500D01*
X308141369Y-95742261D02*
X308093750Y-95647023D01*
X307998511Y-95551785D01*
X307855654Y-95408928D01*
X307808035Y-95313690D01*
X307808035Y-95218452D01*
X308046130Y-95266071D02*
X307998511Y-95170833D01*
X307903273Y-95075595D01*
X307712797Y-95027976D01*
X307379464Y-95027976D01*
X307188988Y-95075595D01*
X307093750Y-95170833D01*
X307046130Y-95266071D01*
X307046130Y-95456547D01*
X307093750Y-95551785D01*
X307188988Y-95647023D01*
X307379464Y-95694642D01*
X307712797Y-95694642D01*
X307903273Y-95647023D01*
X307998511Y-95551785D01*
X308046130Y-95456547D01*
X308046130Y-95266071D01*
X307046130Y-96123214D02*
X307855654Y-96123214D01*
X307950892Y-96170833D01*
X307998511Y-96218452D01*
X308046130Y-96313690D01*
X308046130Y-96504166D01*
X307998511Y-96599404D01*
X307950892Y-96647023D01*
X307855654Y-96694642D01*
X307046130Y-96694642D01*
X307046130Y-97361309D02*
X307046130Y-97551785D01*
X307093750Y-97647023D01*
X307188988Y-97742261D01*
X307379464Y-97789880D01*
X307712797Y-97789880D01*
X307903273Y-97742261D01*
X307998511Y-97647023D01*
X308046130Y-97551785D01*
X308046130Y-97361309D01*
X307998511Y-97266071D01*
X307903273Y-97170833D01*
X307712797Y-97123214D01*
X307379464Y-97123214D01*
X307188988Y-97170833D01*
X307093750Y-97266071D01*
X307046130Y-97361309D01*
X307046130Y-98075595D02*
X307046130Y-98647023D01*
X308046130Y-98361309D02*
X307046130Y-98361309D01*
X307522321Y-98980357D02*
X307522321Y-99313690D01*
X308046130Y-99456547D02*
X308046130Y-98980357D01*
X307046130Y-98980357D01*
X307046130Y-99456547D01*
X308046130Y-100408928D02*
X308046130Y-99837500D01*
X308046130Y-100123214D02*
X307046130Y-100123214D01*
X307188988Y-100027976D01*
X307284226Y-99932738D01*
X307331845Y-99837500D01*
X169933630Y-76168452D02*
X168933630Y-76168452D01*
X168933630Y-76406547D01*
X168981250Y-76549404D01*
X169076488Y-76644642D01*
X169171726Y-76692261D01*
X169362202Y-76739880D01*
X169505059Y-76739880D01*
X169695535Y-76692261D01*
X169790773Y-76644642D01*
X169886011Y-76549404D01*
X169933630Y-76406547D01*
X169933630Y-76168452D01*
X170028869Y-76930357D02*
X170028869Y-77692261D01*
X169933630Y-78501785D02*
X169457440Y-78168452D01*
X169933630Y-77930357D02*
X168933630Y-77930357D01*
X168933630Y-78311309D01*
X168981250Y-78406547D01*
X169028869Y-78454166D01*
X169124107Y-78501785D01*
X169266964Y-78501785D01*
X169362202Y-78454166D01*
X169409821Y-78406547D01*
X169457440Y-78311309D01*
X169457440Y-77930357D01*
X169933630Y-79454166D02*
X169933630Y-78882738D01*
X169933630Y-79168452D02*
X168933630Y-79168452D01*
X169076488Y-79073214D01*
X169171726Y-78977976D01*
X169219345Y-78882738D01*
X136596130Y-95242261D02*
X135596130Y-95242261D01*
X135596130Y-95480357D01*
X135643750Y-95623214D01*
X135738988Y-95718452D01*
X135834226Y-95766071D01*
X136024702Y-95813690D01*
X136167559Y-95813690D01*
X136358035Y-95766071D01*
X136453273Y-95718452D01*
X136548511Y-95623214D01*
X136596130Y-95480357D01*
X136596130Y-95242261D01*
X136691369Y-96004166D02*
X136691369Y-96766071D01*
X136548511Y-96956547D02*
X136596130Y-97099404D01*
X136596130Y-97337500D01*
X136548511Y-97432738D01*
X136500892Y-97480357D01*
X136405654Y-97527976D01*
X136310416Y-97527976D01*
X136215178Y-97480357D01*
X136167559Y-97432738D01*
X136119940Y-97337500D01*
X136072321Y-97147023D01*
X136024702Y-97051785D01*
X135977083Y-97004166D01*
X135881845Y-96956547D01*
X135786607Y-96956547D01*
X135691369Y-97004166D01*
X135643750Y-97051785D01*
X135596130Y-97147023D01*
X135596130Y-97385119D01*
X135643750Y-97527976D01*
X136596130Y-98480357D02*
X136596130Y-97908928D01*
X136596130Y-98194642D02*
X135596130Y-98194642D01*
X135738988Y-98099404D01*
X135834226Y-98004166D01*
X135881845Y-97908928D01*
X288996130Y-93480357D02*
X287996130Y-93480357D01*
X287996130Y-93718452D01*
X288043750Y-93861309D01*
X288138988Y-93956547D01*
X288234226Y-94004166D01*
X288424702Y-94051785D01*
X288567559Y-94051785D01*
X288758035Y-94004166D01*
X288853273Y-93956547D01*
X288948511Y-93861309D01*
X288996130Y-93718452D01*
X288996130Y-93480357D01*
X289091369Y-94242261D02*
X289091369Y-95004166D01*
X288948511Y-95194642D02*
X288996130Y-95337500D01*
X288996130Y-95575595D01*
X288948511Y-95670833D01*
X288900892Y-95718452D01*
X288805654Y-95766071D01*
X288710416Y-95766071D01*
X288615178Y-95718452D01*
X288567559Y-95670833D01*
X288519940Y-95575595D01*
X288472321Y-95385119D01*
X288424702Y-95289880D01*
X288377083Y-95242261D01*
X288281845Y-95194642D01*
X288186607Y-95194642D01*
X288091369Y-95242261D01*
X288043750Y-95289880D01*
X287996130Y-95385119D01*
X287996130Y-95623214D01*
X288043750Y-95766071D01*
X288472321Y-96194642D02*
X288472321Y-96527976D01*
X288996130Y-96670833D02*
X288996130Y-96194642D01*
X287996130Y-96194642D01*
X287996130Y-96670833D01*
X288996130Y-97099404D02*
X287996130Y-97099404D01*
X288710416Y-97432738D01*
X287996130Y-97766071D01*
X288996130Y-97766071D01*
X288996130Y-98242261D02*
X287996130Y-98242261D01*
X288900892Y-99289880D02*
X288948511Y-99242261D01*
X288996130Y-99099404D01*
X288996130Y-99004166D01*
X288948511Y-98861309D01*
X288853273Y-98766071D01*
X288758035Y-98718452D01*
X288567559Y-98670833D01*
X288424702Y-98670833D01*
X288234226Y-98718452D01*
X288138988Y-98766071D01*
X288043750Y-98861309D01*
X287996130Y-99004166D01*
X287996130Y-99099404D01*
X288043750Y-99242261D01*
X288091369Y-99289880D01*
X288996130Y-100242261D02*
X288996130Y-99670833D01*
X288996130Y-99956547D02*
X287996130Y-99956547D01*
X288138988Y-99861309D01*
X288234226Y-99766071D01*
X288281845Y-99670833D01*
X324714880Y-112720833D02*
X323714880Y-112720833D01*
X323714880Y-112958928D01*
X323762500Y-113101785D01*
X323857738Y-113197023D01*
X323952976Y-113244642D01*
X324143452Y-113292261D01*
X324286309Y-113292261D01*
X324476785Y-113244642D01*
X324572023Y-113197023D01*
X324667261Y-113101785D01*
X324714880Y-112958928D01*
X324714880Y-112720833D01*
X324810119Y-113482738D02*
X324810119Y-114244642D01*
X324667261Y-114435119D02*
X324714880Y-114577976D01*
X324714880Y-114816071D01*
X324667261Y-114911309D01*
X324619642Y-114958928D01*
X324524404Y-115006547D01*
X324429166Y-115006547D01*
X324333928Y-114958928D01*
X324286309Y-114911309D01*
X324238690Y-114816071D01*
X324191071Y-114625595D01*
X324143452Y-114530357D01*
X324095833Y-114482738D01*
X324000595Y-114435119D01*
X323905357Y-114435119D01*
X323810119Y-114482738D01*
X323762500Y-114530357D01*
X323714880Y-114625595D01*
X323714880Y-114863690D01*
X323762500Y-115006547D01*
X324714880Y-115435119D02*
X323714880Y-115435119D01*
X324191071Y-115435119D02*
X324191071Y-116006547D01*
X324714880Y-116006547D02*
X323714880Y-116006547D01*
X324714880Y-116482738D02*
X323714880Y-116482738D01*
X324191071Y-117292261D02*
X324191071Y-116958928D01*
X324714880Y-116958928D02*
X323714880Y-116958928D01*
X323714880Y-117435119D01*
X323714880Y-117673214D02*
X323714880Y-118244642D01*
X324714880Y-117958928D02*
X323714880Y-117958928D01*
X324714880Y-119101785D02*
X324714880Y-118530357D01*
X324714880Y-118816071D02*
X323714880Y-118816071D01*
X323857738Y-118720833D01*
X323952976Y-118625595D01*
X324000595Y-118530357D01*
X96114880Y-112720833D02*
X95114880Y-112720833D01*
X95114880Y-112958928D01*
X95162500Y-113101785D01*
X95257738Y-113197023D01*
X95352976Y-113244642D01*
X95543452Y-113292261D01*
X95686309Y-113292261D01*
X95876785Y-113244642D01*
X95972023Y-113197023D01*
X96067261Y-113101785D01*
X96114880Y-112958928D01*
X96114880Y-112720833D01*
X96210119Y-113482738D02*
X96210119Y-114244642D01*
X96067261Y-114435119D02*
X96114880Y-114577976D01*
X96114880Y-114816071D01*
X96067261Y-114911309D01*
X96019642Y-114958928D01*
X95924404Y-115006547D01*
X95829166Y-115006547D01*
X95733928Y-114958928D01*
X95686309Y-114911309D01*
X95638690Y-114816071D01*
X95591071Y-114625595D01*
X95543452Y-114530357D01*
X95495833Y-114482738D01*
X95400595Y-114435119D01*
X95305357Y-114435119D01*
X95210119Y-114482738D01*
X95162500Y-114530357D01*
X95114880Y-114625595D01*
X95114880Y-114863690D01*
X95162500Y-115006547D01*
X96114880Y-115435119D02*
X95114880Y-115435119D01*
X95591071Y-115435119D02*
X95591071Y-116006547D01*
X96114880Y-116006547D02*
X95114880Y-116006547D01*
X96114880Y-116482738D02*
X95114880Y-116482738D01*
X95591071Y-117292261D02*
X95591071Y-116958928D01*
X96114880Y-116958928D02*
X95114880Y-116958928D01*
X95114880Y-117435119D01*
X95114880Y-117673214D02*
X95114880Y-118244642D01*
X96114880Y-117958928D02*
X95114880Y-117958928D01*
X95210119Y-118530357D02*
X95162500Y-118577976D01*
X95114880Y-118673214D01*
X95114880Y-118911309D01*
X95162500Y-119006547D01*
X95210119Y-119054166D01*
X95305357Y-119101785D01*
X95400595Y-119101785D01*
X95543452Y-119054166D01*
X96114880Y-118482738D01*
X96114880Y-119101785D01*
X298521130Y-112458928D02*
X297521130Y-112458928D01*
X297521130Y-112697023D01*
X297568750Y-112839880D01*
X297663988Y-112935119D01*
X297759226Y-112982738D01*
X297949702Y-113030357D01*
X298092559Y-113030357D01*
X298283035Y-112982738D01*
X298378273Y-112935119D01*
X298473511Y-112839880D01*
X298521130Y-112697023D01*
X298521130Y-112458928D01*
X298616369Y-113220833D02*
X298616369Y-113982738D01*
X298473511Y-114173214D02*
X298521130Y-114316071D01*
X298521130Y-114554166D01*
X298473511Y-114649404D01*
X298425892Y-114697023D01*
X298330654Y-114744642D01*
X298235416Y-114744642D01*
X298140178Y-114697023D01*
X298092559Y-114649404D01*
X298044940Y-114554166D01*
X297997321Y-114363690D01*
X297949702Y-114268452D01*
X297902083Y-114220833D01*
X297806845Y-114173214D01*
X297711607Y-114173214D01*
X297616369Y-114220833D01*
X297568750Y-114268452D01*
X297521130Y-114363690D01*
X297521130Y-114601785D01*
X297568750Y-114744642D01*
X298521130Y-115649404D02*
X298521130Y-115173214D01*
X297521130Y-115173214D01*
X298235416Y-115935119D02*
X298235416Y-116411309D01*
X298521130Y-115839880D02*
X297521130Y-116173214D01*
X298521130Y-116506547D01*
X298473511Y-116792261D02*
X298521130Y-116935119D01*
X298521130Y-117173214D01*
X298473511Y-117268452D01*
X298425892Y-117316071D01*
X298330654Y-117363690D01*
X298235416Y-117363690D01*
X298140178Y-117316071D01*
X298092559Y-117268452D01*
X298044940Y-117173214D01*
X297997321Y-116982738D01*
X297949702Y-116887500D01*
X297902083Y-116839880D01*
X297806845Y-116792261D01*
X297711607Y-116792261D01*
X297616369Y-116839880D01*
X297568750Y-116887500D01*
X297521130Y-116982738D01*
X297521130Y-117220833D01*
X297568750Y-117363690D01*
X298521130Y-117792261D02*
X297521130Y-117792261D01*
X297997321Y-117792261D02*
X297997321Y-118363690D01*
X298521130Y-118363690D02*
X297521130Y-118363690D01*
X298521130Y-119363690D02*
X298521130Y-118792261D01*
X298521130Y-119077976D02*
X297521130Y-119077976D01*
X297663988Y-118982738D01*
X297759226Y-118887500D01*
X297806845Y-118792261D01*
X188983630Y-76287500D02*
X187983630Y-76287500D01*
X187983630Y-76525595D01*
X188031250Y-76668452D01*
X188126488Y-76763690D01*
X188221726Y-76811309D01*
X188412202Y-76858928D01*
X188555059Y-76858928D01*
X188745535Y-76811309D01*
X188840773Y-76763690D01*
X188936011Y-76668452D01*
X188983630Y-76525595D01*
X188983630Y-76287500D01*
X189078869Y-77049404D02*
X189078869Y-77811309D01*
X187983630Y-77906547D02*
X187983630Y-78477976D01*
X188983630Y-78192261D02*
X187983630Y-78192261D01*
X188983630Y-79335119D02*
X188983630Y-78763690D01*
X188983630Y-79049404D02*
X187983630Y-79049404D01*
X188126488Y-78954166D01*
X188221726Y-78858928D01*
X188269345Y-78763690D01*
X88971130Y-75358928D02*
X87971130Y-75358928D01*
X87971130Y-75597023D01*
X88018750Y-75739880D01*
X88113988Y-75835119D01*
X88209226Y-75882738D01*
X88399702Y-75930357D01*
X88542559Y-75930357D01*
X88733035Y-75882738D01*
X88828273Y-75835119D01*
X88923511Y-75739880D01*
X88971130Y-75597023D01*
X88971130Y-75358928D01*
X89066369Y-76120833D02*
X89066369Y-76882738D01*
X87971130Y-76977976D02*
X87971130Y-77549404D01*
X88971130Y-77263690D02*
X87971130Y-77263690D01*
X88685416Y-77835119D02*
X88685416Y-78311309D01*
X88971130Y-77739880D02*
X87971130Y-78073214D01*
X88971130Y-78406547D01*
X88447321Y-79073214D02*
X88494940Y-79216071D01*
X88542559Y-79263690D01*
X88637797Y-79311309D01*
X88780654Y-79311309D01*
X88875892Y-79263690D01*
X88923511Y-79216071D01*
X88971130Y-79120833D01*
X88971130Y-78739880D01*
X87971130Y-78739880D01*
X87971130Y-79073214D01*
X88018750Y-79168452D01*
X88066369Y-79216071D01*
X88161607Y-79263690D01*
X88256845Y-79263690D01*
X88352083Y-79216071D01*
X88399702Y-79168452D01*
X88447321Y-79073214D01*
X88447321Y-78739880D01*
X88971130Y-80263690D02*
X88971130Y-79692261D01*
X88971130Y-79977976D02*
X87971130Y-79977976D01*
X88113988Y-79882738D01*
X88209226Y-79787500D01*
X88256845Y-79692261D01*
X227083630Y-76144642D02*
X226083630Y-76144642D01*
X226083630Y-76382738D01*
X226131250Y-76525595D01*
X226226488Y-76620833D01*
X226321726Y-76668452D01*
X226512202Y-76716071D01*
X226655059Y-76716071D01*
X226845535Y-76668452D01*
X226940773Y-76620833D01*
X227036011Y-76525595D01*
X227083630Y-76382738D01*
X227083630Y-76144642D01*
X227178869Y-76906547D02*
X227178869Y-77668452D01*
X226083630Y-77906547D02*
X226893154Y-77906547D01*
X226988392Y-77954166D01*
X227036011Y-78001785D01*
X227083630Y-78097023D01*
X227083630Y-78287500D01*
X227036011Y-78382738D01*
X226988392Y-78430357D01*
X226893154Y-78477976D01*
X226083630Y-78477976D01*
X227083630Y-79477976D02*
X227083630Y-78906547D01*
X227083630Y-79192261D02*
X226083630Y-79192261D01*
X226226488Y-79097023D01*
X226321726Y-79001785D01*
X226369345Y-78906547D01*
X184221130Y-114339880D02*
X183221130Y-114339880D01*
X183221130Y-114577976D01*
X183268750Y-114720833D01*
X183363988Y-114816071D01*
X183459226Y-114863690D01*
X183649702Y-114911309D01*
X183792559Y-114911309D01*
X183983035Y-114863690D01*
X184078273Y-114816071D01*
X184173511Y-114720833D01*
X184221130Y-114577976D01*
X184221130Y-114339880D01*
X184316369Y-115101785D02*
X184316369Y-115863690D01*
X183221130Y-115958928D02*
X184221130Y-116292261D01*
X183221130Y-116625595D01*
X184221130Y-117482738D02*
X184221130Y-116911309D01*
X184221130Y-117197023D02*
X183221130Y-117197023D01*
X183363988Y-117101785D01*
X183459226Y-117006547D01*
X183506845Y-116911309D01*
X131833630Y-76097023D02*
X130833630Y-76097023D01*
X130833630Y-76335119D01*
X130881250Y-76477976D01*
X130976488Y-76573214D01*
X131071726Y-76620833D01*
X131262202Y-76668452D01*
X131405059Y-76668452D01*
X131595535Y-76620833D01*
X131690773Y-76573214D01*
X131786011Y-76477976D01*
X131833630Y-76335119D01*
X131833630Y-76097023D01*
X131928869Y-76858928D02*
X131928869Y-77620833D01*
X130833630Y-77763690D02*
X131833630Y-78001785D01*
X131119345Y-78192261D01*
X131833630Y-78382738D01*
X130833630Y-78620833D01*
X131833630Y-79525595D02*
X131833630Y-78954166D01*
X131833630Y-79239880D02*
X130833630Y-79239880D01*
X130976488Y-79144642D01*
X131071726Y-79049404D01*
X131119345Y-78954166D01*
X312808630Y-132485119D02*
X311808630Y-132485119D01*
X311808630Y-132723214D01*
X311856250Y-132866071D01*
X311951488Y-132961309D01*
X312046726Y-133008928D01*
X312237202Y-133056547D01*
X312380059Y-133056547D01*
X312570535Y-133008928D01*
X312665773Y-132961309D01*
X312761011Y-132866071D01*
X312808630Y-132723214D01*
X312808630Y-132485119D01*
X312903869Y-133247023D02*
X312903869Y-134008928D01*
X311808630Y-134151785D02*
X312808630Y-134389880D01*
X312094345Y-134580357D01*
X312808630Y-134770833D01*
X311808630Y-135008928D01*
X312808630Y-135389880D02*
X311808630Y-135389880D01*
X312808630Y-135866071D02*
X311808630Y-135866071D01*
X312808630Y-136437500D01*
X311808630Y-136437500D01*
X312808630Y-137437500D02*
X312808630Y-136866071D01*
X312808630Y-137151785D02*
X311808630Y-137151785D01*
X311951488Y-137056547D01*
X312046726Y-136961309D01*
X312094345Y-136866071D01*
X112783630Y-132485119D02*
X111783630Y-132485119D01*
X111783630Y-132723214D01*
X111831250Y-132866071D01*
X111926488Y-132961309D01*
X112021726Y-133008928D01*
X112212202Y-133056547D01*
X112355059Y-133056547D01*
X112545535Y-133008928D01*
X112640773Y-132961309D01*
X112736011Y-132866071D01*
X112783630Y-132723214D01*
X112783630Y-132485119D01*
X112878869Y-133247023D02*
X112878869Y-134008928D01*
X111783630Y-134151785D02*
X112783630Y-134389880D01*
X112069345Y-134580357D01*
X112783630Y-134770833D01*
X111783630Y-135008928D01*
X112783630Y-135389880D02*
X111783630Y-135389880D01*
X112783630Y-135866071D02*
X111783630Y-135866071D01*
X112783630Y-136437500D01*
X111783630Y-136437500D01*
X111878869Y-136866071D02*
X111831250Y-136913690D01*
X111783630Y-137008928D01*
X111783630Y-137247023D01*
X111831250Y-137342261D01*
X111878869Y-137389880D01*
X111974107Y-137437500D01*
X112069345Y-137437500D01*
X112212202Y-137389880D01*
X112783630Y-136818452D01*
X112783630Y-137437500D01*
X146121130Y-114292261D02*
X145121130Y-114292261D01*
X145121130Y-114530357D01*
X145168750Y-114673214D01*
X145263988Y-114768452D01*
X145359226Y-114816071D01*
X145549702Y-114863690D01*
X145692559Y-114863690D01*
X145883035Y-114816071D01*
X145978273Y-114768452D01*
X146073511Y-114673214D01*
X146121130Y-114530357D01*
X146121130Y-114292261D01*
X146216369Y-115054166D02*
X146216369Y-115816071D01*
X145121130Y-115958928D02*
X146121130Y-116625595D01*
X145121130Y-116625595D02*
X146121130Y-115958928D01*
X146121130Y-117530357D02*
X146121130Y-116958928D01*
X146121130Y-117244642D02*
X145121130Y-117244642D01*
X145263988Y-117149404D01*
X145359226Y-117054166D01*
X145406845Y-116958928D01*
X208033630Y-76239880D02*
X207033630Y-76239880D01*
X207033630Y-76477976D01*
X207081250Y-76620833D01*
X207176488Y-76716071D01*
X207271726Y-76763690D01*
X207462202Y-76811309D01*
X207605059Y-76811309D01*
X207795535Y-76763690D01*
X207890773Y-76716071D01*
X207986011Y-76620833D01*
X208033630Y-76477976D01*
X208033630Y-76239880D01*
X208128869Y-77001785D02*
X208128869Y-77763690D01*
X207557440Y-78192261D02*
X208033630Y-78192261D01*
X207033630Y-77858928D02*
X207557440Y-78192261D01*
X207033630Y-78525595D01*
X208033630Y-79382738D02*
X208033630Y-78811309D01*
X208033630Y-79097023D02*
X207033630Y-79097023D01*
X207176488Y-79001785D01*
X207271726Y-78906547D01*
X207319345Y-78811309D01*
X127071130Y-114292261D02*
X126071130Y-114292261D01*
X126071130Y-114530357D01*
X126118750Y-114673214D01*
X126213988Y-114768452D01*
X126309226Y-114816071D01*
X126499702Y-114863690D01*
X126642559Y-114863690D01*
X126833035Y-114816071D01*
X126928273Y-114768452D01*
X127023511Y-114673214D01*
X127071130Y-114530357D01*
X127071130Y-114292261D01*
X127166369Y-115054166D02*
X127166369Y-115816071D01*
X126071130Y-115958928D02*
X126071130Y-116625595D01*
X127071130Y-115958928D01*
X127071130Y-116625595D01*
X127071130Y-117530357D02*
X127071130Y-116958928D01*
X127071130Y-117244642D02*
X126071130Y-117244642D01*
X126213988Y-117149404D01*
X126309226Y-117054166D01*
X126356845Y-116958928D01*
X53342321Y-60785416D02*
X53342321Y-60452083D01*
X53866130Y-60452083D02*
X52866130Y-60452083D01*
X52866130Y-60928273D01*
X53866130Y-61833035D02*
X53866130Y-61261607D01*
X53866130Y-61547321D02*
X52866130Y-61547321D01*
X53008988Y-61452083D01*
X53104226Y-61356845D01*
X53151845Y-61261607D01*
X53696130Y-126039583D02*
X53219940Y-125706250D01*
X53696130Y-125468154D02*
X52696130Y-125468154D01*
X52696130Y-125849107D01*
X52743750Y-125944345D01*
X52791369Y-125991964D01*
X52886607Y-126039583D01*
X53029464Y-126039583D01*
X53124702Y-125991964D01*
X53172321Y-125944345D01*
X53219940Y-125849107D01*
X53219940Y-125468154D01*
X53696130Y-126991964D02*
X53696130Y-126420535D01*
X53696130Y-126706250D02*
X52696130Y-126706250D01*
X52838988Y-126611011D01*
X52934226Y-126515773D01*
X52981845Y-126420535D01*
X73539880Y-139533333D02*
X73063690Y-139200000D01*
X73539880Y-138961904D02*
X72539880Y-138961904D01*
X72539880Y-139342857D01*
X72587500Y-139438095D01*
X72635119Y-139485714D01*
X72730357Y-139533333D01*
X72873214Y-139533333D01*
X72968452Y-139485714D01*
X73016071Y-139438095D01*
X73063690Y-139342857D01*
X73063690Y-138961904D01*
X72539880Y-140390476D02*
X72539880Y-140200000D01*
X72587500Y-140104761D01*
X72635119Y-140057142D01*
X72777976Y-139961904D01*
X72968452Y-139914285D01*
X73349404Y-139914285D01*
X73444642Y-139961904D01*
X73492261Y-140009523D01*
X73539880Y-140104761D01*
X73539880Y-140295238D01*
X73492261Y-140390476D01*
X73444642Y-140438095D01*
X73349404Y-140485714D01*
X73111309Y-140485714D01*
X73016071Y-140438095D01*
X72968452Y-140390476D01*
X72920833Y-140295238D01*
X72920833Y-140104761D01*
X72968452Y-140009523D01*
X73016071Y-139961904D01*
X73111309Y-139914285D01*
X56871130Y-60952083D02*
X56394940Y-60618750D01*
X56871130Y-60380654D02*
X55871130Y-60380654D01*
X55871130Y-60761607D01*
X55918750Y-60856845D01*
X55966369Y-60904464D01*
X56061607Y-60952083D01*
X56204464Y-60952083D01*
X56299702Y-60904464D01*
X56347321Y-60856845D01*
X56394940Y-60761607D01*
X56394940Y-60380654D01*
X55871130Y-61285416D02*
X55871130Y-61952083D01*
X56871130Y-61523511D01*
X60046130Y-60952083D02*
X59569940Y-60618750D01*
X60046130Y-60380654D02*
X59046130Y-60380654D01*
X59046130Y-60761607D01*
X59093750Y-60856845D01*
X59141369Y-60904464D01*
X59236607Y-60952083D01*
X59379464Y-60952083D01*
X59474702Y-60904464D01*
X59522321Y-60856845D01*
X59569940Y-60761607D01*
X59569940Y-60380654D01*
X59474702Y-61523511D02*
X59427083Y-61428273D01*
X59379464Y-61380654D01*
X59284226Y-61333035D01*
X59236607Y-61333035D01*
X59141369Y-61380654D01*
X59093750Y-61428273D01*
X59046130Y-61523511D01*
X59046130Y-61713988D01*
X59093750Y-61809226D01*
X59141369Y-61856845D01*
X59236607Y-61904464D01*
X59284226Y-61904464D01*
X59379464Y-61856845D01*
X59427083Y-61809226D01*
X59474702Y-61713988D01*
X59474702Y-61523511D01*
X59522321Y-61428273D01*
X59569940Y-61380654D01*
X59665178Y-61333035D01*
X59855654Y-61333035D01*
X59950892Y-61380654D01*
X59998511Y-61428273D01*
X60046130Y-61523511D01*
X60046130Y-61713988D01*
X59998511Y-61809226D01*
X59950892Y-61856845D01*
X59855654Y-61904464D01*
X59665178Y-61904464D01*
X59569940Y-61856845D01*
X59522321Y-61809226D01*
X59474702Y-61713988D01*
X62674404Y-141839880D02*
X62674404Y-142649404D01*
X62626785Y-142744642D01*
X62579166Y-142792261D01*
X62483928Y-142839880D01*
X62293452Y-142839880D01*
X62198214Y-142792261D01*
X62150595Y-142744642D01*
X62102976Y-142649404D01*
X62102976Y-141839880D01*
X61674404Y-141935119D02*
X61626785Y-141887500D01*
X61531547Y-141839880D01*
X61293452Y-141839880D01*
X61198214Y-141887500D01*
X61150595Y-141935119D01*
X61102976Y-142030357D01*
X61102976Y-142125595D01*
X61150595Y-142268452D01*
X61722023Y-142839880D01*
X61102976Y-142839880D01*
X56538095Y-50064380D02*
X56538095Y-50873904D01*
X56490476Y-50969142D01*
X56442857Y-51016761D01*
X56347619Y-51064380D01*
X56157142Y-51064380D01*
X56061904Y-51016761D01*
X56014285Y-50969142D01*
X55966666Y-50873904D01*
X55966666Y-50064380D01*
X55538095Y-51016761D02*
X55395238Y-51064380D01*
X55157142Y-51064380D01*
X55061904Y-51016761D01*
X55014285Y-50969142D01*
X54966666Y-50873904D01*
X54966666Y-50778666D01*
X55014285Y-50683428D01*
X55061904Y-50635809D01*
X55157142Y-50588190D01*
X55347619Y-50540571D01*
X55442857Y-50492952D01*
X55490476Y-50445333D01*
X55538095Y-50350095D01*
X55538095Y-50254857D01*
X55490476Y-50159619D01*
X55442857Y-50112000D01*
X55347619Y-50064380D01*
X55109523Y-50064380D01*
X54966666Y-50112000D01*
X54204761Y-50540571D02*
X54061904Y-50588190D01*
X54014285Y-50635809D01*
X53966666Y-50731047D01*
X53966666Y-50873904D01*
X54014285Y-50969142D01*
X54061904Y-51016761D01*
X54157142Y-51064380D01*
X54538095Y-51064380D01*
X54538095Y-50064380D01*
X54204761Y-50064380D01*
X54109523Y-50112000D01*
X54061904Y-50159619D01*
X54014285Y-50254857D01*
X54014285Y-50350095D01*
X54061904Y-50445333D01*
X54109523Y-50492952D01*
X54204761Y-50540571D01*
X54538095Y-50540571D01*
X53585714Y-50159619D02*
X53538095Y-50112000D01*
X53442857Y-50064380D01*
X53204761Y-50064380D01*
X53109523Y-50112000D01*
X53061904Y-50159619D01*
X53014285Y-50254857D01*
X53014285Y-50350095D01*
X53061904Y-50492952D01*
X53633333Y-51064380D01*
X53014285Y-51064380D01*
X62722023Y-117302380D02*
X62055357Y-118302380D01*
X62055357Y-117302380D02*
X62722023Y-118302380D01*
X61722023Y-117397619D02*
X61674404Y-117350000D01*
X61579166Y-117302380D01*
X61341071Y-117302380D01*
X61245833Y-117350000D01*
X61198214Y-117397619D01*
X61150595Y-117492857D01*
X61150595Y-117588095D01*
X61198214Y-117730952D01*
X61769642Y-118302380D01*
X61150595Y-118302380D01*
%LPC*%
D12*
X86781250Y-131837500D03*
X83081250Y-138037500D03*
X83081250Y-131837500D03*
X86781250Y-138037500D03*
D13*
X83482500Y-92047500D03*
D14*
X83462500Y-92337500D02*
X83502500Y-91757500D01*
D13*
X83502500Y-91757500D03*
X77807501Y-93567500D03*
D14*
X77152500Y-94297500D02*
X78462502Y-92837500D01*
D15*
X80962500Y-96837500D03*
D13*
X78462500Y-92837500D03*
D16*
X75882500Y-96837500D03*
X86042500Y-96837500D03*
D17*
G36*
X67183141Y-119175297D02*
G01*
X67209278Y-119179174D01*
X67234909Y-119185594D01*
X67259788Y-119194495D01*
X67283674Y-119205793D01*
X67306337Y-119219377D01*
X67327560Y-119235117D01*
X67347139Y-119252861D01*
X67364883Y-119272440D01*
X67380623Y-119293663D01*
X67394207Y-119316326D01*
X67405505Y-119340212D01*
X67414406Y-119365091D01*
X67420826Y-119390722D01*
X67424703Y-119416859D01*
X67426000Y-119443250D01*
X67426000Y-119981750D01*
X67424703Y-120008141D01*
X67420826Y-120034278D01*
X67414406Y-120059909D01*
X67405505Y-120084788D01*
X67394207Y-120108674D01*
X67380623Y-120131337D01*
X67364883Y-120152560D01*
X67347139Y-120172139D01*
X67327560Y-120189883D01*
X67306337Y-120205623D01*
X67283674Y-120219207D01*
X67259788Y-120230505D01*
X67234909Y-120239406D01*
X67209278Y-120245826D01*
X67183141Y-120249703D01*
X67156750Y-120251000D01*
X66193250Y-120251000D01*
X66166859Y-120249703D01*
X66140722Y-120245826D01*
X66115091Y-120239406D01*
X66090212Y-120230505D01*
X66066326Y-120219207D01*
X66043663Y-120205623D01*
X66022440Y-120189883D01*
X66002861Y-120172139D01*
X65985117Y-120152560D01*
X65969377Y-120131337D01*
X65955793Y-120108674D01*
X65944495Y-120084788D01*
X65935594Y-120059909D01*
X65929174Y-120034278D01*
X65925297Y-120008141D01*
X65924000Y-119981750D01*
X65924000Y-119443250D01*
X65925297Y-119416859D01*
X65929174Y-119390722D01*
X65935594Y-119365091D01*
X65944495Y-119340212D01*
X65955793Y-119316326D01*
X65969377Y-119293663D01*
X65985117Y-119272440D01*
X66002861Y-119252861D01*
X66022440Y-119235117D01*
X66043663Y-119219377D01*
X66066326Y-119205793D01*
X66090212Y-119194495D01*
X66115091Y-119185594D01*
X66140722Y-119179174D01*
X66166859Y-119175297D01*
X66193250Y-119174000D01*
X67156750Y-119174000D01*
X67183141Y-119175297D01*
X67183141Y-119175297D01*
G37*
D18*
X66675000Y-119712500D03*
D17*
G36*
X67183141Y-121050297D02*
G01*
X67209278Y-121054174D01*
X67234909Y-121060594D01*
X67259788Y-121069495D01*
X67283674Y-121080793D01*
X67306337Y-121094377D01*
X67327560Y-121110117D01*
X67347139Y-121127861D01*
X67364883Y-121147440D01*
X67380623Y-121168663D01*
X67394207Y-121191326D01*
X67405505Y-121215212D01*
X67414406Y-121240091D01*
X67420826Y-121265722D01*
X67424703Y-121291859D01*
X67426000Y-121318250D01*
X67426000Y-121856750D01*
X67424703Y-121883141D01*
X67420826Y-121909278D01*
X67414406Y-121934909D01*
X67405505Y-121959788D01*
X67394207Y-121983674D01*
X67380623Y-122006337D01*
X67364883Y-122027560D01*
X67347139Y-122047139D01*
X67327560Y-122064883D01*
X67306337Y-122080623D01*
X67283674Y-122094207D01*
X67259788Y-122105505D01*
X67234909Y-122114406D01*
X67209278Y-122120826D01*
X67183141Y-122124703D01*
X67156750Y-122126000D01*
X66193250Y-122126000D01*
X66166859Y-122124703D01*
X66140722Y-122120826D01*
X66115091Y-122114406D01*
X66090212Y-122105505D01*
X66066326Y-122094207D01*
X66043663Y-122080623D01*
X66022440Y-122064883D01*
X66002861Y-122047139D01*
X65985117Y-122027560D01*
X65969377Y-122006337D01*
X65955793Y-121983674D01*
X65944495Y-121959788D01*
X65935594Y-121934909D01*
X65929174Y-121909278D01*
X65925297Y-121883141D01*
X65924000Y-121856750D01*
X65924000Y-121318250D01*
X65925297Y-121291859D01*
X65929174Y-121265722D01*
X65935594Y-121240091D01*
X65944495Y-121215212D01*
X65955793Y-121191326D01*
X65969377Y-121168663D01*
X65985117Y-121147440D01*
X66002861Y-121127861D01*
X66022440Y-121110117D01*
X66043663Y-121094377D01*
X66066326Y-121080793D01*
X66090212Y-121069495D01*
X66115091Y-121060594D01*
X66140722Y-121054174D01*
X66166859Y-121050297D01*
X66193250Y-121049000D01*
X67156750Y-121049000D01*
X67183141Y-121050297D01*
X67183141Y-121050297D01*
G37*
D18*
X66675000Y-121587500D03*
D17*
G36*
X57658141Y-119175297D02*
G01*
X57684278Y-119179174D01*
X57709909Y-119185594D01*
X57734788Y-119194495D01*
X57758674Y-119205793D01*
X57781337Y-119219377D01*
X57802560Y-119235117D01*
X57822139Y-119252861D01*
X57839883Y-119272440D01*
X57855623Y-119293663D01*
X57869207Y-119316326D01*
X57880505Y-119340212D01*
X57889406Y-119365091D01*
X57895826Y-119390722D01*
X57899703Y-119416859D01*
X57901000Y-119443250D01*
X57901000Y-119981750D01*
X57899703Y-120008141D01*
X57895826Y-120034278D01*
X57889406Y-120059909D01*
X57880505Y-120084788D01*
X57869207Y-120108674D01*
X57855623Y-120131337D01*
X57839883Y-120152560D01*
X57822139Y-120172139D01*
X57802560Y-120189883D01*
X57781337Y-120205623D01*
X57758674Y-120219207D01*
X57734788Y-120230505D01*
X57709909Y-120239406D01*
X57684278Y-120245826D01*
X57658141Y-120249703D01*
X57631750Y-120251000D01*
X56668250Y-120251000D01*
X56641859Y-120249703D01*
X56615722Y-120245826D01*
X56590091Y-120239406D01*
X56565212Y-120230505D01*
X56541326Y-120219207D01*
X56518663Y-120205623D01*
X56497440Y-120189883D01*
X56477861Y-120172139D01*
X56460117Y-120152560D01*
X56444377Y-120131337D01*
X56430793Y-120108674D01*
X56419495Y-120084788D01*
X56410594Y-120059909D01*
X56404174Y-120034278D01*
X56400297Y-120008141D01*
X56399000Y-119981750D01*
X56399000Y-119443250D01*
X56400297Y-119416859D01*
X56404174Y-119390722D01*
X56410594Y-119365091D01*
X56419495Y-119340212D01*
X56430793Y-119316326D01*
X56444377Y-119293663D01*
X56460117Y-119272440D01*
X56477861Y-119252861D01*
X56497440Y-119235117D01*
X56518663Y-119219377D01*
X56541326Y-119205793D01*
X56565212Y-119194495D01*
X56590091Y-119185594D01*
X56615722Y-119179174D01*
X56641859Y-119175297D01*
X56668250Y-119174000D01*
X57631750Y-119174000D01*
X57658141Y-119175297D01*
X57658141Y-119175297D01*
G37*
D18*
X57150000Y-119712500D03*
D17*
G36*
X57658141Y-121050297D02*
G01*
X57684278Y-121054174D01*
X57709909Y-121060594D01*
X57734788Y-121069495D01*
X57758674Y-121080793D01*
X57781337Y-121094377D01*
X57802560Y-121110117D01*
X57822139Y-121127861D01*
X57839883Y-121147440D01*
X57855623Y-121168663D01*
X57869207Y-121191326D01*
X57880505Y-121215212D01*
X57889406Y-121240091D01*
X57895826Y-121265722D01*
X57899703Y-121291859D01*
X57901000Y-121318250D01*
X57901000Y-121856750D01*
X57899703Y-121883141D01*
X57895826Y-121909278D01*
X57889406Y-121934909D01*
X57880505Y-121959788D01*
X57869207Y-121983674D01*
X57855623Y-122006337D01*
X57839883Y-122027560D01*
X57822139Y-122047139D01*
X57802560Y-122064883D01*
X57781337Y-122080623D01*
X57758674Y-122094207D01*
X57734788Y-122105505D01*
X57709909Y-122114406D01*
X57684278Y-122120826D01*
X57658141Y-122124703D01*
X57631750Y-122126000D01*
X56668250Y-122126000D01*
X56641859Y-122124703D01*
X56615722Y-122120826D01*
X56590091Y-122114406D01*
X56565212Y-122105505D01*
X56541326Y-122094207D01*
X56518663Y-122080623D01*
X56497440Y-122064883D01*
X56477861Y-122047139D01*
X56460117Y-122027560D01*
X56444377Y-122006337D01*
X56430793Y-121983674D01*
X56419495Y-121959788D01*
X56410594Y-121934909D01*
X56404174Y-121909278D01*
X56400297Y-121883141D01*
X56399000Y-121856750D01*
X56399000Y-121318250D01*
X56400297Y-121291859D01*
X56404174Y-121265722D01*
X56410594Y-121240091D01*
X56419495Y-121215212D01*
X56430793Y-121191326D01*
X56444377Y-121168663D01*
X56460117Y-121147440D01*
X56477861Y-121127861D01*
X56497440Y-121110117D01*
X56518663Y-121094377D01*
X56541326Y-121080793D01*
X56565212Y-121069495D01*
X56590091Y-121060594D01*
X56615722Y-121054174D01*
X56641859Y-121050297D01*
X56668250Y-121049000D01*
X57631750Y-121049000D01*
X57658141Y-121050297D01*
X57658141Y-121050297D01*
G37*
D18*
X57150000Y-121587500D03*
D17*
G36*
X51745641Y-132600297D02*
G01*
X51771778Y-132604174D01*
X51797409Y-132610594D01*
X51822288Y-132619495D01*
X51846174Y-132630793D01*
X51868837Y-132644377D01*
X51890060Y-132660117D01*
X51909639Y-132677861D01*
X51927383Y-132697440D01*
X51943123Y-132718663D01*
X51956707Y-132741326D01*
X51968005Y-132765212D01*
X51976906Y-132790091D01*
X51983326Y-132815722D01*
X51987203Y-132841859D01*
X51988500Y-132868250D01*
X51988500Y-133831750D01*
X51987203Y-133858141D01*
X51983326Y-133884278D01*
X51976906Y-133909909D01*
X51968005Y-133934788D01*
X51956707Y-133958674D01*
X51943123Y-133981337D01*
X51927383Y-134002560D01*
X51909639Y-134022139D01*
X51890060Y-134039883D01*
X51868837Y-134055623D01*
X51846174Y-134069207D01*
X51822288Y-134080505D01*
X51797409Y-134089406D01*
X51771778Y-134095826D01*
X51745641Y-134099703D01*
X51719250Y-134101000D01*
X51180750Y-134101000D01*
X51154359Y-134099703D01*
X51128222Y-134095826D01*
X51102591Y-134089406D01*
X51077712Y-134080505D01*
X51053826Y-134069207D01*
X51031163Y-134055623D01*
X51009940Y-134039883D01*
X50990361Y-134022139D01*
X50972617Y-134002560D01*
X50956877Y-133981337D01*
X50943293Y-133958674D01*
X50931995Y-133934788D01*
X50923094Y-133909909D01*
X50916674Y-133884278D01*
X50912797Y-133858141D01*
X50911500Y-133831750D01*
X50911500Y-132868250D01*
X50912797Y-132841859D01*
X50916674Y-132815722D01*
X50923094Y-132790091D01*
X50931995Y-132765212D01*
X50943293Y-132741326D01*
X50956877Y-132718663D01*
X50972617Y-132697440D01*
X50990361Y-132677861D01*
X51009940Y-132660117D01*
X51031163Y-132644377D01*
X51053826Y-132630793D01*
X51077712Y-132619495D01*
X51102591Y-132610594D01*
X51128222Y-132604174D01*
X51154359Y-132600297D01*
X51180750Y-132599000D01*
X51719250Y-132599000D01*
X51745641Y-132600297D01*
X51745641Y-132600297D01*
G37*
D18*
X51450000Y-133350000D03*
D17*
G36*
X53620641Y-132600297D02*
G01*
X53646778Y-132604174D01*
X53672409Y-132610594D01*
X53697288Y-132619495D01*
X53721174Y-132630793D01*
X53743837Y-132644377D01*
X53765060Y-132660117D01*
X53784639Y-132677861D01*
X53802383Y-132697440D01*
X53818123Y-132718663D01*
X53831707Y-132741326D01*
X53843005Y-132765212D01*
X53851906Y-132790091D01*
X53858326Y-132815722D01*
X53862203Y-132841859D01*
X53863500Y-132868250D01*
X53863500Y-133831750D01*
X53862203Y-133858141D01*
X53858326Y-133884278D01*
X53851906Y-133909909D01*
X53843005Y-133934788D01*
X53831707Y-133958674D01*
X53818123Y-133981337D01*
X53802383Y-134002560D01*
X53784639Y-134022139D01*
X53765060Y-134039883D01*
X53743837Y-134055623D01*
X53721174Y-134069207D01*
X53697288Y-134080505D01*
X53672409Y-134089406D01*
X53646778Y-134095826D01*
X53620641Y-134099703D01*
X53594250Y-134101000D01*
X53055750Y-134101000D01*
X53029359Y-134099703D01*
X53003222Y-134095826D01*
X52977591Y-134089406D01*
X52952712Y-134080505D01*
X52928826Y-134069207D01*
X52906163Y-134055623D01*
X52884940Y-134039883D01*
X52865361Y-134022139D01*
X52847617Y-134002560D01*
X52831877Y-133981337D01*
X52818293Y-133958674D01*
X52806995Y-133934788D01*
X52798094Y-133909909D01*
X52791674Y-133884278D01*
X52787797Y-133858141D01*
X52786500Y-133831750D01*
X52786500Y-132868250D01*
X52787797Y-132841859D01*
X52791674Y-132815722D01*
X52798094Y-132790091D01*
X52806995Y-132765212D01*
X52818293Y-132741326D01*
X52831877Y-132718663D01*
X52847617Y-132697440D01*
X52865361Y-132677861D01*
X52884940Y-132660117D01*
X52906163Y-132644377D01*
X52928826Y-132630793D01*
X52952712Y-132619495D01*
X52977591Y-132610594D01*
X53003222Y-132604174D01*
X53029359Y-132600297D01*
X53055750Y-132599000D01*
X53594250Y-132599000D01*
X53620641Y-132600297D01*
X53620641Y-132600297D01*
G37*
D18*
X53325000Y-133350000D03*
D17*
G36*
X55276891Y-126606547D02*
G01*
X55303028Y-126610424D01*
X55328659Y-126616844D01*
X55353538Y-126625745D01*
X55377424Y-126637043D01*
X55400087Y-126650627D01*
X55421310Y-126666367D01*
X55440889Y-126684111D01*
X55458633Y-126703690D01*
X55474373Y-126724913D01*
X55487957Y-126747576D01*
X55499255Y-126771462D01*
X55508156Y-126796341D01*
X55514576Y-126821972D01*
X55518453Y-126848109D01*
X55519750Y-126874500D01*
X55519750Y-127413000D01*
X55518453Y-127439391D01*
X55514576Y-127465528D01*
X55508156Y-127491159D01*
X55499255Y-127516038D01*
X55487957Y-127539924D01*
X55474373Y-127562587D01*
X55458633Y-127583810D01*
X55440889Y-127603389D01*
X55421310Y-127621133D01*
X55400087Y-127636873D01*
X55377424Y-127650457D01*
X55353538Y-127661755D01*
X55328659Y-127670656D01*
X55303028Y-127677076D01*
X55276891Y-127680953D01*
X55250500Y-127682250D01*
X54287000Y-127682250D01*
X54260609Y-127680953D01*
X54234472Y-127677076D01*
X54208841Y-127670656D01*
X54183962Y-127661755D01*
X54160076Y-127650457D01*
X54137413Y-127636873D01*
X54116190Y-127621133D01*
X54096611Y-127603389D01*
X54078867Y-127583810D01*
X54063127Y-127562587D01*
X54049543Y-127539924D01*
X54038245Y-127516038D01*
X54029344Y-127491159D01*
X54022924Y-127465528D01*
X54019047Y-127439391D01*
X54017750Y-127413000D01*
X54017750Y-126874500D01*
X54019047Y-126848109D01*
X54022924Y-126821972D01*
X54029344Y-126796341D01*
X54038245Y-126771462D01*
X54049543Y-126747576D01*
X54063127Y-126724913D01*
X54078867Y-126703690D01*
X54096611Y-126684111D01*
X54116190Y-126666367D01*
X54137413Y-126650627D01*
X54160076Y-126637043D01*
X54183962Y-126625745D01*
X54208841Y-126616844D01*
X54234472Y-126610424D01*
X54260609Y-126606547D01*
X54287000Y-126605250D01*
X55250500Y-126605250D01*
X55276891Y-126606547D01*
X55276891Y-126606547D01*
G37*
D18*
X54768750Y-127143750D03*
D17*
G36*
X55276891Y-124731547D02*
G01*
X55303028Y-124735424D01*
X55328659Y-124741844D01*
X55353538Y-124750745D01*
X55377424Y-124762043D01*
X55400087Y-124775627D01*
X55421310Y-124791367D01*
X55440889Y-124809111D01*
X55458633Y-124828690D01*
X55474373Y-124849913D01*
X55487957Y-124872576D01*
X55499255Y-124896462D01*
X55508156Y-124921341D01*
X55514576Y-124946972D01*
X55518453Y-124973109D01*
X55519750Y-124999500D01*
X55519750Y-125538000D01*
X55518453Y-125564391D01*
X55514576Y-125590528D01*
X55508156Y-125616159D01*
X55499255Y-125641038D01*
X55487957Y-125664924D01*
X55474373Y-125687587D01*
X55458633Y-125708810D01*
X55440889Y-125728389D01*
X55421310Y-125746133D01*
X55400087Y-125761873D01*
X55377424Y-125775457D01*
X55353538Y-125786755D01*
X55328659Y-125795656D01*
X55303028Y-125802076D01*
X55276891Y-125805953D01*
X55250500Y-125807250D01*
X54287000Y-125807250D01*
X54260609Y-125805953D01*
X54234472Y-125802076D01*
X54208841Y-125795656D01*
X54183962Y-125786755D01*
X54160076Y-125775457D01*
X54137413Y-125761873D01*
X54116190Y-125746133D01*
X54096611Y-125728389D01*
X54078867Y-125708810D01*
X54063127Y-125687587D01*
X54049543Y-125664924D01*
X54038245Y-125641038D01*
X54029344Y-125616159D01*
X54022924Y-125590528D01*
X54019047Y-125564391D01*
X54017750Y-125538000D01*
X54017750Y-124999500D01*
X54019047Y-124973109D01*
X54022924Y-124946972D01*
X54029344Y-124921341D01*
X54038245Y-124896462D01*
X54049543Y-124872576D01*
X54063127Y-124849913D01*
X54078867Y-124828690D01*
X54096611Y-124809111D01*
X54116190Y-124791367D01*
X54137413Y-124775627D01*
X54160076Y-124762043D01*
X54183962Y-124750745D01*
X54208841Y-124741844D01*
X54234472Y-124735424D01*
X54260609Y-124731547D01*
X54287000Y-124730250D01*
X55250500Y-124730250D01*
X55276891Y-124731547D01*
X55276891Y-124731547D01*
G37*
D18*
X54768750Y-125268750D03*
D17*
G36*
X71151891Y-128700297D02*
G01*
X71178028Y-128704174D01*
X71203659Y-128710594D01*
X71228538Y-128719495D01*
X71252424Y-128730793D01*
X71275087Y-128744377D01*
X71296310Y-128760117D01*
X71315889Y-128777861D01*
X71333633Y-128797440D01*
X71349373Y-128818663D01*
X71362957Y-128841326D01*
X71374255Y-128865212D01*
X71383156Y-128890091D01*
X71389576Y-128915722D01*
X71393453Y-128941859D01*
X71394750Y-128968250D01*
X71394750Y-129506750D01*
X71393453Y-129533141D01*
X71389576Y-129559278D01*
X71383156Y-129584909D01*
X71374255Y-129609788D01*
X71362957Y-129633674D01*
X71349373Y-129656337D01*
X71333633Y-129677560D01*
X71315889Y-129697139D01*
X71296310Y-129714883D01*
X71275087Y-129730623D01*
X71252424Y-129744207D01*
X71228538Y-129755505D01*
X71203659Y-129764406D01*
X71178028Y-129770826D01*
X71151891Y-129774703D01*
X71125500Y-129776000D01*
X70162000Y-129776000D01*
X70135609Y-129774703D01*
X70109472Y-129770826D01*
X70083841Y-129764406D01*
X70058962Y-129755505D01*
X70035076Y-129744207D01*
X70012413Y-129730623D01*
X69991190Y-129714883D01*
X69971611Y-129697139D01*
X69953867Y-129677560D01*
X69938127Y-129656337D01*
X69924543Y-129633674D01*
X69913245Y-129609788D01*
X69904344Y-129584909D01*
X69897924Y-129559278D01*
X69894047Y-129533141D01*
X69892750Y-129506750D01*
X69892750Y-128968250D01*
X69894047Y-128941859D01*
X69897924Y-128915722D01*
X69904344Y-128890091D01*
X69913245Y-128865212D01*
X69924543Y-128841326D01*
X69938127Y-128818663D01*
X69953867Y-128797440D01*
X69971611Y-128777861D01*
X69991190Y-128760117D01*
X70012413Y-128744377D01*
X70035076Y-128730793D01*
X70058962Y-128719495D01*
X70083841Y-128710594D01*
X70109472Y-128704174D01*
X70135609Y-128700297D01*
X70162000Y-128699000D01*
X71125500Y-128699000D01*
X71151891Y-128700297D01*
X71151891Y-128700297D01*
G37*
D18*
X70643750Y-129237500D03*
D17*
G36*
X71151891Y-130575297D02*
G01*
X71178028Y-130579174D01*
X71203659Y-130585594D01*
X71228538Y-130594495D01*
X71252424Y-130605793D01*
X71275087Y-130619377D01*
X71296310Y-130635117D01*
X71315889Y-130652861D01*
X71333633Y-130672440D01*
X71349373Y-130693663D01*
X71362957Y-130716326D01*
X71374255Y-130740212D01*
X71383156Y-130765091D01*
X71389576Y-130790722D01*
X71393453Y-130816859D01*
X71394750Y-130843250D01*
X71394750Y-131381750D01*
X71393453Y-131408141D01*
X71389576Y-131434278D01*
X71383156Y-131459909D01*
X71374255Y-131484788D01*
X71362957Y-131508674D01*
X71349373Y-131531337D01*
X71333633Y-131552560D01*
X71315889Y-131572139D01*
X71296310Y-131589883D01*
X71275087Y-131605623D01*
X71252424Y-131619207D01*
X71228538Y-131630505D01*
X71203659Y-131639406D01*
X71178028Y-131645826D01*
X71151891Y-131649703D01*
X71125500Y-131651000D01*
X70162000Y-131651000D01*
X70135609Y-131649703D01*
X70109472Y-131645826D01*
X70083841Y-131639406D01*
X70058962Y-131630505D01*
X70035076Y-131619207D01*
X70012413Y-131605623D01*
X69991190Y-131589883D01*
X69971611Y-131572139D01*
X69953867Y-131552560D01*
X69938127Y-131531337D01*
X69924543Y-131508674D01*
X69913245Y-131484788D01*
X69904344Y-131459909D01*
X69897924Y-131434278D01*
X69894047Y-131408141D01*
X69892750Y-131381750D01*
X69892750Y-130843250D01*
X69894047Y-130816859D01*
X69897924Y-130790722D01*
X69904344Y-130765091D01*
X69913245Y-130740212D01*
X69924543Y-130716326D01*
X69938127Y-130693663D01*
X69953867Y-130672440D01*
X69971611Y-130652861D01*
X69991190Y-130635117D01*
X70012413Y-130619377D01*
X70035076Y-130605793D01*
X70058962Y-130594495D01*
X70083841Y-130585594D01*
X70109472Y-130579174D01*
X70135609Y-130575297D01*
X70162000Y-130574000D01*
X71125500Y-130574000D01*
X71151891Y-130575297D01*
X71151891Y-130575297D01*
G37*
D18*
X70643750Y-131112500D03*
D17*
G36*
X66033141Y-142125297D02*
G01*
X66059278Y-142129174D01*
X66084909Y-142135594D01*
X66109788Y-142144495D01*
X66133674Y-142155793D01*
X66156337Y-142169377D01*
X66177560Y-142185117D01*
X66197139Y-142202861D01*
X66214883Y-142222440D01*
X66230623Y-142243663D01*
X66244207Y-142266326D01*
X66255505Y-142290212D01*
X66264406Y-142315091D01*
X66270826Y-142340722D01*
X66274703Y-142366859D01*
X66276000Y-142393250D01*
X66276000Y-143356750D01*
X66274703Y-143383141D01*
X66270826Y-143409278D01*
X66264406Y-143434909D01*
X66255505Y-143459788D01*
X66244207Y-143483674D01*
X66230623Y-143506337D01*
X66214883Y-143527560D01*
X66197139Y-143547139D01*
X66177560Y-143564883D01*
X66156337Y-143580623D01*
X66133674Y-143594207D01*
X66109788Y-143605505D01*
X66084909Y-143614406D01*
X66059278Y-143620826D01*
X66033141Y-143624703D01*
X66006750Y-143626000D01*
X65468250Y-143626000D01*
X65441859Y-143624703D01*
X65415722Y-143620826D01*
X65390091Y-143614406D01*
X65365212Y-143605505D01*
X65341326Y-143594207D01*
X65318663Y-143580623D01*
X65297440Y-143564883D01*
X65277861Y-143547139D01*
X65260117Y-143527560D01*
X65244377Y-143506337D01*
X65230793Y-143483674D01*
X65219495Y-143459788D01*
X65210594Y-143434909D01*
X65204174Y-143409278D01*
X65200297Y-143383141D01*
X65199000Y-143356750D01*
X65199000Y-142393250D01*
X65200297Y-142366859D01*
X65204174Y-142340722D01*
X65210594Y-142315091D01*
X65219495Y-142290212D01*
X65230793Y-142266326D01*
X65244377Y-142243663D01*
X65260117Y-142222440D01*
X65277861Y-142202861D01*
X65297440Y-142185117D01*
X65318663Y-142169377D01*
X65341326Y-142155793D01*
X65365212Y-142144495D01*
X65390091Y-142135594D01*
X65415722Y-142129174D01*
X65441859Y-142125297D01*
X65468250Y-142124000D01*
X66006750Y-142124000D01*
X66033141Y-142125297D01*
X66033141Y-142125297D01*
G37*
D18*
X65737500Y-142875000D03*
D17*
G36*
X67908141Y-142125297D02*
G01*
X67934278Y-142129174D01*
X67959909Y-142135594D01*
X67984788Y-142144495D01*
X68008674Y-142155793D01*
X68031337Y-142169377D01*
X68052560Y-142185117D01*
X68072139Y-142202861D01*
X68089883Y-142222440D01*
X68105623Y-142243663D01*
X68119207Y-142266326D01*
X68130505Y-142290212D01*
X68139406Y-142315091D01*
X68145826Y-142340722D01*
X68149703Y-142366859D01*
X68151000Y-142393250D01*
X68151000Y-143356750D01*
X68149703Y-143383141D01*
X68145826Y-143409278D01*
X68139406Y-143434909D01*
X68130505Y-143459788D01*
X68119207Y-143483674D01*
X68105623Y-143506337D01*
X68089883Y-143527560D01*
X68072139Y-143547139D01*
X68052560Y-143564883D01*
X68031337Y-143580623D01*
X68008674Y-143594207D01*
X67984788Y-143605505D01*
X67959909Y-143614406D01*
X67934278Y-143620826D01*
X67908141Y-143624703D01*
X67881750Y-143626000D01*
X67343250Y-143626000D01*
X67316859Y-143624703D01*
X67290722Y-143620826D01*
X67265091Y-143614406D01*
X67240212Y-143605505D01*
X67216326Y-143594207D01*
X67193663Y-143580623D01*
X67172440Y-143564883D01*
X67152861Y-143547139D01*
X67135117Y-143527560D01*
X67119377Y-143506337D01*
X67105793Y-143483674D01*
X67094495Y-143459788D01*
X67085594Y-143434909D01*
X67079174Y-143409278D01*
X67075297Y-143383141D01*
X67074000Y-143356750D01*
X67074000Y-142393250D01*
X67075297Y-142366859D01*
X67079174Y-142340722D01*
X67085594Y-142315091D01*
X67094495Y-142290212D01*
X67105793Y-142266326D01*
X67119377Y-142243663D01*
X67135117Y-142222440D01*
X67152861Y-142202861D01*
X67172440Y-142185117D01*
X67193663Y-142169377D01*
X67216326Y-142155793D01*
X67240212Y-142144495D01*
X67265091Y-142135594D01*
X67290722Y-142129174D01*
X67316859Y-142125297D01*
X67343250Y-142124000D01*
X67881750Y-142124000D01*
X67908141Y-142125297D01*
X67908141Y-142125297D01*
G37*
D18*
X67612500Y-142875000D03*
D17*
G36*
X53689391Y-141037797D02*
G01*
X53715528Y-141041674D01*
X53741159Y-141048094D01*
X53766038Y-141056995D01*
X53789924Y-141068293D01*
X53812587Y-141081877D01*
X53833810Y-141097617D01*
X53853389Y-141115361D01*
X53871133Y-141134940D01*
X53886873Y-141156163D01*
X53900457Y-141178826D01*
X53911755Y-141202712D01*
X53920656Y-141227591D01*
X53927076Y-141253222D01*
X53930953Y-141279359D01*
X53932250Y-141305750D01*
X53932250Y-141844250D01*
X53930953Y-141870641D01*
X53927076Y-141896778D01*
X53920656Y-141922409D01*
X53911755Y-141947288D01*
X53900457Y-141971174D01*
X53886873Y-141993837D01*
X53871133Y-142015060D01*
X53853389Y-142034639D01*
X53833810Y-142052383D01*
X53812587Y-142068123D01*
X53789924Y-142081707D01*
X53766038Y-142093005D01*
X53741159Y-142101906D01*
X53715528Y-142108326D01*
X53689391Y-142112203D01*
X53663000Y-142113500D01*
X52699500Y-142113500D01*
X52673109Y-142112203D01*
X52646972Y-142108326D01*
X52621341Y-142101906D01*
X52596462Y-142093005D01*
X52572576Y-142081707D01*
X52549913Y-142068123D01*
X52528690Y-142052383D01*
X52509111Y-142034639D01*
X52491367Y-142015060D01*
X52475627Y-141993837D01*
X52462043Y-141971174D01*
X52450745Y-141947288D01*
X52441844Y-141922409D01*
X52435424Y-141896778D01*
X52431547Y-141870641D01*
X52430250Y-141844250D01*
X52430250Y-141305750D01*
X52431547Y-141279359D01*
X52435424Y-141253222D01*
X52441844Y-141227591D01*
X52450745Y-141202712D01*
X52462043Y-141178826D01*
X52475627Y-141156163D01*
X52491367Y-141134940D01*
X52509111Y-141115361D01*
X52528690Y-141097617D01*
X52549913Y-141081877D01*
X52572576Y-141068293D01*
X52596462Y-141056995D01*
X52621341Y-141048094D01*
X52646972Y-141041674D01*
X52673109Y-141037797D01*
X52699500Y-141036500D01*
X53663000Y-141036500D01*
X53689391Y-141037797D01*
X53689391Y-141037797D01*
G37*
D18*
X53181250Y-141575000D03*
D17*
G36*
X53689391Y-139162797D02*
G01*
X53715528Y-139166674D01*
X53741159Y-139173094D01*
X53766038Y-139181995D01*
X53789924Y-139193293D01*
X53812587Y-139206877D01*
X53833810Y-139222617D01*
X53853389Y-139240361D01*
X53871133Y-139259940D01*
X53886873Y-139281163D01*
X53900457Y-139303826D01*
X53911755Y-139327712D01*
X53920656Y-139352591D01*
X53927076Y-139378222D01*
X53930953Y-139404359D01*
X53932250Y-139430750D01*
X53932250Y-139969250D01*
X53930953Y-139995641D01*
X53927076Y-140021778D01*
X53920656Y-140047409D01*
X53911755Y-140072288D01*
X53900457Y-140096174D01*
X53886873Y-140118837D01*
X53871133Y-140140060D01*
X53853389Y-140159639D01*
X53833810Y-140177383D01*
X53812587Y-140193123D01*
X53789924Y-140206707D01*
X53766038Y-140218005D01*
X53741159Y-140226906D01*
X53715528Y-140233326D01*
X53689391Y-140237203D01*
X53663000Y-140238500D01*
X52699500Y-140238500D01*
X52673109Y-140237203D01*
X52646972Y-140233326D01*
X52621341Y-140226906D01*
X52596462Y-140218005D01*
X52572576Y-140206707D01*
X52549913Y-140193123D01*
X52528690Y-140177383D01*
X52509111Y-140159639D01*
X52491367Y-140140060D01*
X52475627Y-140118837D01*
X52462043Y-140096174D01*
X52450745Y-140072288D01*
X52441844Y-140047409D01*
X52435424Y-140021778D01*
X52431547Y-139995641D01*
X52430250Y-139969250D01*
X52430250Y-139430750D01*
X52431547Y-139404359D01*
X52435424Y-139378222D01*
X52441844Y-139352591D01*
X52450745Y-139327712D01*
X52462043Y-139303826D01*
X52475627Y-139281163D01*
X52491367Y-139259940D01*
X52509111Y-139240361D01*
X52528690Y-139222617D01*
X52549913Y-139206877D01*
X52572576Y-139193293D01*
X52596462Y-139181995D01*
X52621341Y-139173094D01*
X52646972Y-139166674D01*
X52673109Y-139162797D01*
X52699500Y-139161500D01*
X53663000Y-139161500D01*
X53689391Y-139162797D01*
X53689391Y-139162797D01*
G37*
D18*
X53181250Y-139700000D03*
D19*
X272256250Y-60387500D03*
X272256250Y-57087500D03*
X100806250Y-60387500D03*
X100806250Y-57087500D03*
X119856250Y-60387500D03*
X119856250Y-57087500D03*
X138906250Y-60387500D03*
X138906250Y-57087500D03*
X157956250Y-60387500D03*
X157956250Y-57087500D03*
X177006250Y-60387500D03*
X177006250Y-57087500D03*
X196056250Y-57087500D03*
X196056250Y-60387500D03*
X215106250Y-60387500D03*
X215106250Y-57087500D03*
X234156250Y-57087500D03*
X234156250Y-60387500D03*
X253206250Y-57087500D03*
X253206250Y-60387500D03*
X210343750Y-133287500D03*
X210343750Y-136587500D03*
X300831250Y-79437500D03*
X300831250Y-76137500D03*
X319881250Y-76137500D03*
X319881250Y-79437500D03*
X348456250Y-57087500D03*
X348456250Y-60387500D03*
X81756250Y-60387500D03*
X81756250Y-57087500D03*
X115093750Y-95187500D03*
X115093750Y-98487500D03*
X288925000Y-136587500D03*
X288925000Y-133287500D03*
X131762500Y-136587500D03*
X131762500Y-133287500D03*
X200818750Y-117537500D03*
X200818750Y-114237500D03*
X343693750Y-79437500D03*
X343693750Y-76137500D03*
X329406250Y-60387500D03*
X329406250Y-57087500D03*
X162718750Y-117537500D03*
X162718750Y-114237500D03*
X88900000Y-98487500D03*
X88900000Y-95187500D03*
X257968750Y-114237500D03*
X257968750Y-117537500D03*
X153200001Y-95187500D03*
X153200001Y-98487500D03*
X277018750Y-114237500D03*
X277018750Y-117537500D03*
X148431250Y-79437500D03*
X148431250Y-76137500D03*
X336550000Y-98487500D03*
X336550000Y-95187500D03*
X310356250Y-57087500D03*
X310356250Y-60387500D03*
X43656250Y-60387500D03*
X43656250Y-57087500D03*
X43656250Y-76137500D03*
X43656250Y-79437500D03*
X43656250Y-95187500D03*
X43656250Y-98487500D03*
X43656250Y-114237500D03*
X43656250Y-117537500D03*
X43656250Y-136587500D03*
X43656250Y-133287500D03*
X172243750Y-98487500D03*
X172243750Y-95187500D03*
X348456250Y-114237500D03*
X348456250Y-117537500D03*
X191293750Y-95187500D03*
X191293750Y-98487500D03*
X210343750Y-98487500D03*
X210343750Y-95187500D03*
X243681250Y-76137500D03*
X243681250Y-79437500D03*
X229393750Y-95187500D03*
X229393750Y-98487500D03*
X248443750Y-98487500D03*
X248443750Y-95187500D03*
X267493750Y-95187500D03*
X267493750Y-98487500D03*
X238918750Y-117537500D03*
X238918750Y-114237500D03*
X291306250Y-60387500D03*
X291306250Y-57087500D03*
X219868750Y-114237500D03*
X219868750Y-117537500D03*
X262731250Y-79437500D03*
X262731250Y-76137500D03*
X281781250Y-76137500D03*
X281781250Y-79437500D03*
X110331250Y-76137500D03*
X110331250Y-79437500D03*
X305593750Y-95187500D03*
X305593750Y-98487500D03*
X167481250Y-79437500D03*
X167481250Y-76137500D03*
X134143750Y-98487500D03*
X134143750Y-95187500D03*
X286543750Y-98487500D03*
X286543750Y-95187500D03*
X322262500Y-117537500D03*
X322262500Y-114237500D03*
X93662500Y-114237500D03*
X93662500Y-117537500D03*
X296068750Y-114237500D03*
X296068750Y-117537500D03*
X186531250Y-76137500D03*
X186531250Y-79437500D03*
X86518750Y-76137500D03*
X86518750Y-79437500D03*
X224631250Y-79437500D03*
X224631250Y-76137500D03*
X181768750Y-114237500D03*
X181768750Y-117537500D03*
X129381250Y-76137500D03*
X129381250Y-79437500D03*
X310356250Y-133287500D03*
X310356250Y-136587500D03*
X110331250Y-133287500D03*
X110331250Y-136587500D03*
X143668750Y-114237500D03*
X143668750Y-117537500D03*
X205581250Y-76137500D03*
X205581250Y-79437500D03*
X124618750Y-117537500D03*
X124618750Y-114237500D03*
D17*
G36*
X52275854Y-61844052D02*
G01*
X52302102Y-61847946D01*
X52327843Y-61854393D01*
X52352828Y-61863333D01*
X52376816Y-61874678D01*
X52399576Y-61888321D01*
X52420890Y-61904128D01*
X52440552Y-61921948D01*
X52458372Y-61941610D01*
X52474179Y-61962924D01*
X52487822Y-61985684D01*
X52499167Y-62009672D01*
X52508107Y-62034657D01*
X52514554Y-62060398D01*
X52518448Y-62086646D01*
X52519750Y-62113150D01*
X52519750Y-62924350D01*
X52518448Y-62950854D01*
X52514554Y-62977102D01*
X52508107Y-63002843D01*
X52499167Y-63027828D01*
X52487822Y-63051816D01*
X52474179Y-63074576D01*
X52458372Y-63095890D01*
X52440552Y-63115552D01*
X52420890Y-63133372D01*
X52399576Y-63149179D01*
X52376816Y-63162822D01*
X52352828Y-63174167D01*
X52327843Y-63183107D01*
X52302102Y-63189554D01*
X52275854Y-63193448D01*
X52249350Y-63194750D01*
X50938150Y-63194750D01*
X50911646Y-63193448D01*
X50885398Y-63189554D01*
X50859657Y-63183107D01*
X50834672Y-63174167D01*
X50810684Y-63162822D01*
X50787924Y-63149179D01*
X50766610Y-63133372D01*
X50746948Y-63115552D01*
X50729128Y-63095890D01*
X50713321Y-63074576D01*
X50699678Y-63051816D01*
X50688333Y-63027828D01*
X50679393Y-63002843D01*
X50672946Y-62977102D01*
X50669052Y-62950854D01*
X50667750Y-62924350D01*
X50667750Y-62113150D01*
X50669052Y-62086646D01*
X50672946Y-62060398D01*
X50679393Y-62034657D01*
X50688333Y-62009672D01*
X50699678Y-61985684D01*
X50713321Y-61962924D01*
X50729128Y-61941610D01*
X50746948Y-61921948D01*
X50766610Y-61904128D01*
X50787924Y-61888321D01*
X50810684Y-61874678D01*
X50834672Y-61863333D01*
X50859657Y-61854393D01*
X50885398Y-61847946D01*
X50911646Y-61844052D01*
X50938150Y-61842750D01*
X52249350Y-61842750D01*
X52275854Y-61844052D01*
X52275854Y-61844052D01*
G37*
D20*
X51593750Y-62518750D03*
D17*
G36*
X52275854Y-59044052D02*
G01*
X52302102Y-59047946D01*
X52327843Y-59054393D01*
X52352828Y-59063333D01*
X52376816Y-59074678D01*
X52399576Y-59088321D01*
X52420890Y-59104128D01*
X52440552Y-59121948D01*
X52458372Y-59141610D01*
X52474179Y-59162924D01*
X52487822Y-59185684D01*
X52499167Y-59209672D01*
X52508107Y-59234657D01*
X52514554Y-59260398D01*
X52518448Y-59286646D01*
X52519750Y-59313150D01*
X52519750Y-60124350D01*
X52518448Y-60150854D01*
X52514554Y-60177102D01*
X52508107Y-60202843D01*
X52499167Y-60227828D01*
X52487822Y-60251816D01*
X52474179Y-60274576D01*
X52458372Y-60295890D01*
X52440552Y-60315552D01*
X52420890Y-60333372D01*
X52399576Y-60349179D01*
X52376816Y-60362822D01*
X52352828Y-60374167D01*
X52327843Y-60383107D01*
X52302102Y-60389554D01*
X52275854Y-60393448D01*
X52249350Y-60394750D01*
X50938150Y-60394750D01*
X50911646Y-60393448D01*
X50885398Y-60389554D01*
X50859657Y-60383107D01*
X50834672Y-60374167D01*
X50810684Y-60362822D01*
X50787924Y-60349179D01*
X50766610Y-60333372D01*
X50746948Y-60315552D01*
X50729128Y-60295890D01*
X50713321Y-60274576D01*
X50699678Y-60251816D01*
X50688333Y-60227828D01*
X50679393Y-60202843D01*
X50672946Y-60177102D01*
X50669052Y-60150854D01*
X50667750Y-60124350D01*
X50667750Y-59313150D01*
X50669052Y-59286646D01*
X50672946Y-59260398D01*
X50679393Y-59234657D01*
X50688333Y-59209672D01*
X50699678Y-59185684D01*
X50713321Y-59162924D01*
X50729128Y-59141610D01*
X50746948Y-59121948D01*
X50766610Y-59104128D01*
X50787924Y-59088321D01*
X50810684Y-59074678D01*
X50834672Y-59063333D01*
X50859657Y-59054393D01*
X50885398Y-59047946D01*
X50911646Y-59044052D01*
X50938150Y-59042750D01*
X52249350Y-59042750D01*
X52275854Y-59044052D01*
X52275854Y-59044052D01*
G37*
D20*
X51593750Y-59718750D03*
D16*
X269398750Y-58737500D03*
X259238750Y-58737500D03*
D13*
X261818750Y-54737500D03*
D15*
X264318750Y-58737500D03*
D13*
X261163751Y-55467500D03*
D14*
X260508750Y-56197500D02*
X261818752Y-54737500D01*
D13*
X266858750Y-53657500D03*
X266838750Y-53947500D03*
D14*
X266818750Y-54237500D02*
X266858750Y-53657500D01*
D16*
X97948750Y-58737500D03*
X87788750Y-58737500D03*
D13*
X90368750Y-54737500D03*
D15*
X92868750Y-58737500D03*
D13*
X89713751Y-55467500D03*
D14*
X89058750Y-56197500D02*
X90368752Y-54737500D01*
D13*
X95408750Y-53657500D03*
X95388750Y-53947500D03*
D14*
X95368750Y-54237500D02*
X95408750Y-53657500D01*
D16*
X116998750Y-58737500D03*
X106838750Y-58737500D03*
D13*
X109418750Y-54737500D03*
D15*
X111918750Y-58737500D03*
D13*
X108763751Y-55467500D03*
D14*
X108108750Y-56197500D02*
X109418752Y-54737500D01*
D13*
X114458750Y-53657500D03*
X114438750Y-53947500D03*
D14*
X114418750Y-54237500D02*
X114458750Y-53657500D01*
D13*
X133488750Y-53947500D03*
D14*
X133468750Y-54237500D02*
X133508750Y-53657500D01*
D13*
X133508750Y-53657500D03*
X127813751Y-55467500D03*
D14*
X127158750Y-56197500D02*
X128468752Y-54737500D01*
D15*
X130968750Y-58737500D03*
D13*
X128468750Y-54737500D03*
D16*
X125888750Y-58737500D03*
X136048750Y-58737500D03*
D13*
X152538750Y-53947500D03*
D14*
X152518750Y-54237500D02*
X152558750Y-53657500D01*
D13*
X152558750Y-53657500D03*
X146863751Y-55467500D03*
D14*
X146208750Y-56197500D02*
X147518752Y-54737500D01*
D15*
X150018750Y-58737500D03*
D13*
X147518750Y-54737500D03*
D16*
X144938750Y-58737500D03*
X155098750Y-58737500D03*
D13*
X171588750Y-53947500D03*
D14*
X171568750Y-54237500D02*
X171608750Y-53657500D01*
D13*
X171608750Y-53657500D03*
X165913751Y-55467500D03*
D14*
X165258750Y-56197500D02*
X166568752Y-54737500D01*
D15*
X169068750Y-58737500D03*
D13*
X166568750Y-54737500D03*
D16*
X163988750Y-58737500D03*
X174148750Y-58737500D03*
D13*
X190638750Y-53947500D03*
D14*
X190618750Y-54237500D02*
X190658750Y-53657500D01*
D13*
X190658750Y-53657500D03*
X184963751Y-55467500D03*
D14*
X184308750Y-56197500D02*
X185618752Y-54737500D01*
D15*
X188118750Y-58737500D03*
D13*
X185618750Y-54737500D03*
D16*
X183038750Y-58737500D03*
X193198750Y-58737500D03*
D13*
X209688750Y-53947500D03*
D14*
X209668750Y-54237500D02*
X209708750Y-53657500D01*
D13*
X209708750Y-53657500D03*
X204013751Y-55467500D03*
D14*
X203358750Y-56197500D02*
X204668752Y-54737500D01*
D15*
X207168750Y-58737500D03*
D13*
X204668750Y-54737500D03*
D16*
X202088750Y-58737500D03*
X212248750Y-58737500D03*
X231298750Y-58737500D03*
X221138750Y-58737500D03*
D13*
X223718750Y-54737500D03*
D15*
X226218750Y-58737500D03*
D13*
X223063751Y-55467500D03*
D14*
X222408750Y-56197500D02*
X223718752Y-54737500D01*
D13*
X228758750Y-53657500D03*
X228738750Y-53947500D03*
D14*
X228718750Y-54237500D02*
X228758750Y-53657500D01*
D13*
X247788750Y-53947500D03*
D14*
X247768750Y-54237500D02*
X247808750Y-53657500D01*
D13*
X247808750Y-53657500D03*
X242113751Y-55467500D03*
D14*
X241458750Y-56197500D02*
X242768752Y-54737500D01*
D15*
X245268750Y-58737500D03*
D13*
X242768750Y-54737500D03*
D16*
X240188750Y-58737500D03*
X250348750Y-58737500D03*
D13*
X204926250Y-130147500D03*
D14*
X204906250Y-130437500D02*
X204946250Y-129857500D01*
D13*
X204946250Y-129857500D03*
X199251251Y-131667500D03*
D14*
X198596250Y-132397500D02*
X199906252Y-130937500D01*
D15*
X202406250Y-134937500D03*
D13*
X199906250Y-130937500D03*
D16*
X197326250Y-134937500D03*
X207486250Y-134937500D03*
D21*
X145256250Y-127952500D03*
X259556250Y-127952500D03*
D15*
X145256250Y-143192500D03*
X259556250Y-143192500D03*
D13*
X295413750Y-72997500D03*
D14*
X295393750Y-73287500D02*
X295433750Y-72707500D01*
D13*
X295433750Y-72707500D03*
X289738751Y-74517500D03*
D14*
X289083750Y-75247500D02*
X290393752Y-73787500D01*
D15*
X292893750Y-77787500D03*
D13*
X290393750Y-73787500D03*
D16*
X287813750Y-77787500D03*
X297973750Y-77787500D03*
X317023750Y-77787500D03*
X306863750Y-77787500D03*
D13*
X309443750Y-73787500D03*
D15*
X311943750Y-77787500D03*
D13*
X308788751Y-74517500D03*
D14*
X308133750Y-75247500D02*
X309443752Y-73787500D01*
D13*
X314483750Y-72707500D03*
X314463750Y-72997500D03*
D14*
X314443750Y-73287500D02*
X314483750Y-72707500D01*
D13*
X343038750Y-53947500D03*
D14*
X343018750Y-54237500D02*
X343058750Y-53657500D01*
D13*
X343058750Y-53657500D03*
X337363751Y-55467500D03*
D14*
X336708750Y-56197500D02*
X338018752Y-54737500D01*
D15*
X340518750Y-58737500D03*
D13*
X338018750Y-54737500D03*
D16*
X335438750Y-58737500D03*
X345598750Y-58737500D03*
D13*
X76338750Y-53947500D03*
D14*
X76318750Y-54237500D02*
X76358750Y-53657500D01*
D13*
X76358750Y-53657500D03*
X70663751Y-55467500D03*
D14*
X70008750Y-56197500D02*
X71318752Y-54737500D01*
D15*
X73818750Y-58737500D03*
D13*
X71318750Y-54737500D03*
D16*
X68738750Y-58737500D03*
X78898750Y-58737500D03*
X112236250Y-96837500D03*
X102076250Y-96837500D03*
D13*
X104656250Y-92837500D03*
D15*
X107156250Y-96837500D03*
D13*
X104001251Y-93567500D03*
D14*
X103346250Y-94297500D02*
X104656252Y-92837500D01*
D13*
X109696250Y-91757500D03*
X109676250Y-92047500D03*
D14*
X109656250Y-92337500D02*
X109696250Y-91757500D01*
D16*
X286067500Y-134937500D03*
X275907500Y-134937500D03*
D13*
X278487500Y-130937500D03*
D15*
X280987500Y-134937500D03*
D13*
X277832501Y-131667500D03*
D14*
X277177500Y-132397500D02*
X278487502Y-130937500D01*
D13*
X283527500Y-129857500D03*
X283507500Y-130147500D03*
D14*
X283487500Y-130437500D02*
X283527500Y-129857500D01*
D13*
X126345000Y-130147500D03*
D14*
X126325000Y-130437500D02*
X126365000Y-129857500D01*
D13*
X126365000Y-129857500D03*
X120670001Y-131667500D03*
D14*
X120015000Y-132397500D02*
X121325002Y-130937500D01*
D15*
X123825000Y-134937500D03*
D13*
X121325000Y-130937500D03*
D16*
X118745000Y-134937500D03*
X128905000Y-134937500D03*
D13*
X195401250Y-111097500D03*
D14*
X195381250Y-111387500D02*
X195421250Y-110807500D01*
D13*
X195421250Y-110807500D03*
X189726251Y-112617500D03*
D14*
X189071250Y-113347500D02*
X190381252Y-111887500D01*
D15*
X192881250Y-115887500D03*
D13*
X190381250Y-111887500D03*
D16*
X187801250Y-115887500D03*
X197961250Y-115887500D03*
D13*
X338276250Y-72997500D03*
D14*
X338256250Y-73287500D02*
X338296250Y-72707500D01*
D13*
X338296250Y-72707500D03*
X332601251Y-74517500D03*
D14*
X331946250Y-75247500D02*
X333256252Y-73787500D01*
D15*
X335756250Y-77787500D03*
D13*
X333256250Y-73787500D03*
D16*
X330676250Y-77787500D03*
X340836250Y-77787500D03*
X326548750Y-58737500D03*
X316388750Y-58737500D03*
D13*
X318968750Y-54737500D03*
D15*
X321468750Y-58737500D03*
D13*
X318313751Y-55467500D03*
D14*
X317658750Y-56197500D02*
X318968752Y-54737500D01*
D13*
X324008750Y-53657500D03*
X323988750Y-53947500D03*
D14*
X323968750Y-54237500D02*
X324008750Y-53657500D01*
D16*
X159861250Y-115887500D03*
X149701250Y-115887500D03*
D13*
X152281250Y-111887500D03*
D15*
X154781250Y-115887500D03*
D13*
X151626251Y-112617500D03*
D14*
X150971250Y-113347500D02*
X152281252Y-111887500D01*
D13*
X157321250Y-110807500D03*
X157301250Y-111097500D03*
D14*
X157281250Y-111387500D02*
X157321250Y-110807500D01*
D16*
X255111250Y-115887500D03*
X244951250Y-115887500D03*
D13*
X247531250Y-111887500D03*
D15*
X250031250Y-115887500D03*
D13*
X246876251Y-112617500D03*
D14*
X246221250Y-113347500D02*
X247531252Y-111887500D01*
D13*
X252571250Y-110807500D03*
X252551250Y-111097500D03*
D14*
X252531250Y-111387500D02*
X252571250Y-110807500D01*
D13*
X147776250Y-92047500D03*
D14*
X147756250Y-92337500D02*
X147796250Y-91757500D01*
D13*
X147796250Y-91757500D03*
X142101251Y-93567500D03*
D14*
X141446250Y-94297500D02*
X142756252Y-92837500D01*
D15*
X145256250Y-96837500D03*
D13*
X142756250Y-92837500D03*
D16*
X140176250Y-96837500D03*
X150336250Y-96837500D03*
X274161250Y-115887500D03*
X264001250Y-115887500D03*
D13*
X266581250Y-111887500D03*
D15*
X269081250Y-115887500D03*
D13*
X265926251Y-112617500D03*
D14*
X265271250Y-113347500D02*
X266581252Y-111887500D01*
D13*
X271621250Y-110807500D03*
X271601250Y-111097500D03*
D14*
X271581250Y-111387500D02*
X271621250Y-110807500D01*
D16*
X145573750Y-77787500D03*
X135413750Y-77787500D03*
D13*
X137993750Y-73787500D03*
D15*
X140493750Y-77787500D03*
D13*
X137338751Y-74517500D03*
D14*
X136683750Y-75247500D02*
X137993752Y-73787500D01*
D13*
X143033750Y-72707500D03*
X143013750Y-72997500D03*
D14*
X142993750Y-73287500D02*
X143033750Y-72707500D01*
D15*
X340550500Y-105092500D03*
X316674500Y-105092500D03*
D21*
X340550500Y-89852500D03*
X316674500Y-89852500D03*
D16*
X333692500Y-96837500D03*
X323532500Y-96837500D03*
D13*
X326112500Y-92837500D03*
D15*
X328612500Y-96837500D03*
D13*
X325457501Y-93567500D03*
D14*
X324802500Y-94297500D02*
X326112502Y-92837500D01*
D13*
X331152500Y-91757500D03*
X331132500Y-92047500D03*
D14*
X331112500Y-92337500D02*
X331152500Y-91757500D01*
D16*
X307498750Y-58737500D03*
X297338750Y-58737500D03*
D13*
X299918750Y-54737500D03*
D15*
X302418750Y-58737500D03*
D13*
X299263751Y-55467500D03*
D14*
X298608750Y-56197500D02*
X299918752Y-54737500D01*
D13*
X304958750Y-53657500D03*
X304938750Y-53947500D03*
D14*
X304918750Y-54237500D02*
X304958750Y-53657500D01*
D13*
X38238750Y-53947500D03*
D14*
X38218750Y-54237500D02*
X38258750Y-53657500D01*
D13*
X38258750Y-53657500D03*
X32563751Y-55467500D03*
D14*
X31908750Y-56197500D02*
X33218752Y-54737500D01*
D15*
X35718750Y-58737500D03*
D13*
X33218750Y-54737500D03*
D16*
X30638750Y-58737500D03*
X40798750Y-58737500D03*
D13*
X38238750Y-72997500D03*
D14*
X38218750Y-73287500D02*
X38258750Y-72707500D01*
D13*
X38258750Y-72707500D03*
X32563751Y-74517500D03*
D14*
X31908750Y-75247500D02*
X33218752Y-73787500D01*
D15*
X35718750Y-77787500D03*
D13*
X33218750Y-73787500D03*
D16*
X30638750Y-77787500D03*
X40798750Y-77787500D03*
X40798750Y-96837500D03*
X30638750Y-96837500D03*
D13*
X33218750Y-92837500D03*
D15*
X35718750Y-96837500D03*
D13*
X32563751Y-93567500D03*
D14*
X31908750Y-94297500D02*
X33218752Y-92837500D01*
D13*
X38258750Y-91757500D03*
X38238750Y-92047500D03*
D14*
X38218750Y-92337500D02*
X38258750Y-91757500D01*
D13*
X38238750Y-111097500D03*
D14*
X38218750Y-111387500D02*
X38258750Y-110807500D01*
D13*
X38258750Y-110807500D03*
X32563751Y-112617500D03*
D14*
X31908750Y-113347500D02*
X33218752Y-111887500D01*
D15*
X35718750Y-115887500D03*
D13*
X33218750Y-111887500D03*
D16*
X30638750Y-115887500D03*
X40798750Y-115887500D03*
X40798750Y-134937500D03*
X30638750Y-134937500D03*
D13*
X33218750Y-130937500D03*
D15*
X35718750Y-134937500D03*
D13*
X32563751Y-131667500D03*
D14*
X31908750Y-132397500D02*
X33218752Y-130937500D01*
D13*
X38258750Y-129857500D03*
X38238750Y-130147500D03*
D14*
X38218750Y-130437500D02*
X38258750Y-129857500D01*
D16*
X169386250Y-96837500D03*
X159226250Y-96837500D03*
D13*
X161806250Y-92837500D03*
D15*
X164306250Y-96837500D03*
D13*
X161151251Y-93567500D03*
D14*
X160496250Y-94297500D02*
X161806252Y-92837500D01*
D13*
X166846250Y-91757500D03*
X166826250Y-92047500D03*
D14*
X166806250Y-92337500D02*
X166846250Y-91757500D01*
D16*
X345598750Y-115887500D03*
X335438750Y-115887500D03*
D13*
X338018750Y-111887500D03*
D15*
X340518750Y-115887500D03*
D13*
X337363751Y-112617500D03*
D14*
X336708750Y-113347500D02*
X338018752Y-111887500D01*
D13*
X343058750Y-110807500D03*
X343038750Y-111097500D03*
D14*
X343018750Y-111387500D02*
X343058750Y-110807500D01*
D13*
X185876250Y-92047500D03*
D14*
X185856250Y-92337500D02*
X185896250Y-91757500D01*
D13*
X185896250Y-91757500D03*
X180201251Y-93567500D03*
D14*
X179546250Y-94297500D02*
X180856252Y-92837500D01*
D15*
X183356250Y-96837500D03*
D13*
X180856250Y-92837500D03*
D16*
X178276250Y-96837500D03*
X188436250Y-96837500D03*
X207486250Y-96837500D03*
X197326250Y-96837500D03*
D13*
X199906250Y-92837500D03*
D15*
X202406250Y-96837500D03*
D13*
X199251251Y-93567500D03*
D14*
X198596250Y-94297500D02*
X199906252Y-92837500D01*
D13*
X204946250Y-91757500D03*
X204926250Y-92047500D03*
D14*
X204906250Y-92337500D02*
X204946250Y-91757500D01*
D13*
X238263750Y-72997500D03*
D14*
X238243750Y-73287500D02*
X238283750Y-72707500D01*
D13*
X238283750Y-72707500D03*
X232588751Y-74517500D03*
D14*
X231933750Y-75247500D02*
X233243752Y-73787500D01*
D15*
X235743750Y-77787500D03*
D13*
X233243750Y-73787500D03*
D16*
X230663750Y-77787500D03*
X240823750Y-77787500D03*
X226536250Y-96837500D03*
X216376250Y-96837500D03*
D13*
X218956250Y-92837500D03*
D15*
X221456250Y-96837500D03*
D13*
X218301251Y-93567500D03*
D14*
X217646250Y-94297500D02*
X218956252Y-92837500D01*
D13*
X223996250Y-91757500D03*
X223976250Y-92047500D03*
D14*
X223956250Y-92337500D02*
X223996250Y-91757500D01*
D16*
X245586250Y-96837500D03*
X235426250Y-96837500D03*
D13*
X238006250Y-92837500D03*
D15*
X240506250Y-96837500D03*
D13*
X237351251Y-93567500D03*
D14*
X236696250Y-94297500D02*
X238006252Y-92837500D01*
D13*
X243046250Y-91757500D03*
X243026250Y-92047500D03*
D14*
X243006250Y-92337500D02*
X243046250Y-91757500D01*
D13*
X262076250Y-92047500D03*
D14*
X262056250Y-92337500D02*
X262096250Y-91757500D01*
D13*
X262096250Y-91757500D03*
X256401251Y-93567500D03*
D14*
X255746250Y-94297500D02*
X257056252Y-92837500D01*
D15*
X259556250Y-96837500D03*
D13*
X257056250Y-92837500D03*
D16*
X254476250Y-96837500D03*
X264636250Y-96837500D03*
X236061250Y-115887500D03*
X225901250Y-115887500D03*
D13*
X228481250Y-111887500D03*
D15*
X230981250Y-115887500D03*
D13*
X227826251Y-112617500D03*
D14*
X227171250Y-113347500D02*
X228481252Y-111887500D01*
D13*
X233521250Y-110807500D03*
X233501250Y-111097500D03*
D14*
X233481250Y-111387500D02*
X233521250Y-110807500D01*
D13*
X285888750Y-53947500D03*
D14*
X285868750Y-54237500D02*
X285908750Y-53657500D01*
D13*
X285908750Y-53657500D03*
X280213751Y-55467500D03*
D14*
X279558750Y-56197500D02*
X280868752Y-54737500D01*
D15*
X283368750Y-58737500D03*
D13*
X280868750Y-54737500D03*
D16*
X278288750Y-58737500D03*
X288448750Y-58737500D03*
D13*
X214451250Y-111097500D03*
D14*
X214431250Y-111387500D02*
X214471250Y-110807500D01*
D13*
X214471250Y-110807500D03*
X208776251Y-112617500D03*
D14*
X208121250Y-113347500D02*
X209431252Y-111887500D01*
D15*
X211931250Y-115887500D03*
D13*
X209431250Y-111887500D03*
D16*
X206851250Y-115887500D03*
X217011250Y-115887500D03*
X259873750Y-77787500D03*
X249713750Y-77787500D03*
D13*
X252293750Y-73787500D03*
D15*
X254793750Y-77787500D03*
D13*
X251638751Y-74517500D03*
D14*
X250983750Y-75247500D02*
X252293752Y-73787500D01*
D13*
X257333750Y-72707500D03*
X257313750Y-72997500D03*
D14*
X257293750Y-73287500D02*
X257333750Y-72707500D01*
D16*
X278923750Y-77787500D03*
X268763750Y-77787500D03*
D13*
X271343750Y-73787500D03*
D15*
X273843750Y-77787500D03*
D13*
X270688751Y-74517500D03*
D14*
X270033750Y-75247500D02*
X271343752Y-73787500D01*
D13*
X276383750Y-72707500D03*
X276363750Y-72997500D03*
D14*
X276343750Y-73287500D02*
X276383750Y-72707500D01*
D16*
X107473750Y-77787500D03*
X97313750Y-77787500D03*
D13*
X99893750Y-73787500D03*
D15*
X102393750Y-77787500D03*
D13*
X99238751Y-74517500D03*
D14*
X98583750Y-75247500D02*
X99893752Y-73787500D01*
D13*
X104933750Y-72707500D03*
X104913750Y-72997500D03*
D14*
X104893750Y-73287500D02*
X104933750Y-72707500D01*
D13*
X300176250Y-92047500D03*
D14*
X300156250Y-92337500D02*
X300196250Y-91757500D01*
D13*
X300196250Y-91757500D03*
X294501251Y-93567500D03*
D14*
X293846250Y-94297500D02*
X295156252Y-92837500D01*
D15*
X297656250Y-96837500D03*
D13*
X295156250Y-92837500D03*
D16*
X292576250Y-96837500D03*
X302736250Y-96837500D03*
X164623750Y-77787500D03*
X154463750Y-77787500D03*
D13*
X157043750Y-73787500D03*
D15*
X159543750Y-77787500D03*
D13*
X156388751Y-74517500D03*
D14*
X155733750Y-75247500D02*
X157043752Y-73787500D01*
D13*
X162083750Y-72707500D03*
X162063750Y-72997500D03*
D14*
X162043750Y-73287500D02*
X162083750Y-72707500D01*
D13*
X128726250Y-92047500D03*
D14*
X128706250Y-92337500D02*
X128746250Y-91757500D01*
D13*
X128746250Y-91757500D03*
X123051251Y-93567500D03*
D14*
X122396250Y-94297500D02*
X123706252Y-92837500D01*
D15*
X126206250Y-96837500D03*
D13*
X123706250Y-92837500D03*
D16*
X121126250Y-96837500D03*
X131286250Y-96837500D03*
D13*
X281126250Y-92047500D03*
D14*
X281106250Y-92337500D02*
X281146250Y-91757500D01*
D13*
X281146250Y-91757500D03*
X275451251Y-93567500D03*
D14*
X274796250Y-94297500D02*
X276106252Y-92837500D01*
D15*
X278606250Y-96837500D03*
D13*
X276106250Y-92837500D03*
D16*
X273526250Y-96837500D03*
X283686250Y-96837500D03*
X319405000Y-115887500D03*
X309245000Y-115887500D03*
D13*
X311825000Y-111887500D03*
D15*
X314325000Y-115887500D03*
D13*
X311170001Y-112617500D03*
D14*
X310515000Y-113347500D02*
X311825002Y-111887500D01*
D13*
X316865000Y-110807500D03*
X316845000Y-111097500D03*
D14*
X316825000Y-111387500D02*
X316865000Y-110807500D01*
D13*
X88245000Y-111097500D03*
D14*
X88225000Y-111387500D02*
X88265000Y-110807500D01*
D13*
X88265000Y-110807500D03*
X82570001Y-112617500D03*
D14*
X81915000Y-113347500D02*
X83225002Y-111887500D01*
D15*
X85725000Y-115887500D03*
D13*
X83225000Y-111887500D03*
D16*
X80645000Y-115887500D03*
X90805000Y-115887500D03*
D21*
X73787000Y-108902500D03*
X97663000Y-108902500D03*
D15*
X73787000Y-124142500D03*
X97663000Y-124142500D03*
D13*
X290651250Y-111097500D03*
D14*
X290631250Y-111387500D02*
X290671250Y-110807500D01*
D13*
X290671250Y-110807500D03*
X284976251Y-112617500D03*
D14*
X284321250Y-113347500D02*
X285631252Y-111887500D01*
D15*
X288131250Y-115887500D03*
D13*
X285631250Y-111887500D03*
D16*
X283051250Y-115887500D03*
X293211250Y-115887500D03*
D13*
X181113750Y-72997500D03*
D14*
X181093750Y-73287500D02*
X181133750Y-72707500D01*
D13*
X181133750Y-72707500D03*
X175438751Y-74517500D03*
D14*
X174783750Y-75247500D02*
X176093752Y-73787500D01*
D15*
X178593750Y-77787500D03*
D13*
X176093750Y-73787500D03*
D16*
X173513750Y-77787500D03*
X183673750Y-77787500D03*
X83661250Y-77787500D03*
X73501250Y-77787500D03*
D13*
X76081250Y-73787500D03*
D15*
X78581250Y-77787500D03*
D13*
X75426251Y-74517500D03*
D14*
X74771250Y-75247500D02*
X76081252Y-73787500D01*
D13*
X81121250Y-72707500D03*
X81101250Y-72997500D03*
D14*
X81081250Y-73287500D02*
X81121250Y-72707500D01*
D16*
X221773750Y-77787500D03*
X211613750Y-77787500D03*
D13*
X214193750Y-73787500D03*
D15*
X216693750Y-77787500D03*
D13*
X213538751Y-74517500D03*
D14*
X212883750Y-75247500D02*
X214193752Y-73787500D01*
D13*
X219233750Y-72707500D03*
X219213750Y-72997500D03*
D14*
X219193750Y-73287500D02*
X219233750Y-72707500D01*
D13*
X176351250Y-111097500D03*
D14*
X176331250Y-111387500D02*
X176371250Y-110807500D01*
D13*
X176371250Y-110807500D03*
X170676251Y-112617500D03*
D14*
X170021250Y-113347500D02*
X171331252Y-111887500D01*
D15*
X173831250Y-115887500D03*
D13*
X171331250Y-111887500D03*
D16*
X168751250Y-115887500D03*
X178911250Y-115887500D03*
D13*
X123963750Y-72997500D03*
D14*
X123943750Y-73287500D02*
X123983750Y-72707500D01*
D13*
X123983750Y-72707500D03*
X118288751Y-74517500D03*
D14*
X117633750Y-75247500D02*
X118943752Y-73787500D01*
D15*
X121443750Y-77787500D03*
D13*
X118943750Y-73787500D03*
D16*
X116363750Y-77787500D03*
X126523750Y-77787500D03*
D13*
X304938750Y-130147500D03*
D14*
X304918750Y-130437500D02*
X304958750Y-129857500D01*
D13*
X304958750Y-129857500D03*
X299263751Y-131667500D03*
D14*
X298608750Y-132397500D02*
X299918752Y-130937500D01*
D15*
X302418750Y-134937500D03*
D13*
X299918750Y-130937500D03*
D16*
X297338750Y-134937500D03*
X307498750Y-134937500D03*
X107473750Y-134937500D03*
X97313750Y-134937500D03*
D13*
X99893750Y-130937500D03*
D15*
X102393750Y-134937500D03*
D13*
X99238751Y-131667500D03*
D14*
X98583750Y-132397500D02*
X99893752Y-130937500D01*
D13*
X104933750Y-129857500D03*
X104913750Y-130147500D03*
D14*
X104893750Y-130437500D02*
X104933750Y-129857500D01*
D13*
X138251250Y-111097500D03*
D14*
X138231250Y-111387500D02*
X138271250Y-110807500D01*
D13*
X138271250Y-110807500D03*
X132576251Y-112617500D03*
D14*
X131921250Y-113347500D02*
X133231252Y-111887500D01*
D15*
X135731250Y-115887500D03*
D13*
X133231250Y-111887500D03*
D16*
X130651250Y-115887500D03*
X140811250Y-115887500D03*
X202723750Y-77787500D03*
X192563750Y-77787500D03*
D13*
X195143750Y-73787500D03*
D15*
X197643750Y-77787500D03*
D13*
X194488751Y-74517500D03*
D14*
X193833750Y-75247500D02*
X195143752Y-73787500D01*
D13*
X200183750Y-72707500D03*
X200163750Y-72997500D03*
D14*
X200143750Y-73287500D02*
X200183750Y-72707500D01*
D16*
X121761250Y-115887500D03*
X111601250Y-115887500D03*
D13*
X114181250Y-111887500D03*
D15*
X116681250Y-115887500D03*
D13*
X113526251Y-112617500D03*
D14*
X112871250Y-113347500D02*
X114181252Y-111887500D01*
D13*
X119221250Y-110807500D03*
X119201250Y-111097500D03*
D14*
X119181250Y-111387500D02*
X119221250Y-110807500D01*
D17*
G36*
X52101891Y-126606547D02*
G01*
X52128028Y-126610424D01*
X52153659Y-126616844D01*
X52178538Y-126625745D01*
X52202424Y-126637043D01*
X52225087Y-126650627D01*
X52246310Y-126666367D01*
X52265889Y-126684111D01*
X52283633Y-126703690D01*
X52299373Y-126724913D01*
X52312957Y-126747576D01*
X52324255Y-126771462D01*
X52333156Y-126796341D01*
X52339576Y-126821972D01*
X52343453Y-126848109D01*
X52344750Y-126874500D01*
X52344750Y-127413000D01*
X52343453Y-127439391D01*
X52339576Y-127465528D01*
X52333156Y-127491159D01*
X52324255Y-127516038D01*
X52312957Y-127539924D01*
X52299373Y-127562587D01*
X52283633Y-127583810D01*
X52265889Y-127603389D01*
X52246310Y-127621133D01*
X52225087Y-127636873D01*
X52202424Y-127650457D01*
X52178538Y-127661755D01*
X52153659Y-127670656D01*
X52128028Y-127677076D01*
X52101891Y-127680953D01*
X52075500Y-127682250D01*
X51112000Y-127682250D01*
X51085609Y-127680953D01*
X51059472Y-127677076D01*
X51033841Y-127670656D01*
X51008962Y-127661755D01*
X50985076Y-127650457D01*
X50962413Y-127636873D01*
X50941190Y-127621133D01*
X50921611Y-127603389D01*
X50903867Y-127583810D01*
X50888127Y-127562587D01*
X50874543Y-127539924D01*
X50863245Y-127516038D01*
X50854344Y-127491159D01*
X50847924Y-127465528D01*
X50844047Y-127439391D01*
X50842750Y-127413000D01*
X50842750Y-126874500D01*
X50844047Y-126848109D01*
X50847924Y-126821972D01*
X50854344Y-126796341D01*
X50863245Y-126771462D01*
X50874543Y-126747576D01*
X50888127Y-126724913D01*
X50903867Y-126703690D01*
X50921611Y-126684111D01*
X50941190Y-126666367D01*
X50962413Y-126650627D01*
X50985076Y-126637043D01*
X51008962Y-126625745D01*
X51033841Y-126616844D01*
X51059472Y-126610424D01*
X51085609Y-126606547D01*
X51112000Y-126605250D01*
X52075500Y-126605250D01*
X52101891Y-126606547D01*
X52101891Y-126606547D01*
G37*
D18*
X51593750Y-127143750D03*
D17*
G36*
X52101891Y-124731547D02*
G01*
X52128028Y-124735424D01*
X52153659Y-124741844D01*
X52178538Y-124750745D01*
X52202424Y-124762043D01*
X52225087Y-124775627D01*
X52246310Y-124791367D01*
X52265889Y-124809111D01*
X52283633Y-124828690D01*
X52299373Y-124849913D01*
X52312957Y-124872576D01*
X52324255Y-124896462D01*
X52333156Y-124921341D01*
X52339576Y-124946972D01*
X52343453Y-124973109D01*
X52344750Y-124999500D01*
X52344750Y-125538000D01*
X52343453Y-125564391D01*
X52339576Y-125590528D01*
X52333156Y-125616159D01*
X52324255Y-125641038D01*
X52312957Y-125664924D01*
X52299373Y-125687587D01*
X52283633Y-125708810D01*
X52265889Y-125728389D01*
X52246310Y-125746133D01*
X52225087Y-125761873D01*
X52202424Y-125775457D01*
X52178538Y-125786755D01*
X52153659Y-125795656D01*
X52128028Y-125802076D01*
X52101891Y-125805953D01*
X52075500Y-125807250D01*
X51112000Y-125807250D01*
X51085609Y-125805953D01*
X51059472Y-125802076D01*
X51033841Y-125795656D01*
X51008962Y-125786755D01*
X50985076Y-125775457D01*
X50962413Y-125761873D01*
X50941190Y-125746133D01*
X50921611Y-125728389D01*
X50903867Y-125708810D01*
X50888127Y-125687587D01*
X50874543Y-125664924D01*
X50863245Y-125641038D01*
X50854344Y-125616159D01*
X50847924Y-125590528D01*
X50844047Y-125564391D01*
X50842750Y-125538000D01*
X50842750Y-124999500D01*
X50844047Y-124973109D01*
X50847924Y-124946972D01*
X50854344Y-124921341D01*
X50863245Y-124896462D01*
X50874543Y-124872576D01*
X50888127Y-124849913D01*
X50903867Y-124828690D01*
X50921611Y-124809111D01*
X50941190Y-124791367D01*
X50962413Y-124775627D01*
X50985076Y-124762043D01*
X51008962Y-124750745D01*
X51033841Y-124741844D01*
X51059472Y-124735424D01*
X51085609Y-124731547D01*
X51112000Y-124730250D01*
X52075500Y-124730250D01*
X52101891Y-124731547D01*
X52101891Y-124731547D01*
G37*
D18*
X51593750Y-125268750D03*
D17*
G36*
X71945641Y-138225297D02*
G01*
X71971778Y-138229174D01*
X71997409Y-138235594D01*
X72022288Y-138244495D01*
X72046174Y-138255793D01*
X72068837Y-138269377D01*
X72090060Y-138285117D01*
X72109639Y-138302861D01*
X72127383Y-138322440D01*
X72143123Y-138343663D01*
X72156707Y-138366326D01*
X72168005Y-138390212D01*
X72176906Y-138415091D01*
X72183326Y-138440722D01*
X72187203Y-138466859D01*
X72188500Y-138493250D01*
X72188500Y-139031750D01*
X72187203Y-139058141D01*
X72183326Y-139084278D01*
X72176906Y-139109909D01*
X72168005Y-139134788D01*
X72156707Y-139158674D01*
X72143123Y-139181337D01*
X72127383Y-139202560D01*
X72109639Y-139222139D01*
X72090060Y-139239883D01*
X72068837Y-139255623D01*
X72046174Y-139269207D01*
X72022288Y-139280505D01*
X71997409Y-139289406D01*
X71971778Y-139295826D01*
X71945641Y-139299703D01*
X71919250Y-139301000D01*
X70955750Y-139301000D01*
X70929359Y-139299703D01*
X70903222Y-139295826D01*
X70877591Y-139289406D01*
X70852712Y-139280505D01*
X70828826Y-139269207D01*
X70806163Y-139255623D01*
X70784940Y-139239883D01*
X70765361Y-139222139D01*
X70747617Y-139202560D01*
X70731877Y-139181337D01*
X70718293Y-139158674D01*
X70706995Y-139134788D01*
X70698094Y-139109909D01*
X70691674Y-139084278D01*
X70687797Y-139058141D01*
X70686500Y-139031750D01*
X70686500Y-138493250D01*
X70687797Y-138466859D01*
X70691674Y-138440722D01*
X70698094Y-138415091D01*
X70706995Y-138390212D01*
X70718293Y-138366326D01*
X70731877Y-138343663D01*
X70747617Y-138322440D01*
X70765361Y-138302861D01*
X70784940Y-138285117D01*
X70806163Y-138269377D01*
X70828826Y-138255793D01*
X70852712Y-138244495D01*
X70877591Y-138235594D01*
X70903222Y-138229174D01*
X70929359Y-138225297D01*
X70955750Y-138224000D01*
X71919250Y-138224000D01*
X71945641Y-138225297D01*
X71945641Y-138225297D01*
G37*
D18*
X71437500Y-138762500D03*
D17*
G36*
X71945641Y-140100297D02*
G01*
X71971778Y-140104174D01*
X71997409Y-140110594D01*
X72022288Y-140119495D01*
X72046174Y-140130793D01*
X72068837Y-140144377D01*
X72090060Y-140160117D01*
X72109639Y-140177861D01*
X72127383Y-140197440D01*
X72143123Y-140218663D01*
X72156707Y-140241326D01*
X72168005Y-140265212D01*
X72176906Y-140290091D01*
X72183326Y-140315722D01*
X72187203Y-140341859D01*
X72188500Y-140368250D01*
X72188500Y-140906750D01*
X72187203Y-140933141D01*
X72183326Y-140959278D01*
X72176906Y-140984909D01*
X72168005Y-141009788D01*
X72156707Y-141033674D01*
X72143123Y-141056337D01*
X72127383Y-141077560D01*
X72109639Y-141097139D01*
X72090060Y-141114883D01*
X72068837Y-141130623D01*
X72046174Y-141144207D01*
X72022288Y-141155505D01*
X71997409Y-141164406D01*
X71971778Y-141170826D01*
X71945641Y-141174703D01*
X71919250Y-141176000D01*
X70955750Y-141176000D01*
X70929359Y-141174703D01*
X70903222Y-141170826D01*
X70877591Y-141164406D01*
X70852712Y-141155505D01*
X70828826Y-141144207D01*
X70806163Y-141130623D01*
X70784940Y-141114883D01*
X70765361Y-141097139D01*
X70747617Y-141077560D01*
X70731877Y-141056337D01*
X70718293Y-141033674D01*
X70706995Y-141009788D01*
X70698094Y-140984909D01*
X70691674Y-140959278D01*
X70687797Y-140933141D01*
X70686500Y-140906750D01*
X70686500Y-140368250D01*
X70687797Y-140341859D01*
X70691674Y-140315722D01*
X70698094Y-140290091D01*
X70706995Y-140265212D01*
X70718293Y-140241326D01*
X70731877Y-140218663D01*
X70747617Y-140197440D01*
X70765361Y-140177861D01*
X70784940Y-140160117D01*
X70806163Y-140144377D01*
X70828826Y-140130793D01*
X70852712Y-140119495D01*
X70877591Y-140110594D01*
X70903222Y-140104174D01*
X70929359Y-140100297D01*
X70955750Y-140099000D01*
X71919250Y-140099000D01*
X71945641Y-140100297D01*
X71945641Y-140100297D01*
G37*
D18*
X71437500Y-140637500D03*
D17*
G36*
X55276891Y-61519047D02*
G01*
X55303028Y-61522924D01*
X55328659Y-61529344D01*
X55353538Y-61538245D01*
X55377424Y-61549543D01*
X55400087Y-61563127D01*
X55421310Y-61578867D01*
X55440889Y-61596611D01*
X55458633Y-61616190D01*
X55474373Y-61637413D01*
X55487957Y-61660076D01*
X55499255Y-61683962D01*
X55508156Y-61708841D01*
X55514576Y-61734472D01*
X55518453Y-61760609D01*
X55519750Y-61787000D01*
X55519750Y-62325500D01*
X55518453Y-62351891D01*
X55514576Y-62378028D01*
X55508156Y-62403659D01*
X55499255Y-62428538D01*
X55487957Y-62452424D01*
X55474373Y-62475087D01*
X55458633Y-62496310D01*
X55440889Y-62515889D01*
X55421310Y-62533633D01*
X55400087Y-62549373D01*
X55377424Y-62562957D01*
X55353538Y-62574255D01*
X55328659Y-62583156D01*
X55303028Y-62589576D01*
X55276891Y-62593453D01*
X55250500Y-62594750D01*
X54287000Y-62594750D01*
X54260609Y-62593453D01*
X54234472Y-62589576D01*
X54208841Y-62583156D01*
X54183962Y-62574255D01*
X54160076Y-62562957D01*
X54137413Y-62549373D01*
X54116190Y-62533633D01*
X54096611Y-62515889D01*
X54078867Y-62496310D01*
X54063127Y-62475087D01*
X54049543Y-62452424D01*
X54038245Y-62428538D01*
X54029344Y-62403659D01*
X54022924Y-62378028D01*
X54019047Y-62351891D01*
X54017750Y-62325500D01*
X54017750Y-61787000D01*
X54019047Y-61760609D01*
X54022924Y-61734472D01*
X54029344Y-61708841D01*
X54038245Y-61683962D01*
X54049543Y-61660076D01*
X54063127Y-61637413D01*
X54078867Y-61616190D01*
X54096611Y-61596611D01*
X54116190Y-61578867D01*
X54137413Y-61563127D01*
X54160076Y-61549543D01*
X54183962Y-61538245D01*
X54208841Y-61529344D01*
X54234472Y-61522924D01*
X54260609Y-61519047D01*
X54287000Y-61517750D01*
X55250500Y-61517750D01*
X55276891Y-61519047D01*
X55276891Y-61519047D01*
G37*
D18*
X54768750Y-62056250D03*
D17*
G36*
X55276891Y-59644047D02*
G01*
X55303028Y-59647924D01*
X55328659Y-59654344D01*
X55353538Y-59663245D01*
X55377424Y-59674543D01*
X55400087Y-59688127D01*
X55421310Y-59703867D01*
X55440889Y-59721611D01*
X55458633Y-59741190D01*
X55474373Y-59762413D01*
X55487957Y-59785076D01*
X55499255Y-59808962D01*
X55508156Y-59833841D01*
X55514576Y-59859472D01*
X55518453Y-59885609D01*
X55519750Y-59912000D01*
X55519750Y-60450500D01*
X55518453Y-60476891D01*
X55514576Y-60503028D01*
X55508156Y-60528659D01*
X55499255Y-60553538D01*
X55487957Y-60577424D01*
X55474373Y-60600087D01*
X55458633Y-60621310D01*
X55440889Y-60640889D01*
X55421310Y-60658633D01*
X55400087Y-60674373D01*
X55377424Y-60687957D01*
X55353538Y-60699255D01*
X55328659Y-60708156D01*
X55303028Y-60714576D01*
X55276891Y-60718453D01*
X55250500Y-60719750D01*
X54287000Y-60719750D01*
X54260609Y-60718453D01*
X54234472Y-60714576D01*
X54208841Y-60708156D01*
X54183962Y-60699255D01*
X54160076Y-60687957D01*
X54137413Y-60674373D01*
X54116190Y-60658633D01*
X54096611Y-60640889D01*
X54078867Y-60621310D01*
X54063127Y-60600087D01*
X54049543Y-60577424D01*
X54038245Y-60553538D01*
X54029344Y-60528659D01*
X54022924Y-60503028D01*
X54019047Y-60476891D01*
X54017750Y-60450500D01*
X54017750Y-59912000D01*
X54019047Y-59885609D01*
X54022924Y-59859472D01*
X54029344Y-59833841D01*
X54038245Y-59808962D01*
X54049543Y-59785076D01*
X54063127Y-59762413D01*
X54078867Y-59741190D01*
X54096611Y-59721611D01*
X54116190Y-59703867D01*
X54137413Y-59688127D01*
X54160076Y-59674543D01*
X54183962Y-59663245D01*
X54208841Y-59654344D01*
X54234472Y-59647924D01*
X54260609Y-59644047D01*
X54287000Y-59642750D01*
X55250500Y-59642750D01*
X55276891Y-59644047D01*
X55276891Y-59644047D01*
G37*
D18*
X54768750Y-60181250D03*
D17*
G36*
X58451891Y-59644047D02*
G01*
X58478028Y-59647924D01*
X58503659Y-59654344D01*
X58528538Y-59663245D01*
X58552424Y-59674543D01*
X58575087Y-59688127D01*
X58596310Y-59703867D01*
X58615889Y-59721611D01*
X58633633Y-59741190D01*
X58649373Y-59762413D01*
X58662957Y-59785076D01*
X58674255Y-59808962D01*
X58683156Y-59833841D01*
X58689576Y-59859472D01*
X58693453Y-59885609D01*
X58694750Y-59912000D01*
X58694750Y-60450500D01*
X58693453Y-60476891D01*
X58689576Y-60503028D01*
X58683156Y-60528659D01*
X58674255Y-60553538D01*
X58662957Y-60577424D01*
X58649373Y-60600087D01*
X58633633Y-60621310D01*
X58615889Y-60640889D01*
X58596310Y-60658633D01*
X58575087Y-60674373D01*
X58552424Y-60687957D01*
X58528538Y-60699255D01*
X58503659Y-60708156D01*
X58478028Y-60714576D01*
X58451891Y-60718453D01*
X58425500Y-60719750D01*
X57462000Y-60719750D01*
X57435609Y-60718453D01*
X57409472Y-60714576D01*
X57383841Y-60708156D01*
X57358962Y-60699255D01*
X57335076Y-60687957D01*
X57312413Y-60674373D01*
X57291190Y-60658633D01*
X57271611Y-60640889D01*
X57253867Y-60621310D01*
X57238127Y-60600087D01*
X57224543Y-60577424D01*
X57213245Y-60553538D01*
X57204344Y-60528659D01*
X57197924Y-60503028D01*
X57194047Y-60476891D01*
X57192750Y-60450500D01*
X57192750Y-59912000D01*
X57194047Y-59885609D01*
X57197924Y-59859472D01*
X57204344Y-59833841D01*
X57213245Y-59808962D01*
X57224543Y-59785076D01*
X57238127Y-59762413D01*
X57253867Y-59741190D01*
X57271611Y-59721611D01*
X57291190Y-59703867D01*
X57312413Y-59688127D01*
X57335076Y-59674543D01*
X57358962Y-59663245D01*
X57383841Y-59654344D01*
X57409472Y-59647924D01*
X57435609Y-59644047D01*
X57462000Y-59642750D01*
X58425500Y-59642750D01*
X58451891Y-59644047D01*
X58451891Y-59644047D01*
G37*
D18*
X57943750Y-60181250D03*
D17*
G36*
X58451891Y-61519047D02*
G01*
X58478028Y-61522924D01*
X58503659Y-61529344D01*
X58528538Y-61538245D01*
X58552424Y-61549543D01*
X58575087Y-61563127D01*
X58596310Y-61578867D01*
X58615889Y-61596611D01*
X58633633Y-61616190D01*
X58649373Y-61637413D01*
X58662957Y-61660076D01*
X58674255Y-61683962D01*
X58683156Y-61708841D01*
X58689576Y-61734472D01*
X58693453Y-61760609D01*
X58694750Y-61787000D01*
X58694750Y-62325500D01*
X58693453Y-62351891D01*
X58689576Y-62378028D01*
X58683156Y-62403659D01*
X58674255Y-62428538D01*
X58662957Y-62452424D01*
X58649373Y-62475087D01*
X58633633Y-62496310D01*
X58615889Y-62515889D01*
X58596310Y-62533633D01*
X58575087Y-62549373D01*
X58552424Y-62562957D01*
X58528538Y-62574255D01*
X58503659Y-62583156D01*
X58478028Y-62589576D01*
X58451891Y-62593453D01*
X58425500Y-62594750D01*
X57462000Y-62594750D01*
X57435609Y-62593453D01*
X57409472Y-62589576D01*
X57383841Y-62583156D01*
X57358962Y-62574255D01*
X57335076Y-62562957D01*
X57312413Y-62549373D01*
X57291190Y-62533633D01*
X57271611Y-62515889D01*
X57253867Y-62496310D01*
X57238127Y-62475087D01*
X57224543Y-62452424D01*
X57213245Y-62428538D01*
X57204344Y-62403659D01*
X57197924Y-62378028D01*
X57194047Y-62351891D01*
X57192750Y-62325500D01*
X57192750Y-61787000D01*
X57194047Y-61760609D01*
X57197924Y-61734472D01*
X57204344Y-61708841D01*
X57213245Y-61683962D01*
X57224543Y-61660076D01*
X57238127Y-61637413D01*
X57253867Y-61616190D01*
X57271611Y-61596611D01*
X57291190Y-61578867D01*
X57312413Y-61563127D01*
X57335076Y-61549543D01*
X57358962Y-61538245D01*
X57383841Y-61529344D01*
X57409472Y-61522924D01*
X57435609Y-61519047D01*
X57462000Y-61517750D01*
X58425500Y-61517750D01*
X58451891Y-61519047D01*
X58451891Y-61519047D01*
G37*
D18*
X57943750Y-62056250D03*
D22*
X56212500Y-138937500D03*
X56212500Y-138137500D03*
X56212500Y-137337500D03*
X56212500Y-136537500D03*
X56212500Y-135737500D03*
X56212500Y-134937500D03*
X56212500Y-134137500D03*
X56212500Y-133337500D03*
X56212500Y-132537500D03*
X56212500Y-131737500D03*
X56212500Y-130937500D03*
D23*
X57912500Y-129237500D03*
X58712500Y-129237500D03*
X59512500Y-129237500D03*
X60312500Y-129237500D03*
X61112500Y-129237500D03*
X61912500Y-129237500D03*
X62712500Y-129237500D03*
X63512500Y-129237500D03*
X64312500Y-129237500D03*
X65112500Y-129237500D03*
X65912500Y-129237500D03*
D22*
X67612500Y-130937500D03*
X67612500Y-131737500D03*
X67612500Y-132537500D03*
X67612500Y-133337500D03*
X67612500Y-134137500D03*
X67612500Y-134937500D03*
X67612500Y-135737500D03*
X67612500Y-136537500D03*
X67612500Y-137337500D03*
X67612500Y-138137500D03*
X67612500Y-138937500D03*
D23*
X65912500Y-140637500D03*
X65112500Y-140637500D03*
X64312500Y-140637500D03*
X63512500Y-140637500D03*
X62712500Y-140637500D03*
X61912500Y-140637500D03*
X61112500Y-140637500D03*
X60312500Y-140637500D03*
X59512500Y-140637500D03*
X58712500Y-140637500D03*
X57912500Y-140637500D03*
D24*
X56400000Y-53080000D03*
X55600000Y-53080000D03*
X54800000Y-53080000D03*
X54000000Y-53080000D03*
X53200000Y-53080000D03*
D25*
X51150000Y-53080000D03*
X58450000Y-53080000D03*
X58450000Y-48580000D03*
X51150000Y-48580000D03*
D26*
X63562500Y-121650000D03*
X60262500Y-121650000D03*
X60262500Y-119650000D03*
X63562500Y-119650000D03*
M02*
