G04 #@! TF.GenerationSoftware,KiCad,Pcbnew,(5.1.0)-1*
G04 #@! TF.CreationDate,2019-05-17T11:19:36-04:00*
G04 #@! TF.ProjectId,pcb-project,7063622d-7072-46f6-9a65-63742e6b6963,rev?*
G04 #@! TF.SameCoordinates,Original*
G04 #@! TF.FileFunction,Legend,Top*
G04 #@! TF.FilePolarity,Positive*
%FSLAX46Y46*%
G04 Gerber Fmt 4.6, Leading zero omitted, Abs format (unit mm)*
G04 Created by KiCad (PCBNEW (5.1.0)-1) date 2019-05-17 11:19:36*
%MOMM*%
%LPD*%
G04 APERTURE LIST*
%ADD10C,0.120000*%
%ADD11C,0.150000*%
%ADD12C,1.852000*%
%ADD13C,4.089800*%
%ADD14C,3.150000*%
%ADD15O,1.802000X2.802000*%
%ADD16R,1.102000X1.602000*%
G04 APERTURE END LIST*
D10*
X52018750Y-116362500D02*
X53168750Y-116362500D01*
X52018750Y-109062500D02*
X52018750Y-116362500D01*
X57518750Y-109062500D02*
X57518750Y-116362500D01*
X52018750Y-109218750D02*
X53168750Y-109218750D01*
X52018750Y-101918750D02*
X52018750Y-109218750D01*
X57518750Y-101918750D02*
X57518750Y-109218750D01*
X57518750Y-94775000D02*
X57518750Y-102075000D01*
X52018750Y-94775000D02*
X52018750Y-102075000D01*
X52018750Y-102075000D02*
X53168750Y-102075000D01*
X52018750Y-94931250D02*
X53168750Y-94931250D01*
X52018750Y-87631250D02*
X52018750Y-94931250D01*
X57518750Y-87631250D02*
X57518750Y-94931250D01*
X57518750Y-80487500D02*
X57518750Y-87787500D01*
X52018750Y-80487500D02*
X52018750Y-87787500D01*
X52018750Y-87787500D02*
X53168750Y-87787500D01*
X52018750Y-80643750D02*
X53168750Y-80643750D01*
X52018750Y-73343750D02*
X52018750Y-80643750D01*
X57518750Y-73343750D02*
X57518750Y-80643750D01*
X57518750Y-66200000D02*
X57518750Y-73500000D01*
X52018750Y-66200000D02*
X52018750Y-73500000D01*
X52018750Y-73500000D02*
X53168750Y-73500000D01*
X57518750Y-59056250D02*
X57518750Y-66356250D01*
X52018750Y-59056250D02*
X52018750Y-66356250D01*
X52018750Y-66356250D02*
X53168750Y-66356250D01*
D11*
X58721130Y-115331547D02*
X57721130Y-115331547D01*
X57721130Y-115093452D01*
X57768750Y-114950595D01*
X57863988Y-114855357D01*
X57959226Y-114807738D01*
X58149702Y-114760119D01*
X58292559Y-114760119D01*
X58483035Y-114807738D01*
X58578273Y-114855357D01*
X58673511Y-114950595D01*
X58721130Y-115093452D01*
X58721130Y-115331547D01*
X58816369Y-114569642D02*
X58816369Y-113807738D01*
X58721130Y-112998214D02*
X58244940Y-113331547D01*
X58721130Y-113569642D02*
X57721130Y-113569642D01*
X57721130Y-113188690D01*
X57768750Y-113093452D01*
X57816369Y-113045833D01*
X57911607Y-112998214D01*
X58054464Y-112998214D01*
X58149702Y-113045833D01*
X58197321Y-113093452D01*
X58244940Y-113188690D01*
X58244940Y-113569642D01*
X57768750Y-112045833D02*
X57721130Y-112141071D01*
X57721130Y-112283928D01*
X57768750Y-112426785D01*
X57863988Y-112522023D01*
X57959226Y-112569642D01*
X58149702Y-112617261D01*
X58292559Y-112617261D01*
X58483035Y-112569642D01*
X58578273Y-112522023D01*
X58673511Y-112426785D01*
X58721130Y-112283928D01*
X58721130Y-112188690D01*
X58673511Y-112045833D01*
X58625892Y-111998214D01*
X58292559Y-111998214D01*
X58292559Y-112188690D01*
X58197321Y-111236309D02*
X58244940Y-111093452D01*
X58292559Y-111045833D01*
X58387797Y-110998214D01*
X58530654Y-110998214D01*
X58625892Y-111045833D01*
X58673511Y-111093452D01*
X58721130Y-111188690D01*
X58721130Y-111569642D01*
X57721130Y-111569642D01*
X57721130Y-111236309D01*
X57768750Y-111141071D01*
X57816369Y-111093452D01*
X57911607Y-111045833D01*
X58006845Y-111045833D01*
X58102083Y-111093452D01*
X58149702Y-111141071D01*
X58197321Y-111236309D01*
X58197321Y-111569642D01*
X58721130Y-110045833D02*
X58721130Y-110617261D01*
X58721130Y-110331547D02*
X57721130Y-110331547D01*
X57863988Y-110426785D01*
X57959226Y-110522023D01*
X58006845Y-110617261D01*
X56821130Y-108276785D02*
X56821130Y-108848214D01*
X56821130Y-108562500D02*
X55821130Y-108562500D01*
X55963988Y-108657738D01*
X56059226Y-108752976D01*
X56106845Y-108848214D01*
X58721130Y-108187797D02*
X57721130Y-108187797D01*
X57721130Y-107949702D01*
X57768750Y-107806845D01*
X57863988Y-107711607D01*
X57959226Y-107663988D01*
X58149702Y-107616369D01*
X58292559Y-107616369D01*
X58483035Y-107663988D01*
X58578273Y-107711607D01*
X58673511Y-107806845D01*
X58721130Y-107949702D01*
X58721130Y-108187797D01*
X58816369Y-107425892D02*
X58816369Y-106663988D01*
X58721130Y-105854464D02*
X58244940Y-106187797D01*
X58721130Y-106425892D02*
X57721130Y-106425892D01*
X57721130Y-106044940D01*
X57768750Y-105949702D01*
X57816369Y-105902083D01*
X57911607Y-105854464D01*
X58054464Y-105854464D01*
X58149702Y-105902083D01*
X58197321Y-105949702D01*
X58244940Y-106044940D01*
X58244940Y-106425892D01*
X57768750Y-104902083D02*
X57721130Y-104997321D01*
X57721130Y-105140178D01*
X57768750Y-105283035D01*
X57863988Y-105378273D01*
X57959226Y-105425892D01*
X58149702Y-105473511D01*
X58292559Y-105473511D01*
X58483035Y-105425892D01*
X58578273Y-105378273D01*
X58673511Y-105283035D01*
X58721130Y-105140178D01*
X58721130Y-105044940D01*
X58673511Y-104902083D01*
X58625892Y-104854464D01*
X58292559Y-104854464D01*
X58292559Y-105044940D01*
X58197321Y-104092559D02*
X58244940Y-103949702D01*
X58292559Y-103902083D01*
X58387797Y-103854464D01*
X58530654Y-103854464D01*
X58625892Y-103902083D01*
X58673511Y-103949702D01*
X58721130Y-104044940D01*
X58721130Y-104425892D01*
X57721130Y-104425892D01*
X57721130Y-104092559D01*
X57768750Y-103997321D01*
X57816369Y-103949702D01*
X57911607Y-103902083D01*
X58006845Y-103902083D01*
X58102083Y-103949702D01*
X58149702Y-103997321D01*
X58197321Y-104092559D01*
X58197321Y-104425892D01*
X57816369Y-103473511D02*
X57768750Y-103425892D01*
X57721130Y-103330654D01*
X57721130Y-103092559D01*
X57768750Y-102997321D01*
X57816369Y-102949702D01*
X57911607Y-102902083D01*
X58006845Y-102902083D01*
X58149702Y-102949702D01*
X58721130Y-103521130D01*
X58721130Y-102902083D01*
X56821130Y-101133035D02*
X56821130Y-101704464D01*
X56821130Y-101418750D02*
X55821130Y-101418750D01*
X55963988Y-101513988D01*
X56059226Y-101609226D01*
X56106845Y-101704464D01*
X58721130Y-101044047D02*
X57721130Y-101044047D01*
X57721130Y-100805952D01*
X57768750Y-100663095D01*
X57863988Y-100567857D01*
X57959226Y-100520238D01*
X58149702Y-100472619D01*
X58292559Y-100472619D01*
X58483035Y-100520238D01*
X58578273Y-100567857D01*
X58673511Y-100663095D01*
X58721130Y-100805952D01*
X58721130Y-101044047D01*
X58816369Y-100282142D02*
X58816369Y-99520238D01*
X58721130Y-98710714D02*
X58244940Y-99044047D01*
X58721130Y-99282142D02*
X57721130Y-99282142D01*
X57721130Y-98901190D01*
X57768750Y-98805952D01*
X57816369Y-98758333D01*
X57911607Y-98710714D01*
X58054464Y-98710714D01*
X58149702Y-98758333D01*
X58197321Y-98805952D01*
X58244940Y-98901190D01*
X58244940Y-99282142D01*
X57768750Y-97758333D02*
X57721130Y-97853571D01*
X57721130Y-97996428D01*
X57768750Y-98139285D01*
X57863988Y-98234523D01*
X57959226Y-98282142D01*
X58149702Y-98329761D01*
X58292559Y-98329761D01*
X58483035Y-98282142D01*
X58578273Y-98234523D01*
X58673511Y-98139285D01*
X58721130Y-97996428D01*
X58721130Y-97901190D01*
X58673511Y-97758333D01*
X58625892Y-97710714D01*
X58292559Y-97710714D01*
X58292559Y-97901190D01*
X58197321Y-96948809D02*
X58244940Y-96805952D01*
X58292559Y-96758333D01*
X58387797Y-96710714D01*
X58530654Y-96710714D01*
X58625892Y-96758333D01*
X58673511Y-96805952D01*
X58721130Y-96901190D01*
X58721130Y-97282142D01*
X57721130Y-97282142D01*
X57721130Y-96948809D01*
X57768750Y-96853571D01*
X57816369Y-96805952D01*
X57911607Y-96758333D01*
X58006845Y-96758333D01*
X58102083Y-96805952D01*
X58149702Y-96853571D01*
X58197321Y-96948809D01*
X58197321Y-97282142D01*
X57721130Y-96377380D02*
X57721130Y-95758333D01*
X58102083Y-96091666D01*
X58102083Y-95948809D01*
X58149702Y-95853571D01*
X58197321Y-95805952D01*
X58292559Y-95758333D01*
X58530654Y-95758333D01*
X58625892Y-95805952D01*
X58673511Y-95853571D01*
X58721130Y-95948809D01*
X58721130Y-96234523D01*
X58673511Y-96329761D01*
X58625892Y-96377380D01*
X56821130Y-93989285D02*
X56821130Y-94560714D01*
X56821130Y-94275000D02*
X55821130Y-94275000D01*
X55963988Y-94370238D01*
X56059226Y-94465476D01*
X56106845Y-94560714D01*
X58721130Y-93900297D02*
X57721130Y-93900297D01*
X57721130Y-93662202D01*
X57768750Y-93519345D01*
X57863988Y-93424107D01*
X57959226Y-93376488D01*
X58149702Y-93328869D01*
X58292559Y-93328869D01*
X58483035Y-93376488D01*
X58578273Y-93424107D01*
X58673511Y-93519345D01*
X58721130Y-93662202D01*
X58721130Y-93900297D01*
X58816369Y-93138392D02*
X58816369Y-92376488D01*
X58721130Y-91566964D02*
X58244940Y-91900297D01*
X58721130Y-92138392D02*
X57721130Y-92138392D01*
X57721130Y-91757440D01*
X57768750Y-91662202D01*
X57816369Y-91614583D01*
X57911607Y-91566964D01*
X58054464Y-91566964D01*
X58149702Y-91614583D01*
X58197321Y-91662202D01*
X58244940Y-91757440D01*
X58244940Y-92138392D01*
X57768750Y-90614583D02*
X57721130Y-90709821D01*
X57721130Y-90852678D01*
X57768750Y-90995535D01*
X57863988Y-91090773D01*
X57959226Y-91138392D01*
X58149702Y-91186011D01*
X58292559Y-91186011D01*
X58483035Y-91138392D01*
X58578273Y-91090773D01*
X58673511Y-90995535D01*
X58721130Y-90852678D01*
X58721130Y-90757440D01*
X58673511Y-90614583D01*
X58625892Y-90566964D01*
X58292559Y-90566964D01*
X58292559Y-90757440D01*
X58197321Y-89805059D02*
X58244940Y-89662202D01*
X58292559Y-89614583D01*
X58387797Y-89566964D01*
X58530654Y-89566964D01*
X58625892Y-89614583D01*
X58673511Y-89662202D01*
X58721130Y-89757440D01*
X58721130Y-90138392D01*
X57721130Y-90138392D01*
X57721130Y-89805059D01*
X57768750Y-89709821D01*
X57816369Y-89662202D01*
X57911607Y-89614583D01*
X58006845Y-89614583D01*
X58102083Y-89662202D01*
X58149702Y-89709821D01*
X58197321Y-89805059D01*
X58197321Y-90138392D01*
X58054464Y-88709821D02*
X58721130Y-88709821D01*
X57673511Y-88947916D02*
X58387797Y-89186011D01*
X58387797Y-88566964D01*
X56821130Y-86845535D02*
X56821130Y-87416964D01*
X56821130Y-87131250D02*
X55821130Y-87131250D01*
X55963988Y-87226488D01*
X56059226Y-87321726D01*
X56106845Y-87416964D01*
X58721130Y-86756547D02*
X57721130Y-86756547D01*
X57721130Y-86518452D01*
X57768750Y-86375595D01*
X57863988Y-86280357D01*
X57959226Y-86232738D01*
X58149702Y-86185119D01*
X58292559Y-86185119D01*
X58483035Y-86232738D01*
X58578273Y-86280357D01*
X58673511Y-86375595D01*
X58721130Y-86518452D01*
X58721130Y-86756547D01*
X58816369Y-85994642D02*
X58816369Y-85232738D01*
X58721130Y-84423214D02*
X58244940Y-84756547D01*
X58721130Y-84994642D02*
X57721130Y-84994642D01*
X57721130Y-84613690D01*
X57768750Y-84518452D01*
X57816369Y-84470833D01*
X57911607Y-84423214D01*
X58054464Y-84423214D01*
X58149702Y-84470833D01*
X58197321Y-84518452D01*
X58244940Y-84613690D01*
X58244940Y-84994642D01*
X57768750Y-83470833D02*
X57721130Y-83566071D01*
X57721130Y-83708928D01*
X57768750Y-83851785D01*
X57863988Y-83947023D01*
X57959226Y-83994642D01*
X58149702Y-84042261D01*
X58292559Y-84042261D01*
X58483035Y-83994642D01*
X58578273Y-83947023D01*
X58673511Y-83851785D01*
X58721130Y-83708928D01*
X58721130Y-83613690D01*
X58673511Y-83470833D01*
X58625892Y-83423214D01*
X58292559Y-83423214D01*
X58292559Y-83613690D01*
X58197321Y-82661309D02*
X58244940Y-82518452D01*
X58292559Y-82470833D01*
X58387797Y-82423214D01*
X58530654Y-82423214D01*
X58625892Y-82470833D01*
X58673511Y-82518452D01*
X58721130Y-82613690D01*
X58721130Y-82994642D01*
X57721130Y-82994642D01*
X57721130Y-82661309D01*
X57768750Y-82566071D01*
X57816369Y-82518452D01*
X57911607Y-82470833D01*
X58006845Y-82470833D01*
X58102083Y-82518452D01*
X58149702Y-82566071D01*
X58197321Y-82661309D01*
X58197321Y-82994642D01*
X57721130Y-81518452D02*
X57721130Y-81994642D01*
X58197321Y-82042261D01*
X58149702Y-81994642D01*
X58102083Y-81899404D01*
X58102083Y-81661309D01*
X58149702Y-81566071D01*
X58197321Y-81518452D01*
X58292559Y-81470833D01*
X58530654Y-81470833D01*
X58625892Y-81518452D01*
X58673511Y-81566071D01*
X58721130Y-81661309D01*
X58721130Y-81899404D01*
X58673511Y-81994642D01*
X58625892Y-82042261D01*
X56821130Y-79701785D02*
X56821130Y-80273214D01*
X56821130Y-79987500D02*
X55821130Y-79987500D01*
X55963988Y-80082738D01*
X56059226Y-80177976D01*
X56106845Y-80273214D01*
X58721130Y-79612797D02*
X57721130Y-79612797D01*
X57721130Y-79374702D01*
X57768750Y-79231845D01*
X57863988Y-79136607D01*
X57959226Y-79088988D01*
X58149702Y-79041369D01*
X58292559Y-79041369D01*
X58483035Y-79088988D01*
X58578273Y-79136607D01*
X58673511Y-79231845D01*
X58721130Y-79374702D01*
X58721130Y-79612797D01*
X58816369Y-78850892D02*
X58816369Y-78088988D01*
X58721130Y-77279464D02*
X58244940Y-77612797D01*
X58721130Y-77850892D02*
X57721130Y-77850892D01*
X57721130Y-77469940D01*
X57768750Y-77374702D01*
X57816369Y-77327083D01*
X57911607Y-77279464D01*
X58054464Y-77279464D01*
X58149702Y-77327083D01*
X58197321Y-77374702D01*
X58244940Y-77469940D01*
X58244940Y-77850892D01*
X57768750Y-76327083D02*
X57721130Y-76422321D01*
X57721130Y-76565178D01*
X57768750Y-76708035D01*
X57863988Y-76803273D01*
X57959226Y-76850892D01*
X58149702Y-76898511D01*
X58292559Y-76898511D01*
X58483035Y-76850892D01*
X58578273Y-76803273D01*
X58673511Y-76708035D01*
X58721130Y-76565178D01*
X58721130Y-76469940D01*
X58673511Y-76327083D01*
X58625892Y-76279464D01*
X58292559Y-76279464D01*
X58292559Y-76469940D01*
X58197321Y-75517559D02*
X58244940Y-75374702D01*
X58292559Y-75327083D01*
X58387797Y-75279464D01*
X58530654Y-75279464D01*
X58625892Y-75327083D01*
X58673511Y-75374702D01*
X58721130Y-75469940D01*
X58721130Y-75850892D01*
X57721130Y-75850892D01*
X57721130Y-75517559D01*
X57768750Y-75422321D01*
X57816369Y-75374702D01*
X57911607Y-75327083D01*
X58006845Y-75327083D01*
X58102083Y-75374702D01*
X58149702Y-75422321D01*
X58197321Y-75517559D01*
X58197321Y-75850892D01*
X57721130Y-74422321D02*
X57721130Y-74612797D01*
X57768750Y-74708035D01*
X57816369Y-74755654D01*
X57959226Y-74850892D01*
X58149702Y-74898511D01*
X58530654Y-74898511D01*
X58625892Y-74850892D01*
X58673511Y-74803273D01*
X58721130Y-74708035D01*
X58721130Y-74517559D01*
X58673511Y-74422321D01*
X58625892Y-74374702D01*
X58530654Y-74327083D01*
X58292559Y-74327083D01*
X58197321Y-74374702D01*
X58149702Y-74422321D01*
X58102083Y-74517559D01*
X58102083Y-74708035D01*
X58149702Y-74803273D01*
X58197321Y-74850892D01*
X58292559Y-74898511D01*
X56821130Y-72558035D02*
X56821130Y-73129464D01*
X56821130Y-72843750D02*
X55821130Y-72843750D01*
X55963988Y-72938988D01*
X56059226Y-73034226D01*
X56106845Y-73129464D01*
X58721130Y-72469047D02*
X57721130Y-72469047D01*
X57721130Y-72230952D01*
X57768750Y-72088095D01*
X57863988Y-71992857D01*
X57959226Y-71945238D01*
X58149702Y-71897619D01*
X58292559Y-71897619D01*
X58483035Y-71945238D01*
X58578273Y-71992857D01*
X58673511Y-72088095D01*
X58721130Y-72230952D01*
X58721130Y-72469047D01*
X58816369Y-71707142D02*
X58816369Y-70945238D01*
X58721130Y-70135714D02*
X58244940Y-70469047D01*
X58721130Y-70707142D02*
X57721130Y-70707142D01*
X57721130Y-70326190D01*
X57768750Y-70230952D01*
X57816369Y-70183333D01*
X57911607Y-70135714D01*
X58054464Y-70135714D01*
X58149702Y-70183333D01*
X58197321Y-70230952D01*
X58244940Y-70326190D01*
X58244940Y-70707142D01*
X57768750Y-69183333D02*
X57721130Y-69278571D01*
X57721130Y-69421428D01*
X57768750Y-69564285D01*
X57863988Y-69659523D01*
X57959226Y-69707142D01*
X58149702Y-69754761D01*
X58292559Y-69754761D01*
X58483035Y-69707142D01*
X58578273Y-69659523D01*
X58673511Y-69564285D01*
X58721130Y-69421428D01*
X58721130Y-69326190D01*
X58673511Y-69183333D01*
X58625892Y-69135714D01*
X58292559Y-69135714D01*
X58292559Y-69326190D01*
X58197321Y-68373809D02*
X58244940Y-68230952D01*
X58292559Y-68183333D01*
X58387797Y-68135714D01*
X58530654Y-68135714D01*
X58625892Y-68183333D01*
X58673511Y-68230952D01*
X58721130Y-68326190D01*
X58721130Y-68707142D01*
X57721130Y-68707142D01*
X57721130Y-68373809D01*
X57768750Y-68278571D01*
X57816369Y-68230952D01*
X57911607Y-68183333D01*
X58006845Y-68183333D01*
X58102083Y-68230952D01*
X58149702Y-68278571D01*
X58197321Y-68373809D01*
X58197321Y-68707142D01*
X57721130Y-67802380D02*
X57721130Y-67135714D01*
X58721130Y-67564285D01*
X56821130Y-65414285D02*
X56821130Y-65985714D01*
X56821130Y-65700000D02*
X55821130Y-65700000D01*
X55963988Y-65795238D01*
X56059226Y-65890476D01*
X56106845Y-65985714D01*
X58721130Y-65325297D02*
X57721130Y-65325297D01*
X57721130Y-65087202D01*
X57768750Y-64944345D01*
X57863988Y-64849107D01*
X57959226Y-64801488D01*
X58149702Y-64753869D01*
X58292559Y-64753869D01*
X58483035Y-64801488D01*
X58578273Y-64849107D01*
X58673511Y-64944345D01*
X58721130Y-65087202D01*
X58721130Y-65325297D01*
X58816369Y-64563392D02*
X58816369Y-63801488D01*
X58721130Y-62991964D02*
X58244940Y-63325297D01*
X58721130Y-63563392D02*
X57721130Y-63563392D01*
X57721130Y-63182440D01*
X57768750Y-63087202D01*
X57816369Y-63039583D01*
X57911607Y-62991964D01*
X58054464Y-62991964D01*
X58149702Y-63039583D01*
X58197321Y-63087202D01*
X58244940Y-63182440D01*
X58244940Y-63563392D01*
X57768750Y-62039583D02*
X57721130Y-62134821D01*
X57721130Y-62277678D01*
X57768750Y-62420535D01*
X57863988Y-62515773D01*
X57959226Y-62563392D01*
X58149702Y-62611011D01*
X58292559Y-62611011D01*
X58483035Y-62563392D01*
X58578273Y-62515773D01*
X58673511Y-62420535D01*
X58721130Y-62277678D01*
X58721130Y-62182440D01*
X58673511Y-62039583D01*
X58625892Y-61991964D01*
X58292559Y-61991964D01*
X58292559Y-62182440D01*
X58197321Y-61230059D02*
X58244940Y-61087202D01*
X58292559Y-61039583D01*
X58387797Y-60991964D01*
X58530654Y-60991964D01*
X58625892Y-61039583D01*
X58673511Y-61087202D01*
X58721130Y-61182440D01*
X58721130Y-61563392D01*
X57721130Y-61563392D01*
X57721130Y-61230059D01*
X57768750Y-61134821D01*
X57816369Y-61087202D01*
X57911607Y-61039583D01*
X58006845Y-61039583D01*
X58102083Y-61087202D01*
X58149702Y-61134821D01*
X58197321Y-61230059D01*
X58197321Y-61563392D01*
X58149702Y-60420535D02*
X58102083Y-60515773D01*
X58054464Y-60563392D01*
X57959226Y-60611011D01*
X57911607Y-60611011D01*
X57816369Y-60563392D01*
X57768750Y-60515773D01*
X57721130Y-60420535D01*
X57721130Y-60230059D01*
X57768750Y-60134821D01*
X57816369Y-60087202D01*
X57911607Y-60039583D01*
X57959226Y-60039583D01*
X58054464Y-60087202D01*
X58102083Y-60134821D01*
X58149702Y-60230059D01*
X58149702Y-60420535D01*
X58197321Y-60515773D01*
X58244940Y-60563392D01*
X58340178Y-60611011D01*
X58530654Y-60611011D01*
X58625892Y-60563392D01*
X58673511Y-60515773D01*
X58721130Y-60420535D01*
X58721130Y-60230059D01*
X58673511Y-60134821D01*
X58625892Y-60087202D01*
X58530654Y-60039583D01*
X58340178Y-60039583D01*
X58244940Y-60087202D01*
X58197321Y-60134821D01*
X58149702Y-60230059D01*
X56821130Y-58270535D02*
X56821130Y-58841964D01*
X56821130Y-58556250D02*
X55821130Y-58556250D01*
X55963988Y-58651488D01*
X56059226Y-58746726D01*
X56106845Y-58841964D01*
%LPC*%
D12*
X131286250Y-134937500D03*
X121126250Y-134937500D03*
D13*
X126206250Y-134937500D03*
D12*
X293211250Y-134937500D03*
X283051250Y-134937500D03*
D13*
X288131250Y-134937500D03*
X80962500Y-96837500D03*
D12*
X75882500Y-96837500D03*
X86042500Y-96837500D03*
X269398750Y-58737500D03*
X259238750Y-58737500D03*
D13*
X264318750Y-58737500D03*
D12*
X97948750Y-58737500D03*
X87788750Y-58737500D03*
D13*
X92868750Y-58737500D03*
D12*
X116998750Y-58737500D03*
X106838750Y-58737500D03*
D13*
X111918750Y-58737500D03*
X130968750Y-58737500D03*
D12*
X125888750Y-58737500D03*
X136048750Y-58737500D03*
D13*
X150018750Y-58737500D03*
D12*
X144938750Y-58737500D03*
X155098750Y-58737500D03*
D13*
X169068750Y-58737500D03*
D12*
X163988750Y-58737500D03*
X174148750Y-58737500D03*
D13*
X188118750Y-58737500D03*
D12*
X183038750Y-58737500D03*
X193198750Y-58737500D03*
D13*
X207168750Y-58737500D03*
D12*
X202088750Y-58737500D03*
X212248750Y-58737500D03*
X231298750Y-58737500D03*
X221138750Y-58737500D03*
D13*
X226218750Y-58737500D03*
X245268750Y-58737500D03*
D12*
X240188750Y-58737500D03*
X250348750Y-58737500D03*
D13*
X207168750Y-134937500D03*
D12*
X202088750Y-134937500D03*
X212248750Y-134937500D03*
D14*
X150018750Y-127952500D03*
X264318750Y-127952500D03*
D13*
X150018750Y-143192500D03*
X264318750Y-143192500D03*
X292893750Y-77787500D03*
D12*
X287813750Y-77787500D03*
X297973750Y-77787500D03*
X317023750Y-77787500D03*
X306863750Y-77787500D03*
D13*
X311943750Y-77787500D03*
X340518750Y-58737500D03*
D12*
X335438750Y-58737500D03*
X345598750Y-58737500D03*
D13*
X73818750Y-58737500D03*
D12*
X68738750Y-58737500D03*
X78898750Y-58737500D03*
X112236250Y-96837500D03*
X102076250Y-96837500D03*
D13*
X107156250Y-96837500D03*
X192881250Y-115887500D03*
D12*
X187801250Y-115887500D03*
X197961250Y-115887500D03*
D13*
X335756250Y-77787500D03*
D12*
X330676250Y-77787500D03*
X340836250Y-77787500D03*
X326548750Y-58737500D03*
X316388750Y-58737500D03*
D13*
X321468750Y-58737500D03*
D12*
X159861250Y-115887500D03*
X149701250Y-115887500D03*
D13*
X154781250Y-115887500D03*
D12*
X255111250Y-115887500D03*
X244951250Y-115887500D03*
D13*
X250031250Y-115887500D03*
X145256250Y-96837500D03*
D12*
X140176250Y-96837500D03*
X150336250Y-96837500D03*
X274161250Y-115887500D03*
X264001250Y-115887500D03*
D13*
X269081250Y-115887500D03*
D12*
X145573750Y-77787500D03*
X135413750Y-77787500D03*
D13*
X140493750Y-77787500D03*
X340550500Y-105092500D03*
X316674500Y-105092500D03*
D14*
X340550500Y-89852500D03*
X316674500Y-89852500D03*
D12*
X333692500Y-96837500D03*
X323532500Y-96837500D03*
D13*
X328612500Y-96837500D03*
D12*
X307498750Y-58737500D03*
X297338750Y-58737500D03*
D13*
X302418750Y-58737500D03*
X35718750Y-58737500D03*
D12*
X30638750Y-58737500D03*
X40798750Y-58737500D03*
D13*
X35718750Y-77787500D03*
D12*
X30638750Y-77787500D03*
X40798750Y-77787500D03*
X40798750Y-96837500D03*
X30638750Y-96837500D03*
D13*
X35718750Y-96837500D03*
X35718750Y-115887500D03*
D12*
X30638750Y-115887500D03*
X40798750Y-115887500D03*
X40798750Y-134937500D03*
X30638750Y-134937500D03*
D13*
X35718750Y-134937500D03*
D12*
X169386250Y-96837500D03*
X159226250Y-96837500D03*
D13*
X164306250Y-96837500D03*
D12*
X345598750Y-115887500D03*
X335438750Y-115887500D03*
D13*
X340518750Y-115887500D03*
X183356250Y-96837500D03*
D12*
X178276250Y-96837500D03*
X188436250Y-96837500D03*
X207486250Y-96837500D03*
X197326250Y-96837500D03*
D13*
X202406250Y-96837500D03*
X235743750Y-77787500D03*
D12*
X230663750Y-77787500D03*
X240823750Y-77787500D03*
X226536250Y-96837500D03*
X216376250Y-96837500D03*
D13*
X221456250Y-96837500D03*
D12*
X245586250Y-96837500D03*
X235426250Y-96837500D03*
D13*
X240506250Y-96837500D03*
X259556250Y-96837500D03*
D12*
X254476250Y-96837500D03*
X264636250Y-96837500D03*
X236061250Y-115887500D03*
X225901250Y-115887500D03*
D13*
X230981250Y-115887500D03*
X283368750Y-58737500D03*
D12*
X278288750Y-58737500D03*
X288448750Y-58737500D03*
D13*
X211931250Y-115887500D03*
D12*
X206851250Y-115887500D03*
X217011250Y-115887500D03*
X259873750Y-77787500D03*
X249713750Y-77787500D03*
D13*
X254793750Y-77787500D03*
D12*
X278923750Y-77787500D03*
X268763750Y-77787500D03*
D13*
X273843750Y-77787500D03*
D12*
X107473750Y-77787500D03*
X97313750Y-77787500D03*
D13*
X102393750Y-77787500D03*
X297656250Y-96837500D03*
D12*
X292576250Y-96837500D03*
X302736250Y-96837500D03*
X164623750Y-77787500D03*
X154463750Y-77787500D03*
D13*
X159543750Y-77787500D03*
X126206250Y-96837500D03*
D12*
X121126250Y-96837500D03*
X131286250Y-96837500D03*
D13*
X278606250Y-96837500D03*
D12*
X273526250Y-96837500D03*
X283686250Y-96837500D03*
X319405000Y-115887500D03*
X309245000Y-115887500D03*
D13*
X314325000Y-115887500D03*
X85725000Y-115887500D03*
D12*
X80645000Y-115887500D03*
X90805000Y-115887500D03*
D14*
X73787000Y-108902500D03*
X97663000Y-108902500D03*
D13*
X73787000Y-124142500D03*
X97663000Y-124142500D03*
X288131250Y-115887500D03*
D12*
X283051250Y-115887500D03*
X293211250Y-115887500D03*
D13*
X178593750Y-77787500D03*
D12*
X173513750Y-77787500D03*
X183673750Y-77787500D03*
X83661250Y-77787500D03*
X73501250Y-77787500D03*
D13*
X78581250Y-77787500D03*
D12*
X221773750Y-77787500D03*
X211613750Y-77787500D03*
D13*
X216693750Y-77787500D03*
X173831250Y-115887500D03*
D12*
X168751250Y-115887500D03*
X178911250Y-115887500D03*
D13*
X121443750Y-77787500D03*
D12*
X116363750Y-77787500D03*
X126523750Y-77787500D03*
D13*
X311943750Y-134937500D03*
D12*
X306863750Y-134937500D03*
X317023750Y-134937500D03*
X107473750Y-134937500D03*
X97313750Y-134937500D03*
D13*
X102393750Y-134937500D03*
X135731250Y-115887500D03*
D12*
X130651250Y-115887500D03*
X140811250Y-115887500D03*
X202723750Y-77787500D03*
X192563750Y-77787500D03*
D13*
X197643750Y-77787500D03*
D12*
X121761250Y-115887500D03*
X111601250Y-115887500D03*
D13*
X116681250Y-115887500D03*
D15*
X51150000Y-53080000D03*
X58450000Y-53080000D03*
X58450000Y-48580000D03*
X51150000Y-48580000D03*
D16*
X56368750Y-110262500D03*
X53168750Y-110262500D03*
X56368750Y-115162500D03*
X53168750Y-115162500D03*
X56368750Y-103118750D03*
X53168750Y-103118750D03*
X56368750Y-108018750D03*
X53168750Y-108018750D03*
X53168750Y-100875000D03*
X56368750Y-100875000D03*
X53168750Y-95975000D03*
X56368750Y-95975000D03*
X56368750Y-88831250D03*
X53168750Y-88831250D03*
X56368750Y-93731250D03*
X53168750Y-93731250D03*
X53168750Y-86587500D03*
X56368750Y-86587500D03*
X53168750Y-81687500D03*
X56368750Y-81687500D03*
X56368750Y-74543750D03*
X53168750Y-74543750D03*
X56368750Y-79443750D03*
X53168750Y-79443750D03*
X53168750Y-72300000D03*
X56368750Y-72300000D03*
X53168750Y-67400000D03*
X56368750Y-67400000D03*
X53168750Y-65156250D03*
X56368750Y-65156250D03*
X53168750Y-60256250D03*
X56368750Y-60256250D03*
M02*
