M48
; DRILL file {KiCad (5.1.0)-1} date 5/2/2019 5:07:57 PM
; FORMAT={-:-/ absolute / inch / decimal}
; #@! TF.CreationDate,2019-05-02T17:07:57-04:00
; #@! TF.GenerationSoftware,Kicad,Pcbnew,(5.1.0)-1
; #@! TF.FileFunction,Plated,1,2,PTH
FMAT,2
INCH
T1C0.0157
T2C0.0433
T3C0.0579
%
G90
G05
T1
X1.7188Y-2.4375
X1.75Y-3.1875
X1.75Y-3.9375
X1.7812Y-4.6875
X1.8438Y-3.9375
X1.8438Y-4.6875
X1.9062Y-3.125
X1.9062Y-3.2188
X2.6189Y-3.0906
X2.6506Y-3.0589
X2.6829Y-3.0266
X2.7188Y-3.25
X2.7726Y-3.2506
X2.7766Y-2.8484
X2.8079Y-2.8796
X2.8125Y-3.25
X2.8171Y-2.8079
X2.8391Y-2.9109
X2.8484Y-2.8391
X2.8796Y-2.8704
X2.9486Y-2.5736
X2.9688Y-2.534
X3.0168Y-2.5054
X3.0312Y-2.4688
X3.0312Y-2.5938
X3.1562Y-2.4688
X3.1562Y-2.5081
X3.1562Y-2.5475
X3.5266Y-2.7234
X3.5579Y-2.7546
X3.5671Y-2.6829
X3.5984Y-2.7141
X4.2812Y-2.6562
X4.3234Y-2.6141
X6.0625Y-3.3438
X6.8125Y-3.3125
X7.5938Y-3.2812
X8.0Y-2.5938
X8.7188Y-2.5625
X9.4375Y-2.5312
X10.2188Y-2.5625
T2
X1.95Y-1.8875
X1.95Y-1.9875
X1.95Y-2.0875
X1.95Y-2.1875
X1.95Y-2.2875
X1.95Y-2.3875
X1.95Y-2.4875
X1.95Y-2.5875
X1.95Y-2.6875
X1.95Y-2.7875
X1.95Y-2.8875
X1.95Y-2.9875
X2.05Y-2.2875
X2.05Y-2.9875
X2.15Y-2.9875
X2.25Y-2.9875
X2.35Y-2.9875
X2.45Y-2.2875
X2.45Y-2.9875
X2.55Y-1.8875
X2.55Y-1.9875
X2.55Y-2.0875
X2.55Y-2.1875
X2.55Y-2.2875
X2.55Y-2.3875
X2.55Y-2.4875
X2.55Y-2.5875
X2.55Y-2.6875
X2.55Y-2.7875
X2.55Y-2.8875
X2.55Y-2.9875
T3
X7.4437Y-4.4625
X7.4953Y-4.405
X7.6922Y-4.3853
X7.6937Y-4.3625
X8.1937Y-4.4625
X8.2453Y-4.405
X8.4422Y-4.3853
X8.4437Y-4.3625
X5.9437Y-4.4625
X5.9953Y-4.405
X6.1922Y-4.3853
X6.1937Y-4.3625
X7.6312Y-2.9625
X7.6828Y-2.905
X7.8797Y-2.8853
X7.8812Y-2.8625
X5.3812Y-2.9625
X5.4328Y-2.905
X5.6297Y-2.8853
X5.6312Y-2.8625
X4.8187Y-3.7125
X4.8703Y-3.655
X5.0672Y-3.6353
X5.0687Y-3.6125
X1.2562Y-2.2125
X1.3078Y-2.155
X1.5047Y-2.1353
X1.5062Y-2.1125
X6.5062Y-2.2125
X6.5578Y-2.155
X6.7547Y-2.1353
X6.7562Y-2.1125
X11.5687Y-3.7125
X11.6203Y-3.655
X11.8172Y-3.6353
X11.8187Y-3.6125
X4.8187Y-5.2125
X4.8703Y-5.155
X5.0672Y-5.1353
X5.0687Y-5.1125
X1.2562Y-5.2125
X1.3078Y-5.155
X1.5047Y-5.1353
X1.5062Y-5.1125
X11.1937Y-4.4625
X11.2453Y-4.405
X11.4422Y-4.3853
X11.4437Y-4.3625
X9.8812Y-2.9625
X9.9328Y-2.905
X10.1297Y-2.8853
X10.1312Y-2.8625
X3.0375Y-3.7125
X3.0891Y-3.655
X3.2859Y-3.6353
X3.2875Y-3.6125
X8.5687Y-3.7125
X8.6203Y-3.655
X8.8172Y-3.6353
X8.8187Y-3.6125
X1.2562Y-3.7125
X1.3078Y-3.655
X1.5047Y-3.6353
X1.5062Y-3.6125
X6.8812Y-2.9625
X6.9328Y-2.905
X7.1297Y-2.8853
X7.1312Y-2.8625
X8.9437Y-4.4625
X8.9953Y-4.405
X9.1922Y-4.3853
X9.1937Y-4.3625
X8.7562Y-2.2125
X8.8078Y-2.155
X9.0047Y-2.1353
X9.0062Y-2.1125
X5.5687Y-3.7125
X5.6203Y-3.655
X5.8172Y-3.6353
X5.8187Y-3.6125
X6.1312Y-2.9625
X6.1828Y-2.905
X6.3797Y-2.8853
X6.3812Y-2.8625
X2.7563Y-2.2125
X2.8078Y-2.155
X3.0047Y-2.1353
X3.0063Y-2.1125
X13.0687Y-2.9625
X13.1203Y-2.905
X13.3172Y-2.8853
X13.3187Y-2.8625
X3.225Y-4.4625
X3.2766Y-4.405
X3.4734Y-4.3853
X3.475Y-4.3625
X9.6937Y-4.4625
X9.7453Y-4.405
X9.9422Y-4.3853
X9.9437Y-4.3625
X4.4437Y-4.4625
X4.4953Y-4.405
X4.6922Y-4.3853
X4.6937Y-4.3625
X12.7875Y-3.7125
X12.8391Y-3.655
X13.0359Y-3.6353
X13.0375Y-3.6125
X3.5063Y-2.2125
X3.5578Y-2.155
X3.7547Y-2.1353
X3.7563Y-2.1125
X6.6937Y-4.4625
X6.7453Y-4.405
X6.9422Y-4.3853
X6.9437Y-4.3625
X1.2562Y-2.9625
X1.3078Y-2.905
X1.5047Y-2.8853
X1.5062Y-2.8625
X7.2562Y-2.2125
X7.3078Y-2.155
X7.5047Y-2.1353
X7.5062Y-2.1125
X8.3812Y-2.9625
X8.4328Y-2.905
X8.6297Y-2.8853
X8.6312Y-2.8625
X7.8187Y-3.7125
X7.8703Y-3.655
X8.0672Y-3.6353
X8.0687Y-3.6125
X5.0062Y-2.2125
X5.0578Y-2.155
X5.2547Y-2.1353
X5.2562Y-2.1125
X11.3812Y-2.9625
X11.4328Y-2.905
X11.6297Y-2.8853
X11.6312Y-2.8625
X9.3187Y-3.7125
X9.3703Y-3.655
X9.5672Y-3.6353
X9.5687Y-3.6125
X10.0687Y-3.7125
X10.1203Y-3.655
X10.3172Y-3.6353
X10.3187Y-3.6125
X10.2562Y-2.2125
X10.3078Y-2.155
X10.5047Y-2.1353
X10.5062Y-2.1125
X9.5062Y-2.2125
X9.5578Y-2.155
X9.7547Y-2.1353
X9.7562Y-2.1125
X11.0062Y-2.2125
X11.0578Y-2.155
X11.2547Y-2.1353
X11.2562Y-2.1125
X3.8813Y-2.9625
X3.9328Y-2.905
X4.1297Y-2.8853
X4.1312Y-2.8625
X8.0062Y-5.2125
X8.0578Y-5.155
X8.2547Y-5.1353
X8.2562Y-5.1125
X3.8813Y-5.2125
X3.9328Y-5.155
X4.1297Y-5.1353
X4.1312Y-5.1125
X4.0687Y-3.7125
X4.1203Y-3.655
X4.3172Y-3.6353
X4.3187Y-3.6125
X12.5062Y-2.2125
X12.5578Y-2.155
X12.7547Y-2.1353
X12.7562Y-2.1125
X10.4437Y-4.4625
X10.4953Y-4.405
X10.6922Y-4.3853
X10.6937Y-4.3625
X10.6312Y-2.9625
X10.6828Y-2.905
X10.8797Y-2.8853
X10.8812Y-2.8625
X11.7562Y-2.2125
X11.8078Y-2.155
X12.0047Y-2.1353
X12.0062Y-2.1125
X4.6312Y-2.9625
X4.6828Y-2.905
X4.8797Y-2.8853
X4.8812Y-2.8625
X1.2562Y-4.4625
X1.3078Y-4.405
X1.5047Y-4.3853
X1.5062Y-4.3625
X8.0062Y-2.2125
X8.0578Y-2.155
X8.2547Y-2.1353
X8.2562Y-2.1125
X11.1937Y-5.2125
X11.2453Y-5.155
X11.4422Y-5.1353
X11.4437Y-5.1125
X9.1312Y-2.9625
X9.1828Y-2.905
X9.3797Y-2.8853
X9.3812Y-2.8625
X10.8187Y-3.7125
X10.8703Y-3.655
X11.0672Y-3.6353
X11.0687Y-3.6125
X13.2562Y-2.2125
X13.3078Y-2.155
X13.5047Y-2.1353
X13.5062Y-2.1125
X7.0687Y-3.7125
X7.1203Y-3.655
X7.3172Y-3.6353
X7.3187Y-3.6125
X2.9438Y-2.9625
X2.9953Y-2.905
X3.1922Y-2.8853
X3.1938Y-2.8625
X12.225Y-4.4625
X12.2766Y-4.405
X12.4734Y-4.3853
X12.475Y-4.3625
X6.3187Y-3.7125
X6.3703Y-3.655
X6.5672Y-3.6353
X6.5687Y-3.6125
X12.1312Y-5.2125
X12.1828Y-5.155
X12.3797Y-5.1353
X12.3812Y-5.1125
X4.2562Y-2.2125
X4.3078Y-2.155
X4.5047Y-2.1353
X4.5062Y-2.1125
X5.7562Y-2.2125
X5.8078Y-2.155
X6.0047Y-2.1353
X6.0062Y-2.1125
X13.2562Y-4.4625
X13.3078Y-4.405
X13.5047Y-4.3853
X13.5062Y-4.3625
X12.1312Y-2.9625
X12.1828Y-2.905
X12.3797Y-2.8853
X12.3812Y-2.8625
X5.1937Y-4.4625
X5.2453Y-4.405
X5.4422Y-4.3853
X5.4437Y-4.3625
T0
M30
